<svg width="47" height="48" viewBox="0 0 47 48" fill="none" xmlns="http://www.w3.org/2000/svg">
<rect x="0.5" y="0.078125" width="46" height="47" rx="8" fill="url(#paint0_linear_10_1156)"/>
<path d="M28.4071 18.1724H19.5927C18.8019 18.1732 18.1613 18.8141 18.1604 19.6047V28.419C18.1613 29.2097 18.8019 29.8505 19.5927 29.8514H28.4071C29.1977 29.8505 29.8385 29.2097 29.8394 28.419V19.6047C29.8385 18.8141 29.1977 18.1732 28.4071 18.1724ZM29.1783 28.419C29.1777 28.8447 28.8327 29.1899 28.4071 29.1903H19.5927C19.1669 29.1899 18.8219 28.8447 18.8215 28.419V19.6047C18.8219 19.1788 19.1669 18.8339 19.5927 18.8334H28.4071C28.8327 18.8339 29.1779 19.1788 29.1783 19.6047V28.419Z" fill="white"/>
<path d="M29.5095 16.5171H18.4915C17.3966 16.5184 16.5094 17.4054 16.5083 18.5003V29.5182C16.5094 30.6129 17.3966 31.5002 18.4915 31.5015H29.5095C30.6041 31.5002 31.4914 30.6129 31.4927 29.5182V18.5003C31.4914 17.4054 30.6041 16.5184 29.5095 16.5171ZM30.8316 29.5182C30.8307 30.2482 30.2392 30.8395 29.5095 30.8404H18.4915C17.7616 30.8395 17.1702 30.2482 17.1694 29.5182V18.5003C17.17 17.7704 17.7616 17.179 18.4915 17.1782H29.5095C30.2392 17.179 30.8307 17.7704 30.8316 18.5003V29.5182Z" fill="white"/>
<path d="M25.191 32.5853C25.0083 32.5853 24.8605 32.7334 24.8605 32.9159V35.6703C24.8605 35.853 25.0083 36.0009 25.191 36.0009C25.3735 36.0009 25.5215 35.853 25.5215 35.6703V32.9159C25.5215 32.7334 25.3735 32.5853 25.191 32.5853Z" fill="white"/>
<path d="M22.8097 32.5853C22.627 32.5853 22.4791 32.7334 22.4791 32.9159V35.6703C22.4791 35.853 22.627 36.0009 22.8097 36.0009C22.9921 36.0009 23.1402 35.853 23.1402 35.6703V32.9159C23.1402 32.7334 22.9921 32.5853 22.8097 32.5853Z" fill="white"/>
<path d="M20.4284 32.5853C20.246 32.5853 20.0979 32.7334 20.0979 32.9159V35.6703C20.0979 35.853 20.246 36.0009 20.4284 36.0009C20.6109 36.0009 20.759 35.853 20.759 35.6703V32.9159C20.759 32.7334 20.6109 32.5853 20.4284 32.5853Z" fill="white"/>
<path d="M27.5722 32.5853C27.3895 32.5853 27.2417 32.7334 27.2417 32.9159V35.6703C27.2417 35.853 27.3895 36.0009 27.5722 36.0009C27.7547 36.0009 27.9028 35.853 27.9028 35.6703V32.9159C27.9028 32.7334 27.7547 32.5853 27.5722 32.5853Z" fill="white"/>
<path d="M23.1402 15.086V12.3315C23.1402 12.149 22.9921 12.001 22.8097 12.001C22.627 12.001 22.4791 12.149 22.4791 12.3315V15.086C22.4791 15.2685 22.627 15.4165 22.8097 15.4165C22.9921 15.4165 23.1402 15.2685 23.1402 15.086Z" fill="white"/>
<path d="M25.5215 15.086V12.3315C25.5215 12.149 25.3735 12.001 25.191 12.001C25.0083 12.001 24.8605 12.149 24.8605 12.3315V15.086C24.8605 15.2685 25.0083 15.4165 25.191 15.4165C25.3735 15.4165 25.5215 15.2685 25.5215 15.086Z" fill="white"/>
<path d="M27.9028 15.086V12.3315C27.9028 12.149 27.7547 12.001 27.5722 12.001C27.3895 12.001 27.2417 12.149 27.2417 12.3315V15.086C27.2417 15.2685 27.3895 15.4165 27.5722 15.4165C27.7547 15.4165 27.9028 15.2685 27.9028 15.086Z" fill="white"/>
<path d="M20.759 15.086V12.3315C20.759 12.149 20.6109 12.001 20.4284 12.001C20.246 12.001 20.0979 12.149 20.0979 12.3315V15.086C20.0979 15.2685 20.246 15.4165 20.4284 15.4165C20.6109 15.4165 20.759 15.2685 20.759 15.086Z" fill="white"/>
<path d="M35.6705 22.4791H32.916C32.7335 22.4791 32.5854 22.627 32.5854 22.8097C32.5854 22.9921 32.7335 23.1402 32.916 23.1402H35.6705C35.8532 23.1402 36.001 22.9921 36.001 22.8097C36.001 22.627 35.8532 22.4791 35.6705 22.4791Z" fill="white"/>
<path d="M35.6705 24.8604H32.916C32.7335 24.8604 32.5854 25.0082 32.5854 25.1909C32.5854 25.3734 32.7335 25.5214 32.916 25.5214H35.6705C35.8532 25.5214 36.001 25.3734 36.001 25.1909C36.001 25.0082 35.8532 24.8604 35.6705 24.8604Z" fill="white"/>
<path d="M35.6705 27.2416H32.916C32.7335 27.2416 32.5854 27.3894 32.5854 27.5721C32.5854 27.7546 32.7335 27.9027 32.916 27.9027H35.6705C35.8532 27.9027 36.001 27.7546 36.001 27.5721C36.001 27.3894 35.8532 27.2416 35.6705 27.2416Z" fill="white"/>
<path d="M35.6705 20.0984H32.916C32.7335 20.0984 32.5854 20.2464 32.5854 20.4289C32.5854 20.6114 32.7335 20.7595 32.916 20.7595H35.6705C35.8532 20.7595 36.001 20.6114 36.001 20.4289C36.001 20.2464 35.8532 20.0984 35.6705 20.0984Z" fill="white"/>
<path d="M15.085 24.8604H12.3305C12.1481 24.8604 12 25.0082 12 25.1909C12 25.3734 12.1481 25.5214 12.3305 25.5214H15.085C15.2675 25.5214 15.4156 25.3734 15.4156 25.1909C15.4156 25.0082 15.2675 24.8604 15.085 24.8604Z" fill="white"/>
<path d="M15.085 22.4791H12.3305C12.1481 22.4791 12 22.627 12 22.8097C12 22.9921 12.1481 23.1402 12.3305 23.1402H15.085C15.2675 23.1402 15.4156 22.9921 15.4156 22.8097C15.4156 22.627 15.2675 22.4791 15.085 22.4791Z" fill="white"/>
<path d="M15.085 20.0984H12.3305C12.1481 20.0984 12 20.2464 12 20.4289C12 20.6114 12.1481 20.7595 12.3305 20.7595H15.085C15.2675 20.7595 15.4156 20.6114 15.4156 20.4289C15.4156 20.2464 15.2675 20.0984 15.085 20.0984Z" fill="white"/>
<path d="M15.085 27.2416H12.3305C12.1481 27.2416 12 27.3894 12 27.5721C12 27.7546 12.1481 27.9027 12.3305 27.9027H15.085C15.2675 27.9027 15.4156 27.7546 15.4156 27.5721C15.4156 27.3894 15.2675 27.2416 15.085 27.2416Z" fill="white"/>
<defs>
<linearGradient id="paint0_linear_10_1156" x1="0.5" y1="24.2133" x2="46.5" y2="24.2133" gradientUnits="userSpaceOnUse">
<stop stop-color="#00469F"/>
<stop offset="1" stop-color="#1E79D6"/>
</linearGradient>
</defs>
</svg>
