<svg width="47" height="48" viewBox="0 0 47 48" fill="none" xmlns="http://www.w3.org/2000/svg">
<rect x="0.5" y="0.078125" width="46" height="47" rx="8" fill="url(#paint0_linear_10_1146)"/>
<path d="M16.7619 20.3346H11.9603C11.4299 20.3346 11 20.8036 11 21.3822V26.6203C11 27.1989 11.4299 27.6679 11.9603 27.6679H16.7619C17.2923 27.6679 17.7222 27.1989 17.7222 26.6203V21.3822C17.7222 20.8036 17.2923 20.3346 16.7619 20.3346Z" stroke="white" stroke-width="2" stroke-linecap="round" stroke-linejoin="round"/>
<path d="M35.0611 13.001H29.1028C28.5543 13.001 28.1097 13.4456 28.1097 13.994V19.9524C28.1097 20.5008 28.5543 20.9454 29.1028 20.9454H35.0611C35.6096 20.9454 36.0542 20.5008 36.0542 19.9524V13.994C36.0542 13.4456 35.6096 13.001 35.0611 13.001Z" stroke="white" stroke-width="2" stroke-linecap="round" stroke-linejoin="round"/>
<path d="M35.0611 27.0563H29.1028C28.5543 27.0563 28.1097 27.5009 28.1097 28.0493V34.0077C28.1097 34.5561 28.5543 35.0007 29.1028 35.0007H35.0611C35.6096 35.0007 36.0542 34.5561 36.0542 34.0077V28.0493C36.0542 27.5009 35.6096 27.0563 35.0611 27.0563Z" stroke="white" stroke-width="2" stroke-linecap="round" stroke-linejoin="round"/>
<path d="M17.7208 24.001H23.2208" stroke="white" stroke-width="2" stroke-linecap="round" stroke-linejoin="round"/>
<path d="M28.1102 30.7229H26.1547C25.769 30.7245 25.3868 30.651 25.0302 30.5068C24.6736 30.3626 24.3496 30.1504 24.0769 29.8826C23.8042 29.6148 23.5882 29.2965 23.4413 28.9463C23.2945 28.596 23.2197 28.2207 23.2213 27.8419V20.1594C23.2197 19.7806 23.2945 19.4053 23.4413 19.055C23.5882 18.7048 23.8042 18.3866 24.0769 18.1187C24.3496 17.8509 24.6736 17.6387 25.0302 17.4945C25.3868 17.3503 25.769 17.2769 26.1547 17.2785H28.1102" stroke="white" stroke-width="2" stroke-linecap="round" stroke-linejoin="round"/>
<defs>
<linearGradient id="paint0_linear_10_1146" x1="0.5" y1="24.2133" x2="46.5" y2="24.2133" gradientUnits="userSpaceOnUse">
<stop stop-color="#00469F"/>
<stop offset="1" stop-color="#1E79D6"/>
</linearGradient>
</defs>
</svg>
