<svg width="70" height="70" viewBox="0 0 70 70" fill="none" xmlns="http://www.w3.org/2000/svg">
<path d="M61.7073 17.5118C60.8561 17.511 60.0099 17.6412 59.1984 17.8978C59.2754 17.2862 59.3143 16.6703 59.3151 16.0539C59.1636 7.03779 51.731 -0.148506 42.7137 0.00296139C36.1338 0.113464 30.2631 4.16269 27.8229 10.274C23.1037 7.34802 16.9059 8.80146 13.9797 13.5201C13.0271 15.0562 12.5063 16.8207 12.4722 18.6279C11.2017 17.8944 9.76007 17.5093 8.29306 17.5118C3.78384 17.5118 0.128418 21.1668 0.128418 25.6755C0.128418 30.1842 3.78384 33.8393 8.29306 33.8393C8.93719 33.8393 9.45943 33.3171 9.45943 32.673C9.45943 32.029 8.93719 31.5068 8.29306 31.5068C5.07255 31.4544 2.50433 28.8017 2.55667 25.5815C2.60901 22.3613 5.26208 19.7934 8.48259 19.8457C10.443 19.8776 12.2561 20.8923 13.3085 22.5463C13.6613 23.0853 14.3842 23.2362 14.9232 22.8835C15.389 22.5787 15.5745 21.9872 15.366 21.471C14.9987 20.5853 14.807 19.6367 14.8014 18.6779C14.8482 14.4514 18.3076 11.0603 22.5345 11.0972C24.4179 11.1047 26.2349 11.7941 27.6491 13.0379C28.1346 13.4612 28.8715 13.4108 29.2947 12.9253C29.4094 12.7938 29.4931 12.6381 29.5398 12.4699C31.674 5.04438 39.4243 0.754757 46.8504 2.88871C52.7468 4.58298 56.8514 9.92062 56.9741 16.0538C56.9692 17.2763 56.7985 18.4926 56.4668 19.6692C56.2943 20.2898 56.6575 20.9327 57.2781 21.1051C57.6139 21.1984 57.9739 21.1368 58.2595 20.9369C59.2684 20.2255 60.4728 19.8438 61.7073 19.8441C64.9281 19.8441 67.5392 22.4549 67.5392 25.6754C67.5392 28.8958 64.9281 31.5066 61.7073 31.5066C61.0632 31.5066 60.5409 32.0288 60.5409 32.6729C60.5409 33.3169 61.0632 33.8391 61.7073 33.8391C66.2165 33.8391 69.8719 30.1841 69.8719 25.6754C69.8719 21.1668 66.2165 17.5118 61.7073 17.5118Z" fill="url(#paint0_linear_23_118)"/>
<path d="M54.8234 44.3397H15.1666C13.2341 44.3397 11.6675 45.9061 11.6675 47.8385V52.5035C11.6675 54.4358 13.2341 56.0022 15.1666 56.0022H54.8234C56.756 56.0022 58.3226 54.4358 58.3226 52.5035V47.8385C58.3226 45.9061 56.756 44.3397 54.8234 44.3397ZM55.9898 52.5035C55.9898 53.1475 55.4676 53.6697 54.8234 53.6697H15.1666C14.5225 53.6697 14.0002 53.1475 14.0002 52.5035V47.8385C14.0002 47.1944 14.5225 46.6722 15.1666 46.6722H54.8234C55.4676 46.6722 55.9898 47.1944 55.9898 47.8385V52.5035Z" fill="url(#paint1_linear_23_118)"/>
<path d="M51.5897 47.9096C50.3468 47.9173 49.3433 48.927 49.3433 50.1699C49.3491 51.4214 50.3662 52.4322 51.6177 52.4303C52.8662 52.4226 53.8719 51.4043 53.8641 50.1559C53.8564 48.9076 52.8382 47.9019 51.5897 47.9096ZM51.6177 50.2435C51.5827 50.2435 51.5594 50.205 51.5594 50.17L51.6177 50.0977V50.2435Z" fill="url(#paint2_linear_23_118)"/>
<path d="M39.4286 49.0034H17.2675C16.6233 49.0034 16.1011 49.5257 16.1011 50.1698C16.1011 50.8139 16.6233 51.3362 17.2675 51.3362H39.4286C40.0728 51.3362 40.595 50.8139 40.595 50.1698C40.595 49.5257 40.0729 49.0034 39.4286 49.0034Z" fill="url(#paint3_linear_23_118)"/>
<path d="M46.6317 49.0034H43.5292C42.885 49.0034 42.3628 49.5257 42.3628 50.1698C42.3628 50.8139 42.885 51.3362 43.5292 51.3362H46.6317C47.2759 51.3362 47.7981 50.8139 47.7981 50.1698C47.7981 49.5257 47.276 49.0034 46.6317 49.0034Z" fill="url(#paint4_linear_23_118)"/>
<path d="M54.8234 58.3381H15.1666C13.2341 58.3381 11.6675 59.9046 11.6675 61.8369V66.5019C11.6675 68.4342 13.2341 70.0007 15.1666 70.0007H54.8234C56.756 70.0007 58.3226 68.4342 58.3226 66.5019V61.8369C58.3226 59.9046 56.756 58.3381 54.8234 58.3381ZM55.9898 66.5019C55.9898 67.146 55.4676 67.6681 54.8234 67.6681H15.1666C14.5225 67.6681 14.0002 67.146 14.0002 66.5019V61.8369C14.0002 61.1928 14.5225 60.6706 15.1666 60.6706H54.8234C55.4676 60.6706 55.9898 61.1928 55.9898 61.8369V66.5019Z" fill="url(#paint5_linear_23_118)"/>
<path d="M51.5897 61.9002C50.3468 61.9079 49.3433 62.9176 49.3433 64.1605C49.3491 65.412 50.3662 66.4228 51.6177 66.4209C52.8662 66.4132 53.8719 65.395 53.8641 64.1465C53.8564 62.8982 52.8382 61.8925 51.5897 61.9002ZM51.6177 64.2341C51.5827 64.2341 51.5594 64.1956 51.5594 64.1606L51.6177 64.0883V64.2341Z" fill="url(#paint6_linear_23_118)"/>
<path d="M39.4286 62.9939H17.2675C16.6233 62.9939 16.1011 63.5161 16.1011 64.1603C16.1011 64.8044 16.6233 65.3267 17.2675 65.3267H39.4286C40.0728 65.3267 40.595 64.8044 40.595 64.1603C40.595 63.5161 40.0729 62.9939 39.4286 62.9939Z" fill="url(#paint7_linear_23_118)"/>
<path d="M46.6317 62.9939H43.5292C42.885 62.9939 42.3628 63.5161 42.3628 64.1603C42.3628 64.8044 42.885 65.3267 43.5292 65.3267H46.6317C47.2759 65.3267 47.7981 64.8044 47.7981 64.1603C47.7981 63.5161 47.276 62.9939 46.6317 62.9939Z" fill="url(#paint8_linear_23_118)"/>
<path d="M54.8254 30.3411H15.1686C13.236 30.3411 11.6694 31.9075 11.6694 33.8398V38.5048C11.6694 40.4372 13.236 42.0036 15.1686 42.0036H54.8254C56.7579 42.0036 58.3245 40.4372 58.3245 38.5048V33.8398C58.3245 31.9075 56.7579 30.3411 54.8254 30.3411ZM55.9918 38.5048C55.9918 39.1489 55.4695 39.6711 54.8254 39.6711H15.1686C14.5244 39.6711 14.0022 39.1489 14.0022 38.5048V33.8398C14.0022 33.1958 14.5244 32.6736 15.1686 32.6736H54.8254C55.4695 32.6736 55.9918 33.1958 55.9918 33.8398V38.5048Z" fill="url(#paint9_linear_23_118)"/>
<path d="M53.4992 35.851C53.2744 34.6119 52.0877 33.7896 50.8486 34.0144C50.2615 34.1209 49.7395 34.4533 49.3947 34.9401C49.0484 35.4288 48.9131 36.0361 49.0191 36.6255C49.2154 37.7113 50.16 38.5012 51.2632 38.5022C51.3907 38.5021 51.5178 38.4916 51.6435 38.4707C52.2424 38.3719 52.7762 38.0354 53.1236 37.5376C53.4711 37.0489 53.6065 36.4408 53.4992 35.851ZM51.2038 36.2616L51.2562 36.1695L51.2621 36.3153C51.2096 36.3153 51.2061 36.2861 51.2038 36.2616Z" fill="url(#paint10_linear_23_118)"/>
<path d="M39.1942 35.0046H17.0331C16.3889 35.0046 15.8667 35.5269 15.8667 36.171C15.8667 36.8151 16.3889 37.3374 17.0331 37.3374H39.1942C39.8384 37.3374 40.3606 36.8151 40.3606 36.171C40.3606 35.5269 39.8385 35.0046 39.1942 35.0046Z" fill="url(#paint11_linear_23_118)"/>
<path d="M45.8856 35.0046H42.7831C42.1389 35.0046 41.6167 35.5269 41.6167 36.171C41.6167 36.8151 42.1389 37.3374 42.7831 37.3374H45.8856C46.5298 37.3374 47.052 36.8151 47.052 36.171C47.052 35.5269 46.5299 35.0046 45.8856 35.0046Z" fill="url(#paint12_linear_23_118)"/>
<path d="M29.99 19.0228L26.4909 15.5241C26.0354 15.0688 25.2971 15.0688 24.8416 15.5241L21.3425 19.0228C20.895 19.4861 20.9079 20.2245 21.3712 20.6719C21.8232 21.1084 22.5398 21.1084 22.9918 20.6719L24.4999 19.1639V26.8449C24.4999 27.4889 25.0221 28.0111 25.6663 28.0111C26.3104 28.0111 26.8326 27.4889 26.8326 26.8449V19.1639L28.3408 20.6719C28.8041 21.1193 29.5426 21.1065 29.99 20.6432C30.4265 20.1913 30.4265 19.4748 29.99 19.0228Z" fill="url(#paint13_linear_23_118)"/>
<path d="M48.6255 22.5218C48.1736 22.0854 47.457 22.0854 47.0048 22.5218L45.4967 24.0298V16.3489C45.4967 15.7048 44.9745 15.1826 44.3303 15.1826C43.6862 15.1826 43.164 15.7048 43.164 16.3489V24.0298L41.6558 22.5218C41.1925 22.0743 40.4542 22.0871 40.0066 22.5504C39.5701 23.0023 39.5701 23.7189 40.0066 24.1709L43.5057 27.6697C43.9612 28.1249 44.6995 28.1249 45.155 27.6697L48.6541 24.1709C49.1017 23.7076 49.0889 22.9692 48.6255 22.5218Z" fill="url(#paint14_linear_23_118)"/>
<defs>
<linearGradient id="paint0_linear_23_118" x1="0.128418" y1="17.3772" x2="69.8719" y2="17.3772" gradientUnits="userSpaceOnUse">
<stop stop-color="#00469F"/>
<stop offset="1" stop-color="#1E79D6"/>
</linearGradient>
<linearGradient id="paint1_linear_23_118" x1="11.6675" y1="50.3286" x2="58.3226" y2="50.3286" gradientUnits="userSpaceOnUse">
<stop stop-color="#00469F"/>
<stop offset="1" stop-color="#1E79D6"/>
</linearGradient>
<linearGradient id="paint2_linear_23_118" x1="49.3433" y1="50.231" x2="53.8642" y2="50.231" gradientUnits="userSpaceOnUse">
<stop stop-color="#00469F"/>
<stop offset="1" stop-color="#1E79D6"/>
</linearGradient>
<linearGradient id="paint3_linear_23_118" x1="16.1011" y1="50.2013" x2="40.595" y2="50.2013" gradientUnits="userSpaceOnUse">
<stop stop-color="#00469F"/>
<stop offset="1" stop-color="#1E79D6"/>
</linearGradient>
<linearGradient id="paint4_linear_23_118" x1="42.3628" y1="50.2013" x2="47.7981" y2="50.2013" gradientUnits="userSpaceOnUse">
<stop stop-color="#00469F"/>
<stop offset="1" stop-color="#1E79D6"/>
</linearGradient>
<linearGradient id="paint5_linear_23_118" x1="11.6675" y1="64.327" x2="58.3226" y2="64.327" gradientUnits="userSpaceOnUse">
<stop stop-color="#00469F"/>
<stop offset="1" stop-color="#1E79D6"/>
</linearGradient>
<linearGradient id="paint6_linear_23_118" x1="49.3433" y1="64.2216" x2="53.8642" y2="64.2216" gradientUnits="userSpaceOnUse">
<stop stop-color="#00469F"/>
<stop offset="1" stop-color="#1E79D6"/>
</linearGradient>
<linearGradient id="paint7_linear_23_118" x1="16.1011" y1="64.1918" x2="40.595" y2="64.1918" gradientUnits="userSpaceOnUse">
<stop stop-color="#00469F"/>
<stop offset="1" stop-color="#1E79D6"/>
</linearGradient>
<linearGradient id="paint8_linear_23_118" x1="42.3628" y1="64.1918" x2="47.7981" y2="64.1918" gradientUnits="userSpaceOnUse">
<stop stop-color="#00469F"/>
<stop offset="1" stop-color="#1E79D6"/>
</linearGradient>
<linearGradient id="paint9_linear_23_118" x1="11.6694" y1="36.3299" x2="58.3245" y2="36.3299" gradientUnits="userSpaceOnUse">
<stop stop-color="#00469F"/>
<stop offset="1" stop-color="#1E79D6"/>
</linearGradient>
<linearGradient id="paint10_linear_23_118" x1="48.9839" y1="36.301" x2="53.5351" y2="36.301" gradientUnits="userSpaceOnUse">
<stop stop-color="#00469F"/>
<stop offset="1" stop-color="#1E79D6"/>
</linearGradient>
<linearGradient id="paint11_linear_23_118" x1="15.8667" y1="36.2025" x2="40.3606" y2="36.2025" gradientUnits="userSpaceOnUse">
<stop stop-color="#00469F"/>
<stop offset="1" stop-color="#1E79D6"/>
</linearGradient>
<linearGradient id="paint12_linear_23_118" x1="41.6167" y1="36.2025" x2="47.052" y2="36.2025" gradientUnits="userSpaceOnUse">
<stop stop-color="#00469F"/>
<stop offset="1" stop-color="#1E79D6"/>
</linearGradient>
<linearGradient id="paint13_linear_23_118" x1="21.0151" y1="21.7702" x2="30.3174" y2="21.7702" gradientUnits="userSpaceOnUse">
<stop stop-color="#00469F"/>
<stop offset="1" stop-color="#1E79D6"/>
</linearGradient>
<linearGradient id="paint14_linear_23_118" x1="39.6792" y1="21.7702" x2="48.9816" y2="21.7702" gradientUnits="userSpaceOnUse">
<stop stop-color="#00469F"/>
<stop offset="1" stop-color="#1E79D6"/>
</linearGradient>
</defs>
</svg>
