<svg width="50" height="71" viewBox="0 0 50 71" fill="none" xmlns="http://www.w3.org/2000/svg">
<path d="M26.1758 46.9022V58.3776" stroke="url(#paint0_linear_23_101)"/>
<path d="M20.3008 45.7548V54.6564C20.3008 55.761 19.4054 56.6564 18.3008 56.6564H17.6008C16.4962 56.6564 15.6008 57.5518 15.6008 58.6564V67.558" stroke="url(#paint1_linear_23_101)"/>
<path d="M32.0508 45.7548V54.6564C32.0508 55.761 32.9462 56.6564 34.0508 56.6564H34.7508C35.8553 56.6564 36.7508 57.5518 36.7508 58.6564V67.558" stroke="url(#paint2_linear_23_101)"/>
<path d="M16.7754 44.6071V48.9185C16.7754 50.0231 15.88 50.9185 14.7754 50.9185H10.5504C9.44582 50.9185 8.55039 51.814 8.55039 52.9185V58.3775" stroke="url(#paint3_linear_23_101)"/>
<path d="M35.5742 44.6071V48.9185C35.5742 50.0231 36.4696 50.9185 37.5742 50.9185H41.7992C42.9038 50.9185 43.7992 51.814 43.7992 52.9185V58.3775" stroke="url(#paint4_linear_23_101)"/>
<path d="M10.3992 59.5252C10.3992 60.5055 9.58216 61.3203 8.54922 61.3203C7.51628 61.3203 6.69922 60.5055 6.69922 59.5252C6.69922 58.5449 7.51628 57.7301 8.54922 57.7301C9.58216 57.7301 10.3992 58.5449 10.3992 59.5252Z" stroke="url(#paint5_linear_23_101)"/>
<path d="M17.45 68.7056C17.45 69.6859 16.6329 70.5007 15.6 70.5007C14.5671 70.5007 13.75 69.6859 13.75 68.7056C13.75 67.7253 14.5671 66.9105 15.6 66.9105C16.6329 66.9105 17.45 67.7253 17.45 68.7056Z" stroke="url(#paint6_linear_23_101)"/>
<path d="M28.0242 59.5252C28.0242 60.5055 27.2072 61.3203 26.1742 61.3203C25.1413 61.3203 24.3242 60.5055 24.3242 59.5252C24.3242 58.5449 25.1413 57.7301 26.1742 57.7301C27.2072 57.7301 28.0242 58.5449 28.0242 59.5252Z" stroke="url(#paint7_linear_23_101)"/>
<path d="M38.6004 68.7056C38.6004 69.6859 37.7833 70.5007 36.7504 70.5007C35.7175 70.5007 34.9004 69.6859 34.9004 68.7056C34.9004 67.7253 35.7175 66.9105 36.7504 66.9105C37.7833 66.9105 38.6004 67.7253 38.6004 68.7056Z" stroke="url(#paint8_linear_23_101)"/>
<path d="M45.6492 59.5252C45.6492 60.5055 44.8322 61.3203 43.7992 61.3203C42.7663 61.3203 41.9492 60.5055 41.9492 59.5252C41.9492 58.5449 42.7663 57.7301 43.7992 57.7301C44.8322 57.7301 45.6492 58.5449 45.6492 59.5252Z" stroke="url(#paint9_linear_23_101)"/>
<path d="M25 46.9022C37.9787 46.9022 48.5 36.6268 48.5 23.9514C48.5 11.276 37.9787 1.00061 25 1.00061C12.0213 1.00061 1.5 11.276 1.5 23.9514C1.5 36.6268 12.0213 46.9022 25 46.9022Z" stroke="url(#paint10_linear_23_101)" stroke-width="2" stroke-miterlimit="10"/>
<path d="M3.84961 15.9186H46.7371" stroke="url(#paint11_linear_23_101)" stroke-width="2" stroke-linecap="round" stroke-linejoin="round"/>
<path d="M3.84961 31.9843L46.1496 31.9843" stroke="url(#paint12_linear_23_101)" stroke-width="2" stroke-linecap="round" stroke-linejoin="round"/>
<path d="M25.5871 45.7546C31.1031 45.7546 35.5746 35.993 35.5746 23.9514C35.5746 11.9097 31.1031 2.14807 25.5871 2.14807C20.0712 2.14807 15.5996 11.9097 15.5996 23.9514C15.5996 35.993 20.0712 45.7546 25.5871 45.7546Z" stroke="url(#paint13_linear_23_101)" stroke-width="2" stroke-miterlimit="10"/>
<defs>
<linearGradient id="paint0_linear_23_101" x1="26.1758" y1="52.795" x2="27.1758" y2="52.795" gradientUnits="userSpaceOnUse">
<stop stop-color="#00469F"/>
<stop offset="1" stop-color="#1E79D6"/>
</linearGradient>
<linearGradient id="paint1_linear_23_101" x1="20.3008" y1="56.951" x2="15.6008" y2="56.951" gradientUnits="userSpaceOnUse">
<stop stop-color="#00469F"/>
<stop offset="1" stop-color="#1E79D6"/>
</linearGradient>
<linearGradient id="paint2_linear_23_101" x1="32.0508" y1="56.951" x2="36.7508" y2="56.951" gradientUnits="userSpaceOnUse">
<stop stop-color="#00469F"/>
<stop offset="1" stop-color="#1E79D6"/>
</linearGradient>
<linearGradient id="paint3_linear_23_101" x1="16.7754" y1="51.6784" x2="8.55039" y2="51.6784" gradientUnits="userSpaceOnUse">
<stop stop-color="#00469F"/>
<stop offset="1" stop-color="#1E79D6"/>
</linearGradient>
<linearGradient id="paint4_linear_23_101" x1="35.5742" y1="51.6784" x2="43.7992" y2="51.6784" gradientUnits="userSpaceOnUse">
<stop stop-color="#00469F"/>
<stop offset="1" stop-color="#1E79D6"/>
</linearGradient>
<linearGradient id="paint5_linear_23_101" x1="6.19922" y1="59.5872" x2="10.8992" y2="59.5872" gradientUnits="userSpaceOnUse">
<stop stop-color="#00469F"/>
<stop offset="1" stop-color="#1E79D6"/>
</linearGradient>
<linearGradient id="paint6_linear_23_101" x1="13.25" y1="68.7676" x2="17.95" y2="68.7676" gradientUnits="userSpaceOnUse">
<stop stop-color="#00469F"/>
<stop offset="1" stop-color="#1E79D6"/>
</linearGradient>
<linearGradient id="paint7_linear_23_101" x1="23.8242" y1="59.5872" x2="28.5242" y2="59.5872" gradientUnits="userSpaceOnUse">
<stop stop-color="#00469F"/>
<stop offset="1" stop-color="#1E79D6"/>
</linearGradient>
<linearGradient id="paint8_linear_23_101" x1="34.4004" y1="68.7676" x2="39.1004" y2="68.7676" gradientUnits="userSpaceOnUse">
<stop stop-color="#00469F"/>
<stop offset="1" stop-color="#1E79D6"/>
</linearGradient>
<linearGradient id="paint9_linear_23_101" x1="41.4492" y1="59.5872" x2="46.1492" y2="59.5872" gradientUnits="userSpaceOnUse">
<stop stop-color="#00469F"/>
<stop offset="1" stop-color="#1E79D6"/>
</linearGradient>
<linearGradient id="paint10_linear_23_101" x1="1.5" y1="24.5717" x2="48.5" y2="24.5717" gradientUnits="userSpaceOnUse">
<stop stop-color="#00469F"/>
<stop offset="1" stop-color="#1E79D6"/>
</linearGradient>
<linearGradient id="paint11_linear_23_101" x1="3.84961" y1="16.4321" x2="46.7371" y2="16.4321" gradientUnits="userSpaceOnUse">
<stop stop-color="#00469F"/>
<stop offset="1" stop-color="#1E79D6"/>
</linearGradient>
<linearGradient id="paint12_linear_23_101" x1="3.84961" y1="32.4978" x2="46.1496" y2="32.4978" gradientUnits="userSpaceOnUse">
<stop stop-color="#00469F"/>
<stop offset="1" stop-color="#1E79D6"/>
</linearGradient>
<linearGradient id="paint13_linear_23_101" x1="15.5996" y1="24.5406" x2="35.5746" y2="24.5406" gradientUnits="userSpaceOnUse">
<stop stop-color="#00469F"/>
<stop offset="1" stop-color="#1E79D6"/>
</linearGradient>
</defs>
</svg>
