<svg width="70" height="71" viewBox="0 0 70 71" fill="none" xmlns="http://www.w3.org/2000/svg">
<path d="M47.8548 18H22.1457C19.8391 18.0025 17.9705 19.8717 17.968 22.1777V47.8868C17.9705 50.1928 19.8391 52.062 22.1457 52.0645H47.8548C50.1608 52.062 52.03 50.1928 52.0325 47.8868V22.1777C52.03 19.8717 50.1608 18.0025 47.8548 18ZM50.1043 47.8868C50.1024 49.1283 49.0963 50.135 47.8548 50.1363H22.1457C20.9036 50.135 19.8975 49.1283 19.8962 47.8868V22.1777C19.8975 20.9356 20.9036 19.9294 22.1457 19.9282H47.8548C49.0963 19.9294 50.1031 20.9356 50.1043 22.1777V47.8868Z" fill="url(#paint0_linear_23_60)"/>
<path d="M51.0685 13.1719H18.9322C15.7387 13.1756 13.1508 15.7629 13.1477 18.9564V51.0927C13.1508 54.2856 15.7387 56.8735 18.9322 56.8772H51.0685C54.2614 56.8735 56.8493 54.2856 56.8531 51.0927V18.9564C56.8493 15.7629 54.2614 13.1756 51.0685 13.1719ZM54.9249 51.0927C54.9224 53.2217 53.1969 54.9465 51.0685 54.9491H18.9322C16.8032 54.9465 15.0784 53.2217 15.0759 51.0927V18.9564C15.0778 16.8274 16.8032 15.1026 18.9322 15.1001H51.0685C53.1969 15.1026 54.9224 16.8274 54.9249 18.9564V51.0927Z" fill="url(#paint1_linear_23_60)"/>
<path d="M38.4751 60.0391C37.9422 60.0391 37.511 60.4709 37.511 61.0032V69.0372C37.511 69.5701 37.9422 70.0013 38.4751 70.0013C39.0073 70.0013 39.4392 69.5701 39.4392 69.0372V61.0032C39.4392 60.4709 39.0073 60.0391 38.4751 60.0391Z" fill="url(#paint2_linear_23_60)"/>
<path d="M31.5259 60.0391C30.993 60.0391 30.5618 60.4709 30.5618 61.0032V69.0372C30.5618 69.5701 30.993 70.0013 31.5259 70.0013C32.0581 70.0013 32.4899 69.5701 32.4899 69.0372V61.0032C32.4899 60.4709 32.0581 60.0391 31.5259 60.0391Z" fill="url(#paint3_linear_23_60)"/>
<path d="M24.5805 60.0391C24.0483 60.0391 23.6165 60.4709 23.6165 61.0032V69.0372C23.6165 69.5701 24.0483 70.0013 24.5805 70.0013C25.1128 70.0013 25.5446 69.5701 25.5446 69.0372V61.0032C25.5446 60.4709 25.1128 60.0391 24.5805 60.0391Z" fill="url(#paint4_linear_23_60)"/>
<path d="M45.4204 60.0391C44.8875 60.0391 44.4563 60.4709 44.4563 61.0032V69.0372C44.4563 69.5701 44.8875 70.0013 45.4204 70.0013C45.9526 70.0013 46.3845 69.5701 46.3845 69.0372V61.0032C46.3845 60.4709 45.9526 60.0391 45.4204 60.0391Z" fill="url(#paint5_linear_23_60)"/>
<path d="M32.4899 8.99816V0.964089C32.4899 0.431831 32.0581 0 31.5259 0C30.993 0 30.5618 0.431831 30.5618 0.964089V8.99816C30.5618 9.53042 30.993 9.96225 31.5259 9.96225C32.0581 9.96225 32.4899 9.53042 32.4899 8.99816Z" fill="url(#paint6_linear_23_60)"/>
<path d="M39.4392 8.99816V0.964089C39.4392 0.431831 39.0073 0 38.4751 0C37.9422 0 37.511 0.431831 37.511 0.964089V8.99816C37.511 9.53042 37.9422 9.96225 38.4751 9.96225C39.0073 9.96225 39.4392 9.53042 39.4392 8.99816Z" fill="url(#paint7_linear_23_60)"/>
<path d="M46.3845 8.99816V0.964089C46.3845 0.431831 45.9526 0 45.4204 0C44.8875 0 44.4563 0.431831 44.4563 0.964089V8.99816C44.4563 9.53042 44.8875 9.96225 45.4204 9.96225C45.9526 9.96225 46.3845 9.53042 46.3845 8.99816Z" fill="url(#paint8_linear_23_60)"/>
<path d="M25.5446 8.99816V0.964089C25.5446 0.431831 25.1128 0 24.5805 0C24.0483 0 23.6165 0.431831 23.6165 0.964089V8.99816C23.6165 9.53042 24.0483 9.96225 24.5805 9.96225C25.1128 9.96225 25.5446 9.53042 25.5446 8.99816Z" fill="url(#paint9_linear_23_60)"/>
<path d="M69.0365 30.5625H61.0024C60.4702 30.5625 60.0383 30.9937 60.0383 31.5266C60.0383 32.0588 60.4702 32.4907 61.0024 32.4907H69.0365C69.5694 32.4907 70.0006 32.0588 70.0006 31.5266C70.0006 30.9937 69.5694 30.5625 69.0365 30.5625Z" fill="url(#paint10_linear_23_60)"/>
<path d="M69.0365 37.5078H61.0024C60.4702 37.5078 60.0383 37.939 60.0383 38.4719C60.0383 39.0042 60.4702 39.436 61.0024 39.436H69.0365C69.5694 39.436 70.0006 39.0042 70.0006 38.4719C70.0006 37.939 69.5694 37.5078 69.0365 37.5078Z" fill="url(#paint11_linear_23_60)"/>
<path d="M69.0365 44.4531H61.0024C60.4702 44.4531 60.0383 44.8843 60.0383 45.4172C60.0383 45.9495 60.4702 46.3813 61.0024 46.3813H69.0365C69.5694 46.3813 70.0006 45.9495 70.0006 45.4172C70.0006 44.8843 69.5694 44.4531 69.0365 44.4531Z" fill="url(#paint12_linear_23_60)"/>
<path d="M69.0365 23.6172H61.0024C60.4702 23.6172 60.0383 24.049 60.0383 24.5813C60.0383 25.1135 60.4702 25.5454 61.0024 25.5454H69.0365C69.5694 25.5454 70.0006 25.1135 70.0006 24.5813C70.0006 24.049 69.5694 23.6172 69.0365 23.6172Z" fill="url(#paint13_linear_23_60)"/>
<path d="M8.99743 37.5078H0.963356C0.431099 37.5078 -0.000732422 37.939 -0.000732422 38.4719C-0.000732422 39.0042 0.431099 39.436 0.963356 39.436H8.99743C9.52969 39.436 9.96152 39.0042 9.96152 38.4719C9.96152 37.939 9.52969 37.5078 8.99743 37.5078Z" fill="url(#paint14_linear_23_60)"/>
<path d="M8.99743 30.5625H0.963356C0.431099 30.5625 -0.000732422 30.9937 -0.000732422 31.5266C-0.000732422 32.0588 0.431099 32.4907 0.963356 32.4907H8.99743C9.52969 32.4907 9.96152 32.0588 9.96152 31.5266C9.96152 30.9937 9.52969 30.5625 8.99743 30.5625Z" fill="url(#paint15_linear_23_60)"/>
<path d="M8.99743 23.6172H0.963356C0.431099 23.6172 -0.000732422 24.049 -0.000732422 24.5813C-0.000732422 25.1135 0.431099 25.5454 0.963356 25.5454H8.99743C9.52969 25.5454 9.96152 25.1135 9.96152 24.5813C9.96152 24.049 9.52969 23.6172 8.99743 23.6172Z" fill="url(#paint16_linear_23_60)"/>
<path d="M8.99743 44.4531H0.963356C0.431099 44.4531 -0.000732422 44.8843 -0.000732422 45.4172C-0.000732422 45.9495 0.431099 46.3813 0.963356 46.3813H8.99743C9.52969 46.3813 9.96152 45.9495 9.96152 45.4172C9.96152 44.8843 9.52969 44.4531 8.99743 44.4531Z" fill="url(#paint17_linear_23_60)"/>
<path d="M34.0989 28.1638C33.9571 27.7395 33.4273 27.5273 32.897 27.5273C32.3666 27.5273 31.8538 27.7395 31.7126 28.1638L28.1952 39.6167C28.1807 39.6688 28.1751 39.7228 28.1776 39.7762C28.1776 40.2356 28.8316 40.5538 29.3444 40.5538C29.6626 40.5538 29.9099 40.4478 29.9984 40.1647L30.7227 37.6553H35.0888L35.8131 40.1647C35.9016 40.4478 36.1489 40.5538 36.4495 40.5538C36.9799 40.5538 37.6339 40.218 37.6339 39.7762C37.6308 39.7216 37.6189 39.6676 37.5982 39.6167L34.0989 28.1638ZM31.1295 36.1527L32.897 30.0901L34.6645 36.1527H31.1295Z" fill="url(#paint18_linear_23_60)"/>
<path d="M39.9657 27.6328C39.5062 27.6328 39.0286 27.8092 39.0286 28.2335V39.9344C39.0286 40.3411 39.5062 40.5532 39.9657 40.5532C40.4427 40.5532 40.9021 40.3411 40.9021 39.9344V28.2341C40.9021 27.8092 40.4427 27.6328 39.9657 27.6328Z" fill="url(#paint19_linear_23_60)"/>
<defs>
<linearGradient id="paint0_linear_23_60" x1="17.968" y1="35.4926" x2="52.0325" y2="35.4926" gradientUnits="userSpaceOnUse">
<stop stop-color="#00469F"/>
<stop offset="1" stop-color="#1E79D6"/>
</linearGradient>
<linearGradient id="paint1_linear_23_60" x1="13.1477" y1="35.6152" x2="56.8531" y2="35.6152" gradientUnits="userSpaceOnUse">
<stop stop-color="#00469F"/>
<stop offset="1" stop-color="#1E79D6"/>
</linearGradient>
<linearGradient id="paint2_linear_23_60" x1="37.511" y1="65.1548" x2="39.4392" y2="65.1548" gradientUnits="userSpaceOnUse">
<stop stop-color="#00469F"/>
<stop offset="1" stop-color="#1E79D6"/>
</linearGradient>
<linearGradient id="paint3_linear_23_60" x1="30.5618" y1="65.1548" x2="32.4899" y2="65.1548" gradientUnits="userSpaceOnUse">
<stop stop-color="#00469F"/>
<stop offset="1" stop-color="#1E79D6"/>
</linearGradient>
<linearGradient id="paint4_linear_23_60" x1="23.6165" y1="65.1548" x2="25.5446" y2="65.1548" gradientUnits="userSpaceOnUse">
<stop stop-color="#00469F"/>
<stop offset="1" stop-color="#1E79D6"/>
</linearGradient>
<linearGradient id="paint5_linear_23_60" x1="44.4563" y1="65.1548" x2="46.3845" y2="65.1548" gradientUnits="userSpaceOnUse">
<stop stop-color="#00469F"/>
<stop offset="1" stop-color="#1E79D6"/>
</linearGradient>
<linearGradient id="paint6_linear_23_60" x1="30.5618" y1="5.11575" x2="32.4899" y2="5.11575" gradientUnits="userSpaceOnUse">
<stop stop-color="#00469F"/>
<stop offset="1" stop-color="#1E79D6"/>
</linearGradient>
<linearGradient id="paint7_linear_23_60" x1="37.511" y1="5.11575" x2="39.4392" y2="5.11575" gradientUnits="userSpaceOnUse">
<stop stop-color="#00469F"/>
<stop offset="1" stop-color="#1E79D6"/>
</linearGradient>
<linearGradient id="paint8_linear_23_60" x1="44.4563" y1="5.11575" x2="46.3845" y2="5.11575" gradientUnits="userSpaceOnUse">
<stop stop-color="#00469F"/>
<stop offset="1" stop-color="#1E79D6"/>
</linearGradient>
<linearGradient id="paint9_linear_23_60" x1="23.6165" y1="5.11575" x2="25.5446" y2="5.11575" gradientUnits="userSpaceOnUse">
<stop stop-color="#00469F"/>
<stop offset="1" stop-color="#1E79D6"/>
</linearGradient>
<linearGradient id="paint10_linear_23_60" x1="60.0383" y1="31.5526" x2="70.0006" y2="31.5526" gradientUnits="userSpaceOnUse">
<stop stop-color="#00469F"/>
<stop offset="1" stop-color="#1E79D6"/>
</linearGradient>
<linearGradient id="paint11_linear_23_60" x1="60.0383" y1="38.498" x2="70.0006" y2="38.498" gradientUnits="userSpaceOnUse">
<stop stop-color="#00469F"/>
<stop offset="1" stop-color="#1E79D6"/>
</linearGradient>
<linearGradient id="paint12_linear_23_60" x1="60.0383" y1="45.4433" x2="70.0006" y2="45.4433" gradientUnits="userSpaceOnUse">
<stop stop-color="#00469F"/>
<stop offset="1" stop-color="#1E79D6"/>
</linearGradient>
<linearGradient id="paint13_linear_23_60" x1="60.0383" y1="24.6073" x2="70.0006" y2="24.6073" gradientUnits="userSpaceOnUse">
<stop stop-color="#00469F"/>
<stop offset="1" stop-color="#1E79D6"/>
</linearGradient>
<linearGradient id="paint14_linear_23_60" x1="-0.000732422" y1="38.498" x2="9.96152" y2="38.498" gradientUnits="userSpaceOnUse">
<stop stop-color="#00469F"/>
<stop offset="1" stop-color="#1E79D6"/>
</linearGradient>
<linearGradient id="paint15_linear_23_60" x1="-0.000732422" y1="31.5526" x2="9.96152" y2="31.5526" gradientUnits="userSpaceOnUse">
<stop stop-color="#00469F"/>
<stop offset="1" stop-color="#1E79D6"/>
</linearGradient>
<linearGradient id="paint16_linear_23_60" x1="-0.000732422" y1="24.6073" x2="9.96152" y2="24.6073" gradientUnits="userSpaceOnUse">
<stop stop-color="#00469F"/>
<stop offset="1" stop-color="#1E79D6"/>
</linearGradient>
<linearGradient id="paint17_linear_23_60" x1="-0.000732422" y1="45.4433" x2="9.96152" y2="45.4433" gradientUnits="userSpaceOnUse">
<stop stop-color="#00469F"/>
<stop offset="1" stop-color="#1E79D6"/>
</linearGradient>
<linearGradient id="paint18_linear_23_60" x1="28.177" y1="34.2166" x2="37.6339" y2="34.2166" gradientUnits="userSpaceOnUse">
<stop stop-color="#00469F"/>
<stop offset="1" stop-color="#1E79D6"/>
</linearGradient>
<linearGradient id="paint19_linear_23_60" x1="39.0286" y1="34.2676" x2="40.9021" y2="34.2676" gradientUnits="userSpaceOnUse">
<stop stop-color="#00469F"/>
<stop offset="1" stop-color="#1E79D6"/>
</linearGradient>
</defs>
</svg>
