<svg width="70" height="70" viewBox="0 0 70 70" fill="none" xmlns="http://www.w3.org/2000/svg">
<path fill-rule="evenodd" clip-rule="evenodd" d="M3.28446 0.0811874C2.05539 0.380356 0.924301 1.30316 0.338847 2.48424L0 3.1679V21.8317V40.4956L0.308876 41.1151C0.794702 42.0893 1.34704 42.6649 2.28201 43.1715L3.14761 43.6404L10.2981 43.6803L17.4487 43.7202V46.6542V49.5882H16.0117H14.5748V51.0239V52.4596H20.391H26.2072V51.0266V49.5937L23.2991 49.5567L20.391 49.5198L20.3541 46.6143L20.3171 43.7087H21.8252H23.3333V42.2731V40.8374H13.7401C5.28743 40.8374 4.09284 40.8117 3.692 40.6218C2.74704 40.1737 2.80547 41.413 2.80547 21.8317C2.80547 2.25043 2.74704 3.48976 3.692 3.04169C4.10119 2.84781 6.65719 2.82607 29.072 2.82607C55.9629 2.82607 54.6178 2.78997 55.1336 3.52572C55.3363 3.81477 55.3568 5.07462 55.3568 17.2134V30.5825H56.8653H58.374L58.3365 17.0119C58.3012 4.16891 58.2854 3.40622 58.0451 2.78696C57.6931 1.88044 56.6212 0.748436 55.7359 0.348771L55.0147 0.0230765L29.3548 0.00215662C15.2419 -0.00932882 3.51026 0.0262213 3.28446 0.0811874ZM20.4433 6.01478C18.1927 6.85513 16.9655 9.20172 17.6414 11.3718L17.8544 12.0554L14.951 14.9599L12.0477 17.8643L13.0694 18.892L14.0911 19.9198L16.9823 17.0336L19.8734 14.1473L20.8507 14.3847C21.7783 14.6099 21.8776 14.6099 22.8049 14.3847L23.7818 14.1474L25.9396 16.3001L28.0972 18.4527L27.9049 18.9972C27.6458 19.7307 27.6624 20.9612 27.9429 21.829C28.2342 22.7302 29.1663 23.7817 30.0927 24.2545C31.0916 24.7641 32.5557 24.8387 33.6275 24.4347C35.636 23.6775 36.8153 21.3852 36.2652 19.3084L36.0494 18.494L38.2156 16.3298L40.3817 14.1656L41.2507 14.3879C41.8203 14.5338 42.3371 14.5791 42.7509 14.5195C44.3389 14.2906 45.794 13.1621 46.3296 11.7438C46.734 10.6729 46.6593 9.21019 46.1492 8.21219C44.5344 5.05288 39.9226 5.04344 38.4005 8.19633C37.8523 9.33202 37.7592 10.0942 38.0369 11.1769L38.2594 12.0452L36.0966 14.2061L33.9336 16.3671L33.0145 16.1404C32.1115 15.9178 31.6128 15.9471 30.3812 16.2953C30.1649 16.3566 29.6567 15.9207 27.9547 14.2142L25.8017 12.0554L26.0147 11.3718C26.6252 9.41051 25.6476 7.22253 23.7158 6.22672C22.9833 5.84906 21.1971 5.73339 20.4433 6.01478ZM22.5297 8.91964C23.7984 9.57513 23.2787 11.5769 21.84 11.5769C20.413 11.5769 19.8493 9.70352 21.0552 8.96886C21.5783 8.65014 21.9821 8.63674 22.5297 8.91964ZM43.2567 9.12638C43.9371 9.76505 43.7665 11.0535 42.9524 11.424C41.6248 12.0285 40.3949 10.8112 40.9977 9.4894C41.3616 8.69157 42.5841 8.49509 43.2567 9.12638ZM33.0604 19.36C33.7349 20.034 33.5605 21.1773 32.7135 21.6331C31.8394 22.1034 30.7966 21.5683 30.6339 20.5659C30.4178 19.236 32.0997 18.4002 33.0604 19.36ZM5.81623 26.2071V27.7112H7.25318H8.69013V26.2071V24.7031H7.25318H5.81623V26.2071ZM39.8466 26.3571C33.9607 27.2165 29.0432 31.2804 27.0731 36.9135C25.7288 40.7573 25.9814 45.069 27.7726 48.853C28.5428 50.4801 29.2971 51.5742 30.5735 52.9154C33.2549 55.733 36.5734 57.3623 40.5388 57.8082C44.2726 58.228 48.5409 57.0365 51.5645 54.7305L52.1739 54.2658L53.7027 55.7974L55.2313 57.3292L54.9319 57.5948C54.3103 58.1462 53.8514 58.9194 53.8514 59.4154C53.8514 59.875 54.1422 60.1946 58.8203 64.8735C63.5354 69.5895 63.8189 69.8474 64.3735 69.9218L64.9578 70L67.4789 67.4811C69.8991 65.063 70 64.9407 70 64.4215C70 63.8926 69.8897 63.7705 64.9686 58.8538C60.2227 54.1121 59.9093 53.8269 59.4466 53.8269C58.9483 53.8269 58.1755 54.2842 57.6227 54.9064L57.3569 55.2055L55.8237 53.6782L54.2907 52.1508L54.7559 51.542C56.4476 49.3276 57.5343 46.4925 57.8379 43.5002C58.487 37.1035 54.9695 30.8139 49.0921 27.8614C46.4101 26.5144 42.7966 25.9263 39.8466 26.3571ZM45.076 29.4928C49.5582 30.5623 53.1064 33.9381 54.485 38.4446C54.8306 39.5741 54.8622 39.8661 54.8697 41.9996C54.8767 44.0306 54.8383 44.4604 54.5648 45.4035C53.4986 49.0816 51.114 51.9673 47.7337 53.6702C44.973 55.0609 40.9754 55.325 38.0008 54.3134C31.4856 52.0976 27.8352 45.3564 29.5626 38.7305C30.6892 34.4095 34.2745 30.8008 38.6266 29.6074C40.7456 29.0264 42.957 28.987 45.076 29.4928ZM5.81623 32.4127C5.81623 34.6529 6.01261 35.3739 6.8871 36.3458C7.2228 36.7188 7.81195 37.1887 8.19636 37.3898C8.84874 37.7314 9.03472 37.759 10.9824 37.8048L13.0694 37.8538V36.4167V34.9797L11.2931 34.9346C8.82027 34.8719 8.77621 34.8279 8.71353 32.3573L8.66837 30.5825H7.24237H5.81623V32.4127ZM42.219 33.4844V34.9227L43.0583 35.0174C44.7666 35.2106 46.6073 36.1508 47.6959 37.3864C48.4051 38.1914 49.2941 39.9691 49.404 40.802C49.4512 41.1598 49.5214 41.622 49.5603 41.8287L49.6308 42.2047H51.0746H52.5182L52.4221 41.2294C51.9526 36.4696 47.9664 32.4888 43.3104 32.1302L42.219 32.0461V33.4844ZM65.4508 65.414L64.4619 66.4086L60.9368 62.8886L57.4118 59.3687L58.4007 58.374L59.3896 57.3794L62.9146 60.8994L66.4397 64.4193L65.4508 65.414Z" fill="url(#paint0_linear_417_2809)"/>
<defs>
<linearGradient id="paint0_linear_417_2809" x1="0" y1="35.9459" x2="70" y2="35.9459" gradientUnits="userSpaceOnUse">
<stop stop-color="#00469F"/>
<stop offset="1" stop-color="#1E79D6"/>
</linearGradient>
</defs>
</svg>
