<svg width="66" height="72" viewBox="0 0 66 72" fill="none" xmlns="http://www.w3.org/2000/svg">
<path d="M42.5434 71H4.23623C3.51054 71 2.81457 70.7234 2.30142 70.2312C1.78828 69.7389 1.5 69.0712 1.5 68.375V21.125C1.5 20.4288 1.78828 19.7611 2.30142 19.2688C2.81457 18.7766 3.51054 18.5 4.23623 18.5H31.5985L45.2797 31.625V68.375C45.2797 69.0712 44.9914 69.7389 44.4782 70.2312C43.9651 70.7234 43.2691 71 42.5434 71Z" stroke="url(#paint0_linear_361_5397)" stroke-width="2" stroke-linecap="round" stroke-linejoin="round"/>
<path d="M12.1758 18.7058V10.8308C12.1758 10.1346 12.4641 9.46694 12.9772 8.97466C13.4903 8.48237 14.1863 8.20581 14.912 8.20581H35.4004M45.0105 60.7058H53.2192C53.9449 60.7058 54.6409 60.4293 55.154 59.937C55.6672 59.4447 55.9554 58.777 55.9554 58.0808V28.022" stroke="url(#paint1_linear_361_5397)" stroke-width="2" stroke-linecap="round" stroke-linejoin="round"/>
<path d="M15.3789 47.8384H31.3959" stroke="url(#paint2_linear_361_5397)" stroke-width="2" stroke-linecap="round" stroke-linejoin="round"/>
<path d="M15.3789 58.1326H31.3959" stroke="url(#paint3_linear_361_5397)" stroke-width="2" stroke-linecap="round" stroke-linejoin="round"/>
<path d="M35.668 11.4686V2.2556C35.668 1.92259 35.806 1.60323 36.0518 1.36776C36.2976 1.13229 36.6309 1 36.9784 1H63.188C63.5356 1 63.8689 1.13229 64.1146 1.36776C64.3604 1.60323 64.4985 1.92259 64.4985 2.2556V11.4686C64.4985 24.6523 52.8188 29.0156 50.4927 29.7532C50.2285 29.847 49.9379 29.847 49.6737 29.7532C47.3476 29.0156 35.668 24.6523 35.668 11.4686Z" stroke="url(#paint4_linear_361_5397)" stroke-width="2" stroke-linecap="round" stroke-linejoin="round"/>
<path d="M57.0259 9.75L47.7664 18.5L43.1445 14.125" stroke="url(#paint5_linear_361_5397)" stroke-width="2" stroke-linecap="round" stroke-linejoin="round"/>
<defs>
<linearGradient id="paint0_linear_361_5397" x1="1.5" y1="45.4595" x2="45.2797" y2="45.4595" gradientUnits="userSpaceOnUse">
<stop stop-color="#00469F"/>
<stop offset="1" stop-color="#1E79D6"/>
</linearGradient>
<linearGradient id="paint1_linear_361_5397" x1="12.1758" y1="35.1653" x2="55.9554" y2="35.1653" gradientUnits="userSpaceOnUse">
<stop stop-color="#00469F"/>
<stop offset="1" stop-color="#1E79D6"/>
</linearGradient>
<linearGradient id="paint2_linear_361_5397" x1="15.3789" y1="48.3519" x2="31.3959" y2="48.3519" gradientUnits="userSpaceOnUse">
<stop stop-color="#00469F"/>
<stop offset="1" stop-color="#1E79D6"/>
</linearGradient>
<linearGradient id="paint3_linear_361_5397" x1="15.3789" y1="58.6461" x2="31.3959" y2="58.6461" gradientUnits="userSpaceOnUse">
<stop stop-color="#00469F"/>
<stop offset="1" stop-color="#1E79D6"/>
</linearGradient>
<linearGradient id="paint4_linear_361_5397" x1="35.668" y1="15.8013" x2="64.4985" y2="15.8013" gradientUnits="userSpaceOnUse">
<stop stop-color="#00469F"/>
<stop offset="1" stop-color="#1E79D6"/>
</linearGradient>
<linearGradient id="paint5_linear_361_5397" x1="43.1445" y1="14.2432" x2="57.0259" y2="14.2432" gradientUnits="userSpaceOnUse">
<stop stop-color="#00469F"/>
<stop offset="1" stop-color="#1E79D6"/>
</linearGradient>
</defs>
</svg>
