<svg width="66" height="65" viewBox="0 0 66 65" fill="none" xmlns="http://www.w3.org/2000/svg">
<rect x="0.5" width="65" height="65" rx="8" fill="url(#paint0_linear_1098_7170)"/>
<path d="M24.8418 27.7615H40.1582L44.0044 17.4397C44.0559 17.3046 44.1486 17.1894 44.2692 17.1105C44.3898 17.0317 44.5322 16.9933 44.6758 17.0009C44.8195 17.0086 44.9571 17.0617 45.0688 17.1529C45.1805 17.244 45.2607 17.3684 45.2978 17.5082L49.9608 35.0536C50.0263 35.3256 50.0094 35.6111 49.9124 35.8734C49.8154 36.1357 49.6426 36.3629 49.4162 36.5257L33.2828 47.7547C33.0527 47.9145 32.7796 48 32.5 48C32.2204 48 31.9473 47.9145 31.7172 47.7547L15.5838 36.5257C15.3574 36.3629 15.1846 36.1357 15.0876 35.8734C14.9906 35.6111 14.9737 35.3256 15.0392 35.0536L19.7022 17.5082C19.7393 17.3684 19.8195 17.244 19.9312 17.1529C20.0429 17.0617 20.1805 17.0086 20.3242 17.0009C20.4678 16.9933 20.6102 17.0317 20.7308 17.1105C20.8514 17.1894 20.9441 17.3046 20.9956 17.4397L24.8418 27.7615Z" stroke="white" stroke-width="2" stroke-linecap="round" stroke-linejoin="round"/>
<path d="M33 48L40.3425 28H48" stroke="white" stroke-width="2" stroke-linecap="round" stroke-linejoin="round"/>
<path d="M17 28H24.6575L32 48" stroke="white" stroke-width="2" stroke-linecap="round" stroke-linejoin="round"/>
<defs>
<linearGradient id="paint0_linear_1098_7170" x1="0.5" y1="33.3784" x2="65.5" y2="33.3784" gradientUnits="userSpaceOnUse">
<stop stop-color="#00469F"/>
<stop offset="1" stop-color="#1E79D6"/>
</linearGradient>
</defs>
</svg>
