<svg width="66" height="65" viewBox="0 0 66 65" fill="none" xmlns="http://www.w3.org/2000/svg">
<rect x="0.5" width="65" height="65" rx="8" fill="url(#paint0_linear_1098_7178)"/>
<path d="M17 31H50V47.5C50 47.8978 49.842 48.2794 49.5607 48.5607C49.2794 48.842 48.8978 49 48.5 49H18.5C18.1022 49 17.7206 48.842 17.4393 48.5607C17.158 48.2794 17 47.8978 17 47.5V31Z" stroke="white" stroke-width="2" stroke-linecap="round" stroke-linejoin="round"/>
<path d="M16.5838 31L48 22.6991L46.4661 17.0741C46.417 16.8889 46.3308 16.7154 46.2126 16.5635C46.0945 16.4116 45.9468 16.2844 45.7781 16.1895C45.6094 16.0945 45.4232 16.0337 45.2304 16.0106C45.0376 15.9874 44.842 16.0024 44.6551 16.0547L16.1033 23.591C15.915 23.6397 15.7383 23.7245 15.5834 23.8406C15.4285 23.9567 15.2983 24.1017 15.2004 24.2675C15.1026 24.4333 15.0389 24.6164 15.0131 24.8065C14.9872 24.9965 14.9998 25.1897 15.0499 25.375L16.5838 31Z" stroke="white" stroke-width="2" stroke-linecap="round" stroke-linejoin="round"/>
<path d="M34 19L43 24" stroke="white" stroke-width="2" stroke-linecap="round" stroke-linejoin="round"/>
<path d="M20 23L29 28" stroke="white" stroke-width="2" stroke-linecap="round" stroke-linejoin="round"/>
<defs>
<linearGradient id="paint0_linear_1098_7178" x1="0.5" y1="33.3784" x2="65.5" y2="33.3784" gradientUnits="userSpaceOnUse">
<stop stop-color="#00469F"/>
<stop offset="1" stop-color="#1E79D6"/>
</linearGradient>
</defs>
</svg>
