<svg width="66" height="65" viewBox="0 0 66 65" fill="none" xmlns="http://www.w3.org/2000/svg">
<rect x="0.5" width="65" height="65" rx="8" fill="url(#paint0_linear_1098_7115)"/>
<path d="M16.1012 18.1471L27.6612 48.9738C27.7761 49.2771 27.9811 49.5381 28.2486 49.7215C28.5162 49.905 28.8335 50.0021 29.1578 50C29.4822 49.9978 29.7982 49.8964 30.0632 49.7094C30.3283 49.5224 30.5298 49.2588 30.6406 48.9539L35.2686 36.222C35.3491 36.0036 35.476 35.8052 35.6406 35.6406C35.8052 35.476 36.0036 35.3491 36.222 35.2686L48.9539 30.6406C49.2588 30.5298 49.5224 30.3283 49.7094 30.0632C49.8964 29.7982 49.9978 29.4822 50 29.1578C50.0021 28.8335 49.905 28.5162 49.7215 28.2486C49.5381 27.9811 49.2771 27.7761 48.9738 27.6612L18.1471 16.1012C17.8614 15.9941 17.5509 15.9714 17.2527 16.036C16.9545 16.1006 16.6812 16.2497 16.4654 16.4654C16.2497 16.6812 16.1006 16.9545 16.036 17.2527C15.9714 17.5509 15.9941 17.8614 16.1012 18.1471V18.1471Z" stroke="white" stroke-width="2" stroke-linecap="round" stroke-linejoin="round"/>
<path d="M36 36L51 50" stroke="white" stroke-width="2" stroke-linecap="round" stroke-linejoin="round"/>
<defs>
<linearGradient id="paint0_linear_1098_7115" x1="0.5" y1="33.3784" x2="65.5" y2="33.3784" gradientUnits="userSpaceOnUse">
<stop stop-color="#00469F"/>
<stop offset="1" stop-color="#1E79D6"/>
</linearGradient>
</defs>
</svg>
