<svg width="66" height="65" viewBox="0 0 66 65" fill="none" xmlns="http://www.w3.org/2000/svg">
<rect x="0.5" width="65" height="65" rx="8" fill="url(#paint0_linear_1098_7187)"/>
<path d="M33 22.6364C33 21.1415 33.5835 19.7079 34.6222 18.6509C35.6608 17.5938 37.0696 17 38.5385 17H49.6154C49.9826 17 50.3348 17.1485 50.5945 17.4127C50.8541 17.677 51 18.0354 51 18.4091V40.9545C51 41.3283 50.8541 41.6867 50.5945 41.9509C50.3348 42.2152 49.9826 42.3636 49.6154 42.3636H38.5385C37.0696 42.3636 35.6608 42.9575 34.6222 44.0145C33.5835 45.0715 33 46.5051 33 48" stroke="white" stroke-width="2" stroke-linecap="round" stroke-linejoin="round"/>
<path d="M15 40.9545C15 41.3283 15.1459 41.6867 15.4055 41.9509C15.6652 42.2152 16.0174 42.3636 16.3846 42.3636H27.4615C28.9304 42.3636 30.3392 42.9575 31.3778 44.0145C32.4165 45.0715 33 46.5051 33 48V22.6364C33 21.1415 32.4165 19.7079 31.3778 18.6509C30.3392 17.5938 28.9304 17 27.4615 17H16.3846C16.0174 17 15.6652 17.1485 15.4055 17.4127C15.1459 17.677 15 18.0354 15 18.4091V40.9545Z" stroke="white" stroke-width="2" stroke-linecap="round" stroke-linejoin="round"/>
<defs>
<linearGradient id="paint0_linear_1098_7187" x1="0.5" y1="33.3784" x2="65.5" y2="33.3784" gradientUnits="userSpaceOnUse">
<stop stop-color="#00469F"/>
<stop offset="1" stop-color="#1E79D6"/>
</linearGradient>
</defs>
</svg>
