<svg width="66" height="65" viewBox="0 0 66 65" fill="none" xmlns="http://www.w3.org/2000/svg">
<rect x="0.5" width="65" height="65" rx="8" fill="white"/>
<path d="M32.5 42C37.1944 42 41 38.4183 41 34C41 29.5817 37.1944 26 32.5 26C27.8056 26 24 29.5817 24 34C24 38.4183 27.8056 42 32.5 42Z" stroke="url(#paint0_linear_1098_7129)" stroke-width="2" stroke-linecap="round" stroke-linejoin="round"/>
<path d="M46 29C47.9411 28.9968 49.8562 29.4472 51.5924 30.3153C53.3286 31.1834 54.8379 32.4451 56 34" stroke="url(#paint1_linear_1098_7129)" stroke-width="2" stroke-linecap="round" stroke-linejoin="round"/>
<path d="M9 34C10.1621 32.4451 11.6714 31.1834 13.4076 30.3153C15.1438 29.4472 17.0589 28.9968 19 29" stroke="url(#paint2_linear_1098_7129)" stroke-width="2" stroke-linecap="round" stroke-linejoin="round"/>
<path d="M21 49C22.0518 46.9006 23.6875 45.1314 25.7207 43.8938C27.7539 42.6562 30.1028 42 32.5 42C34.8972 42 37.2461 42.6562 39.2793 43.8938C41.3125 45.1314 42.9482 46.9006 44 49" stroke="url(#paint3_linear_1098_7129)" stroke-width="2" stroke-linecap="round" stroke-linejoin="round"/>
<path d="M18.5648 29C17.3201 29.0012 16.1007 28.6514 15.0491 27.9913C13.9976 27.3312 13.1572 26.3881 12.6264 25.2722C12.0955 24.1564 11.896 22.9138 12.0512 21.6897C12.2063 20.4656 12.7098 19.3106 13.5026 18.3596C14.2955 17.4086 15.3451 16.7008 16.5287 16.3191C17.7124 15.9373 18.9812 15.8973 20.1869 16.2037C21.3927 16.51 22.4855 17.1502 23.3378 18.0493C24.1901 18.9485 24.7666 20.0694 25 21.2812" stroke="url(#paint4_linear_1098_7129)" stroke-width="2" stroke-linecap="round" stroke-linejoin="round"/>
<path d="M40 21.2812C40.2334 20.0694 40.8099 18.9485 41.6622 18.0493C42.5145 17.1502 43.6073 16.51 44.8131 16.2037C46.0188 15.8973 47.2876 15.9373 48.4713 16.3191C49.6549 16.7008 50.7045 17.4086 51.4974 18.3596C52.2902 19.3106 52.7937 20.4656 52.9488 21.6897C53.104 22.9138 52.9045 24.1564 52.3736 25.2722C51.8428 26.3881 51.0024 27.3312 49.9509 27.9913C48.8993 28.6514 47.6799 29.0012 46.4352 29" stroke="url(#paint5_linear_1098_7129)" stroke-width="2" stroke-linecap="round" stroke-linejoin="round"/>
<defs>
<linearGradient id="paint0_linear_1098_7129" x1="24" y1="34.2162" x2="41" y2="34.2162" gradientUnits="userSpaceOnUse">
<stop stop-color="#00469F"/>
<stop offset="1" stop-color="#1E79D6"/>
</linearGradient>
<linearGradient id="paint1_linear_1098_7129" x1="46" y1="31.5676" x2="56" y2="31.5676" gradientUnits="userSpaceOnUse">
<stop stop-color="#00469F"/>
<stop offset="1" stop-color="#1E79D6"/>
</linearGradient>
<linearGradient id="paint2_linear_1098_7129" x1="9" y1="31.5676" x2="19" y2="31.5676" gradientUnits="userSpaceOnUse">
<stop stop-color="#00469F"/>
<stop offset="1" stop-color="#1E79D6"/>
</linearGradient>
<linearGradient id="paint3_linear_1098_7129" x1="21" y1="45.5946" x2="44" y2="45.5946" gradientUnits="userSpaceOnUse">
<stop stop-color="#00469F"/>
<stop offset="1" stop-color="#1E79D6"/>
</linearGradient>
<linearGradient id="paint4_linear_1098_7129" x1="12" y1="22.6757" x2="25" y2="22.6757" gradientUnits="userSpaceOnUse">
<stop stop-color="#00469F"/>
<stop offset="1" stop-color="#1E79D6"/>
</linearGradient>
<linearGradient id="paint5_linear_1098_7129" x1="40" y1="22.6757" x2="53" y2="22.6757" gradientUnits="userSpaceOnUse">
<stop stop-color="#00469F"/>
<stop offset="1" stop-color="#1E79D6"/>
</linearGradient>
</defs>
</svg>
