<svg width="66" height="65" viewBox="0 0 66 65" fill="none" xmlns="http://www.w3.org/2000/svg">
<rect x="0.5" width="65" height="65" rx="8" fill="url(#paint0_linear_1098_7140)"/>
<path d="M41.7521 16L22.7173 16.0636C20.0735 16.0685 17.5156 16.9845 15.4911 18.6514C13.4665 20.3182 12.1043 22.6297 11.6425 25.1816V25.1816L8.09507 43.0148C7.8673 44.2602 8.05128 45.5443 8.62019 46.6799C9.1891 47.8155 10.1132 48.7433 11.2577 49.328C12.4022 49.9127 13.7074 50.1236 14.9828 49.9302C16.2582 49.7367 17.4372 49.1488 18.3479 48.2524V48.2524L27.6923 38.1165L41.7521 38.0529C44.7353 38.0529 47.5962 36.8912 49.7056 34.8233C51.815 32.7555 53 29.9509 53 27.0265C53 24.1021 51.815 21.2974 49.7056 19.2296C47.5962 17.1617 44.7353 16 41.7521 16V16Z" stroke="white" stroke-width="3" stroke-linecap="round" stroke-linejoin="round"/>
<path d="M53.4856 26L56.9083 43.2624C57.128 44.4636 56.9505 45.7022 56.4016 46.7976C55.8527 47.893 54.9611 48.7879 53.8568 49.3518C52.7525 49.9158 51.4933 50.1193 50.2627 49.9326C49.0321 49.746 47.8946 49.179 47.0159 48.3143V48.3143L38 38.4968" stroke="white" stroke-width="3" stroke-linecap="round" stroke-linejoin="round"/>
<circle cx="18.519" cy="27.9633" r="1.2963" fill="white"/>
<circle cx="24.8158" cy="27.9633" r="1.2963" fill="white"/>
<circle cx="21.8529" cy="24.6298" r="1.2963" fill="white"/>
<circle cx="21.8529" cy="30.9262" r="1.2963" fill="white"/>
<circle cx="39.6322" cy="27.9633" r="1.2963" fill="white"/>
<circle cx="45.9291" cy="27.9633" r="1.2963" fill="white"/>
<circle cx="42.9623" cy="24.6298" r="1.2963" fill="white"/>
<circle cx="42.9623" cy="30.9262" r="1.2963" fill="white"/>
<defs>
<linearGradient id="paint0_linear_1098_7140" x1="0.5" y1="33.3784" x2="65.5" y2="33.3784" gradientUnits="userSpaceOnUse">
<stop stop-color="#00469F"/>
<stop offset="1" stop-color="#1E79D6"/>
</linearGradient>
</defs>
</svg>
