<svg width="33" height="35" viewBox="0 0 33 35" fill="none" xmlns="http://www.w3.org/2000/svg">
<path fill-rule="evenodd" clip-rule="evenodd" d="M15.564 0.100811C14.2594 0.451934 13.2879 1.51823 13.0877 2.81851C12.8424 4.41241 13.87 6.00795 15.4302 6.45555L15.8234 6.56838V13.0853V19.6023L14.3704 19.649C13.4264 19.6795 12.7856 19.6703 12.5412 19.6228C11.6408 19.4481 10.7071 18.7418 10.3117 17.9364C10.1399 17.5866 10.114 17.4567 10.1154 16.9522C10.1167 16.4553 10.1451 16.3133 10.3105 15.9733C10.4184 15.7517 10.6985 15.3754 10.9432 15.1233C11.1848 14.8745 11.4017 14.594 11.4253 14.5C11.4807 14.2795 11.326 14.004 11.0806 13.8861C10.8 13.7512 10.5751 13.8721 10.0201 14.4564C8.57905 15.9735 8.56688 17.9089 9.98895 19.4163C10.5518 20.0131 11.0494 20.3425 11.7861 20.6063L12.3703 20.8156L14.0968 20.7977L15.8234 20.7799V23.0645V25.349L14.9603 25.3988C13.9339 25.4579 13.4762 25.4197 13.0728 25.2413C12.1973 24.854 11.7125 23.886 12.0225 23.1441C12.0756 23.0169 12.291 22.7258 12.5011 22.4973C12.7908 22.1822 12.8831 22.0313 12.8831 21.8729C12.8831 21.5729 12.6173 21.3284 12.2913 21.3284C12.0679 21.3284 11.9837 21.3813 11.6339 21.7409C11.3875 21.9943 11.1488 22.3306 11.0152 22.6127C10.8207 23.0234 10.7976 23.1375 10.7976 23.6889C10.7976 24.2451 10.8191 24.3494 11.0165 24.7488C11.3722 25.469 12.1011 26.1222 12.8716 26.4114C13.2217 26.5428 13.3831 26.5557 14.5413 26.5448L15.8234 26.5327V28.5119V30.4911H15.0303C14.1369 30.4911 13.8739 30.4106 13.6024 30.0541C13.4467 29.8498 13.3968 29.6599 13.4195 29.3588C13.4254 29.2813 13.5686 29.0557 13.7379 28.8575C14.1022 28.4306 14.1255 28.2356 13.8457 27.9558C13.6105 27.7208 13.4263 27.705 13.1207 27.8938C12.3758 28.3541 12.0477 29.5058 12.4293 30.3202C12.6212 30.7296 13.1753 31.2647 13.6205 31.4703C13.9024 31.6005 14.0615 31.6193 14.8832 31.6193H15.8234V33.1438V34.6684L15.9913 34.8362C16.2085 35.0535 16.509 35.0547 16.7598 34.8392L16.9516 34.6743L16.9727 33.2631L16.9937 31.852L17.1437 31.8972C17.5156 32.0096 17.9677 32.3117 18.0474 32.5013C18.1388 32.7185 18.075 33.0783 17.9011 33.3265C17.6449 33.6923 17.9206 34.2519 18.357 34.2519C19.0003 34.2519 19.4814 32.8059 19.1002 32.0185C18.8202 31.4402 18.307 31.0943 17.1055 30.674C16.9953 30.6354 16.9858 30.4761 16.9858 28.647C16.9858 27.5552 16.9982 26.6619 17.0134 26.6619C17.0871 26.6619 18.4802 27.1671 18.6602 27.2591C19.5905 27.7346 19.8197 28.4715 19.3153 29.3652C19.0586 29.8202 19.0465 30.0964 19.2734 30.3232C19.4675 30.5174 19.7549 30.5418 19.9809 30.3835C20.1767 30.2464 20.565 29.473 20.6775 28.9959C20.858 28.2311 20.6134 27.4306 20.0205 26.8453C19.6019 26.432 18.7718 26.0132 17.7551 25.7021L16.9858 25.4667V23.1551V20.8435L17.2423 20.8885C17.7329 20.9744 19.3804 21.5421 19.9139 21.8092C21.5095 22.6078 21.8241 23.6668 20.9431 25.2729C20.6414 25.8228 20.6397 26.0208 20.9345 26.2527C21.3082 26.5467 21.6078 26.4115 21.9537 25.793C22.4149 24.9684 22.5459 24.5228 22.5527 23.7558C22.5583 23.1224 22.5426 23.0381 22.3405 22.6116C21.7988 21.4681 20.9109 20.8392 18.9002 20.1749C18.1877 19.9394 17.2449 19.6933 17.0371 19.6885C17.0089 19.6879 16.9858 16.7345 16.9858 13.1257V6.56393L17.2764 6.48667C18.0542 6.27982 18.9485 5.57717 19.3255 4.87649C19.8417 3.91728 19.8459 2.7608 19.3366 1.75584C19.1136 1.31576 18.4352 0.636213 17.9722 0.389162C17.2582 0.00815809 16.3238 -0.103709 15.564 0.100811ZM17.3409 1.34974C18.0873 1.71577 18.5064 2.36489 18.5473 3.21832C18.5691 3.67317 18.548 3.7957 18.3853 4.15838C18.1701 4.63765 17.7489 5.06248 17.2714 5.28163C16.7897 5.5027 15.9842 5.48991 15.4815 5.25326C14.9534 5.00463 14.7188 4.78473 14.4523 4.28858C14.2456 3.90354 14.2207 3.7996 14.2188 3.3107C14.2169 2.84695 14.2457 2.70418 14.4084 2.37296C14.6385 1.90436 15.0911 1.48623 15.5743 1.29579C16.0633 1.1031 16.8894 1.12833 17.3409 1.34974ZM10.0806 6.01643C9.32281 6.21479 8.09999 6.83615 6.53392 7.81861C3.74272 9.56964 2.87746 9.90777 1.18523 9.90873C0.380418 9.90921 0.316484 9.91906 0.186838 10.0631C-0.050161 10.3264 -0.0574774 10.454 0.140957 10.861C0.550406 11.701 1.34291 12.2491 2.29152 12.3482L2.69393 12.3903L2.55759 12.6108C2.38643 12.8877 2.37994 13.2696 2.54384 13.4179C2.7472 13.6019 3.49642 13.7599 3.94416 13.713C4.28086 13.6779 4.97387 13.4777 5.36739 13.3021C5.46079 13.2604 5.4716 13.3045 5.44541 13.6204C5.41696 13.9637 5.42866 13.9987 5.62791 14.1664C6.05336 14.5243 7.10003 14.5058 8.40435 14.1171C10.5379 13.4812 10.885 13.3915 11.4834 13.3209C12.2197 13.2341 12.9638 13.3071 13.6295 13.5313C14.2736 13.7483 14.5306 13.7147 14.6977 13.3916C14.7806 13.2314 14.7977 12.7341 14.7977 10.4983C14.7977 8.98583 14.7696 7.72432 14.7337 7.62995C14.6392 7.38147 13.761 6.67204 13.1642 6.36208C12.878 6.21343 12.4547 6.04303 12.2237 5.98333C11.6497 5.83516 10.7181 5.84952 10.0806 6.01643ZM20.4731 6.04652C20.2663 6.10286 19.8815 6.25692 19.6181 6.38889C19.0887 6.65399 18.1637 7.39179 18.0304 7.65505C17.9126 7.88794 17.9055 13.198 18.0227 13.4181C18.2197 13.788 18.3937 13.8081 19.2242 13.5575C19.7446 13.4005 19.945 13.3767 20.7466 13.3767C21.59 13.3768 21.7495 13.3981 22.5929 13.6231C23.1006 13.7586 23.8852 13.9838 24.3365 14.1236C25.0937 14.3582 25.2239 14.3783 26.0235 14.3829C26.8061 14.3875 26.9086 14.3739 27.0833 14.2423C27.2592 14.1098 27.2762 14.0596 27.2708 13.6898L27.2649 13.2831L27.7837 13.4849C28.6321 13.8149 29.8335 13.8142 30.2 13.4833C30.3573 13.3413 30.3519 13.0102 30.1872 12.7029L30.0548 12.4559L30.47 12.4089C31.148 12.3322 31.6038 12.1234 32.033 11.693C32.4998 11.2248 32.816 10.6244 32.7233 10.3819C32.5885 10.0296 32.4759 9.99345 31.4137 9.96275C30.65 9.94066 30.2896 9.89724 29.8451 9.77389C29.0626 9.55672 27.7678 8.88914 26.0447 7.81457C23.6717 6.33459 22.8816 6.00604 21.6014 5.96699C21.0819 5.9512 20.7329 5.97574 20.4731 6.04652ZM12.0672 7.1457C12.4995 7.27192 12.9352 7.50803 13.3447 7.83796L13.6353 8.07216V10.1953V12.3184L13.4473 12.2709C13.3439 12.2447 12.8284 12.2076 12.3019 12.1885C11.1559 12.1468 10.5706 12.2484 8.883 12.7816C7.84228 13.1104 6.90898 13.3257 6.83684 13.2535C6.81851 13.2352 6.85072 13.0833 6.90836 12.9159C7.04991 12.5051 6.98379 12.0964 6.73215 11.8271C6.44155 11.516 6.17699 11.5432 5.44493 11.9594C4.86242 12.2906 4.22383 12.5552 4.16031 12.4916C4.14307 12.4744 4.22492 12.3401 4.34226 12.1933C4.6341 11.8282 4.68696 11.6656 4.59752 11.409C4.48456 11.085 4.23149 11.0052 3.66538 11.1147C3.15624 11.2133 2.2561 11.229 2.04516 11.143C1.9231 11.0933 1.93042 11.0828 2.11354 11.0452C3.87407 10.6843 4.75274 10.2924 7.07999 8.82999C8.64162 7.8487 9.2908 7.50236 10.0454 7.24779C10.7628 7.00573 11.4661 6.97024 12.0672 7.1457ZM22.3563 7.20813C22.925 7.35104 24.224 8.01062 25.3964 8.75184C27.945 10.3632 28.7771 10.7376 30.6615 11.1209C30.8214 11.1534 30.8236 11.1593 30.6957 11.2114C30.4736 11.3019 29.6873 11.2843 29.1219 11.1761C28.4983 11.0568 28.264 11.1313 28.1396 11.4881C28.0555 11.7293 28.167 12.0528 28.4099 12.2726C28.4824 12.3383 28.5418 12.4214 28.5418 12.4572C28.5418 12.5695 28.1962 12.4435 27.3521 12.0235C26.9047 11.8008 26.4884 11.6187 26.4271 11.6187C26.2568 11.6187 26.0233 11.8084 25.9 12.0469C25.7705 12.2971 25.7578 12.904 25.8773 13.1272C25.9586 13.2792 25.9562 13.2801 25.5923 13.2369C25.3906 13.213 24.7023 13.0374 24.063 12.8467C22.5475 12.3946 22.1839 12.3124 21.3499 12.2329C20.7016 12.1712 19.9569 12.2112 19.3278 12.3418L19.1056 12.3879V10.2668V8.14553L19.3421 7.93779C20.1818 7.20061 21.274 6.93619 22.3563 7.20813ZM21.533 14.0909C21.3167 14.2092 21.2253 14.3622 21.2253 14.6062C21.2253 14.8642 21.3703 15.0369 21.7524 15.2341C21.895 15.3077 22.1254 15.4859 22.2643 15.6301C23.2029 16.6041 22.8727 18.1226 21.5949 18.7076C21.1806 18.8973 21.0202 19.0804 21.0202 19.3638C21.0202 19.6254 21.2959 19.8925 21.566 19.8925C22.11 19.8925 23.2064 19.0703 23.5815 18.3812C24.1457 17.3446 24.0694 16.1192 23.3825 15.1861C23.0595 14.7474 22.5079 14.2888 22.0962 14.1169C21.8019 13.9939 21.7175 13.99 21.533 14.0909ZM14.1481 31.9412C13.3664 32.2144 12.9923 33.1173 13.3612 33.8404C13.6951 34.4951 14.6217 34.7929 15.0585 34.3859C15.4263 34.0432 15.2635 33.5954 14.7233 33.4644C14.4947 33.4089 14.4164 33.3553 14.4002 33.2431C14.3834 33.128 14.4353 33.0714 14.6325 32.989C15.1161 32.7868 15.2149 32.4021 14.8714 32.0585C14.6612 31.8483 14.4922 31.8209 14.1481 31.9412Z" fill="url(#paint0_linear_2582_17224)"/>
<defs>
<linearGradient id="paint0_linear_2582_17224" x1="0" y1="17.973" x2="32.7394" y2="17.973" gradientUnits="userSpaceOnUse">
<stop stop-color="#00469F"/>
<stop offset="1" stop-color="#1E79D6"/>
</linearGradient>
</defs>
</svg>
