<svg width="65" height="65" viewBox="0 0 65 65" fill="none" xmlns="http://www.w3.org/2000/svg">
<rect width="65" height="65" rx="8" fill="url(#paint0_linear_2582_17177)"/>
<path fill-rule="evenodd" clip-rule="evenodd" d="M17.9858 14.1119C17.7141 14.1691 17.1909 14.3614 16.8234 14.5391C16.2541 14.8144 16.0594 14.9579 15.5089 15.5088C14.9581 16.0601 14.8153 16.254 14.5404 16.8243C14.0165 17.911 13.8762 18.9825 14.1078 20.1276C14.171 20.4397 14.3556 20.9576 14.5404 21.341C14.8163 21.9132 14.9558 22.1024 15.5067 22.6501C16.2144 23.3538 16.7527 23.6821 17.6682 23.9682C18.1047 24.1046 18.3524 24.1336 19.0799 24.1336C19.8074 24.1336 20.0551 24.1046 20.4916 23.9682C21.4097 23.6813 21.9456 23.3542 22.6468 22.6524C23.348 21.9506 23.6749 21.4143 23.9615 20.4955C24.1988 19.7348 24.1988 18.4305 23.9615 17.6698C23.6756 16.7535 23.3476 16.2148 22.6445 15.5066C22.0972 14.9553 21.9082 14.8156 21.3364 14.5395C20.2554 14.0175 19.1213 13.8728 17.9858 14.1119ZM20.285 15.3336C22.1542 15.9146 23.3403 17.941 22.9341 19.8597C22.7622 20.6724 22.457 21.2251 21.8388 21.8438C21.2206 22.4625 20.6684 22.7679 19.8564 22.94C17.1432 23.5152 14.6509 21.021 15.2257 18.3056C15.7153 15.9919 18.0294 14.6325 20.285 15.3336ZM18.5152 16.045C18.5152 16.3184 18.4902 16.3982 18.4047 16.3982C18.344 16.3982 18.1278 16.5651 17.9243 16.7691C17.4942 17.2004 17.3424 17.6098 17.4077 18.1622C17.4578 18.5855 17.584 18.8417 17.8925 19.146C18.194 19.4434 18.4261 19.5627 18.8078 19.6162C19.2863 19.6833 19.4842 19.7839 19.5765 20.0071C19.761 20.4528 19.3195 20.8946 18.8742 20.71C18.7606 20.6629 18.6303 20.5325 18.5833 20.4188C18.4994 20.216 18.4897 20.2129 17.942 20.2129C17.3212 20.2129 17.3178 20.2165 17.4688 20.7211C17.5702 21.0597 18.0102 21.5749 18.3011 21.6955C18.4981 21.7772 18.5152 21.8117 18.5152 22.1289V22.4735H19.0799H19.6446V22.1203C19.6446 21.8469 19.6696 21.7671 19.7551 21.7671C19.9473 21.7671 20.5948 21.0506 20.6881 20.7346C20.986 19.7254 20.3584 18.6823 19.3745 18.5512C18.8777 18.485 18.6774 18.3855 18.5833 18.1582C18.3988 17.7125 18.8403 17.2707 19.2856 17.4553C19.3992 17.5024 19.5295 17.6328 19.5765 17.7465C19.6604 17.9493 19.6701 17.9524 20.2178 17.9524C20.8406 17.9524 20.8417 17.9511 20.6881 17.4307C20.5948 17.1147 19.9473 16.3982 19.7551 16.3982C19.6696 16.3982 19.6446 16.3184 19.6446 16.045V15.6918H19.0799H18.5152V16.045ZM29.809 16.3348C29.085 16.4163 27.9956 16.6381 27.2326 16.8594C26.475 17.0791 25.1694 17.5816 25.1112 17.676C25.0884 17.7128 25.1709 17.9623 25.2943 18.2303L25.5188 18.7178L25.8463 18.5741C26.8656 18.127 28.4645 17.68 29.6325 17.5155C30.4504 17.4004 32.5558 17.4004 33.3736 17.5155C38.7483 18.2721 43.1706 21.9461 44.8739 27.07C45.3085 28.3772 45.6203 30.1197 45.6203 31.2408V31.5158H44.6642C43.7431 31.5158 43.7017 31.5222 43.5348 31.6893C43.4334 31.7908 43.3616 31.9446 43.3616 32.0604C43.3616 32.1938 43.736 32.8557 44.5119 34.094C45.7349 36.0459 45.8221 36.1423 46.2353 35.9969C46.3751 35.9477 46.7759 35.4345 47.7176 34.0989C49.1078 32.1275 49.1601 32.0144 48.8352 31.6893C48.6683 31.5222 48.6269 31.5158 47.7058 31.5158H46.7497V31.0892C46.7497 30.8545 46.7168 30.3538 46.6766 29.9766C45.9143 22.8262 40.3951 17.2213 33.2677 16.3595C32.3837 16.2526 30.6497 16.2403 29.809 16.3348ZM30.5149 23.0796C29.6735 23.229 29.42 23.2867 28.9267 23.441C26.8272 24.0976 24.953 25.7005 23.9542 27.6939C22.2544 31.0862 22.96 35.0904 25.7144 37.6837C27.9903 39.8264 31.1831 40.5328 34.1854 39.558C35.2651 39.2074 36.402 38.5214 37.2917 37.6837C40.8586 34.3255 40.8586 28.7061 37.2917 25.348C36.1584 24.281 34.8871 23.6066 33.2677 23.2133C32.824 23.1056 30.8961 23.012 30.5149 23.0796ZM33.1693 24.3752C33.758 24.5192 34.538 24.8078 34.5382 24.8818C34.5383 24.9301 34.0259 25.0473 33.2677 25.1723C32.1671 25.3538 30.0795 25.2746 28.8384 25.0042C28.6347 24.9599 28.4679 24.9005 28.4679 24.8723C28.4679 24.7477 29.8543 24.3357 30.6913 24.2116C31.1542 24.143 32.6136 24.2393 33.1693 24.3752ZM27.7372 25.8774L28.1711 26.0208L28.0111 26.3841C27.9231 26.584 27.7771 26.9779 27.6868 27.2596C27.5423 27.7099 27.5018 27.7718 27.3508 27.7718C27.1743 27.7718 25.5608 27.4262 25.5104 27.3776C25.3739 27.2461 26.9964 25.6138 27.1887 25.6891C27.2517 25.7138 27.4984 25.7985 27.7372 25.8774ZM36.5329 26.2135C37.0817 26.7334 37.5618 27.3139 37.4958 27.3776C37.4454 27.426 35.8321 27.7718 35.6561 27.7718C35.5044 27.7718 35.4632 27.7057 35.2928 27.1889C35.187 26.8684 35.043 26.479 34.9727 26.3236L34.845 26.041L35.3445 25.8525C35.6193 25.7489 35.8659 25.6615 35.8924 25.6583C35.919 25.6551 36.2072 25.9049 36.5329 26.2135ZM30.4619 26.4021L30.9384 26.449V27.2934V28.1377L30.3208 28.0944C28.9498 27.9984 28.6796 27.9693 28.6796 27.9181C28.6796 27.824 28.9389 27.1146 29.1301 26.6853L29.3152 26.2701L29.6503 26.3126C29.8346 26.3361 30.1998 26.3763 30.4619 26.4021ZM33.8801 26.6944C34.068 27.116 34.3265 27.8247 34.3265 27.9181C34.3265 27.9693 34.0563 27.9984 32.6854 28.0944L32.0678 28.1377V27.2922V26.4466L32.6854 26.3778C33.762 26.2577 33.6752 26.2346 33.8801 26.6944ZM16.6193 27.1183C16.5385 27.1863 15.9156 28.0345 15.2351 29.0033C13.9023 30.9005 13.8482 31.0194 14.171 31.3424C14.3379 31.5095 14.3793 31.5158 15.3004 31.5158H16.2565L16.2586 31.9927C16.2598 32.2549 16.305 32.8351 16.3589 33.2819C17.0357 38.8881 20.6741 43.6207 25.9132 45.7097C29.2372 47.035 33.0858 47.1232 36.4632 45.9513C37.2879 45.6652 37.9264 45.389 37.9264 45.3184C37.9264 45.2902 37.8282 45.0539 37.7082 44.7933L37.49 44.3195L36.8082 44.5993C31.2068 46.8976 24.6385 45.2623 20.7179 40.5935C19.1528 38.7298 18.0728 36.4516 17.6367 34.0943C17.522 33.4744 17.3858 32.2242 17.3858 31.7909V31.5158H18.3419C19.263 31.5158 19.3044 31.5095 19.4713 31.3424C19.5704 31.2433 19.6446 31.0868 19.6446 30.9768C19.6446 30.7536 17.4443 27.1722 17.2399 27.0628C17.0445 26.9581 16.7817 26.9816 16.6193 27.1183ZM25.8915 28.65C26.2797 28.7425 26.7362 28.8404 26.9059 28.8677L27.2144 28.9174L27.1689 29.2452C27.1439 29.4256 27.0879 29.8831 27.0445 30.2619L26.9657 30.9507H25.5891H24.2126L24.2551 30.5445C24.2995 30.1189 24.5661 29.1294 24.7614 28.6652C24.8573 28.4373 24.901 28.4003 25.0307 28.4375C25.1159 28.4619 25.5032 28.5575 25.8915 28.65ZM38.295 28.7961C38.489 29.2858 38.7735 30.4252 38.7735 30.7125V30.9507H37.4027H36.0318L35.9852 30.4739C35.9595 30.2116 35.9096 29.8063 35.8742 29.5732C35.7714 28.8954 35.7359 28.9421 36.4618 28.8012C36.8208 28.7314 37.3053 28.6178 37.5382 28.5485C37.7711 28.4794 38.0052 28.4272 38.0584 28.4328C38.1116 28.4383 38.2181 28.6018 38.295 28.7961ZM17.5209 29.5378L18.0247 30.3502L17.4617 30.3707C17.1521 30.3819 16.6261 30.3819 16.2929 30.3707L15.6872 30.3502L16.2993 29.4805C16.6359 29.0022 16.9351 28.6366 16.9643 28.6681C16.9934 28.6996 17.2439 29.091 17.5209 29.5378ZM30.1443 29.2282L30.9384 29.2754V30.113V30.9507H29.5353H28.1323L28.1621 30.6151C28.1785 30.4305 28.2261 30.0133 28.2679 29.6878L28.3438 29.096L28.847 29.1386C29.1238 29.1619 29.7076 29.2023 30.1443 29.2282ZM34.7395 29.6968C34.7806 30.0173 34.8276 30.4305 34.8441 30.6151L34.8739 30.9507H33.4708H32.0678V30.111V29.2714L33.0736 29.2038C33.6268 29.1666 34.2112 29.1312 34.3722 29.1251L34.6648 29.114L34.7395 29.6968ZM27.0445 32.7697C27.0879 33.1486 27.1438 33.6056 27.1687 33.7854L27.2141 34.1122L26.7498 34.1931C26.4944 34.2376 25.9759 34.3526 25.5975 34.4487C25.2191 34.5447 24.8877 34.5997 24.8609 34.5708C24.6847 34.3802 24.2327 32.738 24.2327 32.2883V32.081H25.5992H26.9657L27.0445 32.7697ZM30.9384 32.9187V33.7563L30.1443 33.8035C29.7076 33.8294 29.1238 33.8697 28.847 33.8931L28.3438 33.9356L28.2679 33.3439C28.2261 33.0184 28.1785 32.6011 28.1621 32.4165L28.1323 32.081H29.5353H30.9384V32.9187ZM34.8472 32.3812C34.8304 32.5463 34.7806 32.9635 34.7366 33.3083L34.6565 33.9351L34.1562 33.8929C33.8811 33.8697 33.2987 33.8294 32.8619 33.8035L32.0678 33.7563V32.9187V32.081H33.4728H34.8778L34.8472 32.3812ZM38.7735 32.2606C38.7735 32.7043 38.3167 34.3853 38.1459 34.5701C38.1195 34.5987 37.7337 34.5302 37.2887 34.4179C36.8436 34.3055 36.3286 34.1911 36.1441 34.1636C35.7691 34.1077 35.7738 34.1201 35.8742 33.4585C35.9096 33.2254 35.9595 32.82 35.9852 32.5578L36.0318 32.081H37.4027H38.7735V32.2606ZM47.2701 32.7344C47.1675 32.9068 46.0992 34.4122 46.0795 34.4122C46.0628 34.4122 45.1854 33.0139 45.0268 32.7344C44.9876 32.6653 45.2317 32.6461 46.1497 32.6461C47.0691 32.6461 47.3114 32.6652 47.2701 32.7344ZM30.9384 35.7429V36.5791L30.1511 36.6646C29.7139 36.7121 29.3369 36.7231 29.3033 36.6895C29.2301 36.6162 28.778 35.5117 28.7136 35.2488C28.6676 35.0612 28.6678 35.0611 29.1854 35.0182C29.7124 34.9746 30.1982 34.9423 30.6737 34.9194L30.9384 34.9067V35.7429ZM33.8208 35.0209L34.3385 35.0612L34.2926 35.2488C34.2282 35.5117 33.776 36.6162 33.7028 36.6895C33.6692 36.7231 33.2923 36.7121 32.855 36.6646L32.0678 36.5791V35.7365V34.894L32.6854 34.9373C33.0251 34.9611 33.536 34.9987 33.8208 35.0209ZM27.6868 35.7721C27.7771 36.0538 27.9231 36.4477 28.0111 36.6476L28.1711 37.0109L27.7372 37.1543C27.4984 37.2332 27.2517 37.3179 27.1887 37.3425C26.9963 37.4179 25.3743 35.7859 25.5104 35.654C25.5649 35.6011 27.0942 35.2699 27.3069 35.265C27.5134 35.2601 27.5294 35.2815 27.6868 35.7721ZM36.8594 35.4841C37.194 35.5668 37.4802 35.6449 37.4958 35.6578C37.6197 35.7611 36.0132 37.4187 35.8537 37.3522C35.8096 37.3337 35.5631 37.2478 35.3058 37.1613L34.8382 37.0038L34.9966 36.644C35.0838 36.4462 35.2302 36.0503 35.3219 35.7643L35.4887 35.2443L35.87 35.2892C36.0797 35.3138 36.5249 35.4016 36.8594 35.4841ZM33.4795 37.9006C34.3371 38.0498 34.5383 38.0972 34.5383 38.1499C34.5383 38.2272 33.6225 38.5563 33.0207 38.6954C32.2509 38.8731 30.7678 38.8718 29.9855 38.6926C29.35 38.5472 28.4679 38.2371 28.4679 38.1593C28.4679 38.0789 29.3006 37.9172 30.4443 37.7757C30.9219 37.7165 32.8861 37.7974 33.4795 37.9006ZM42.8322 38.9783C42.5604 39.0355 42.0373 39.2277 41.6698 39.4055C41.1004 39.6808 40.9057 39.8243 40.3553 40.3752C39.8044 40.9265 39.6616 41.1204 39.3868 41.6907C38.663 43.192 38.663 44.706 39.3868 46.2073C39.6626 46.7796 39.8022 46.9687 40.353 47.5165C41.0607 48.2202 41.599 48.5484 42.5145 48.8346C42.951 48.971 43.1987 49 43.9263 49C44.6538 49 44.9015 48.971 45.338 48.8346C46.256 48.5477 46.7919 48.2205 47.4931 47.5188C48.1943 46.817 48.5212 46.2807 48.8078 45.3619C49.0452 44.6012 49.0452 43.2968 48.8078 42.5362C48.522 41.6199 48.194 41.0812 47.4909 40.3729C46.9435 39.8216 46.7546 39.682 46.1828 39.4059C45.1018 38.8839 43.9677 38.7392 42.8322 38.9783ZM45.1313 40.1999C47.0006 40.781 48.1866 42.8074 47.7805 44.7261C47.6085 45.5388 47.3034 46.0915 46.6852 46.7102C46.067 47.3289 45.5147 47.6343 44.7027 47.8063C41.9895 48.3816 39.4972 45.8873 40.072 43.1719C40.5617 40.8582 42.8758 39.4989 45.1313 40.1999ZM43.3616 40.9114C43.3616 41.1848 43.3366 41.2646 43.2511 41.2646C43.1903 41.2646 42.9742 41.4315 42.7707 41.6355C42.3405 42.0668 42.1887 42.4762 42.2541 43.0285C42.3042 43.4518 42.4304 43.7081 42.7388 44.0124C43.0403 44.3098 43.2725 44.429 43.6541 44.4826C44.1326 44.5496 44.3305 44.6502 44.4229 44.8735C44.6073 45.3191 44.1659 45.7609 43.7206 45.5764C43.6069 45.5292 43.4767 45.3989 43.4296 45.2852C43.3457 45.0824 43.336 45.0793 42.7883 45.0793C42.1675 45.0793 42.1641 45.0829 42.3152 45.5874C42.4166 45.926 42.8566 46.4412 43.1474 46.5618C43.3445 46.6436 43.3616 46.678 43.3616 46.9952V47.3399H43.9263H44.4909V46.9867C44.4909 46.7133 44.5159 46.6335 44.6014 46.6335C44.7937 46.6335 45.4412 45.9169 45.5345 45.6009C45.8324 44.5918 45.2048 43.5487 44.2209 43.4176C43.724 43.3514 43.5237 43.2519 43.4296 43.0246C43.3151 42.7479 43.4441 42.4363 43.7206 42.3217C43.997 42.2071 44.3083 42.3362 44.4229 42.6129C44.5068 42.8156 44.5165 42.8187 45.0642 42.8187C45.687 42.8187 45.6881 42.8175 45.5345 42.2971C45.4412 41.9811 44.7937 41.2646 44.6014 41.2646C44.5159 41.2646 44.4909 41.1848 44.4909 40.9114V40.5581H43.9263H43.3616V40.9114Z" fill="white"/>
<defs>
<linearGradient id="paint0_linear_2582_17177" x1="0" y1="33.3784" x2="65" y2="33.3784" gradientUnits="userSpaceOnUse">
<stop stop-color="#00469F"/>
<stop offset="1" stop-color="#1E79D6"/>
</linearGradient>
</defs>
</svg>
