<svg width="66" height="66" viewBox="0 0 66 66" fill="none" xmlns="http://www.w3.org/2000/svg">
<rect x="0.5" y="0.795898" width="65" height="65" rx="8" fill="url(#paint0_linear_28_780)"/>
<path d="M31 38.7959C32.6569 38.7959 34 37.4528 34 35.7959C34 34.139 32.6569 32.7959 31 32.7959C29.3431 32.7959 28 34.139 28 35.7959C28 37.4528 29.3431 38.7959 31 38.7959Z" stroke="white" stroke-width="2" stroke-linecap="round" stroke-linejoin="round"/>
<path d="M18 48.7959L29 37.7959" stroke="white" stroke-width="2" stroke-linecap="round" stroke-linejoin="round"/>
<path d="M18 48.7959L39.5893 45.2054C39.8024 45.1691 40.002 45.0769 40.1678 44.9382C40.3337 44.7996 40.4598 44.6194 40.5333 44.4161L44 35.1769L31.619 22.7959L22.3798 26.2626C22.1762 26.3401 21.9963 26.4694 21.8579 26.6377C21.7195 26.8059 21.6273 27.0074 21.5905 27.2221L18 48.7959Z" stroke="white" stroke-width="2" stroke-linecap="round" stroke-linejoin="round"/>
<path d="M43.777 35.7959L47.6487 31.6822C47.7599 31.5658 47.8483 31.427 47.9086 31.274C47.9689 31.1209 48 30.9566 48 30.7907C48 30.6247 47.9689 30.4605 47.9086 30.3074C47.8483 30.1543 47.7599 30.0156 47.6487 29.8991L37.5499 19.1692C37.4403 19.051 37.3097 18.9571 37.1656 18.893C37.0216 18.8289 36.867 18.7959 36.7108 18.7959C36.5546 18.7959 36.4 18.8289 36.2559 18.893C36.1119 18.9571 35.9813 19.051 35.8717 19.1692L32 23.2829" stroke="white" stroke-width="2" stroke-linecap="round" stroke-linejoin="round"/>
<defs>
<linearGradient id="paint0_linear_28_780" x1="0.5" y1="34.1743" x2="65.5" y2="34.1743" gradientUnits="userSpaceOnUse">
<stop stop-color="#00469F"/>
<stop offset="1" stop-color="#1E79D6"/>
</linearGradient>
</defs>
</svg>
