<svg width="66" height="66" viewBox="0 0 66 66" fill="none" xmlns="http://www.w3.org/2000/svg">
<rect x="0.5" y="0.795898" width="65" height="65" rx="8" fill="url(#paint0_linear_28_798)"/>
<path d="M40 23.7959H47.3219C47.5958 23.7944 47.8639 23.8652 48.0909 23.999C48.3179 24.1329 48.4932 24.3235 48.5938 24.5459L51 29.7959" stroke="white" stroke-width="2" stroke-linecap="round" stroke-linejoin="round"/>
<path d="M14 33.7959H40" stroke="white" stroke-width="2" stroke-linecap="round" stroke-linejoin="round"/>
<path d="M42 45.7959C44.2091 45.7959 46 44.005 46 41.7959C46 39.5868 44.2091 37.7959 42 37.7959C39.7909 37.7959 38 39.5868 38 41.7959C38 44.005 39.7909 45.7959 42 45.7959Z" stroke="white" stroke-width="2" stroke-miterlimit="10"/>
<path d="M23 45.7959C25.2091 45.7959 27 44.005 27 41.7959C27 39.5868 25.2091 37.7959 23 37.7959C20.7909 37.7959 19 39.5868 19 41.7959C19 44.005 20.7909 45.7959 23 45.7959Z" stroke="white" stroke-width="2" stroke-miterlimit="10"/>
<path d="M38 41.7959H27" stroke="white" stroke-width="2" stroke-linecap="round" stroke-linejoin="round"/>
<path d="M18.55 41.7959H15.3C14.9552 41.7959 14.6246 41.6576 14.3808 41.4115C14.137 41.1653 14 40.8315 14 40.4834V22.1084C14 21.7603 14.137 21.4265 14.3808 21.1803C14.6246 20.9342 14.9552 20.7959 15.3 20.7959H40V38.3834" stroke="white" stroke-width="2" stroke-linecap="round" stroke-linejoin="round"/>
<path d="M40 29.7959H51V40.4626C51 40.8162 50.8551 41.1553 50.5973 41.4054C50.3394 41.6554 49.9897 41.7959 49.625 41.7959H46.1875" stroke="white" stroke-width="2" stroke-linecap="round" stroke-linejoin="round"/>
<defs>
<linearGradient id="paint0_linear_28_798" x1="0.5" y1="34.1743" x2="65.5" y2="34.1743" gradientUnits="userSpaceOnUse">
<stop stop-color="#00469F"/>
<stop offset="1" stop-color="#1E79D6"/>
</linearGradient>
</defs>
</svg>
