<svg width="66" height="66" viewBox="0 0 66 66" fill="none" xmlns="http://www.w3.org/2000/svg">
<rect x="0.5" y="0.795898" width="65" height="65" rx="8" fill="url(#paint0_linear_28_789)"/>
<path d="M25 38.7959H45.7059C46.0491 38.7959 46.3783 38.6624 46.621 38.4249C46.8637 38.1874 47 37.8652 47 37.5292V21.0626C47 20.7266 46.8637 20.4044 46.621 20.1669C46.3783 19.9294 46.0491 19.7959 45.7059 19.7959H27.5882C27.245 19.7959 26.9159 19.9294 26.6732 20.1669C26.4305 20.4044 26.2941 20.7266 26.2941 21.0626V22.3292" stroke="white" stroke-width="2" stroke-linecap="round" stroke-linejoin="round"/>
<path d="M29 34.7959L25 38.7959L29 42.7959" stroke="white" stroke-width="2" stroke-linecap="round" stroke-linejoin="round"/>
<path d="M41 28.7959H20.2941C19.9509 28.7959 19.6217 28.9294 19.379 29.1669C19.1363 29.4044 19 29.7266 19 30.0626V46.5292C19 46.8652 19.1363 47.1874 19.379 47.4249C19.6217 47.6624 19.9509 47.7959 20.2941 47.7959H38.4118C38.755 47.7959 39.0842 47.6624 39.3268 47.4249C39.5695 47.1874 39.7059 46.8652 39.7059 46.5292V45.2626" stroke="white" stroke-width="2" stroke-linecap="round" stroke-linejoin="round"/>
<path d="M37 32.7959L41 28.7959L37 24.7959" stroke="white" stroke-width="2" stroke-linecap="round" stroke-linejoin="round"/>
<defs>
<linearGradient id="paint0_linear_28_789" x1="0.5" y1="34.1743" x2="65.5" y2="34.1743" gradientUnits="userSpaceOnUse">
<stop stop-color="#00469F"/>
<stop offset="1" stop-color="#1E79D6"/>
</linearGradient>
</defs>
</svg>
