<svg width="66" height="66" viewBox="0 0 66 66" fill="none" xmlns="http://www.w3.org/2000/svg">
<rect x="0.5" y="0.795898" width="65" height="65" rx="8" fill="url(#paint0_linear_28_770)"/>
<path d="M32.5 41.3584C36.9528 41.3584 40.5625 37.7487 40.5625 33.2959C40.5625 28.8431 36.9528 25.2334 32.5 25.2334C28.0472 25.2334 24.4375 28.8431 24.4375 33.2959C24.4375 37.7487 28.0472 41.3584 32.5 41.3584Z" stroke="white" stroke-width="2" stroke-linecap="round" stroke-linejoin="round"/>
<path d="M41.8559 22.1257C42.2814 22.5176 42.6846 22.9208 43.0653 23.3351L47.6508 23.9902C48.398 25.2877 48.9739 26.6766 49.3641 28.1222L46.5758 31.8343C46.5758 31.8343 46.6262 32.9765 46.5758 33.5476L49.3641 37.2597C48.9757 38.7059 48.3997 40.095 47.6508 41.3917L43.0653 42.0468C43.0653 42.0468 42.2758 42.8698 41.8559 43.2562L41.2008 47.8417C39.9033 48.5889 38.5144 49.1648 37.0688 49.555L33.3567 46.7667C32.7867 46.8171 32.2134 46.8171 31.6434 46.7667L27.9313 49.555C26.4851 49.1666 25.096 48.5906 23.7993 47.8417L23.1442 43.2562C22.7299 42.8642 22.3267 42.4611 21.9348 42.0468L17.3493 41.3917C16.6021 40.0941 16.0262 38.7052 15.636 37.2597L18.4243 33.5476C18.4243 33.5476 18.3739 32.4054 18.4243 31.8343L15.636 28.1222C16.0244 26.676 16.6004 25.2869 17.3493 23.9902L21.9348 23.3351C22.3267 22.9208 22.7299 22.5176 23.1442 22.1257L23.7993 17.5402C25.0968 16.793 26.4857 16.2171 27.9313 15.8269L31.6434 18.6152C32.2134 18.5648 32.7867 18.5648 33.3567 18.6152L37.0688 15.8269C38.515 16.2153 39.9041 16.7913 41.2008 17.5402L41.8559 22.1257Z" stroke="white" stroke-width="2" stroke-linecap="round" stroke-linejoin="round"/>
<path d="M33 28.7959V29.7959" stroke="white" stroke-linecap="round" stroke-linejoin="round"/>
<path d="M33 37.7959V38.7959" stroke="white" stroke-linecap="round" stroke-linejoin="round"/>
<path d="M35.625 31.7959C35.625 31.5333 35.5765 31.2732 35.4823 31.0305C35.388 30.7879 35.2499 30.5674 35.0758 30.3817C34.9017 30.196 34.695 30.0486 34.4675 29.9481C34.24 29.8476 33.9962 29.7959 33.75 29.7959H32.0625C31.5652 29.7959 31.0883 30.0066 30.7367 30.3817C30.385 30.7568 30.1875 31.2655 30.1875 31.7959C30.1875 32.3263 30.385 32.835 30.7367 33.2101C31.0883 33.5852 31.5652 33.7959 32.0625 33.7959H34.125C34.6223 33.7959 35.0992 34.0066 35.4508 34.3817C35.8025 34.7568 36 35.2655 36 35.7959C36 36.3263 35.8025 36.835 35.4508 37.2101C35.0992 37.5852 34.6223 37.7959 34.125 37.7959H31.875C31.3777 37.7959 30.9008 37.5852 30.5492 37.2101C30.1975 36.835 30 36.3263 30 35.7959" stroke="white" stroke-linecap="round" stroke-linejoin="round"/>
<defs>
<linearGradient id="paint0_linear_28_770" x1="0.5" y1="34.1743" x2="65.5" y2="34.1743" gradientUnits="userSpaceOnUse">
<stop stop-color="#00469F"/>
<stop offset="1" stop-color="#1E79D6"/>
</linearGradient>
</defs>
</svg>
