<svg width="66" height="66" viewBox="0 0 66 66" fill="none" xmlns="http://www.w3.org/2000/svg">
<rect x="0.5" y="0.795898" width="65" height="65" rx="8" fill="white"/>
<path d="M14 33.2959H21.8125L24.9375 28.7959L31.1875 37.7959L34.3125 33.2959H39" stroke="url(#paint0_linear_28_763)" stroke-width="2" stroke-linecap="round" stroke-linejoin="round"/>
<path d="M14.0185 27.2959C14 27.0522 14 26.7897 14 26.5459C14 24.2919 14.7705 22.1076 16.1804 20.3645C17.5904 18.6214 19.5526 17.4273 21.7334 16.9853C23.9141 16.5432 26.1786 16.8806 28.1415 17.94C30.1045 18.9994 31.6447 20.7153 32.5 22.7959V22.7959C33.3554 20.7153 34.8955 18.9994 36.8585 17.94C38.8214 16.8806 41.0859 16.5432 43.2666 16.9853C45.4474 17.4273 47.4096 18.6214 48.8196 20.3645C50.2295 22.1076 51 24.2919 51 26.5459C51 39.2959 32.5 49.7959 32.5 49.7959C32.5 49.7959 25.1185 45.5959 19.6795 39.2959" stroke="url(#paint1_linear_28_763)" stroke-width="2" stroke-linecap="round" stroke-linejoin="round"/>
<defs>
<linearGradient id="paint0_linear_28_763" x1="14" y1="33.4175" x2="39" y2="33.4175" gradientUnits="userSpaceOnUse">
<stop stop-color="#00469F"/>
<stop offset="1" stop-color="#1E79D6"/>
</linearGradient>
<linearGradient id="paint1_linear_28_763" x1="14" y1="33.7418" x2="51" y2="33.7418" gradientUnits="userSpaceOnUse">
<stop stop-color="#00469F"/>
<stop offset="1" stop-color="#1E79D6"/>
</linearGradient>
</defs>
</svg>
