<svg width="34" height="42" viewBox="0 0 34 42" fill="none" xmlns="http://www.w3.org/2000/svg">
<path d="M27.2005 36H31.5505C31.9351 36 32.3039 35.8464 32.5758 35.5729C32.8477 35.2994 33.0005 34.9284 33.0005 34.5417V11.2083L22.8505 1H5.45049C5.06592 1 4.69711 1.15365 4.42518 1.42714C4.15326 1.70063 4.00049 2.07156 4.00049 2.45833V18.5" stroke="url(#paint0_linear_1_1100)" stroke-width="2" stroke-linecap="round" stroke-linejoin="round"/>
<path d="M21.0005 30H1.00049V41H21.0005V30Z" stroke="url(#paint1_linear_1_1100)" stroke-width="2" stroke-linecap="round" stroke-linejoin="round"/>
<path d="M6.00049 30V26.25C6.00049 24.5924 6.52727 23.0027 7.46495 21.8306C8.40264 20.6585 9.67441 20 11.0005 20C12.3266 20 13.5983 20.6585 14.536 21.8306C15.4737 23.0027 16.0005 24.5924 16.0005 26.25V30" stroke="url(#paint2_linear_1_1100)" stroke-width="2" stroke-linecap="round" stroke-linejoin="round"/>
<path d="M7.7084 17.054C7.2884 17.054 6.9779 16.9115 6.7769 16.6265C6.5789 16.3415 6.4799 15.9425 6.4799 15.4295C6.4799 14.9165 6.5789 14.5175 6.7769 14.2325C6.9779 13.9475 7.2884 13.805 7.7084 13.805C8.1284 13.805 8.4374 13.9475 8.6354 14.2325C8.8364 14.5175 8.9369 14.9165 8.9369 15.4295C8.9369 15.9425 8.8364 16.3415 8.6354 16.6265C8.4374 16.9115 8.1284 17.054 7.7084 17.054ZM7.7084 16.523C7.9094 16.523 8.0489 16.4525 8.1269 16.3115C8.2079 16.1705 8.2484 15.974 8.2484 15.722V15.137C8.2484 14.885 8.2079 14.6885 8.1269 14.5475C8.0489 14.4065 7.9094 14.336 7.7084 14.336C7.5074 14.336 7.3664 14.4065 7.2854 14.5475C7.2074 14.6885 7.1684 14.885 7.1684 15.137V15.722C7.1684 15.974 7.2074 16.1705 7.2854 16.3115C7.3664 16.4525 7.5074 16.523 7.7084 16.523ZM7.7084 15.695C7.6034 15.695 7.5299 15.674 7.4879 15.632C7.4489 15.59 7.4294 15.539 7.4294 15.479V15.38C7.4294 15.32 7.4489 15.269 7.4879 15.227C7.5299 15.185 7.6034 15.164 7.7084 15.164C7.8134 15.164 7.8854 15.185 7.9244 15.227C7.9664 15.269 7.9874 15.32 7.9874 15.38V15.479C7.9874 15.539 7.9664 15.59 7.9244 15.632C7.8854 15.674 7.8134 15.695 7.7084 15.695ZM9.47964 17V16.4555H10.3256V14.3495H10.2851L9.64614 15.1865L9.21414 14.849L9.96564 13.859H11.0006V16.4555H11.6666V17H9.47964ZM13.1049 17.054C12.6849 17.054 12.3744 16.9115 12.1734 16.6265C11.9754 16.3415 11.8764 15.9425 11.8764 15.4295C11.8764 14.9165 11.9754 14.5175 12.1734 14.2325C12.3744 13.9475 12.6849 13.805 13.1049 13.805C13.5249 13.805 13.8339 13.9475 14.0319 14.2325C14.2329 14.5175 14.3334 14.9165 14.3334 15.4295C14.3334 15.9425 14.2329 16.3415 14.0319 16.6265C13.8339 16.9115 13.5249 17.054 13.1049 17.054ZM13.1049 16.523C13.3059 16.523 13.4454 16.4525 13.5234 16.3115C13.6044 16.1705 13.6449 15.974 13.6449 15.722V15.137C13.6449 14.885 13.6044 14.6885 13.5234 14.5475C13.4454 14.4065 13.3059 14.336 13.1049 14.336C12.9039 14.336 12.7629 14.4065 12.6819 14.5475C12.6039 14.6885 12.5649 14.885 12.5649 15.137V15.722C12.5649 15.974 12.6039 16.1705 12.6819 16.3115C12.7629 16.4525 12.9039 16.523 13.1049 16.523ZM13.1049 15.695C12.9999 15.695 12.9264 15.674 12.8844 15.632C12.8454 15.59 12.8259 15.539 12.8259 15.479V15.38C12.8259 15.32 12.8454 15.269 12.8844 15.227C12.9264 15.185 12.9999 15.164 13.1049 15.164C13.2099 15.164 13.2819 15.185 13.3209 15.227C13.3629 15.269 13.3839 15.32 13.3839 15.38V15.479C13.3839 15.539 13.3629 15.59 13.3209 15.632C13.2819 15.674 13.2099 15.695 13.1049 15.695ZM14.8761 17V16.4555H15.7221V14.3495H15.6816L15.0426 15.1865L14.6106 14.849L15.3621 13.859H16.3971V16.4555H17.0631V17H14.8761ZM20.2726 17V16.4555H21.1186V14.3495H21.0781L20.4391 15.1865L20.0071 14.849L20.7586 13.859H21.7936V16.4555H22.4596V17H20.2726ZM22.9709 17V16.4555H23.8169V14.3495H23.7764L23.1374 15.1865L22.7054 14.849L23.4569 13.859H24.4919V16.4555H25.1579V17H22.9709ZM26.5961 17.054C26.1761 17.054 25.8656 16.9115 25.6646 16.6265C25.4666 16.3415 25.3676 15.9425 25.3676 15.4295C25.3676 14.9165 25.4666 14.5175 25.6646 14.2325C25.8656 13.9475 26.1761 13.805 26.5961 13.805C27.0161 13.805 27.3251 13.9475 27.5231 14.2325C27.7241 14.5175 27.8246 14.9165 27.8246 15.4295C27.8246 15.9425 27.7241 16.3415 27.5231 16.6265C27.3251 16.9115 27.0161 17.054 26.5961 17.054ZM26.5961 16.523C26.7971 16.523 26.9366 16.4525 27.0146 16.3115C27.0956 16.1705 27.1361 15.974 27.1361 15.722V15.137C27.1361 14.885 27.0956 14.6885 27.0146 14.5475C26.9366 14.4065 26.7971 14.336 26.5961 14.336C26.3951 14.336 26.2541 14.4065 26.1731 14.5475C26.0951 14.6885 26.0561 14.885 26.0561 15.137V15.722C26.0561 15.974 26.0951 16.1705 26.1731 16.3115C26.2541 16.4525 26.3951 16.523 26.5961 16.523ZM26.5961 15.695C26.4911 15.695 26.4176 15.674 26.3756 15.632C26.3366 15.59 26.3171 15.539 26.3171 15.479V15.38C26.3171 15.32 26.3366 15.269 26.3756 15.227C26.4176 15.185 26.4911 15.164 26.5961 15.164C26.7011 15.164 26.7731 15.185 26.8121 15.227C26.8541 15.269 26.8751 15.32 26.8751 15.38V15.479C26.8751 15.539 26.8541 15.59 26.8121 15.632C26.7731 15.674 26.7011 15.695 26.5961 15.695ZM29.2943 17.054C28.8743 17.054 28.5638 16.9115 28.3628 16.6265C28.1648 16.3415 28.0658 15.9425 28.0658 15.4295C28.0658 14.9165 28.1648 14.5175 28.3628 14.2325C28.5638 13.9475 28.8743 13.805 29.2943 13.805C29.7143 13.805 30.0233 13.9475 30.2213 14.2325C30.4223 14.5175 30.5228 14.9165 30.5228 15.4295C30.5228 15.9425 30.4223 16.3415 30.2213 16.6265C30.0233 16.9115 29.7143 17.054 29.2943 17.054ZM29.2943 16.523C29.4953 16.523 29.6348 16.4525 29.7128 16.3115C29.7938 16.1705 29.8343 15.974 29.8343 15.722V15.137C29.8343 14.885 29.7938 14.6885 29.7128 14.5475C29.6348 14.4065 29.4953 14.336 29.2943 14.336C29.0933 14.336 28.9523 14.4065 28.8713 14.5475C28.7933 14.6885 28.7543 14.885 28.7543 15.137V15.722C28.7543 15.974 28.7933 16.1705 28.8713 16.3115C28.9523 16.4525 29.0933 16.523 29.2943 16.523ZM29.2943 15.695C29.1893 15.695 29.1158 15.674 29.0738 15.632C29.0348 15.59 29.0153 15.539 29.0153 15.479V15.38C29.0153 15.32 29.0348 15.269 29.0738 15.227C29.1158 15.185 29.1893 15.164 29.2943 15.164C29.3993 15.164 29.4713 15.185 29.5103 15.227C29.5523 15.269 29.5733 15.32 29.5733 15.38V15.479C29.5733 15.539 29.5523 15.59 29.5103 15.632C29.4713 15.674 29.3993 15.695 29.2943 15.695Z" fill="url(#paint3_linear_1_1100)"/>
<defs>
<linearGradient id="paint0_linear_1_1100" x1="4.00049" y1="18.973" x2="33.0005" y2="18.973" gradientUnits="userSpaceOnUse">
<stop stop-color="#00469F"/>
<stop offset="1" stop-color="#1E79D6"/>
</linearGradient>
<linearGradient id="paint1_linear_1_1100" x1="1.00049" y1="35.6486" x2="21.0005" y2="35.6486" gradientUnits="userSpaceOnUse">
<stop stop-color="#00469F"/>
<stop offset="1" stop-color="#1E79D6"/>
</linearGradient>
<linearGradient id="paint2_linear_1_1100" x1="6.00049" y1="25.1351" x2="16.0005" y2="25.1351" gradientUnits="userSpaceOnUse">
<stop stop-color="#00469F"/>
<stop offset="1" stop-color="#1E79D6"/>
</linearGradient>
<linearGradient id="paint3_linear_1_1100" x1="6.00049" y1="15.0811" x2="31.0005" y2="15.0811" gradientUnits="userSpaceOnUse">
<stop stop-color="#00469F"/>
<stop offset="1" stop-color="#1E79D6"/>
</linearGradient>
</defs>
</svg>
