<svg width="47" height="46" viewBox="0 0 47 46" fill="none" xmlns="http://www.w3.org/2000/svg">
<path d="M40.6538 11.5074C40.0946 11.5069 39.5385 11.5924 39.0053 11.7611C39.0559 11.3592 39.0815 10.9544 39.082 10.5494C38.9824 4.62445 34.0987 -0.0979909 28.1736 0.00154498C23.8501 0.0741611 19.9926 2.73509 18.3892 6.75111C15.2884 4.82832 11.2159 5.78344 9.29325 8.88428C8.66729 9.89372 8.3251 11.0533 8.30268 12.2408C7.46788 11.7588 6.52061 11.5057 5.55668 11.5074C2.59378 11.5074 0.191895 13.9093 0.191895 16.8722C0.191895 19.835 2.59378 22.2369 5.55668 22.2369C5.97992 22.2369 6.32307 21.8938 6.32307 21.4705C6.32307 21.0473 5.97992 20.7041 5.55668 20.7041C3.44056 20.6697 1.75305 18.9265 1.78744 16.8104C1.82183 14.6942 3.5651 13.0067 5.68122 13.0411C6.96934 13.0621 8.1607 13.7289 8.85218 14.8158C9.08402 15.17 9.55899 15.2691 9.91317 15.0374C10.2192 14.8371 10.3411 14.4484 10.2041 14.1092C9.96279 13.5271 9.83681 12.9037 9.83317 12.2737C9.86392 9.49625 12.137 7.26785 14.9144 7.29209C16.1519 7.29698 17.3458 7.75001 18.275 8.56738C18.5941 8.84558 19.0782 8.81243 19.3563 8.49342C19.4317 8.40701 19.4867 8.30469 19.5174 8.19414C20.9197 3.31449 26.0122 0.495584 30.8918 1.8979C34.7661 3.01128 37.4631 6.51889 37.5438 10.5493C37.5405 11.3527 37.4284 12.1519 37.2104 12.9251C37.0971 13.3329 37.3357 13.7554 37.7435 13.8687C37.9642 13.9301 38.2007 13.8895 38.3884 13.7582C39.0513 13.2907 39.8427 13.0399 40.6538 13.0401C42.7702 13.0401 44.4858 14.7557 44.4858 16.8721C44.4858 18.9884 42.7702 20.704 40.6538 20.704C40.2306 20.704 39.8874 21.0472 39.8874 21.4704C39.8874 21.8937 40.2306 22.2368 40.6538 22.2368C43.6167 22.2368 46.0186 19.8349 46.0186 16.8721C46.0186 13.9093 43.6167 11.5074 40.6538 11.5074Z" fill="url(#paint0_linear_1_491)"/>
<path d="M36.127 29.137H10.0695C8.79963 29.137 7.77026 30.1664 7.77026 31.4362V34.5018C7.77026 35.7716 8.79963 36.801 10.0695 36.801H36.127C37.3968 36.801 38.4262 35.7716 38.4262 34.5018V31.4362C38.4262 30.1664 37.3968 29.137 36.127 29.137ZM36.8934 34.5018C36.8934 34.925 36.5502 35.2682 36.127 35.2682H10.0695C9.64621 35.2682 9.30306 34.925 9.30306 34.5018V31.4362C9.30306 31.013 9.64621 30.6698 10.0695 30.6698H36.127C36.5502 30.6698 36.8934 31.013 36.8934 31.4362V34.5018Z" fill="url(#paint1_linear_1_491)"/>
<path d="M34.0047 31.4828C33.188 31.4878 32.5286 32.1512 32.5286 32.9679C32.5325 33.7903 33.2008 34.4545 34.0231 34.4532C34.8434 34.4481 35.5043 33.7791 35.4992 32.9587C35.4941 32.1385 34.825 31.4777 34.0047 31.4828ZM34.0231 33.0163C34.0001 33.0163 33.9848 32.991 33.9848 32.968L34.0231 32.9205V33.0163Z" fill="url(#paint2_linear_1_491)"/>
<path d="M26.0172 32.2012H11.4556C11.0324 32.2012 10.6892 32.5443 10.6892 32.9676C10.6892 33.3908 11.0324 33.734 11.4556 33.734H26.0172C26.4404 33.734 26.7836 33.3908 26.7836 32.9676C26.7836 32.5443 26.4405 32.2012 26.0172 32.2012Z" fill="url(#paint3_linear_1_491)"/>
<path d="M30.7468 32.2012H28.7082C28.285 32.2012 27.9418 32.5443 27.9418 32.9676C27.9418 33.3908 28.285 33.734 28.7082 33.734H30.7468C31.1701 33.734 31.5132 33.3908 31.5132 32.9676C31.5132 32.5443 31.1702 32.2012 30.7468 32.2012Z" fill="url(#paint4_linear_1_491)"/>
<path d="M36.127 38.3358H10.0695C8.79963 38.3358 7.77026 39.3652 7.77026 40.635V43.7006C7.77026 44.9704 8.79963 45.9998 10.0695 45.9998H36.127C37.3968 45.9998 38.4262 44.9704 38.4262 43.7006V40.635C38.4262 39.3652 37.3968 38.3358 36.127 38.3358ZM36.8934 43.7006C36.8934 44.1238 36.5502 44.467 36.127 44.467H10.0695C9.64621 44.467 9.30306 44.1238 9.30306 43.7006V40.635C9.30306 40.2118 9.64621 39.8686 10.0695 39.8686H36.127C36.5502 39.8686 36.8934 40.2118 36.8934 40.635V43.7006Z" fill="url(#paint5_linear_1_491)"/>
<path d="M34.0047 40.6776C33.188 40.6827 32.5286 41.3461 32.5286 42.1628C32.5325 42.9851 33.2008 43.6493 34.0231 43.648C34.8434 43.643 35.5043 42.9739 35.4992 42.1536C35.4941 41.3333 34.825 40.6725 34.0047 40.6776ZM34.0231 42.2111C34.0001 42.2111 33.9848 42.1859 33.9848 42.1629L34.0231 42.1153V42.2111Z" fill="url(#paint6_linear_1_491)"/>
<path d="M26.0172 41.3961H11.4556C11.0324 41.3961 10.6892 41.7392 10.6892 42.1625C10.6892 42.5857 11.0324 42.9289 11.4556 42.9289H26.0172C26.4404 42.9289 26.7836 42.5857 26.7836 42.1625C26.7836 41.7392 26.4405 41.3961 26.0172 41.3961Z" fill="url(#paint7_linear_1_491)"/>
<path d="M30.7468 41.3961H28.7082C28.285 41.3961 27.9418 41.7392 27.9418 42.1625C27.9418 42.5857 28.285 42.9289 28.7082 42.9289H30.7468C31.1701 42.9289 31.5132 42.5857 31.5132 42.1625C31.5132 41.7392 31.1702 41.3961 30.7468 41.3961Z" fill="url(#paint8_linear_1_491)"/>
<path d="M36.1332 19.9373H10.0757C8.8059 19.9373 7.77654 20.9667 7.77654 22.2365V25.3021C7.77654 26.5719 8.8059 27.6013 10.0757 27.6013H36.1332C37.4031 27.6013 38.4324 26.5719 38.4324 25.3021V22.2365C38.4324 20.9667 37.4031 19.9373 36.1332 19.9373ZM36.8996 25.3021C36.8996 25.7253 36.5565 26.0685 36.1332 26.0685H10.0757C9.65248 26.0685 9.30933 25.7253 9.30933 25.3021V22.2365C9.30933 21.8133 9.65248 21.4701 10.0757 21.4701H36.1332C36.5565 21.4701 36.8996 21.8133 36.8996 22.2365V25.3021Z" fill="url(#paint9_linear_1_491)"/>
<path d="M35.2601 23.5588C35.1124 22.7446 34.3327 22.2042 33.5185 22.352C33.1327 22.4219 32.7897 22.6403 32.5632 22.9602C32.3356 23.2813 32.2467 23.6803 32.3164 24.0676C32.4453 24.7811 33.066 25.3001 33.7909 25.3008C33.8747 25.3007 33.9582 25.2938 34.0408 25.2801C34.4343 25.2151 34.785 24.994 35.0133 24.667C35.2416 24.3458 35.3306 23.9463 35.2601 23.5588ZM33.7518 23.8285L33.7863 23.768L33.7902 23.8638C33.7557 23.8638 33.7534 23.8446 33.7518 23.8285Z" fill="url(#paint10_linear_1_491)"/>
<path d="M25.863 23.0034H11.3014C10.8782 23.0034 10.535 23.3465 10.535 23.7698C10.535 24.193 10.8782 24.5362 11.3014 24.5362H25.863C26.2862 24.5362 26.6294 24.193 26.6294 23.7698C26.6294 23.3465 26.2863 23.0034 25.863 23.0034Z" fill="url(#paint11_linear_1_491)"/>
<path d="M30.2576 23.0034H28.219C27.7957 23.0034 27.4526 23.3465 27.4526 23.7698C27.4526 24.193 27.7957 24.5362 28.219 24.5362H30.2576C30.6808 24.5362 31.024 24.193 31.024 23.7698C31.024 23.3465 30.6809 23.0034 30.2576 23.0034Z" fill="url(#paint12_linear_1_491)"/>
<path d="M19.8122 12.5L17.513 10.2008C17.2137 9.90164 16.7286 9.90164 16.4293 10.2008L14.1301 12.5C13.8361 12.8045 13.8445 13.2897 14.149 13.5837C14.446 13.8705 14.9168 13.8705 15.2138 13.5837L16.2048 12.5928V17.6402C16.2048 18.0635 16.5479 18.4066 16.9712 18.4066C17.3944 18.4066 17.7376 18.0635 17.7376 17.6402V12.5928L18.7285 13.5837C19.033 13.8777 19.5182 13.8693 19.8122 13.5648C20.099 13.2679 20.099 12.797 19.8122 12.5Z" fill="url(#paint13_linear_1_491)"/>
<path d="M32.0598 14.7994C31.7628 14.5126 31.292 14.5126 30.9949 14.7994L30.0039 15.7903V10.7428C30.0039 10.3196 29.6608 9.97644 29.2376 9.97644C28.8143 9.97644 28.4712 10.3196 28.4712 10.7428V15.7903L27.4802 14.7994C27.1758 14.5053 26.6906 14.5137 26.3965 14.8182C26.1097 15.1151 26.1097 15.586 26.3965 15.8831L28.6957 18.1823C28.995 18.4814 29.4801 18.4814 29.7794 18.1823L32.0786 15.8831C32.3727 15.5786 32.3643 15.0934 32.0598 14.7994Z" fill="url(#paint14_linear_1_491)"/>
<defs>
<linearGradient id="paint0_linear_1_491" x1="0.191895" y1="11.419" x2="46.0186" y2="11.419" gradientUnits="userSpaceOnUse">
<stop stop-color="#00469F"/>
<stop offset="1" stop-color="#1E79D6"/>
</linearGradient>
<linearGradient id="paint1_linear_1_491" x1="7.77026" y1="33.0726" x2="38.4262" y2="33.0726" gradientUnits="userSpaceOnUse">
<stop stop-color="#00469F"/>
<stop offset="1" stop-color="#1E79D6"/>
</linearGradient>
<linearGradient id="paint2_linear_1_491" x1="32.5286" y1="33.0081" x2="35.4992" y2="33.0081" gradientUnits="userSpaceOnUse">
<stop stop-color="#00469F"/>
<stop offset="1" stop-color="#1E79D6"/>
</linearGradient>
<linearGradient id="paint3_linear_1_491" x1="10.6892" y1="32.9883" x2="26.7836" y2="32.9883" gradientUnits="userSpaceOnUse">
<stop stop-color="#00469F"/>
<stop offset="1" stop-color="#1E79D6"/>
</linearGradient>
<linearGradient id="paint4_linear_1_491" x1="27.9418" y1="32.9883" x2="31.5132" y2="32.9883" gradientUnits="userSpaceOnUse">
<stop stop-color="#00469F"/>
<stop offset="1" stop-color="#1E79D6"/>
</linearGradient>
<linearGradient id="paint5_linear_1_491" x1="7.77026" y1="42.2714" x2="38.4262" y2="42.2714" gradientUnits="userSpaceOnUse">
<stop stop-color="#00469F"/>
<stop offset="1" stop-color="#1E79D6"/>
</linearGradient>
<linearGradient id="paint6_linear_1_491" x1="32.5286" y1="42.2029" x2="35.4992" y2="42.2029" gradientUnits="userSpaceOnUse">
<stop stop-color="#00469F"/>
<stop offset="1" stop-color="#1E79D6"/>
</linearGradient>
<linearGradient id="paint7_linear_1_491" x1="10.6892" y1="42.1832" x2="26.7836" y2="42.1832" gradientUnits="userSpaceOnUse">
<stop stop-color="#00469F"/>
<stop offset="1" stop-color="#1E79D6"/>
</linearGradient>
<linearGradient id="paint8_linear_1_491" x1="27.9418" y1="42.1832" x2="31.5132" y2="42.1832" gradientUnits="userSpaceOnUse">
<stop stop-color="#00469F"/>
<stop offset="1" stop-color="#1E79D6"/>
</linearGradient>
<linearGradient id="paint9_linear_1_491" x1="7.77654" y1="23.8729" x2="38.4324" y2="23.8729" gradientUnits="userSpaceOnUse">
<stop stop-color="#00469F"/>
<stop offset="1" stop-color="#1E79D6"/>
</linearGradient>
<linearGradient id="paint10_linear_1_491" x1="32.2932" y1="23.8544" x2="35.2837" y2="23.8544" gradientUnits="userSpaceOnUse">
<stop stop-color="#00469F"/>
<stop offset="1" stop-color="#1E79D6"/>
</linearGradient>
<linearGradient id="paint11_linear_1_491" x1="10.535" y1="23.7905" x2="26.6294" y2="23.7905" gradientUnits="userSpaceOnUse">
<stop stop-color="#00469F"/>
<stop offset="1" stop-color="#1E79D6"/>
</linearGradient>
<linearGradient id="paint12_linear_1_491" x1="27.4526" y1="23.7905" x2="31.024" y2="23.7905" gradientUnits="userSpaceOnUse">
<stop stop-color="#00469F"/>
<stop offset="1" stop-color="#1E79D6"/>
</linearGradient>
<linearGradient id="paint13_linear_1_491" x1="13.915" y1="14.3055" x2="20.0273" y2="14.3055" gradientUnits="userSpaceOnUse">
<stop stop-color="#00469F"/>
<stop offset="1" stop-color="#1E79D6"/>
</linearGradient>
<linearGradient id="paint14_linear_1_491" x1="26.1814" y1="14.3055" x2="32.2938" y2="14.3055" gradientUnits="userSpaceOnUse">
<stop stop-color="#00469F"/>
<stop offset="1" stop-color="#1E79D6"/>
</linearGradient>
</defs>
</svg>
