<svg width="34" height="29" viewBox="0 0 34 29" fill="none" xmlns="http://www.w3.org/2000/svg">
<path d="M1.00049 6V2.25001C1.00049 1.91849 1.14096 1.60054 1.39101 1.36612C1.64106 1.1317 1.9802 1.00001 2.33382 1.00001H11.1172C11.2903 0.999438 11.4618 1.03089 11.622 1.09255C11.7822 1.15422 11.9278 1.24489 12.0505 1.35938L17.0005 6" stroke="url(#paint0_linear_1_1099)" stroke-width="2" stroke-linecap="round" stroke-linejoin="round"/>
<path d="M33.0005 21H21.0005V28H33.0005V21Z" stroke="url(#paint1_linear_1_1099)" stroke-width="2" stroke-linecap="round" stroke-linejoin="round"/>
<path d="M14.4338 28H2.23382C2.07186 28 1.91148 27.9671 1.76185 27.9032C1.61221 27.8393 1.47625 27.7456 1.36172 27.6275C1.2472 27.5094 1.15635 27.3692 1.09437 27.2148C1.03239 27.0605 1.00049 26.8952 1.00049 26.7281V6H31.6672C32.0208 6 32.3599 6.14487 32.61 6.40273C32.86 6.66059 33.0005 7.01033 33.0005 7.375V10.125" stroke="url(#paint2_linear_1_1099)" stroke-width="2" stroke-linecap="round" stroke-linejoin="round"/>
<path d="M24.0005 21V18.75C24.0005 17.7554 24.3166 16.8016 24.8792 16.0983C25.4418 15.3951 26.2048 15 27.0005 15C27.7961 15 28.5592 15.3951 29.1218 16.0983C29.6844 16.8016 30.0005 17.7554 30.0005 18.75V21" stroke="url(#paint3_linear_1_1099)" stroke-width="2" stroke-linecap="round" stroke-linejoin="round"/>
<defs>
<linearGradient id="paint0_linear_1_1099" x1="1.00049" y1="3.56757" x2="17.0005" y2="3.56757" gradientUnits="userSpaceOnUse">
<stop stop-color="#00469F"/>
<stop offset="1" stop-color="#1E79D6"/>
</linearGradient>
<linearGradient id="paint1_linear_1_1099" x1="21.0005" y1="24.5946" x2="33.0005" y2="24.5946" gradientUnits="userSpaceOnUse">
<stop stop-color="#00469F"/>
<stop offset="1" stop-color="#1E79D6"/>
</linearGradient>
<linearGradient id="paint2_linear_1_1099" x1="1.00049" y1="17.2973" x2="33.0005" y2="17.2973" gradientUnits="userSpaceOnUse">
<stop stop-color="#00469F"/>
<stop offset="1" stop-color="#1E79D6"/>
</linearGradient>
<linearGradient id="paint3_linear_1_1099" x1="24.0005" y1="18.0811" x2="30.0005" y2="18.0811" gradientUnits="userSpaceOnUse">
<stop stop-color="#00469F"/>
<stop offset="1" stop-color="#1E79D6"/>
</linearGradient>
</defs>
</svg>
