<svg width="66" height="66" viewBox="0 0 66 66" fill="none" xmlns="http://www.w3.org/2000/svg">
<rect x="0.5" y="0.5" width="65" height="65" rx="8" fill="url(#paint0_linear_10_1462)"/>
<path d="M46.3293 33.0007H41.9543C41.3742 33.0007 40.8178 33.2312 40.4076 33.6414C39.9973 34.0516 39.7668 34.608 39.7668 35.1882V40.6569C39.7668 41.2371 39.9973 41.7935 40.4076 42.2037C40.8178 42.614 41.3742 42.8444 41.9543 42.8444H44.1418C44.722 42.8444 45.2784 42.614 45.6886 42.2037C46.0989 41.7935 46.3293 41.2371 46.3293 40.6569V33.0007ZM46.3293 33.0007C46.3294 31.2679 45.9863 29.5522 45.3199 27.9526C44.6535 26.353 43.6769 24.9012 42.4465 23.681C41.2162 22.4608 39.7563 21.4963 38.1513 20.8432C36.5462 20.1901 34.8278 19.8613 33.095 19.8757C31.3633 19.8631 29.6463 20.1932 28.0429 20.8472C26.4394 21.5011 24.9812 22.4659 23.7523 23.6859C22.5233 24.906 21.548 26.3571 20.8824 27.9558C20.2169 29.5544 19.8742 31.269 19.8743 33.0007V40.6569C19.8743 41.2371 20.1047 41.7935 20.515 42.2037C20.9252 42.614 21.4816 42.8444 22.0618 42.8444H24.2493C24.8294 42.8444 25.3858 42.614 25.7961 42.2037C26.2063 41.7935 26.4368 41.2371 26.4368 40.6569V35.1882C26.4368 34.608 26.2063 34.0516 25.7961 33.6414C25.3858 33.2312 24.8294 33.0007 24.2493 33.0007H19.8743" stroke="white" stroke-width="2" stroke-linecap="round" stroke-linejoin="round"/>
<path d="M46.3293 40.6565V43.9377C46.3293 45.0981 45.8684 46.2109 45.0479 47.0313C44.2275 47.8518 43.1147 48.3127 41.9543 48.3127H34.093" stroke="white" stroke-width="2" stroke-linecap="round" stroke-linejoin="round"/>
<defs>
<linearGradient id="paint0_linear_10_1462" x1="0.5" y1="33.8784" x2="65.5" y2="33.8784" gradientUnits="userSpaceOnUse">
<stop stop-color="#00469F"/>
<stop offset="1" stop-color="#1E79D6"/>
</linearGradient>
</defs>
</svg>
