<svg width="50" height="50" viewBox="0 0 50 50" fill="none" xmlns="http://www.w3.org/2000/svg">
<path d="M34.1834 12.856H15.8204C14.1729 12.8578 12.8382 14.1928 12.8364 15.8399V34.2029C12.8382 35.85 14.1729 37.1851 15.8204 37.1869H34.1834C35.8305 37.1851 37.1656 35.85 37.1673 34.2029V15.8399C37.1656 14.1928 35.8305 12.8578 34.1834 12.856ZM35.7901 34.2029C35.7888 35.0897 35.0701 35.8088 34.1834 35.8097H15.8204C14.9332 35.8088 14.2145 35.0897 14.2136 34.2029V15.8399C14.2145 14.9527 14.9332 14.2341 15.8204 14.2332H34.1834C35.0701 14.2341 35.7892 14.9527 35.7901 15.8399V34.2029Z" fill="url(#paint0_linear_0_1555)"/>
<path d="M36.4748 9.40881H13.5211C11.24 9.4115 9.39165 11.2595 9.3894 13.5405V36.4942C9.39165 38.7747 11.24 40.6231 13.5211 40.6258H36.4748C38.7553 40.6231 40.6037 38.7747 40.6064 36.4942V13.5405C40.6037 11.2595 38.7553 9.4115 36.4748 9.40881ZM39.2292 36.4942C39.2274 38.0149 37.995 39.2468 36.4748 39.2486H13.5211C12.0004 39.2468 10.7684 38.0149 10.7666 36.4942V13.5405C10.768 12.0198 12.0004 10.7878 13.5211 10.786H36.4748C37.995 10.7878 39.2274 12.0198 39.2292 13.5405V36.4942Z" fill="url(#paint1_linear_0_1555)"/>
<path d="M27.4845 42.8843C27.1039 42.8843 26.7959 43.1927 26.7959 43.5729V49.3113C26.7959 49.6919 27.1039 49.9999 27.4845 49.9999C27.8647 49.9999 28.1731 49.6919 28.1731 49.3113V43.5729C28.1731 43.1927 27.8647 42.8843 27.4845 42.8843Z" fill="url(#paint2_linear_0_1555)"/>
<path d="M22.5189 42.8843C22.1383 42.8843 21.8303 43.1927 21.8303 43.5729V49.3113C21.8303 49.6919 22.1383 49.9999 22.5189 49.9999C22.8991 49.9999 23.2075 49.6919 23.2075 49.3113V43.5729C23.2075 43.1927 22.8991 42.8843 22.5189 42.8843Z" fill="url(#paint3_linear_0_1555)"/>
<path d="M17.5582 42.8843C17.1781 42.8843 16.8696 43.1927 16.8696 43.5729V49.3113C16.8696 49.6919 17.1781 49.9999 17.5582 49.9999C17.9384 49.9999 18.2469 49.6919 18.2469 49.3113V43.5729C18.2469 43.1927 17.9384 42.8843 17.5582 42.8843Z" fill="url(#paint4_linear_0_1555)"/>
<path d="M32.4452 42.8843C32.0646 42.8843 31.7566 43.1927 31.7566 43.5729V49.3113C31.7566 49.6919 32.0646 49.9999 32.4452 49.9999C32.8254 49.9999 33.1338 49.6919 33.1338 49.3113V43.5729C33.1338 43.1927 32.8254 42.8843 32.4452 42.8843Z" fill="url(#paint5_linear_0_1555)"/>
<path d="M23.2075 6.42703V0.688611C23.2075 0.30844 22.8991 0 22.5189 0C22.1383 0 21.8303 0.30844 21.8303 0.688611V6.42703C21.8303 6.80721 22.1383 7.11565 22.5189 7.11565C22.8991 7.11565 23.2075 6.80721 23.2075 6.42703Z" fill="url(#paint6_linear_0_1555)"/>
<path d="M28.1731 6.42703V0.688611C28.1731 0.30844 27.8647 0 27.4845 0C27.1039 0 26.7959 0.30844 26.7959 0.688611V6.42703C26.7959 6.80721 27.1039 7.11565 27.4845 7.11565C27.8647 7.11565 28.1731 6.80721 28.1731 6.42703Z" fill="url(#paint7_linear_0_1555)"/>
<path d="M33.1338 6.42703V0.688611C33.1338 0.30844 32.8254 0 32.4452 0C32.0646 0 31.7566 0.30844 31.7566 0.688611V6.42703C31.7566 6.80721 32.0646 7.11565 32.4452 7.11565C32.8254 7.11565 33.1338 6.80721 33.1338 6.42703Z" fill="url(#paint8_linear_0_1555)"/>
<path d="M18.2469 6.42703V0.688611C18.2469 0.30844 17.9384 0 17.5582 0C17.1781 0 16.8696 0.30844 16.8696 0.688611V6.42703C16.8696 6.80721 17.1781 7.11565 17.5582 7.11565C17.9384 7.11565 18.2469 6.80721 18.2469 6.42703Z" fill="url(#paint9_linear_0_1555)"/>
<path d="M49.3113 21.8303H43.5729C43.1927 21.8303 42.8843 22.1383 42.8843 22.5189C42.8843 22.8991 43.1927 23.2075 43.5729 23.2075H49.3113C49.6919 23.2075 49.9999 22.8991 49.9999 22.5189C49.9999 22.1383 49.6919 21.8303 49.3113 21.8303Z" fill="url(#paint10_linear_0_1555)"/>
<path d="M49.3113 26.791H43.5729C43.1927 26.791 42.8843 27.099 42.8843 27.4796C42.8843 27.8598 43.1927 28.1682 43.5729 28.1682H49.3113C49.6919 28.1682 49.9999 27.8598 49.9999 27.4796C49.9999 27.099 49.6919 26.791 49.3113 26.791Z" fill="url(#paint11_linear_0_1555)"/>
<path d="M49.3113 31.7518H43.5729C43.1927 31.7518 42.8843 32.0598 42.8843 32.4404C42.8843 32.8206 43.1927 33.1291 43.5729 33.1291H49.3113C49.6919 33.1291 49.9999 32.8206 49.9999 32.4404C49.9999 32.0598 49.6919 31.7518 49.3113 31.7518Z" fill="url(#paint12_linear_0_1555)"/>
<path d="M49.3113 16.8695H43.5729C43.1927 16.8695 42.8843 17.1779 42.8843 17.5581C42.8843 17.9383 43.1927 18.2467 43.5729 18.2467H49.3113C49.6919 18.2467 49.9999 17.9383 49.9999 17.5581C49.9999 17.1779 49.6919 16.8695 49.3113 16.8695Z" fill="url(#paint13_linear_0_1555)"/>
<path d="M6.42703 26.791H0.688611C0.30844 26.791 0 27.099 0 27.4796C0 27.8598 0.30844 28.1682 0.688611 28.1682H6.42703C6.80721 28.1682 7.11565 27.8598 7.11565 27.4796C7.11565 27.099 6.80721 26.791 6.42703 26.791Z" fill="url(#paint14_linear_0_1555)"/>
<path d="M6.42703 21.8303H0.688611C0.30844 21.8303 0 22.1383 0 22.5189C0 22.8991 0.30844 23.2075 0.688611 23.2075H6.42703C6.80721 23.2075 7.11565 22.8991 7.11565 22.5189C7.11565 22.1383 6.80721 21.8303 6.42703 21.8303Z" fill="url(#paint15_linear_0_1555)"/>
<path d="M6.42703 16.8695H0.688611C0.30844 16.8695 0 17.1779 0 17.5581C0 17.9383 0.30844 18.2467 0.688611 18.2467H6.42703C6.80721 18.2467 7.11565 17.9383 7.11565 17.5581C7.11565 17.1779 6.80721 16.8695 6.42703 16.8695Z" fill="url(#paint16_linear_0_1555)"/>
<path d="M6.42703 31.7518H0.688611C0.30844 31.7518 0 32.0598 0 32.4404C0 32.8206 0.30844 33.1291 0.688611 33.1291H6.42703C6.80721 33.1291 7.11565 32.8206 7.11565 32.4404C7.11565 32.0598 6.80721 31.7518 6.42703 31.7518Z" fill="url(#paint17_linear_0_1555)"/>
<path d="M24.356 20.1169C24.2547 19.8139 23.8763 19.6624 23.4975 19.6624C23.1187 19.6624 22.7524 19.8139 22.6515 20.1169L20.1392 28.2973C20.1289 28.3345 20.1248 28.3731 20.1266 28.4112C20.1266 28.7394 20.5938 28.9667 20.96 28.9667C21.1873 28.9667 21.364 28.8909 21.4272 28.6887L21.9445 26.8964H25.063L25.5804 28.6887C25.6436 28.8909 25.8202 28.9667 26.035 28.9667C26.4138 28.9667 26.8809 28.7268 26.8809 28.4112C26.8787 28.3722 26.8702 28.3337 26.8554 28.2973L24.356 20.1169ZM22.2351 25.8231L23.4975 21.4928L24.76 25.8231H22.2351Z" fill="url(#paint18_linear_0_1555)"/>
<path d="M28.5492 19.738C28.2211 19.738 27.8799 19.864 27.8799 20.1671V28.5246C27.8799 28.8151 28.2211 28.9666 28.5492 28.9666C28.8899 28.9666 29.2181 28.8151 29.2181 28.5246V20.1675C29.2181 19.864 28.8899 19.738 28.5492 19.738Z" fill="url(#paint19_linear_0_1555)"/>
<defs>
<linearGradient id="paint0_linear_0_1555" x1="12.8364" y1="25.3502" x2="37.1673" y2="25.3502" gradientUnits="userSpaceOnUse">
<stop stop-color="#00469F"/>
<stop offset="1" stop-color="#1E79D6"/>
</linearGradient>
<linearGradient id="paint1_linear_0_1555" x1="9.3894" y1="25.4392" x2="40.6064" y2="25.4392" gradientUnits="userSpaceOnUse">
<stop stop-color="#00469F"/>
<stop offset="1" stop-color="#1E79D6"/>
</linearGradient>
<linearGradient id="paint2_linear_0_1555" x1="26.7959" y1="46.5383" x2="28.1731" y2="46.5383" gradientUnits="userSpaceOnUse">
<stop stop-color="#00469F"/>
<stop offset="1" stop-color="#1E79D6"/>
</linearGradient>
<linearGradient id="paint3_linear_0_1555" x1="21.8303" y1="46.5383" x2="23.2075" y2="46.5383" gradientUnits="userSpaceOnUse">
<stop stop-color="#00469F"/>
<stop offset="1" stop-color="#1E79D6"/>
</linearGradient>
<linearGradient id="paint4_linear_0_1555" x1="16.8696" y1="46.5383" x2="18.2469" y2="46.5383" gradientUnits="userSpaceOnUse">
<stop stop-color="#00469F"/>
<stop offset="1" stop-color="#1E79D6"/>
</linearGradient>
<linearGradient id="paint5_linear_0_1555" x1="31.7566" y1="46.5383" x2="33.1338" y2="46.5383" gradientUnits="userSpaceOnUse">
<stop stop-color="#00469F"/>
<stop offset="1" stop-color="#1E79D6"/>
</linearGradient>
<linearGradient id="paint6_linear_0_1555" x1="21.8303" y1="3.65398" x2="23.2075" y2="3.65398" gradientUnits="userSpaceOnUse">
<stop stop-color="#00469F"/>
<stop offset="1" stop-color="#1E79D6"/>
</linearGradient>
<linearGradient id="paint7_linear_0_1555" x1="26.7959" y1="3.65398" x2="28.1731" y2="3.65398" gradientUnits="userSpaceOnUse">
<stop stop-color="#00469F"/>
<stop offset="1" stop-color="#1E79D6"/>
</linearGradient>
<linearGradient id="paint8_linear_0_1555" x1="31.7566" y1="3.65398" x2="33.1338" y2="3.65398" gradientUnits="userSpaceOnUse">
<stop stop-color="#00469F"/>
<stop offset="1" stop-color="#1E79D6"/>
</linearGradient>
<linearGradient id="paint9_linear_0_1555" x1="16.8696" y1="3.65398" x2="18.2469" y2="3.65398" gradientUnits="userSpaceOnUse">
<stop stop-color="#00469F"/>
<stop offset="1" stop-color="#1E79D6"/>
</linearGradient>
<linearGradient id="paint10_linear_0_1555" x1="42.8843" y1="22.5375" x2="49.9999" y2="22.5375" gradientUnits="userSpaceOnUse">
<stop stop-color="#00469F"/>
<stop offset="1" stop-color="#1E79D6"/>
</linearGradient>
<linearGradient id="paint11_linear_0_1555" x1="42.8843" y1="27.4982" x2="49.9999" y2="27.4982" gradientUnits="userSpaceOnUse">
<stop stop-color="#00469F"/>
<stop offset="1" stop-color="#1E79D6"/>
</linearGradient>
<linearGradient id="paint12_linear_0_1555" x1="42.8843" y1="32.4591" x2="49.9999" y2="32.4591" gradientUnits="userSpaceOnUse">
<stop stop-color="#00469F"/>
<stop offset="1" stop-color="#1E79D6"/>
</linearGradient>
<linearGradient id="paint13_linear_0_1555" x1="42.8843" y1="17.5767" x2="49.9999" y2="17.5767" gradientUnits="userSpaceOnUse">
<stop stop-color="#00469F"/>
<stop offset="1" stop-color="#1E79D6"/>
</linearGradient>
<linearGradient id="paint14_linear_0_1555" x1="0" y1="27.4982" x2="7.11565" y2="27.4982" gradientUnits="userSpaceOnUse">
<stop stop-color="#00469F"/>
<stop offset="1" stop-color="#1E79D6"/>
</linearGradient>
<linearGradient id="paint15_linear_0_1555" x1="0" y1="22.5375" x2="7.11565" y2="22.5375" gradientUnits="userSpaceOnUse">
<stop stop-color="#00469F"/>
<stop offset="1" stop-color="#1E79D6"/>
</linearGradient>
<linearGradient id="paint16_linear_0_1555" x1="0" y1="17.5767" x2="7.11565" y2="17.5767" gradientUnits="userSpaceOnUse">
<stop stop-color="#00469F"/>
<stop offset="1" stop-color="#1E79D6"/>
</linearGradient>
<linearGradient id="paint17_linear_0_1555" x1="0" y1="32.4591" x2="7.11565" y2="32.4591" gradientUnits="userSpaceOnUse">
<stop stop-color="#00469F"/>
<stop offset="1" stop-color="#1E79D6"/>
</linearGradient>
<linearGradient id="paint18_linear_0_1555" x1="20.1262" y1="24.4402" x2="26.8809" y2="24.4402" gradientUnits="userSpaceOnUse">
<stop stop-color="#00469F"/>
<stop offset="1" stop-color="#1E79D6"/>
</linearGradient>
<linearGradient id="paint19_linear_0_1555" x1="27.8799" y1="24.477" x2="29.2181" y2="24.477" gradientUnits="userSpaceOnUse">
<stop stop-color="#00469F"/>
<stop offset="1" stop-color="#1E79D6"/>
</linearGradient>
</defs>
</svg>
