<svg width="50" height="50" viewBox="0 0 50 50" fill="none" xmlns="http://www.w3.org/2000/svg">
<path d="M44.1467 12.5078C43.5365 12.5073 42.9298 12.6003 42.348 12.7836C42.4032 12.3467 42.4311 11.9068 42.4316 11.4665C42.323 5.0265 36.9945 -0.10651 30.5299 0.0016793C25.8127 0.0806087 21.6039 2.97288 19.8545 7.33805C16.4713 5.24809 12.028 6.28625 9.93018 9.65668C9.24722 10.7539 8.87386 12.0143 8.8494 13.305C7.93858 12.7812 6.90505 12.5061 5.85333 12.5078C2.62062 12.5078 0 15.1185 0 18.339C0 21.5595 2.62062 24.1702 5.85333 24.1702C6.31512 24.1702 6.68952 23.7972 6.68952 23.3372C6.68952 22.8771 6.31512 22.5042 5.85333 22.5042C3.54451 22.4668 1.70332 20.572 1.74084 18.2719C1.77837 15.9718 3.68039 14.1375 5.98921 14.1749C7.39464 14.1977 8.6945 14.9225 9.44895 16.1039C9.7019 16.4889 10.2201 16.5966 10.6066 16.3448C10.9405 16.127 11.0735 15.7046 10.924 15.3359C10.6607 14.7032 10.5232 14.0256 10.5193 13.3407C10.5528 10.3219 13.0329 7.89972 16.0632 7.92607C17.4135 7.93138 18.716 8.4238 19.7299 9.31223C20.078 9.61461 20.6062 9.57859 20.9097 9.23184C20.9919 9.13791 21.0519 9.0267 21.0854 8.90654C22.6154 3.60265 28.1717 0.53867 33.4956 2.0629C37.7227 3.27308 40.6654 7.08565 40.7534 11.4664C40.7499 12.3397 40.6275 13.2084 40.3897 14.0488C40.266 14.4921 40.5264 14.9513 40.9713 15.0745C41.2121 15.1411 41.4701 15.0971 41.6749 14.9543C42.3982 14.4462 43.2617 14.1736 44.1467 14.1738C46.4557 14.1738 48.3276 16.0386 48.3276 18.3389C48.3276 20.6392 46.4557 22.5041 44.1467 22.5041C43.6849 22.5041 43.3105 22.877 43.3105 23.3371C43.3105 23.7971 43.6849 24.1701 44.1467 24.1701C47.3794 24.1701 50 21.5594 50 18.3389C50 15.1185 47.3794 12.5078 44.1467 12.5078Z" fill="url(#paint0_linear_0_1607)"/>
<path d="M39.2047 31.6692H10.7742C9.38873 31.6692 8.26562 32.7881 8.26562 34.1683V37.5004C8.26562 38.8806 9.38873 39.9995 10.7742 39.9995H39.2047C40.5901 39.9995 41.7132 38.8806 41.7132 37.5004V34.1683C41.7132 32.7881 40.5901 31.6692 39.2047 31.6692ZM40.0409 37.5004C40.0409 37.9604 39.6665 38.3334 39.2047 38.3334H10.7742C10.3124 38.3334 9.93801 37.9604 9.93801 37.5004V34.1683C9.93801 33.7082 10.3124 33.3352 10.7742 33.3352H39.2047C39.6665 33.3352 40.0409 33.7082 40.0409 34.1683V37.5004Z" fill="url(#paint1_linear_0_1607)"/>
<path d="M36.8996 34.2217C36.0085 34.2272 35.2891 34.9484 35.2891 35.8362C35.2932 36.7301 36.0224 37.4521 36.9196 37.4508C37.8147 37.4453 38.5357 36.7179 38.5301 35.8262C38.5246 34.9345 37.7946 34.2162 36.8996 34.2217ZM36.9196 35.8888C36.8945 35.8888 36.8778 35.8613 36.8778 35.8363L36.9196 35.7846V35.8888Z" fill="url(#paint2_linear_0_1607)"/>
<path d="M28.1769 35.0029H12.2893C11.8275 35.0029 11.4531 35.376 11.4531 35.836C11.4531 36.2961 11.8275 36.6692 12.2893 36.6692H28.1769C28.6387 36.6692 29.0131 36.2961 29.0131 35.836C29.0131 35.376 28.6388 35.0029 28.1769 35.0029Z" fill="url(#paint3_linear_0_1607)"/>
<path d="M33.3417 35.0029H31.1174C30.6557 35.0029 30.2812 35.376 30.2812 35.836C30.2812 36.2961 30.6557 36.6692 31.1174 36.6692H33.3417C33.8035 36.6692 34.1779 36.2961 34.1779 35.836C34.1779 35.376 33.8036 35.0029 33.3417 35.0029Z" fill="url(#paint4_linear_0_1607)"/>
<path d="M39.2047 41.6697H10.7742C9.38873 41.6697 8.26562 42.7885 8.26562 44.1688V47.5009C8.26562 48.8811 9.38873 50 10.7742 50H39.2047C40.5901 50 41.7132 48.8811 41.7132 47.5009V44.1688C41.7132 42.7885 40.5901 41.6697 39.2047 41.6697ZM40.0409 47.5009C40.0409 47.9609 39.6665 48.3339 39.2047 48.3339H10.7742C10.3124 48.3339 9.93801 47.9609 9.93801 47.5009V44.1688C9.93801 43.7087 10.3124 43.3357 10.7742 43.3357H39.2047C39.6665 43.3357 40.0409 43.7087 40.0409 44.1688V47.5009Z" fill="url(#paint5_linear_0_1607)"/>
<path d="M36.8996 44.2116C36.0085 44.2171 35.2891 44.9383 35.2891 45.8261C35.2932 46.72 36.0224 47.442 36.9196 47.4406C37.8147 47.4351 38.5357 46.7078 38.5301 45.8161C38.5246 44.9244 37.7946 44.2061 36.8996 44.2116ZM36.9196 45.8786C36.8945 45.8786 36.8778 45.8512 36.8778 45.8262L36.9196 45.7745V45.8786Z" fill="url(#paint6_linear_0_1607)"/>
<path d="M28.1769 44.9965H12.2893C11.8275 44.9965 11.4531 45.3695 11.4531 45.8296C11.4531 46.2897 11.8275 46.6627 12.2893 46.6627H28.1769C28.6387 46.6627 29.0131 46.2897 29.0131 45.8296C29.0131 45.3695 28.6388 44.9965 28.1769 44.9965Z" fill="url(#paint7_linear_0_1607)"/>
<path d="M33.3417 44.9965H31.1174C30.6557 44.9965 30.2812 45.3695 30.2812 45.8296C30.2812 46.2897 30.6557 46.6627 31.1174 46.6627H33.3417C33.8035 46.6627 34.1779 46.2897 34.1779 45.8296C34.1779 45.3695 33.8036 44.9965 33.3417 44.9965Z" fill="url(#paint8_linear_0_1607)"/>
<path d="M39.2125 21.6693H10.782C9.39655 21.6693 8.27344 22.7882 8.27344 24.1684V27.5005C8.27344 28.8807 9.39655 29.9996 10.782 29.9996H39.2125C40.5979 29.9996 41.7211 28.8807 41.7211 27.5005V24.1684C41.7211 22.7882 40.5979 21.6693 39.2125 21.6693ZM40.0487 27.5005C40.0487 27.9605 39.6743 28.3335 39.2125 28.3335H10.782C10.3202 28.3335 9.94582 27.9605 9.94582 27.5005V24.1684C9.94582 23.7084 10.3202 23.3354 10.782 23.3354H39.2125C39.6743 23.3354 40.0487 23.7084 40.0487 24.1684V27.5005Z" fill="url(#paint9_linear_0_1607)"/>
<path d="M38.2644 25.6053C38.1032 24.7202 37.2525 24.1328 36.3642 24.2934C35.9433 24.3694 35.5691 24.6069 35.3219 24.9546C35.0736 25.3037 34.9766 25.7374 35.0526 26.1584C35.1933 26.934 35.8705 27.4982 36.6614 27.4989C36.7528 27.4988 36.8439 27.4913 36.934 27.4764C37.3634 27.4058 37.7461 27.1655 37.9952 26.8099C38.2442 26.4609 38.3414 26.0265 38.2644 25.6053ZM36.6188 25.8985L36.6564 25.8327L36.6606 25.9368C36.623 25.9368 36.6205 25.916 36.6188 25.8985Z" fill="url(#paint10_linear_0_1607)"/>
<path d="M28.0051 25.0031H12.1174C11.6557 25.0031 11.2812 25.3761 11.2812 25.8362C11.2812 26.2963 11.6557 26.6693 12.1174 26.6693H28.0051C28.4668 26.6693 28.8412 26.2963 28.8412 25.8362C28.8412 25.3761 28.4669 25.0031 28.0051 25.0031Z" fill="url(#paint11_linear_0_1607)"/>
<path d="M32.8066 25.0031H30.5823C30.1205 25.0031 29.7461 25.3761 29.7461 25.8362C29.7461 26.2963 30.1205 26.6693 30.5823 26.6693H32.8066C33.2683 26.6693 33.6427 26.2963 33.6427 25.8362C33.6427 25.3761 33.2684 25.0031 32.8066 25.0031Z" fill="url(#paint12_linear_0_1607)"/>
<path d="M21.4069 13.5859L18.8983 11.0868C18.5718 10.7616 18.0425 10.7616 17.7159 11.0868L15.2073 13.5859C14.8866 13.9168 14.8958 14.4442 15.2279 14.7638C15.552 15.0755 16.0657 15.0755 16.3897 14.7638L17.4709 13.6867V19.173C17.4709 19.633 17.8453 20.006 18.3071 20.006C18.7689 20.006 19.1433 19.633 19.1433 19.173V13.6867L20.2245 14.7638C20.5567 15.0833 21.0861 15.0742 21.4069 14.7433C21.7198 14.4205 21.7198 13.9087 21.4069 13.5859Z" fill="url(#paint13_linear_0_1607)"/>
<path d="M34.7653 16.0851C34.4413 15.7734 33.9275 15.7734 33.6034 16.0851L32.5222 17.1622V11.6759C32.5222 11.2159 32.1478 10.8429 31.686 10.8429C31.2242 10.8429 30.8498 11.2159 30.8498 11.6759V17.1622L29.7686 16.0851C29.4365 15.7655 28.9072 15.7746 28.5863 16.1055C28.2733 16.4283 28.2733 16.9401 28.5863 17.263L31.0948 19.7621C31.4214 20.0873 31.9507 20.0873 32.2772 19.7621L34.7858 17.263C35.1067 16.9321 35.0975 16.4047 34.7653 16.0851Z" fill="url(#paint14_linear_0_1607)"/>
<defs>
<linearGradient id="paint0_linear_0_1607" x1="0" y1="12.4117" x2="50" y2="12.4117" gradientUnits="userSpaceOnUse">
<stop stop-color="#00469F"/>
<stop offset="1" stop-color="#1E79D6"/>
</linearGradient>
<linearGradient id="paint1_linear_0_1607" x1="8.26563" y1="35.9469" x2="41.7132" y2="35.9469" gradientUnits="userSpaceOnUse">
<stop stop-color="#00469F"/>
<stop offset="1" stop-color="#1E79D6"/>
</linearGradient>
<linearGradient id="paint2_linear_0_1607" x1="35.2891" y1="35.8799" x2="38.5302" y2="35.8799" gradientUnits="userSpaceOnUse">
<stop stop-color="#00469F"/>
<stop offset="1" stop-color="#1E79D6"/>
</linearGradient>
<linearGradient id="paint3_linear_0_1607" x1="11.4531" y1="35.8586" x2="29.0131" y2="35.8586" gradientUnits="userSpaceOnUse">
<stop stop-color="#00469F"/>
<stop offset="1" stop-color="#1E79D6"/>
</linearGradient>
<linearGradient id="paint4_linear_0_1607" x1="30.2813" y1="35.8586" x2="34.1779" y2="35.8586" gradientUnits="userSpaceOnUse">
<stop stop-color="#00469F"/>
<stop offset="1" stop-color="#1E79D6"/>
</linearGradient>
<linearGradient id="paint5_linear_0_1607" x1="8.26563" y1="45.9474" x2="41.7132" y2="45.9474" gradientUnits="userSpaceOnUse">
<stop stop-color="#00469F"/>
<stop offset="1" stop-color="#1E79D6"/>
</linearGradient>
<linearGradient id="paint6_linear_0_1607" x1="35.2891" y1="45.8697" x2="38.5302" y2="45.8697" gradientUnits="userSpaceOnUse">
<stop stop-color="#00469F"/>
<stop offset="1" stop-color="#1E79D6"/>
</linearGradient>
<linearGradient id="paint7_linear_0_1607" x1="11.4531" y1="45.8521" x2="29.0131" y2="45.8521" gradientUnits="userSpaceOnUse">
<stop stop-color="#00469F"/>
<stop offset="1" stop-color="#1E79D6"/>
</linearGradient>
<linearGradient id="paint8_linear_0_1607" x1="30.2813" y1="45.8521" x2="34.1779" y2="45.8521" gradientUnits="userSpaceOnUse">
<stop stop-color="#00469F"/>
<stop offset="1" stop-color="#1E79D6"/>
</linearGradient>
<linearGradient id="paint9_linear_0_1607" x1="8.27344" y1="25.947" x2="41.7211" y2="25.947" gradientUnits="userSpaceOnUse">
<stop stop-color="#00469F"/>
<stop offset="1" stop-color="#1E79D6"/>
</linearGradient>
<linearGradient id="paint10_linear_0_1607" x1="35.0273" y1="25.9266" x2="38.2902" y2="25.9266" gradientUnits="userSpaceOnUse">
<stop stop-color="#00469F"/>
<stop offset="1" stop-color="#1E79D6"/>
</linearGradient>
<linearGradient id="paint11_linear_0_1607" x1="11.2813" y1="25.8587" x2="28.8412" y2="25.8587" gradientUnits="userSpaceOnUse">
<stop stop-color="#00469F"/>
<stop offset="1" stop-color="#1E79D6"/>
</linearGradient>
<linearGradient id="paint12_linear_0_1607" x1="29.7461" y1="25.8587" x2="33.6427" y2="25.8587" gradientUnits="userSpaceOnUse">
<stop stop-color="#00469F"/>
<stop offset="1" stop-color="#1E79D6"/>
</linearGradient>
<linearGradient id="paint13_linear_0_1607" x1="14.9727" y1="15.5483" x2="21.6416" y2="15.5483" gradientUnits="userSpaceOnUse">
<stop stop-color="#00469F"/>
<stop offset="1" stop-color="#1E79D6"/>
</linearGradient>
<linearGradient id="paint14_linear_0_1607" x1="28.3516" y1="15.5483" x2="35.0206" y2="15.5483" gradientUnits="userSpaceOnUse">
<stop stop-color="#00469F"/>
<stop offset="1" stop-color="#1E79D6"/>
</linearGradient>
</defs>
</svg>
