<svg width="66" height="65" viewBox="0 0 66 65" fill="none" xmlns="http://www.w3.org/2000/svg">
<rect x="0.5" width="65" height="65" rx="8" fill="url(#paint0_linear_0_1786)"/>
<path fill-rule="evenodd" clip-rule="evenodd" d="M27.5044 15.0985L27.412 15.1936V16.6097V18.0258L27.5158 18.1262C27.6478 18.2539 27.8522 18.2579 27.9871 18.1353L28.0792 18.0515V16.6076V15.1637L27.991 15.0835C27.862 14.9663 27.6257 14.9736 27.5044 15.0985ZM32.6735 16.9423C32.6106 16.9945 32.4648 17.1239 32.3495 17.2299C32.2341 17.3358 31.8996 17.6359 31.606 17.8968C30.7194 18.6847 30.6719 18.7353 30.6719 18.8911C30.6719 19.0787 30.808 19.2077 31.0061 19.2077C31.0937 19.2077 31.183 19.1812 31.227 19.1422C31.948 18.5037 32.7427 17.7892 33.044 17.5087C33.2826 17.2865 33.313 17.1925 33.2087 16.9975C33.1113 16.8152 32.8581 16.7891 32.6735 16.9423ZM41.5381 17.9574C41.2813 18.0059 40.9194 18.1921 40.8139 18.33C40.5139 18.7222 40.8668 19.89 41.454 20.448C41.8625 20.8363 42.4129 20.8501 42.8619 20.4834C43.3088 20.1184 43.7588 18.9885 43.6348 18.543C43.5533 18.2502 43.2473 18.0405 42.7797 17.9572C42.5164 17.9103 41.7868 17.9104 41.5381 17.9574ZM42.7581 18.6161C43.0039 18.6873 43.0089 18.6958 42.9549 18.9565C42.9009 19.2169 42.6998 19.6579 42.5461 19.8527C42.4 20.0381 42.2172 20.1393 42.1038 20.0975C41.9602 20.0448 41.7109 19.7572 41.5818 19.4958C41.432 19.1921 41.3278 18.7772 41.3846 18.7109C41.4222 18.6671 41.6169 18.6054 41.8431 18.5657C41.993 18.5394 42.6106 18.5735 42.7581 18.6161ZM41.4416 21.0144C37.2178 21.3586 33.8197 24.4511 33.2091 28.5063C33.1767 28.7219 33.1501 28.9647 33.1501 29.0457C33.1501 29.1268 33.1394 29.245 33.1263 29.3084L33.1025 29.4236H32.3618C31.4399 29.4236 31.3582 29.4519 31.3582 29.7706C31.3582 29.8515 31.39 29.9192 31.4565 29.9797C31.5412 30.0567 31.5991 30.0709 31.8741 30.082L32.1934 30.0949L32.2533 30.2694C32.3244 30.4765 32.6367 30.9733 32.8143 31.1617C32.8837 31.2353 33.0005 31.3307 33.0739 31.3736C33.2058 31.4509 33.2328 31.4518 35.4495 31.4519C36.7484 31.452 37.6829 31.4659 37.6708 31.4849C37.6592 31.5029 37.6042 31.5288 37.5483 31.5423C37.3844 31.5821 37.1311 31.7706 37.0392 31.9211C36.991 31.9999 36.9456 32.1494 36.9348 32.2648C36.8992 32.6427 37.0733 32.8974 37.6548 33.3183C38.1068 33.6455 38.1123 34.0308 37.6798 35.0848C37.4918 35.5432 37.3502 35.7856 37.175 35.9495L37.0391 36.0766L37.0379 35.9495C37.0352 35.6684 36.9124 35.6196 36.2072 35.6196H35.6373L35.6214 35.3791C35.6092 35.1925 35.5865 35.1202 35.5205 35.0564L35.4353 34.9742L30.6463 34.9817L25.8573 34.9893L25.7673 35.0712C25.6349 35.1915 25.6403 35.4386 25.7777 35.5431C25.878 35.6195 25.883 35.6196 30.4101 35.6196H34.9421V38.1825V40.7453L28.9338 40.7549L22.9255 40.7645L22.8335 40.8679C22.6995 41.0185 22.7094 41.1929 22.8588 41.3144L22.976 41.4099H29.1908H35.4055L35.5169 41.3021C35.6283 41.1943 35.6284 41.1939 35.6284 40.7304V40.2666H36.2547H36.881L36.96 40.1694C37.0149 40.1019 37.0391 40.0184 37.0391 39.896V39.7198L37.2011 39.6953C37.4686 39.6549 38.2136 39.4667 38.6404 39.3317C40.1423 38.8568 41.6124 38.0853 42.6247 37.2405C43.0054 36.9228 43.6853 36.2576 44.2624 35.638C45.2312 34.598 45.9258 34.0137 47.0799 33.2682C47.8711 32.757 47.9801 32.6483 48.0107 32.3406C48.0432 32.0133 47.87 31.7187 47.5467 31.5513L47.3906 31.4705L49.2397 31.4521C51.3088 31.4315 51.1688 31.4502 51.486 31.1503C51.6966 30.9511 52.0028 30.5028 52.0895 30.2666L52.1552 30.0875H52.4342C52.7578 30.0875 52.9067 30.0284 52.973 29.8736C53.0321 29.7357 52.9925 29.5889 52.8714 29.4968C52.7827 29.4293 52.7155 29.4236 52.004 29.4236H51.2328L51.2068 29.1009C51.0872 27.6201 50.598 26.2103 49.7831 24.998C48.346 22.8599 46.0886 21.4534 43.5055 21.0865C42.9236 21.0038 41.9768 20.9707 41.4416 21.0144ZM14.9064 21.1122C13.9743 21.3038 13.3558 21.828 13.0846 22.656L13 22.9142V35.5458C13 47.6956 13.0027 48.1858 13.07 48.3968C13.3065 49.1384 13.7767 49.608 14.5814 49.9065L14.792 49.9846L21.1973 49.995C28.2985 50.0065 27.8698 50.0201 28.4072 49.7649C29.057 49.4563 29.4988 48.891 29.625 48.2065C29.7026 47.7855 29.7047 43.787 29.6275 43.6081C29.5395 43.4043 29.2363 43.3552 29.0823 43.5198C29.0178 43.5888 29.0121 43.7406 28.994 45.8855C28.977 47.9054 28.9672 48.1956 28.9114 48.33C28.752 48.7147 28.4604 49.022 28.0854 49.2006L27.833 49.3208H21.3316H14.8301L14.5782 49.2015C14.3342 49.086 14.0472 48.8411 13.8921 48.616C13.8517 48.5574 13.7846 48.4039 13.7429 48.275C13.668 48.0431 13.6672 47.9079 13.6672 35.5458C13.6672 23.1777 13.668 23.0486 13.7431 22.8135C13.8712 22.4121 14.1659 22.0864 14.5788 21.8898L14.8285 21.7709H21.3299H27.8314L28.0411 21.8673C28.4359 22.0489 28.7355 22.347 28.8895 22.7114C28.9745 22.9125 28.9754 22.9336 28.9943 25.2615C29.0122 27.4666 29.0175 27.6133 29.0829 27.6831C29.2354 27.8461 29.5203 27.8093 29.6252 27.6131C29.7048 27.4642 29.7046 23.3173 29.625 22.8852C29.5027 22.2214 29.0578 21.6384 28.4453 21.3394C27.9314 21.0884 28.5409 21.109 21.4261 21.1024C17.8822 21.0992 14.9483 21.1036 14.9064 21.1122ZM32.1236 21.6267C31.9743 21.7482 31.9644 21.9225 32.0983 22.0731L32.1903 22.1766L33.4723 22.1872L34.7544 22.1979L34.8673 22.0886C34.9873 21.9726 35.009 21.8539 34.9379 21.7029C34.8614 21.5406 34.7813 21.5312 33.4753 21.5312H32.2409L32.1236 21.6267ZM43.482 21.7324C45.222 22.0215 46.7173 22.7425 47.9571 23.8902C49.5095 25.3273 50.395 27.1664 50.5459 29.2669L50.5571 29.4236H45.2139C39.9177 29.4236 39.8699 29.4243 39.7732 29.4978C39.5703 29.6523 39.6225 29.9649 39.865 30.0466C39.9516 30.0758 41.6164 30.0875 45.6996 30.0875C48.8419 30.0875 51.4128 30.0999 51.4126 30.1152C51.4117 30.1878 51.175 30.5285 51.0284 30.6684L50.8641 30.8251H42.1409H33.4176L33.3125 30.7126C33.2025 30.5949 32.9214 30.1686 32.9214 30.1195C32.9214 30.104 33.3347 30.0862 33.8398 30.0802L34.7582 30.0691L34.8501 29.9656C34.9958 29.8016 34.9524 29.5474 34.7645 29.4646C34.7134 29.4421 34.4727 29.4236 34.2295 29.4236H33.7873L33.8139 29.0837C33.8825 28.2044 34.2042 27.0625 34.6153 26.2394C35.2705 24.9273 36.3195 23.7715 37.5919 22.9596C38.0833 22.6461 38.9745 22.2295 39.5276 22.0546C40.0292 21.896 40.7547 21.7368 41.233 21.6804C41.6652 21.6295 43.0559 21.6616 43.482 21.7324ZM44.4642 22.6739C44.3429 22.7662 44.3036 22.9128 44.3629 23.0514C44.3994 23.1365 44.4968 23.2014 44.8322 23.3641C46.6184 24.2305 47.771 25.701 48.2267 27.6947C48.2806 27.9304 48.3247 28.1644 48.3247 28.2147C48.3247 28.4719 48.4735 28.6267 48.7143 28.6201C48.8655 28.616 49.011 28.4709 49.0108 28.3244C49.0106 28.153 48.8978 27.5783 48.7787 27.1416C48.4652 25.9924 47.8506 24.9218 47.0329 24.1004C46.5531 23.6184 45.7429 23.0587 45.068 22.743C44.7248 22.5825 44.6027 22.5685 44.4642 22.6739ZM18.6809 23.3288C18.5596 23.3557 18.4362 23.4875 18.4111 23.617C18.3697 23.8308 18.5447 24.0368 18.7692 24.0382C18.9372 24.0393 19.0296 23.987 19.1033 23.8491C19.2498 23.575 18.9936 23.2594 18.6809 23.3288ZM20.4647 23.3273C20.4182 23.336 20.3367 23.3931 20.2836 23.4542C20.1476 23.6105 20.1532 23.7908 20.2984 23.9313L20.4098 24.0391H22.3792H24.3487L24.4601 23.9313C24.6603 23.7376 24.5879 23.4355 24.3176 23.3361C24.2263 23.3025 20.6407 23.2943 20.4647 23.3273ZM15.3393 25.6071C15.1241 25.7202 15.1287 26.0516 15.3471 26.1608C15.5103 26.2425 27.1507 26.2427 27.3139 26.1611C27.434 26.101 27.4692 26.038 27.4692 25.8831C27.4692 25.7282 27.434 25.6652 27.3139 25.6051C27.1529 25.5246 15.4927 25.5265 15.3393 25.6071ZM25.3896 29.5142C25.2965 29.6042 25.2656 29.7835 25.3196 29.9199C25.3638 30.0312 25.5463 30.0875 25.8631 30.0875C26.1344 30.0875 26.1796 30.0773 26.2843 29.992C26.4428 29.863 26.4502 29.648 26.3008 29.5141C26.2085 29.4314 26.1691 29.4236 25.8415 29.4236C25.5118 29.4236 25.4756 29.4309 25.3896 29.5142ZM27.8094 29.5314C27.7333 29.605 27.698 29.6762 27.698 29.7556C27.698 29.8349 27.7333 29.9061 27.8094 29.9797L27.9208 30.0875H28.8217C29.821 30.0875 29.906 30.0711 29.9806 29.8642C30.0305 29.7258 29.9598 29.5261 29.8388 29.4635C29.7898 29.4381 29.4278 29.4236 28.8414 29.4236H27.9208L27.8094 29.5314ZM46.6261 31.4829C46.6062 31.4998 46.5041 31.5438 46.3993 31.5805C45.9598 31.7347 45.1873 32.147 44.4738 32.6083C43.9175 32.968 43.5994 33.1967 42.8725 33.7595C41.5425 34.7892 40.992 35.0516 40.7298 34.7806C40.5842 34.63 40.5305 34.509 40.2552 33.7106C40.1171 33.3102 39.9359 32.8515 39.8527 32.6912C39.5865 32.1788 39.1264 31.8007 38.5233 31.5987C38.3537 31.5419 38.2049 31.4857 38.1926 31.4738C38.1803 31.4618 40.0809 31.4521 42.4162 31.4521C44.7516 31.4521 46.646 31.4659 46.6261 31.4829ZM47.299 32.1746C47.3397 32.2102 47.3579 32.2565 47.3419 32.2839C47.3267 32.31 47.0484 32.5031 46.7233 32.7128C45.4728 33.5201 44.8086 34.0774 43.787 35.177C43.1358 35.8779 42.1908 36.7682 41.7954 37.0533C40.6215 37.8997 38.9901 38.6286 37.4966 38.974C37.3184 39.0152 37.1425 39.0491 37.1058 39.0492C37.0437 39.0495 37.0391 38.9708 37.0391 37.9112V36.7729L37.2202 36.7064C37.471 36.6144 37.86 36.2284 38.0403 35.8928C38.244 35.5135 38.5138 34.8268 38.6066 34.4513C38.7175 34.0027 38.6926 33.6363 38.5294 33.3155C38.4097 33.0803 38.26 32.9287 37.8631 32.6404C37.5319 32.3999 37.5093 32.2332 37.7966 32.1499C38.0642 32.0723 38.6135 32.2801 38.953 32.5874C39.1931 32.8046 39.3703 33.1608 39.6266 33.9415C40.0049 35.0937 40.2671 35.4371 40.836 35.526C41.1857 35.5806 41.8104 35.3423 42.4124 34.9248C42.5711 34.8148 42.9497 34.5329 43.2538 34.2985C44.0125 33.7136 44.0601 33.6785 44.4929 33.384C45.3288 32.8153 46.2674 32.3008 46.739 32.1527C46.9952 32.0723 47.1909 32.0799 47.299 32.1746ZM22.8238 34.9779C22.6976 35.0634 22.6543 35.1992 22.7053 35.3489C22.7757 35.5552 22.8966 35.5902 23.492 35.5763C24.0018 35.5644 24.0073 35.5634 24.0984 35.4608C24.244 35.2968 24.2006 35.0426 24.0127 34.9598C23.9596 34.9364 23.7039 34.9189 23.4153 34.9189C23.0146 34.9189 22.893 34.931 22.8238 34.9779ZM36.3818 37.9523L36.3719 39.6212L36.0001 39.6317L35.6284 39.6422V37.9628V36.2834H36.01H36.3917L36.3818 37.9523ZM18.031 38.4762C17.8347 38.6661 17.957 38.979 18.2477 39.0304C18.3182 39.0429 19.0851 39.0481 19.952 39.0421L21.5281 39.0311L21.62 38.9276C21.744 38.7881 21.7434 38.597 21.6184 38.4762L21.5249 38.3856H19.8247H18.1246L18.031 38.4762ZM33.4711 39.4141C33.1092 39.6276 33.2728 40.1559 33.7008 40.1559C33.9006 40.1559 34.0422 40.0584 34.1035 39.8787C34.2281 39.5135 33.816 39.2107 33.4711 39.4141ZM15.8565 44.8183C15.6326 44.9126 15.5976 45.2082 15.7927 45.3567C15.8876 45.4289 15.9611 45.4299 21.3307 45.4299C26.7259 45.4299 26.7735 45.4292 26.8701 45.3557C27.0731 45.2012 27.0209 44.8886 26.7784 44.8069C26.5843 44.7414 16.0128 44.7525 15.8565 44.8183ZM20.7017 46.969C20.371 47.0491 20.1987 47.461 20.3774 47.7445C20.5282 47.9837 20.6269 48.0112 21.3346 48.0114C21.9294 48.0115 21.9755 48.0065 22.0972 47.9278C22.4589 47.694 22.4359 47.2145 22.0538 47.025C21.9014 46.9494 21.837 46.9423 21.3322 46.9462C21.0273 46.9486 20.7436 46.9588 20.7017 46.969Z" fill="white"/>
<defs>
<linearGradient id="paint0_linear_0_1786" x1="0.5" y1="33.3784" x2="65.5" y2="33.3784" gradientUnits="userSpaceOnUse">
<stop stop-color="#00469F"/>
<stop offset="1" stop-color="#1E79D6"/>
</linearGradient>
</defs>
</svg>
