<svg width="66" height="65" viewBox="0 0 66 65" fill="none" xmlns="http://www.w3.org/2000/svg">
<rect x="0.5" width="65" height="65" rx="8" fill="white"/>
<path d="M18.3412 35.7171C18.7419 35.7171 19.0668 35.3892 19.0668 34.9846V10.6C19.0668 9.69864 19.7933 8.96521 20.6863 8.96521H45.3138C46.2067 8.96521 46.9333 9.69864 46.9333 10.6V15.9947C46.9333 16.3993 47.2582 16.7272 47.6589 16.7272C48.0596 16.7272 48.3845 16.3993 48.3845 15.9947V10.6C48.3845 8.8908 47.0069 7.50032 45.3138 7.50032H20.6863C18.9932 7.50032 17.6156 8.8908 17.6156 10.6V34.9846C17.6156 35.3891 17.9405 35.7171 18.3412 35.7171Z" fill="url(#paint0_linear_0_1796)"/>
<path d="M48.3845 19.4105C48.3845 19.0059 48.0596 18.6781 47.6589 18.6781C47.2582 18.6781 46.9333 19.0059 46.9333 19.4105V49.7211H19.0668V38.4004C19.0668 37.9958 18.7419 37.668 18.3412 37.668C17.9405 37.668 17.6156 37.9958 17.6156 38.4004V54.4C17.6156 56.1092 18.9932 57.4997 20.6863 57.4997H39.8361C40.2368 57.4997 40.5617 57.1719 40.5617 56.7673C40.5617 56.3626 40.2368 56.0348 39.8361 56.0348H20.6863C19.7933 56.0348 19.0668 55.3014 19.0668 54.4V51.186H46.9333V54.4C46.9333 55.3014 46.2067 56.0348 45.3138 56.0348H43.2222C42.8214 56.0348 42.4966 56.3626 42.4966 56.7673C42.4966 57.1719 42.8214 57.4997 43.2222 57.4997H45.3138C47.0069 57.4997 48.3845 56.1092 48.3845 54.4V19.4105Z" fill="url(#paint1_linear_0_1796)"/>
<path d="M32.9963 35.9585C31.4376 35.9585 30.1696 37.2385 30.1696 38.812C30.1696 40.3855 31.4376 41.6656 32.9963 41.6656C34.5549 41.6656 35.823 40.3855 35.823 38.812C35.823 37.2385 34.5549 35.9585 32.9963 35.9585ZM32.9963 40.2006C32.2378 40.2006 31.6207 39.5776 31.6207 38.8119C31.6207 38.0463 32.2378 37.4233 32.9963 37.4233C33.7547 37.4233 34.3718 38.0463 34.3718 38.8119C34.3718 39.5776 33.7547 40.2006 32.9963 40.2006Z" fill="url(#paint2_linear_0_1796)"/>
<path d="M41.142 36.7594C41.5911 36.2673 41.6702 35.5473 41.3387 34.9677L40.469 33.4471C40.1376 32.8675 39.4802 32.5771 38.8335 32.7231L37.1879 33.0958C37.1724 33.0993 37.1542 33.0943 37.1378 33.0823C36.7353 32.7858 36.3001 32.5319 35.8443 32.3279C35.8261 32.3197 35.813 32.3065 35.8084 32.2914L35.3054 30.6668C35.1077 30.0282 34.5295 29.5989 33.8666 29.5989H32.1271C31.4642 29.5989 30.886 30.0282 30.6883 30.6667L30.1853 32.2914C30.1807 32.3065 30.1675 32.3197 30.1492 32.3279C29.6936 32.5319 29.2584 32.7858 28.8558 33.0823C28.8394 33.0943 28.821 33.0995 28.8059 33.0958L27.16 32.7231C26.513 32.5766 25.856 32.8675 25.5246 33.447L24.6549 34.9677C24.3234 35.5473 24.4025 36.2673 24.8516 36.7594L25.9944 38.012C26.0051 38.0236 26.0099 38.042 26.0078 38.0625C25.9813 38.3128 25.9677 38.5662 25.9677 38.8157C25.9677 39.0651 25.9812 39.3184 26.0078 39.569C26.0099 39.5893 26.0051 39.6077 25.9944 39.6193L24.8516 40.8719C24.4025 41.364 24.3234 42.084 24.6549 42.6636L25.5246 44.1842C25.856 44.7637 26.5133 45.0543 27.1601 44.9082L28.8057 44.5355C28.8214 44.5322 28.8393 44.537 28.8559 44.5491C29.2589 44.8459 29.6941 45.0997 30.149 45.3033C30.1673 45.3115 30.1806 45.3249 30.1852 45.3399L30.6882 46.9645C30.8859 47.6032 31.4641 48.0324 32.127 48.0324H33.8665C34.5294 48.0324 35.1076 47.6031 35.3053 46.9646L35.8083 45.3399C35.8129 45.3249 35.8262 45.3115 35.8442 45.3034C36.2994 45.0997 36.7347 44.8459 37.1379 44.5489C37.1542 44.5369 37.1722 44.532 37.1876 44.5355L38.8335 44.9082C39.4804 45.0548 40.1375 44.7637 40.4689 44.1843L41.3386 42.6636C41.6701 42.084 41.591 41.364 41.1419 40.8719L39.9991 39.6193C39.9884 39.6077 39.9836 39.5893 39.9857 39.5688C40.0122 39.3185 40.0258 39.0651 40.0258 38.8157C40.0258 38.5662 40.0123 38.3129 39.9857 38.0623C39.9836 38.042 39.9884 38.0236 39.9991 38.012L41.142 36.7594ZM38.543 38.2183C38.5641 38.4171 38.5748 38.6181 38.5748 38.8156C38.5748 39.013 38.5641 39.214 38.5431 39.4126C38.4963 39.8525 38.638 40.2895 38.9319 40.6115L40.0747 41.8641C40.0915 41.8825 40.0945 41.9093 40.0821 41.931L39.2122 43.4517C39.2 43.4732 39.1753 43.484 39.1513 43.4786L37.5052 43.1058C37.082 43.01 36.6362 43.1048 36.2825 43.3655C35.9628 43.601 35.6175 43.8023 35.2561 43.964C34.8561 44.1431 34.5525 44.4853 34.4234 44.9026L33.9204 46.5273C33.913 46.5511 33.8914 46.5671 33.8667 46.5671H32.1272C32.1025 46.5671 32.0809 46.5511 32.0735 46.5272L31.5705 44.9026C31.4414 44.4853 31.1378 44.1431 30.7375 43.9639C30.3764 43.8023 30.0311 43.601 29.7116 43.3657C29.4481 43.1715 29.1337 43.0693 28.8155 43.0693C28.7063 43.0693 28.5966 43.0814 28.4883 43.1058L26.8426 43.4786C26.8184 43.4845 26.7939 43.4733 26.7815 43.4516L25.9118 41.931C25.8994 41.9093 25.9023 41.8825 25.9191 41.8641L27.0621 40.6115C27.3559 40.2894 27.4975 39.8525 27.4509 39.4128C27.4298 39.214 27.4191 39.013 27.4191 38.8156C27.4191 38.6181 27.4297 38.4171 27.4508 38.2185C27.4975 37.7786 27.3559 37.3416 27.062 37.0196L25.9191 35.767C25.9024 35.7487 25.8994 35.7218 25.9118 35.7001L26.7816 34.1794C26.7939 34.1578 26.8183 34.1467 26.8426 34.1525L28.4887 34.5253C28.912 34.6211 29.3576 34.5263 29.7115 34.2657C30.0308 34.0304 30.3761 33.8291 30.7375 33.6672C31.1377 33.4882 31.4413 33.146 31.5705 32.7285L32.0735 31.1038C32.0809 31.08 32.1024 31.064 32.1272 31.064H33.8667C33.8914 31.064 33.913 31.08 33.9204 31.1039L34.4234 32.7285C34.5526 33.146 34.8563 33.4882 35.2563 33.6672C35.6179 33.8291 35.9632 34.0304 36.2825 34.2657C36.6364 34.5263 37.082 34.6207 37.5056 34.5253L39.1513 34.1525C39.1755 34.1473 39.2 34.1578 39.2123 34.1795L40.0821 35.7001C40.0945 35.7218 40.0916 35.7486 40.0747 35.767L38.9318 37.0196C38.638 37.3417 38.4962 37.7786 38.543 38.2183Z" fill="url(#paint3_linear_0_1796)"/>
<path d="M36.2438 13.0246H32.5087C32.108 13.0246 31.7831 13.3524 31.7831 13.757C31.7831 14.1616 32.108 14.4895 32.5087 14.4895H36.2438C36.6445 14.4895 36.9694 14.1616 36.9694 13.757C36.9694 13.3524 36.6445 13.0246 36.2438 13.0246Z" fill="url(#paint4_linear_0_1796)"/>
<path d="M25.6729 14.4895H29.3865C29.7872 14.4895 30.1121 14.1616 30.1121 13.757C30.1121 13.3524 29.7872 13.0246 29.3865 13.0246H25.6729C25.2721 13.0246 24.9473 13.3524 24.9473 13.757C24.9473 14.1616 25.2721 14.4895 25.6729 14.4895Z" fill="url(#paint5_linear_0_1796)"/>
<path d="M25.6729 17.649H34.0892C34.4899 17.649 34.8148 17.3212 34.8148 16.9166C34.8148 16.512 34.4899 16.1841 34.0892 16.1841H25.6729C25.2721 16.1841 24.9473 16.512 24.9473 16.9166C24.9473 17.3212 25.2721 17.649 25.6729 17.649Z" fill="url(#paint6_linear_0_1796)"/>
<path d="M36.4885 16.9166C36.4885 17.3212 36.8134 17.649 37.2141 17.649H40.3297C40.7304 17.649 41.0553 17.3212 41.0553 16.9166C41.0553 16.512 40.7304 16.1841 40.3297 16.1841H37.2141C36.8134 16.1841 36.4885 16.512 36.4885 16.9166Z" fill="url(#paint7_linear_0_1796)"/>
<path d="M25.6729 20.8025H29.1911C29.5918 20.8025 29.9167 20.4747 29.9167 20.0701C29.9167 19.6655 29.5918 19.3376 29.1911 19.3376H25.6729C25.2721 19.3376 24.9473 19.6655 24.9473 20.0701C24.9473 20.4747 25.2721 20.8025 25.6729 20.8025Z" fill="url(#paint8_linear_0_1796)"/>
<path d="M34.0872 19.3376H32.3164C31.9157 19.3376 31.5908 19.6655 31.5908 20.0701C31.5908 20.4747 31.9157 20.8025 32.3164 20.8025H34.0872C34.488 20.8025 34.8128 20.4747 34.8128 20.0701C34.8128 19.6655 34.488 19.3376 34.0872 19.3376Z" fill="url(#paint9_linear_0_1796)"/>
<path d="M40.3294 19.3376H37.2022C36.8014 19.3376 36.4766 19.6655 36.4766 20.0701C36.4766 20.4747 36.8014 20.8025 37.2022 20.8025H40.3294C40.7302 20.8025 41.055 20.4747 41.055 20.0701C41.055 19.6655 40.7302 19.3376 40.3294 19.3376Z" fill="url(#paint10_linear_0_1796)"/>
<path d="M25.6729 23.9605H34.0892C34.4899 23.9605 34.8148 23.6327 34.8148 23.2281C34.8148 22.8235 34.4899 22.4957 34.0892 22.4957H25.6729C25.2721 22.4957 24.9473 22.8235 24.9473 23.2281C24.9473 23.6327 25.2721 23.9605 25.6729 23.9605Z" fill="url(#paint11_linear_0_1796)"/>
<path d="M40.319 22.4957H37.2141C36.8134 22.4957 36.4885 22.8235 36.4885 23.2281C36.4885 23.6327 36.8134 23.9605 37.2141 23.9605H40.319C40.7197 23.9605 41.0446 23.6327 41.0446 23.2281C41.0446 22.8235 40.7197 22.4957 40.319 22.4957Z" fill="url(#paint12_linear_0_1796)"/>
<path d="M25.6729 27.1156H27.1387C27.5395 27.1156 27.8643 26.7877 27.8643 26.3831C27.8643 25.9785 27.5395 25.6507 27.1387 25.6507H25.6729C25.2721 25.6507 24.9473 25.9785 24.9473 26.3831C24.9473 26.7877 25.2721 27.1156 25.6729 27.1156Z" fill="url(#paint13_linear_0_1796)"/>
<path d="M40.3195 25.6507H30.2642C29.8634 25.6507 29.5386 25.9785 29.5386 26.3831C29.5386 26.7877 29.8634 27.1156 30.2642 27.1156H40.3195C40.7202 27.1156 41.0451 26.7877 41.0451 26.3831C41.0451 25.9785 40.7202 25.6507 40.3195 25.6507Z" fill="url(#paint14_linear_0_1796)"/>
<path d="M40.3231 14.4895C40.7238 14.4895 41.0486 14.1616 41.0486 13.757C41.0486 13.3524 40.7238 13.0246 40.3231 13.0246H39.3566C38.9559 13.0246 38.631 13.3524 38.631 13.757C38.631 14.1616 38.9559 14.4895 39.3566 14.4895H40.3231Z" fill="url(#paint15_linear_0_1796)"/>
<path d="M22.8698 10.7359C22.5114 10.5548 22.0757 10.7017 21.8964 11.0635L21.31 12.2473C21.2079 12.4536 21.2079 12.6963 21.31 12.9025L21.8964 14.0863C22.0235 14.343 22.2797 14.4913 22.5459 14.4913C22.655 14.4913 22.7657 14.4663 22.8698 14.4138C23.2283 14.2328 23.3736 13.793 23.1943 13.4311L22.7702 12.5749L23.1943 11.7186C23.3735 11.3569 23.2283 10.9169 22.8698 10.7359Z" fill="url(#paint16_linear_0_1796)"/>
<path d="M43.1308 27.0397C43.235 27.0923 43.3456 27.1172 43.4547 27.1172C43.7208 27.1172 43.9771 26.9688 44.1042 26.7122L44.6906 25.5284C44.7928 25.3221 44.7928 25.0794 44.6906 24.8732L44.1042 23.6894C43.925 23.3276 43.4893 23.181 43.1308 23.3618C42.7723 23.5428 42.627 23.9826 42.8063 24.3445L43.2304 25.2007L42.8063 26.057C42.6271 26.4188 42.7723 26.8588 43.1308 27.0397Z" fill="url(#paint17_linear_0_1796)"/>
<defs>
<linearGradient id="paint0_linear_0_1796" x1="17.6156" y1="21.99" x2="48.3845" y2="21.99" gradientUnits="userSpaceOnUse">
<stop stop-color="#00469F"/>
<stop offset="1" stop-color="#1E79D6"/>
</linearGradient>
<linearGradient id="paint1_linear_0_1796" x1="17.6156" y1="38.6135" x2="48.3845" y2="38.6135" gradientUnits="userSpaceOnUse">
<stop stop-color="#00469F"/>
<stop offset="1" stop-color="#1E79D6"/>
</linearGradient>
<linearGradient id="paint2_linear_0_1796" x1="30.1696" y1="38.8892" x2="35.823" y2="38.8892" gradientUnits="userSpaceOnUse">
<stop stop-color="#00469F"/>
<stop offset="1" stop-color="#1E79D6"/>
</linearGradient>
<linearGradient id="paint3_linear_0_1796" x1="24.4514" y1="39.0648" x2="41.5422" y2="39.0648" gradientUnits="userSpaceOnUse">
<stop stop-color="#00469F"/>
<stop offset="1" stop-color="#1E79D6"/>
</linearGradient>
<linearGradient id="paint4_linear_0_1796" x1="31.7831" y1="13.7768" x2="36.9694" y2="13.7768" gradientUnits="userSpaceOnUse">
<stop stop-color="#00469F"/>
<stop offset="1" stop-color="#1E79D6"/>
</linearGradient>
<linearGradient id="paint5_linear_0_1796" x1="24.9473" y1="13.7768" x2="30.1121" y2="13.7768" gradientUnits="userSpaceOnUse">
<stop stop-color="#00469F"/>
<stop offset="1" stop-color="#1E79D6"/>
</linearGradient>
<linearGradient id="paint6_linear_0_1796" x1="24.9473" y1="16.9364" x2="34.8148" y2="16.9364" gradientUnits="userSpaceOnUse">
<stop stop-color="#00469F"/>
<stop offset="1" stop-color="#1E79D6"/>
</linearGradient>
<linearGradient id="paint7_linear_0_1796" x1="36.4885" y1="16.9364" x2="41.0553" y2="16.9364" gradientUnits="userSpaceOnUse">
<stop stop-color="#00469F"/>
<stop offset="1" stop-color="#1E79D6"/>
</linearGradient>
<linearGradient id="paint8_linear_0_1796" x1="24.9473" y1="20.0899" x2="29.9167" y2="20.0899" gradientUnits="userSpaceOnUse">
<stop stop-color="#00469F"/>
<stop offset="1" stop-color="#1E79D6"/>
</linearGradient>
<linearGradient id="paint9_linear_0_1796" x1="31.5908" y1="20.0899" x2="34.8128" y2="20.0899" gradientUnits="userSpaceOnUse">
<stop stop-color="#00469F"/>
<stop offset="1" stop-color="#1E79D6"/>
</linearGradient>
<linearGradient id="paint10_linear_0_1796" x1="36.4766" y1="20.0899" x2="41.055" y2="20.0899" gradientUnits="userSpaceOnUse">
<stop stop-color="#00469F"/>
<stop offset="1" stop-color="#1E79D6"/>
</linearGradient>
<linearGradient id="paint11_linear_0_1796" x1="24.9473" y1="23.2479" x2="34.8148" y2="23.2479" gradientUnits="userSpaceOnUse">
<stop stop-color="#00469F"/>
<stop offset="1" stop-color="#1E79D6"/>
</linearGradient>
<linearGradient id="paint12_linear_0_1796" x1="36.4885" y1="23.2479" x2="41.0446" y2="23.2479" gradientUnits="userSpaceOnUse">
<stop stop-color="#00469F"/>
<stop offset="1" stop-color="#1E79D6"/>
</linearGradient>
<linearGradient id="paint13_linear_0_1796" x1="24.9473" y1="26.4029" x2="27.8643" y2="26.4029" gradientUnits="userSpaceOnUse">
<stop stop-color="#00469F"/>
<stop offset="1" stop-color="#1E79D6"/>
</linearGradient>
<linearGradient id="paint14_linear_0_1796" x1="29.5386" y1="26.4029" x2="41.0451" y2="26.4029" gradientUnits="userSpaceOnUse">
<stop stop-color="#00469F"/>
<stop offset="1" stop-color="#1E79D6"/>
</linearGradient>
<linearGradient id="paint15_linear_0_1796" x1="38.631" y1="13.7768" x2="41.0486" y2="13.7768" gradientUnits="userSpaceOnUse">
<stop stop-color="#00469F"/>
<stop offset="1" stop-color="#1E79D6"/>
</linearGradient>
<linearGradient id="paint16_linear_0_1796" x1="21.2334" y1="12.6266" x2="23.2711" y2="12.6266" gradientUnits="userSpaceOnUse">
<stop stop-color="#00469F"/>
<stop offset="1" stop-color="#1E79D6"/>
</linearGradient>
<linearGradient id="paint17_linear_0_1796" x1="42.7295" y1="25.2526" x2="44.7672" y2="25.2526" gradientUnits="userSpaceOnUse">
<stop stop-color="#00469F"/>
<stop offset="1" stop-color="#1E79D6"/>
</linearGradient>
</defs>
</svg>
