<svg width="66" height="65" viewBox="0 0 66 65" fill="none" xmlns="http://www.w3.org/2000/svg">
<rect x="0.5" width="65" height="65" rx="8" fill="url(#paint0_linear_0_1791)"/>
<path fill-rule="evenodd" clip-rule="evenodd" d="M27.1719 10.0508C25.1748 10.3916 23.5179 11.7674 22.8322 13.6545L22.6286 14.2146H21.9444C20.8904 14.2146 20.3463 14.6355 20.3463 15.4507V15.7322L17.5951 15.7694C14.9063 15.8057 14.8308 15.8134 14.27 16.1079C13.923 16.29 13.5587 16.6086 13.3481 16.914L13 17.4188V34.7922V52.1657L13.3522 52.677C13.5459 52.9582 13.9364 53.321 14.2198 53.4831L14.7353 53.7779L24.6532 53.81C34.4733 53.8417 34.5734 53.8396 34.8049 53.6036C35.1001 53.3027 35.1008 53.0746 34.8074 52.7756C34.5798 52.5435 34.4207 52.5397 24.8292 52.538C17.2695 52.5367 15.0175 52.5032 14.7932 52.3889C14.6341 52.3079 14.4129 52.0566 14.3017 51.8305C14.112 51.445 14.0994 50.3877 14.0993 34.8179C14.099 20.7365 14.124 18.1555 14.2634 17.8153C14.5561 17.1014 14.8111 17.0448 17.7375 17.0448H20.3463V17.8683C20.3463 18.6117 20.3791 18.7295 20.6839 19.0771L21.0214 19.4622H27.8855C34.327 19.4622 34.7687 19.449 35.0591 19.248C35.4445 18.9813 35.6173 18.493 35.6173 17.6696V17.0326L38.3457 17.0682L41.0741 17.1037L41.4115 17.4889L41.7488 17.874V25.4107C41.7488 33.6213 41.7244 33.3182 42.3868 33.3182C43.0309 33.3182 43.0214 33.4347 43.0214 25.5022C43.0214 20.6374 42.9795 18.0409 42.8955 17.7009C42.7375 17.0611 42.2167 16.4084 41.593 16.0685C41.1419 15.8226 40.9444 15.8043 38.3649 15.7694C35.714 15.7334 35.6173 15.7239 35.6173 15.4982C35.6173 15.111 35.2877 14.5836 34.927 14.3935C34.7333 14.2914 34.287 14.2146 33.8877 14.2146C33.3732 14.2146 33.1878 14.1719 33.1878 14.0535C33.1878 13.965 33.0063 13.5226 32.7844 13.0706C32.3099 12.1039 31.3364 11.0958 30.4202 10.6225C29.4538 10.1234 28.1213 9.88881 27.1719 10.0508ZM29.1354 11.4533C29.8801 11.6788 30.4807 12.0516 31.0333 12.6317C31.4359 13.0541 31.9946 14.055 31.8884 14.1634C31.859 14.1933 30.0594 14.2037 27.8893 14.1866L23.9438 14.1556L24.1581 13.6678C24.9556 11.8525 27.1819 10.862 29.1354 11.4533ZM34.3447 16.8679V18.224H27.9239H21.5032V16.8679V15.5118H27.9239H34.3447V16.8679ZM21.1132 26.2858C20.8949 26.6338 20.4927 27.3003 20.2197 27.7671C19.9466 28.2337 19.6761 28.6451 19.6185 28.6814C19.561 28.7176 19.244 28.4757 18.9142 28.1436C18.3038 27.5292 17.8857 27.383 17.5929 27.6815C17.2441 28.037 17.4361 28.4228 18.4803 29.4643C19.0448 30.0274 19.5815 30.488 19.673 30.488C19.9726 30.488 20.2054 30.2101 20.9563 28.955C21.3639 28.274 21.8618 27.4456 22.063 27.1141C22.6122 26.2091 22.5238 25.6532 21.8307 25.6532C21.5698 25.6532 21.4365 25.7706 21.1132 26.2858ZM24.5169 27.5918C24.2931 27.8665 24.4169 28.4006 24.7425 28.5653C25.1047 28.7485 37.5039 28.7892 37.9699 28.6086C38.4143 28.4364 38.5687 28.0625 38.3415 27.7089L38.1571 27.422H31.4061C25.6724 27.422 24.6343 27.4476 24.5169 27.5918ZM21.4815 33.3571C21.3969 33.4434 20.9392 34.1598 20.4644 34.9492L19.6011 36.3843L18.9581 35.7357C18.3078 35.0799 18.0837 34.9876 17.6778 35.2091C17.2076 35.4656 17.3979 35.9077 18.4531 37.0098C19.6863 38.2979 19.8443 38.3179 20.4976 37.2686C22.4105 34.1959 22.6383 33.697 22.2899 33.3418C22.1053 33.1537 21.6731 33.1618 21.4815 33.3571ZM46.2329 34.0915C44.7339 34.4618 43.7963 35.2913 43.548 36.4665L43.4684 36.8436L42.8063 36.3486C42.4421 36.0763 41.8736 35.7254 41.5429 35.5686C41.0347 35.3279 40.8955 35.3052 40.6437 35.4222C40.3993 35.5357 40.3524 35.6284 40.3822 35.9406C40.4133 36.2668 40.5175 36.3796 41.1173 36.7357C42.0341 37.2802 42.4316 37.6081 42.7334 38.0692C43.2424 38.8463 43.2778 38.8248 41.5927 38.7665C39.8839 38.7074 39.1029 38.8499 37.8368 39.4516C35.9719 40.3378 34.8151 42.5281 34.8094 45.1835C34.7981 50.6347 38.8332 55.7895 42.4151 54.8993C43.2691 54.6871 44.3642 54.6863 45.4229 54.8971C46.9757 55.2066 48.4455 54.6515 49.8415 53.2285C52.7152 50.2993 53.8418 45.1453 52.3231 41.8755C51.5609 40.2348 49.8909 39.0467 47.9846 38.789L47.4161 38.7121L47.723 38.4031C48.3268 37.7954 48.7939 36.2802 48.8018 34.9043C48.8041 34.5011 48.7455 34.1293 48.667 34.0493C48.4805 33.8592 47.0746 33.8836 46.2329 34.0915ZM24.5772 35.1544C24.3334 35.403 24.3473 35.8316 24.607 36.0711C24.7981 36.2474 25.3988 36.2663 30.8321 36.2663C37.3645 36.2663 37.2658 36.2762 37.2658 35.6177C37.2658 34.959 37.3671 34.9691 30.8023 34.9691C25.4626 34.9691 24.7378 34.9907 24.5772 35.1544ZM47.5333 35.5359C47.5333 36.0679 47.0797 37.2861 46.7604 37.6116C46.2828 38.0983 44.9945 38.1755 44.8258 37.7275C44.7113 37.4233 44.7479 36.6507 44.8923 36.3278C45.1264 35.8043 46.2908 35.231 47.1573 35.2129C47.4939 35.2058 47.5333 35.2395 47.5333 35.5359ZM43.2372 40.1645C43.6971 40.2657 44.0265 40.2673 44.5097 40.1708C48.8429 39.3056 51.4916 40.9385 51.7766 44.6508C52.0305 47.9569 50.0554 52.1209 47.6531 53.3444C46.7873 53.7855 46.244 53.8182 44.8061 53.5166C43.9646 53.3401 43.7563 53.3342 43.1712 53.4707C41.0838 53.958 40.2091 53.7153 38.7987 52.2576C37.7494 51.1731 37.0165 49.8821 36.4821 48.1766C36.065 46.8456 35.9524 44.6206 36.2436 43.4626C36.8548 41.0322 38.6562 39.8414 41.5174 39.9762C42.1219 40.0047 42.8958 40.0895 43.2372 40.1645ZM21.4644 41.0127C21.3217 41.1587 20.8521 41.8751 20.4211 42.6047C19.9901 43.3344 19.5995 43.9313 19.5531 43.9313C19.5068 43.9313 19.2368 43.6884 18.9531 43.3916C18.2486 42.6543 18.0819 42.574 17.7355 42.8054C17.2258 43.1458 17.3584 43.5065 18.3894 44.5832C18.9039 45.1204 19.4267 45.5871 19.551 45.6203C19.6864 45.6564 19.8901 45.578 20.0584 45.425C20.465 45.0555 22.4287 41.7131 22.4287 41.3905C22.4287 41.0825 22.1505 40.7474 21.8945 40.7474C21.8007 40.7474 21.6072 40.8667 21.4644 41.0127ZM24.5342 42.7757C24.4579 42.8535 24.3954 43.0551 24.3954 43.2238C24.3954 43.3924 24.4579 43.594 24.5342 43.6719C24.7333 43.8748 33.0812 43.8748 33.2803 43.6719C33.4593 43.4894 33.4593 42.9581 33.2803 42.7757C33.0812 42.5727 24.7333 42.5727 24.5342 42.7757Z" fill="white"/>
<defs>
<linearGradient id="paint0_linear_0_1791" x1="0.5" y1="33.3784" x2="65.5" y2="33.3784" gradientUnits="userSpaceOnUse">
<stop stop-color="#00469F"/>
<stop offset="1" stop-color="#1E79D6"/>
</linearGradient>
</defs>
</svg>
