<svg width="66" height="65" viewBox="0 0 66 65" fill="none" xmlns="http://www.w3.org/2000/svg">
<rect x="0.5" width="65" height="65" rx="8" fill="url(#paint0_linear_0_1818)"/>
<path fill-rule="evenodd" clip-rule="evenodd" d="M29.6113 15.1964C24.2836 16.1369 19.7065 18.9159 16.6149 23.0875C14.9861 25.2851 13.3291 29.2117 13.3307 30.8701C13.331 31.2521 13.4732 31.7496 13.671 32.0609L14.0107 32.5955L13.6704 32.8996C13.2649 33.262 13.2479 33.4042 13.578 33.6672C13.7768 33.8254 13.88 33.8215 14.099 33.6469C14.3127 33.4765 15.5054 33.412 19.5928 33.35C24.5358 33.275 24.8166 33.2549 24.8732 32.9726C24.9061 32.8086 24.8327 32.6134 24.71 32.5389C24.5876 32.4643 22.3999 32.4023 19.8486 32.4009L15.2101 32.3985L14.7844 31.9624C14.1492 31.3114 14.0998 30.9408 14.4669 29.5821C16.8144 20.8938 25.6114 14.9693 34.7821 15.9006C35.7563 15.9996 36.8428 16.1537 37.1961 16.2432C37.7205 16.3759 37.8869 16.3599 38.0995 16.1561C38.3279 15.9369 38.3301 15.8795 38.1178 15.6899C37.4405 15.0844 32.0247 14.7703 29.6113 15.1964ZM40.4792 16.4869C40.3656 16.531 40.2734 16.6859 40.2744 16.8312C40.2767 17.1721 42.6129 18.37 42.9985 18.2281C43.5285 18.0329 43.1595 17.5686 42.0079 16.9817C40.7838 16.3577 40.7998 16.3629 40.4792 16.4869ZM36.2242 18.5662C35.7573 19.0494 35.6889 19.475 36.0563 19.6103C36.3477 19.7177 37.132 18.9671 37.132 18.5809C37.132 18.1222 36.6608 18.1146 36.2242 18.5662ZM28.8694 18.9165C28.4883 19.4301 28.5202 19.8707 28.9385 19.8707C29.3073 19.8707 29.879 19.2084 29.8243 18.8445C29.7488 18.3409 29.2699 18.3769 28.8694 18.9165ZM44.8457 19.025C44.5794 19.2803 44.8315 19.6236 46.3609 21.0887C48.912 23.5328 50.6613 26.3853 51.5059 29.4795C51.8802 30.8501 51.8231 31.3324 51.2122 31.9624L50.7894 32.3985H40.4385C29.5716 32.3985 29.3542 32.4122 29.62 33.0766C29.7218 33.3316 30.4633 33.35 40.6091 33.35C50.2793 33.35 51.5177 33.3778 51.7486 33.5991C52.0782 33.9155 52.0782 34.2117 51.7486 34.5281C51.5155 34.7515 49.596 34.7772 33.0928 34.7772H14.697L14.2565 34.4448C13.7575 34.0682 13.33 34.1408 13.33 34.6021C13.33 35.1253 14.0998 35.5701 15.0053 35.5701H15.8094L15.8091 36.4027L15.8088 37.2352L15.2211 37.2755C13.83 37.3708 13.178 38.1287 13.037 39.8139C12.9606 40.7275 12.9838 40.8291 13.2872 40.9052C13.5448 40.9698 13.6466 41.1688 13.7297 41.7692C13.8041 42.3072 13.9886 42.7143 14.3241 43.0811L14.8107 43.6128L14.219 44.1293C13.4823 44.7725 13.0079 45.7494 13.0031 46.6328C12.9958 47.9928 14.1497 49.49 15.4788 49.8447C15.8322 49.9391 21.2773 49.9995 29.4696 50C41.8375 50.0009 42.8901 49.9803 42.9876 49.7366C43.0458 49.5912 43.0336 49.4148 42.9604 49.3446C42.8873 49.2745 36.7671 49.1972 29.3597 49.1728C16.114 49.1295 15.8825 49.1233 15.314 48.803C13.5269 47.7957 13.5299 45.3707 15.3195 44.4903C15.9506 44.1798 16.2977 44.1335 17.9932 44.1335H19.9417V43.737C19.9417 43.519 19.8488 43.3394 19.7351 43.338C17.3521 43.3088 15.9787 43.2083 15.6183 43.0367C15.0325 42.7576 14.6104 41.9672 14.6793 41.279C14.7289 40.7849 14.8335 40.6761 15.6324 40.2879C16.8045 39.7183 17.1795 39.7371 18.3384 40.4235C19.7883 41.282 20.3199 41.2944 21.8442 40.5056C22.5391 40.146 23.2191 39.8518 23.3551 39.8518C23.4913 39.8518 24.1675 40.1372 24.8578 40.4861C25.5479 40.835 26.3329 41.1204 26.602 41.1204C26.8711 41.1204 27.6451 40.8271 28.322 40.4687C29.7522 39.7111 29.9727 39.7172 31.4209 40.5537C32.702 41.2939 33.2974 41.2939 34.5786 40.5537C36.0267 39.7172 36.2472 39.7111 37.6775 40.4687C38.3543 40.8271 39.1284 41.1204 39.3975 41.1204C39.6666 41.1204 40.4516 40.835 41.1417 40.4861C41.8319 40.1372 42.5081 39.8518 42.6443 39.8518C42.7804 39.8518 43.4604 40.146 44.1553 40.5056C45.6796 41.2944 46.2112 41.282 47.6611 40.4235C48.192 40.109 48.7983 39.8518 49.0085 39.8518C49.2188 39.8518 49.9239 40.0768 50.5755 40.3518C51.2272 40.6266 52.0206 40.8586 52.3388 40.8672L52.9174 40.8826L52.9043 39.8518C52.8831 38.185 52.2139 37.3738 50.7783 37.2755L50.1907 37.2352L50.1904 36.4027L50.19 35.5701H51.0038C52.1621 35.5701 52.8347 35.0195 52.8347 34.0711C52.8347 33.5565 52.7336 33.2962 52.4145 32.99L51.9942 32.5869L52.3312 32.0566C52.7812 31.3487 52.7593 30.5132 52.2469 28.8086C51.2006 25.3281 48.65 21.5375 46.0016 19.5266C45.1817 18.9041 45.0371 18.8413 44.8457 19.025ZM23.1555 20.7676C22.65 21.2909 22.6219 21.7736 23.0971 21.7736C23.4849 21.7736 24.0601 21.1969 24.0685 20.7995C24.0781 20.3407 23.5846 20.3234 23.1555 20.7676ZM41.7942 21.6596C41.3617 22.1014 41.3228 22.5372 41.7036 22.6774C41.8843 22.744 42.1121 22.6281 42.3732 22.3369C43.0719 21.5577 42.5228 20.9154 41.7942 21.6596ZM30.9405 22.9419C30.4809 23.3829 30.3891 23.9115 30.7493 24.0442C30.9883 24.132 31.8427 23.3886 31.8427 23.0927C31.8427 22.9992 31.7343 22.8361 31.6017 22.7307C31.4067 22.5754 31.2805 22.6157 30.9405 22.9419ZM24.4386 24.8312C24.0061 25.273 23.9672 25.7088 24.348 25.849C24.5287 25.9156 24.7565 25.7997 25.0176 25.5085C25.7163 24.7293 25.1672 24.087 24.4386 24.8312ZM38.4831 24.8365C38.2854 25.0383 38.1238 25.3595 38.1238 25.5501C38.1238 26.0664 38.6939 25.9892 39.1196 25.4154C39.7294 24.5938 39.1958 24.1087 38.4831 24.8365ZM46.5556 25.4183C46.1584 25.9535 46.2102 26.3753 46.6725 26.3676C47.0383 26.3614 47.5867 25.6647 47.5133 25.2994C47.4212 24.84 46.9406 24.8996 46.5556 25.4183ZM18.6926 27.2694C18.1871 27.7927 18.159 28.2754 18.6342 28.2754C19.022 28.2754 19.5972 27.6987 19.6057 27.3013C19.6153 26.8425 19.1217 26.8252 18.6926 27.2694ZM24.4333 28.6424C24.2356 28.8443 24.074 29.1705 24.074 29.3671C24.074 29.8614 24.6775 29.7616 25.117 29.1946C25.3925 28.8392 25.4132 28.7239 25.2373 28.5206C24.9553 28.1946 24.8573 28.2095 24.4333 28.6424ZM44.6434 28.8552C44.1824 29.3324 44.1204 29.7834 44.4969 29.922C44.8045 30.0354 45.5619 29.311 45.5619 28.9036C45.5619 28.43 45.0786 28.4047 44.6434 28.8552ZM36.3075 29.0656C35.9103 29.6008 35.9621 30.0227 36.4244 30.0149C36.7902 30.0087 37.3386 29.3121 37.2652 28.9467C37.1732 28.4873 36.6925 28.5469 36.3075 29.0656ZM29.6959 29.3828C29.3227 29.8857 29.3448 30.337 29.7425 30.337C30.0891 30.337 30.7225 29.6069 30.6574 29.2826C30.5618 28.8064 30.087 28.8558 29.6959 29.3828ZM25.9173 32.5389C25.7947 32.6134 25.7211 32.8086 25.7537 32.9726C25.8026 33.2192 25.9876 33.2788 26.8238 33.3173C27.6658 33.3563 27.8534 33.3172 27.9468 33.0837C28.0185 32.9044 27.955 32.7304 27.7704 32.6009C27.4449 32.3725 26.2562 32.3327 25.9173 32.5389ZM32.2442 35.8193C32.5639 36.1259 32.5819 36.7379 32.2782 36.9796C32.1158 37.1088 29.9318 37.1477 24.4722 37.1179L16.8917 37.0766L16.7337 36.6453C16.6084 36.3036 16.6387 36.1472 16.8793 35.892C17.1759 35.5776 17.356 35.5701 24.5837 35.5701C31.0911 35.5701 32.0158 35.6003 32.2442 35.8193ZM49.1201 35.892C49.3608 36.147 49.391 36.3037 49.2661 36.6453L49.1082 37.0766L45.1449 37.1632C42.9652 37.2108 41.1579 37.2642 41.1288 37.2822C41.0998 37.2999 41.0998 37.475 41.1288 37.6713L41.1817 38.0281L46.1647 38.1074C50.7167 38.1799 51.177 38.2121 51.4859 38.4807C51.8175 38.7688 52.1243 39.6348 51.9529 39.7991C51.9051 39.845 51.3833 39.6972 50.7932 39.4707C49.3082 38.9006 48.5588 38.9312 47.2865 39.6139C46.7174 39.9192 46.0569 40.1689 45.8184 40.1689C45.5801 40.1689 44.8174 39.8805 44.1237 39.5278C42.6612 38.7844 42.4118 38.7923 40.8352 39.6322C40.281 39.9274 39.6337 40.1689 39.3967 40.1689C39.1598 40.1689 38.4046 39.8852 37.7183 39.5386C36.2447 38.7941 35.8912 38.8067 34.4178 39.6571C33.8796 39.9677 33.2402 40.2218 32.9971 40.2218C32.7541 40.2218 32.0895 39.9504 31.5204 39.6187C30.1718 38.8328 29.5774 38.828 28.1529 39.5924C27.5618 39.9095 26.8742 40.1689 26.6251 40.1689C26.3758 40.1689 25.7185 39.9274 25.1643 39.6322C23.61 38.8042 23.3262 38.7898 21.9938 39.4707C20.2267 40.374 20.1949 40.3757 18.8119 39.6544C17.7422 39.0962 17.4992 39.0299 16.7458 39.0898C16.2762 39.1272 15.4545 39.35 14.9198 39.5849L13.9477 40.012L14.0467 39.426C14.1013 39.1036 14.2991 38.693 14.4863 38.5134C14.8228 38.1903 14.962 38.1862 26.7056 38.144C37.3236 38.1058 38.6076 38.0746 38.8025 37.8494C38.9864 37.6366 38.9714 37.563 38.7058 37.3767C38.4735 37.2136 37.8026 37.1559 36.1418 37.1559C33.766 37.1559 33.4956 37.0809 33.4956 36.4219C33.4956 35.5595 33.3968 35.5701 41.4157 35.5701C48.6434 35.5701 48.8236 35.5776 49.1201 35.892ZM51.0811 42.3756C50.5203 43.2866 50.9633 43.2546 37.7105 43.3406C28.0671 43.403 25.4824 43.4617 25.4955 43.6181C25.5046 43.7272 25.5231 43.8877 25.5368 43.9749C25.553 44.0789 29.7539 44.1335 37.7581 44.1335H49.9547L50.68 44.4903C52.4696 45.3707 52.4726 47.7957 50.6854 48.803C50.1691 49.094 49.7758 49.1346 46.9988 49.1834C43.9247 49.2374 43.8906 49.2418 43.9409 49.5799C43.9905 49.9134 44.064 49.9227 46.9669 49.9695C48.6728 49.9971 50.1889 49.9483 50.5206 49.8552C51.8416 49.4843 53 47.9949 53 46.6674C53 45.7862 52.6107 44.9668 51.8271 44.1989C51.2334 43.617 51.193 43.5289 51.4325 43.3383C51.8005 43.0453 52.2084 42.2543 52.0879 42.0673C51.8906 41.7609 51.3595 41.9235 51.0811 42.3756ZM21.0487 43.3099C20.9098 43.3367 20.7572 43.4563 20.7095 43.5759C20.5333 44.0164 21.0427 44.1455 22.7758 44.0995C24.3613 44.0575 24.4872 44.0309 24.4872 43.737C24.4872 43.4473 24.3495 43.413 22.8941 43.3406C22.0179 43.2969 21.1875 43.2831 21.0487 43.3099Z" fill="white"/>
<defs>
<linearGradient id="paint0_linear_0_1818" x1="0.5" y1="33.3784" x2="65.5" y2="33.3784" gradientUnits="userSpaceOnUse">
<stop stop-color="#00469F"/>
<stop offset="1" stop-color="#1E79D6"/>
</linearGradient>
</defs>
</svg>
