<svg width="66" height="65" viewBox="0 0 66 65" fill="none" xmlns="http://www.w3.org/2000/svg">
<rect x="0.5" width="65" height="65" rx="8" fill="url(#paint0_linear_418_9344)"/>
<path d="M15 32.9985H22.5L25.5 27.9985L31.5 37.9985L34.5 32.9985H39" stroke="white" stroke-width="2" stroke-linecap="round" stroke-linejoin="round"/>
<path d="M15.0175 27.1804C15 26.944 15 26.6895 15 26.4531C15 24.2674 15.7289 22.1493 17.0626 20.459C18.3963 18.7688 20.2525 17.6108 22.3153 17.1822C24.3782 16.7535 26.5203 17.0807 28.3771 18.1079C30.234 19.1352 31.6909 20.7992 32.5 22.8167V22.8167C33.3091 20.7992 34.766 19.1352 36.6229 18.1079C38.4797 17.0807 40.6218 16.7535 42.6847 17.1822C44.7475 17.6108 46.6037 18.7688 47.9374 20.459C49.2711 22.1493 50 24.2674 50 26.4531C50 38.8167 32.5 48.9985 32.5 48.9985C32.5 48.9985 25.5175 44.9258 20.3725 38.8167" stroke="white" stroke-width="2" stroke-linecap="round" stroke-linejoin="round"/>
<defs>
<linearGradient id="paint0_linear_418_9344" x1="0.5" y1="33.3784" x2="65.5" y2="33.3784" gradientUnits="userSpaceOnUse">
<stop stop-color="#00469F"/>
<stop offset="1" stop-color="#1E79D6"/>
</linearGradient>
</defs>
</svg>
