<svg width="66" height="65" viewBox="0 0 66 65" fill="none" xmlns="http://www.w3.org/2000/svg">
<rect x="0.5" width="65" height="65" rx="8" fill="white"/>
<path d="M50.4167 17H15.5833C14.7089 17 14 17.694 14 18.55V46.45C14 47.306 14.7089 48 15.5833 48H50.4167C51.2911 48 52 47.306 52 46.45V18.55C52 17.694 51.2911 17 50.4167 17Z" stroke="url(#paint0_linear_418_9326)" stroke-width="2" stroke-linecap="round" stroke-linejoin="round"/>
<path d="M14 39.9718L23.9552 30.4517C24.1025 30.3086 24.2781 30.195 24.4718 30.1175C24.6655 30.0399 24.8734 30 25.0833 30C25.2933 30 25.5012 30.0399 25.6948 30.1175C25.8885 30.195 26.0641 30.3086 26.2115 30.4517L35.0385 38.8929C35.1859 39.036 35.3615 39.1496 35.5552 39.2272C35.7488 39.3047 35.9567 39.3446 36.1667 39.3446C36.3766 39.3446 36.5845 39.3047 36.7782 39.2272C36.9719 39.1496 37.1475 39.036 37.2948 38.8929L41.3719 34.9941C41.5192 34.851 41.6948 34.7374 41.8885 34.6599C42.0822 34.5823 42.29 34.5424 42.5 34.5424C42.71 34.5424 42.9178 34.5823 43.1115 34.6599C43.3052 34.7374 43.4808 34.851 43.6281 34.9941L52 43" stroke="url(#paint1_linear_418_9326)" stroke-width="2" stroke-linecap="round" stroke-linejoin="round"/>
<path d="M40.9375 27.5C40.9375 28.8462 39.8462 29.9375 38.5 29.9375C37.1538 29.9375 36.0625 28.8462 36.0625 27.5C36.0625 26.1538 37.1538 25.0625 38.5 25.0625C39.8462 25.0625 40.9375 26.1538 40.9375 27.5Z" fill="url(#paint2_linear_418_9326)" stroke="url(#paint3_linear_418_9326)" stroke-width="0.125"/>
<defs>
<linearGradient id="paint0_linear_418_9326" x1="14" y1="32.9189" x2="52" y2="32.9189" gradientUnits="userSpaceOnUse">
<stop stop-color="#00469F"/>
<stop offset="1" stop-color="#1E79D6"/>
</linearGradient>
<linearGradient id="paint1_linear_418_9326" x1="14" y1="36.6757" x2="52" y2="36.6757" gradientUnits="userSpaceOnUse">
<stop stop-color="#00469F"/>
<stop offset="1" stop-color="#1E79D6"/>
</linearGradient>
<linearGradient id="paint2_linear_418_9326" x1="36" y1="27.5676" x2="41" y2="27.5676" gradientUnits="userSpaceOnUse">
<stop stop-color="#00469F"/>
<stop offset="1" stop-color="#1E79D6"/>
</linearGradient>
<linearGradient id="paint3_linear_418_9326" x1="36" y1="27.5676" x2="41" y2="27.5676" gradientUnits="userSpaceOnUse">
<stop stop-color="#00469F"/>
<stop offset="1" stop-color="#1E79D6"/>
</linearGradient>
</defs>
</svg>
