<svg width="66" height="65" viewBox="0 0 66 65" fill="none" xmlns="http://www.w3.org/2000/svg">
<rect x="0.5" width="65" height="65" rx="8" fill="url(#paint0_linear_418_9351)"/>
<path d="M29.006 34.4736C29.22 34.8777 29.6526 34.9788 29.8422 34.9788C28.4775 36.7721 29.0729 39.0096 29.5411 39.9041C29.9693 40.1315 30.1432 39.8094 30.1766 39.62C29.0796 37.7004 30.0094 35.726 30.6115 34.9788H35.4614C36.7993 36.6963 36.3087 38.7886 35.8962 39.62C35.9497 40.1252 36.3422 40.0199 36.5317 39.9041C37.5218 37.5299 36.699 35.6313 36.1638 34.9788C36.7257 34.9788 36.9554 34.7262 37 34.5999V34H29.006V34.4736Z" fill="white"/>
<path d="M33.25 36H31C30.7239 36 30.5 36.2239 30.5 36.5V40.5C30.5 40.7761 30.7239 41 31 41H35C35.2761 41 35.5 40.7761 35.5 40.5V36.415C35.5 36.1858 35.3142 36 35.085 36C34.8628 36 34.68 36.1751 34.6705 36.3972L34.5157 40.0084C34.5069 40.2133 34.3382 40.375 34.133 40.375C33.9215 40.375 33.75 40.2035 33.75 39.992V36.5C33.75 36.2239 33.5261 36 33.25 36Z" fill="white"/>
<path d="M26.4249 28H17.5C17.2239 28 17 28.2239 17 28.5V29.1607C17 29.4098 17.1833 29.6209 17.4299 29.6558L26.3549 30.9193C26.6559 30.9619 26.9249 30.7283 26.9249 30.4242V28.5C26.9249 28.2239 26.7011 28 26.4249 28Z" fill="white"/>
<path d="M39.3223 30.4222V28.5C39.3223 28.2239 39.5462 28 39.8223 28H48.5C48.7761 28 49 28.2239 49 28.5V29.1623C49 29.4107 48.8177 29.6214 48.5718 29.6571L39.8941 30.917C39.5926 30.9608 39.3223 30.7269 39.3223 30.4222Z" fill="white"/>
<path d="M28 27C28 26.5286 28 26.2929 28.1464 26.1464C28.2929 26 28.5286 26 29 26H37C37.4714 26 37.7071 26 37.8536 26.1464C38 26.2929 38 26.5286 38 27V32C38 32.4714 38 32.7071 37.8536 32.8536C37.7071 33 37.4714 33 37 33H29C28.5286 33 28.2929 33 28.1464 32.8536C28 32.7071 28 32.4714 28 32V27Z" fill="white"/>
<rect x="13" y="27" width="3" height="3" rx="0.5" fill="white"/>
<rect x="50" y="27" width="3" height="3" rx="0.5" fill="white"/>
<path d="M51 25.5C51 26 49.433 26 47.5 26C45.567 26 44 25.7761 44 25.5C44 25.2239 45.567 25 47.5 25C49.433 25 51 25.0001 51 25.5Z" fill="white"/>
<path d="M14 25.5C14 26 12.6569 26 11 26C9.34315 26 8 25.7761 8 25.5C8 25.2239 9.34315 25 11 25C12.6569 25 14 25.0001 14 25.5Z" fill="white"/>
<path d="M58 25.5C58 25.7761 56.6569 26 55 26C53.3431 26 52 26 52 25.5C52 25 53.3431 25 55 25C56.6569 25 58 25.2239 58 25.5Z" fill="white"/>
<path d="M22 25.5C22 25.7761 20.433 26 18.5 26C16.567 26 15 26 15 25.5C15 25 16.567 25 18.5 25C20.433 25 22 25.2239 22 25.5Z" fill="white"/>
<rect x="13" y="34" width="7" height="1" rx="0.5" fill="white"/>
<rect x="43" y="34" width="2" height="1" rx="0.5" fill="white"/>
<rect x="11" y="36" width="14" height="1" rx="0.5" fill="white"/>
<rect x="42" y="36" width="14" height="1" rx="0.5" fill="white"/>
<rect x="15" y="38" width="2" height="1" rx="0.5" fill="white"/>
<rect x="44" y="38" width="4" height="1" rx="0.5" fill="white"/>
<rect x="19" y="38" width="4" height="1" rx="0.5" fill="white"/>
<rect x="51" y="38" width="1" height="1" rx="0.5" fill="white"/>
<rect x="19" y="40" width="6" height="1" rx="0.5" fill="white"/>
<rect x="43" y="40" width="6" height="1" rx="0.5" fill="white"/>
<rect x="22" y="34" width="2" height="1" rx="0.5" fill="white"/>
<rect x="47" y="34" width="7" height="1" rx="0.5" fill="white"/>
<defs>
<linearGradient id="paint0_linear_418_9351" x1="0.5" y1="33.3784" x2="65.5" y2="33.3784" gradientUnits="userSpaceOnUse">
<stop stop-color="#00469F"/>
<stop offset="1" stop-color="#1E79D6"/>
</linearGradient>
</defs>
</svg>
