<svg width="66" height="65" viewBox="0 0 66 65" fill="none" xmlns="http://www.w3.org/2000/svg">
<rect x="0.5" width="65" height="65" rx="8" fill="url(#paint0_linear_418_9301)"/>
<path d="M40.7633 21.5713H24.2364C22.7536 21.5729 21.5524 22.7745 21.5508 24.2569V40.7838C21.5524 42.2662 22.7536 43.4678 24.2364 43.4694H40.7633C42.2457 43.4678 43.4473 42.2662 43.4489 40.7838V24.2569C43.4473 22.7745 42.2457 21.5729 40.7633 21.5713ZM42.2094 40.7838C42.2082 41.5819 41.5614 42.2291 40.7633 42.2299H24.2364C23.4379 42.2291 22.7911 41.5819 22.7903 40.7838V24.2569C22.7911 23.4584 23.4379 22.8116 24.2364 22.8108H40.7633C41.5614 22.8116 42.2086 23.4584 42.2094 24.2569V40.7838Z" fill="white"/>
<path d="M42.8303 18.4673H22.1717C20.1187 18.4697 18.4551 20.1329 18.4531 22.1858V42.8444C18.4551 44.897 20.1187 46.5606 22.1717 46.563H42.8303C44.8828 46.5606 46.5464 44.897 46.5488 42.8444V22.1858C46.5464 20.1329 44.8828 18.4697 42.8303 18.4673ZM45.3093 42.8444C45.3077 44.2131 44.1985 45.3219 42.8303 45.3235H22.1717C20.803 45.3219 19.6943 44.2131 19.6926 42.8444V22.1858C19.6939 20.8172 20.803 19.7084 22.1717 19.7068H42.8303C44.1985 19.7084 45.3077 20.8172 45.3093 22.1858V42.8444Z" fill="white"/>
<path d="M34.733 48.5957C34.3905 48.5957 34.1133 48.8733 34.1133 49.2155V54.3801C34.1133 54.7227 34.3905 54.9999 34.733 54.9999C35.0752 54.9999 35.3528 54.7227 35.3528 54.3801V49.2155C35.3528 48.8733 35.0752 48.5957 34.733 48.5957Z" fill="white"/>
<path d="M30.2682 48.5957C29.9256 48.5957 29.6484 48.8733 29.6484 49.2155V54.3801C29.6484 54.7227 29.9256 54.9999 30.2682 54.9999C30.6104 54.9999 30.888 54.7227 30.888 54.3801V49.2155C30.888 48.8733 30.6104 48.5957 30.2682 48.5957Z" fill="white"/>
<path d="M25.8034 48.5957C25.4612 48.5957 25.1836 48.8733 25.1836 49.2155V54.3801C25.1836 54.7227 25.4612 54.9999 25.8034 54.9999C26.1455 54.9999 26.4231 54.7227 26.4231 54.3801V49.2155C26.4231 48.8733 26.1455 48.5957 25.8034 48.5957Z" fill="white"/>
<path d="M39.1979 48.5957C38.8553 48.5957 38.5781 48.8733 38.5781 49.2155V54.3801C38.5781 54.7227 38.8553 54.9999 39.1979 54.9999C39.54 54.9999 39.8176 54.7227 39.8176 54.3801V49.2155C39.8176 48.8733 39.54 48.5957 39.1979 48.5957Z" fill="white"/>
<path d="M30.888 15.7844V10.6198C30.888 10.2776 30.6104 10 30.2682 10C29.9256 10 29.6484 10.2776 29.6484 10.6198V15.7844C29.6484 16.1266 29.9256 16.4042 30.2682 16.4042C30.6104 16.4042 30.888 16.1266 30.888 15.7844Z" fill="white"/>
<path d="M35.3528 15.7844V10.6198C35.3528 10.2776 35.0752 10 34.733 10C34.3905 10 34.1133 10.2776 34.1133 10.6198V15.7844C34.1133 16.1266 34.3905 16.4042 34.733 16.4042C35.0752 16.4042 35.3528 16.1266 35.3528 15.7844Z" fill="white"/>
<path d="M39.8176 15.7844V10.6198C39.8176 10.2776 39.54 10 39.1979 10C38.8553 10 38.5781 10.2776 38.5781 10.6198V15.7844C38.5781 16.1266 38.8553 16.4042 39.1979 16.4042C39.54 16.4042 39.8176 16.1266 39.8176 15.7844Z" fill="white"/>
<path d="M26.4231 15.7844V10.6198C26.4231 10.2776 26.1455 10 25.8034 10C25.4612 10 25.1836 10.2776 25.1836 10.6198V15.7844C25.1836 16.1266 25.4612 16.4042 25.8034 16.4042C26.1455 16.4042 26.4231 16.1266 26.4231 15.7844Z" fill="white"/>
<path d="M54.3821 29.647H49.2174C48.8753 29.647 48.5977 29.9242 48.5977 30.2667C48.5977 30.6089 48.8753 30.8865 49.2174 30.8865H54.3821C54.7246 30.8865 55.0018 30.6089 55.0018 30.2667C55.0018 29.9242 54.7246 29.647 54.3821 29.647Z" fill="white"/>
<path d="M54.3821 34.1118H49.2174C48.8753 34.1118 48.5977 34.389 48.5977 34.7316C48.5977 35.0737 48.8753 35.3513 49.2174 35.3513H54.3821C54.7246 35.3513 55.0018 35.0737 55.0018 34.7316C55.0018 34.389 54.7246 34.1118 54.3821 34.1118Z" fill="white"/>
<path d="M54.3821 38.5762H49.2174C48.8753 38.5762 48.5977 38.8534 48.5977 39.1959C48.5977 39.5381 48.8753 39.8157 49.2174 39.8157H54.3821C54.7246 39.8157 55.0018 39.5381 55.0018 39.1959C55.0018 38.8534 54.7246 38.5762 54.3821 38.5762Z" fill="white"/>
<path d="M54.3821 25.1821H49.2174C48.8753 25.1821 48.5977 25.4597 48.5977 25.8019C48.5977 26.144 48.8753 26.4216 49.2174 26.4216H54.3821C54.7246 26.4216 55.0018 26.144 55.0018 25.8019C55.0018 25.4597 54.7246 25.1821 54.3821 25.1821Z" fill="white"/>
<path d="M15.7844 34.1118H10.6198C10.2776 34.1118 10 34.389 10 34.7316C10 35.0737 10.2776 35.3513 10.6198 35.3513H15.7844C16.1266 35.3513 16.4042 35.0737 16.4042 34.7316C16.4042 34.389 16.1266 34.1118 15.7844 34.1118Z" fill="white"/>
<path d="M15.7844 29.647H10.6198C10.2776 29.647 10 29.9242 10 30.2667C10 30.6089 10.2776 30.8865 10.6198 30.8865H15.7844C16.1266 30.8865 16.4042 30.6089 16.4042 30.2667C16.4042 29.9242 16.1266 29.647 15.7844 29.647Z" fill="white"/>
<path d="M15.7844 25.1821H10.6198C10.2776 25.1821 10 25.4597 10 25.8019C10 26.144 10.2776 26.4216 10.6198 26.4216H15.7844C16.1266 26.4216 16.4042 26.144 16.4042 25.8019C16.4042 25.4597 16.1266 25.1821 15.7844 25.1821Z" fill="white"/>
<path d="M15.7844 38.5762H10.6198C10.2776 38.5762 10 38.8534 10 39.1959C10 39.5381 10.2776 39.8157 10.6198 39.8157H15.7844C16.1266 39.8157 16.4042 39.5381 16.4042 39.1959C16.4042 38.8534 16.1266 38.5762 15.7844 38.5762Z" fill="white"/>
<path d="M33.7266 35V29.3633H32.7109L30.8906 33.8125H30.8594L29.0352 29.3633H28.0234V35H28.8203V30.8516H28.8477L30.5508 34.957H31.1992L32.8984 30.8516H32.9258V35H33.7266ZM38.2656 34.2422H35.6406V29.3633H34.7656V35H38.2656V34.2422Z" fill="white"/>
<defs>
<linearGradient id="paint0_linear_418_9301" x1="0.5" y1="33.3784" x2="65.5" y2="33.3784" gradientUnits="userSpaceOnUse">
<stop stop-color="#00469F"/>
<stop offset="1" stop-color="#1E79D6"/>
</linearGradient>
</defs>
</svg>
