<svg width="66" height="65" viewBox="0 0 66 65" fill="none" xmlns="http://www.w3.org/2000/svg">
<rect x="0.5" width="65" height="65" rx="8" fill="url(#paint0_linear_418_9159)"/>
<path fill-rule="evenodd" clip-rule="evenodd" d="M22.1943 12.523V14.0462L21.8122 14.1425C21.1923 14.2988 20.1135 14.6863 19.6573 14.9166C19.4241 15.0343 19.1936 15.1306 19.145 15.1306C19.0965 15.1306 18.6499 14.648 18.1526 14.0581C17.6554 13.4682 17.2146 12.9648 17.1732 12.9392C17.1317 12.9136 16.3936 13.4825 15.5328 14.2036C14.6719 14.9247 13.8537 15.6097 13.7145 15.7259L13.4614 15.9371L14.4201 17.0626C15.0323 17.7814 15.3601 18.2366 15.3272 18.3224C15.2988 18.3963 15.1151 18.6928 14.9189 18.9813C14.7227 19.2698 14.3925 19.8449 14.185 20.2591C13.9776 20.6733 13.7959 21.0264 13.7813 21.0438C13.7668 21.061 13.1053 20.9628 12.3114 20.8256C11.5175 20.6884 10.8489 20.5952 10.8255 20.6185C10.769 20.6749 9.96193 25.213 10.0014 25.2524C10.0182 25.2693 10.6546 25.3894 11.4154 25.5193C12.1763 25.6492 12.8302 25.7824 12.8685 25.8152C12.9068 25.848 12.9784 26.2354 13.0276 26.6762C13.0767 27.1171 13.2005 27.8143 13.3027 28.2259C13.4049 28.6373 13.4615 29.001 13.4285 29.034C13.3956 29.067 12.8359 29.4033 12.1847 29.7812C11.5334 30.1592 11.0006 30.5229 11.0006 30.5894C11.0006 30.7509 13.2278 34.6132 13.322 34.6151C13.3626 34.6159 13.9618 34.2888 14.6536 33.8883L15.9116 33.1599L16.558 33.7814C16.9135 34.1232 17.4797 34.5976 17.8165 34.8355C18.2683 35.155 18.4134 35.3063 18.3708 35.4138C17.9125 36.5714 17.4246 38.058 17.4856 38.111C17.5287 38.1484 18.4945 38.5143 19.6319 38.9241C20.7692 39.3338 21.7437 39.6856 21.7973 39.7059C21.8534 39.7271 22.113 39.1385 22.4077 38.3218L22.9206 36.9008L23.7571 36.968C24.2172 37.005 24.9469 37.0043 25.3785 36.9665C26.0433 36.9083 26.1742 36.9191 26.2335 37.0368C26.2721 37.1132 26.4982 37.7212 26.7361 38.388C26.974 39.0547 27.1929 39.629 27.2224 39.6641C27.2683 39.7187 31.576 38.2071 31.6852 38.0982C31.7066 38.0768 31.5021 37.4564 31.2308 36.7196C30.9596 35.9827 30.7385 35.3394 30.7395 35.29C30.7405 35.2406 30.9929 35.0308 31.3004 34.8239C31.6079 34.617 32.1691 34.1626 32.5477 33.8142L33.2357 33.1808L34.51 33.9097C35.2334 34.3235 35.8179 34.6048 35.8621 34.5602C35.9478 34.4738 38.1981 30.6054 38.1981 30.5444C38.1981 30.5235 37.6106 30.1693 36.8927 29.7573C35.9188 29.1984 35.6007 28.9734 35.6402 28.8715C35.798 28.4645 36.0477 27.2031 36.0986 26.5557C36.1502 25.899 36.1788 25.8083 36.3458 25.7707C36.5583 25.7231 39.0594 25.2777 39.1146 25.2777C39.1341 25.2777 38.967 24.227 38.7433 22.943C38.3687 20.7931 38.3221 20.6083 38.1549 20.6093C38.055 20.6099 37.4271 20.7104 36.7595 20.8327C36.0919 20.955 35.4964 21.0556 35.4361 21.0561C35.3757 21.0568 35.1899 20.7642 35.0229 20.4062C34.8561 20.0482 34.4908 19.4158 34.2113 19.0011L33.7032 18.2469L34.6073 17.1762C35.1046 16.5873 35.5304 16.0561 35.5536 15.9957C35.5772 15.9341 34.7983 15.2182 33.7831 14.3684C32.0241 12.896 31.9659 12.8563 31.825 13.0294C30.9118 14.1511 30.0678 15.1306 30.0148 15.1306C29.9785 15.1306 29.6448 14.9923 29.2731 14.8231C28.6989 14.5617 28.3039 14.4267 27.1168 14.0861C26.9749 14.0455 26.9595 13.8915 26.9595 12.5205V11H24.5769H22.1943V12.523ZM48.1357 17.2973C48.111 17.3651 48.0283 17.7213 47.9521 18.0889C47.8758 18.4565 47.8009 18.7698 47.7856 18.7852C47.7702 18.8005 47.4494 18.852 47.0727 18.8998C46.696 18.9475 46.2937 19.01 46.1788 19.0389C45.9928 19.0855 45.9278 19.0122 45.5842 18.3681C45.372 17.9704 45.1679 17.645 45.1307 17.645C45.0793 17.645 42.9282 18.7666 42.8038 18.8582C42.7903 18.8682 42.9589 19.2122 43.1786 19.6226L43.5778 20.3689L42.9783 21.0258C42.6485 21.387 42.3384 21.6831 42.2889 21.6837C42.2395 21.6845 41.8812 21.5615 41.4927 21.4106C41.1042 21.2596 40.7752 21.1487 40.7616 21.1641C40.6545 21.2849 39.811 23.5961 39.8572 23.6422C39.89 23.6749 40.2279 23.8264 40.6083 23.9789L41.2999 24.2562L41.28 25.192L41.26 26.1278L40.525 26.3744C40.1207 26.5101 39.7724 26.6387 39.7509 26.6602C39.7162 26.6948 40.2449 28.4766 40.4489 29.0126L40.5279 29.2199L41.3185 28.9522C42.0948 28.6894 42.1115 28.6877 42.244 28.8586C42.3181 28.9542 42.571 29.2739 42.8059 29.569C43.0408 29.8639 43.233 30.1371 43.233 30.1758C43.233 30.2146 43.0466 30.545 42.8187 30.9102C42.5908 31.2753 42.4188 31.5869 42.4365 31.6027C42.4543 31.6184 42.9708 31.9414 43.5844 32.3204C44.4265 32.8405 44.7186 32.9808 44.7757 32.8926C44.8173 32.8283 45.0178 32.503 45.2213 32.1696C45.4247 31.8361 45.6107 31.5634 45.6345 31.5634C45.6583 31.5634 45.8863 31.6209 46.1411 31.691C46.396 31.7613 46.7897 31.8435 47.0159 31.8738L47.4271 31.9289L47.537 32.7531C47.5974 33.2063 47.656 33.5864 47.6672 33.5976C47.69 33.6203 50.2772 33.2579 50.3148 33.2266C50.3279 33.2157 50.2834 32.8337 50.2159 32.3779L50.093 31.549L50.5965 31.3014C50.8734 31.1653 51.2432 30.9674 51.4183 30.8618L51.7367 30.6699L52.3402 31.2139C52.6721 31.5131 52.9771 31.7444 53.018 31.7279C53.1202 31.6869 54.7413 29.8671 54.7413 29.7934C54.7413 29.7607 54.4697 29.4857 54.1377 29.1823L53.5343 28.6306L53.7682 28.099C53.8969 27.8067 54.0492 27.4193 54.1065 27.2382L54.2108 26.9089L55.0461 26.9587L55.8812 27.0085L55.9407 26.0393C55.9733 25.5063 56 24.8946 56 24.68V24.2899L55.5729 24.282C55.338 24.2777 54.9475 24.2474 54.7052 24.2147L54.2645 24.1552L54.1111 23.6164C54.0267 23.3201 53.9114 22.9639 53.855 22.8249C53.7985 22.6859 53.7523 22.5402 53.7523 22.5013C53.7523 22.4625 54.0339 22.2125 54.3781 21.9459C54.7223 21.6794 55.0055 21.4372 55.0075 21.4079C55.0126 21.3302 53.4753 19.4016 53.3792 19.3653C53.3347 19.3484 53.0194 19.5594 52.6789 19.8343L52.0596 20.334L51.2587 19.8355L50.4577 19.337L50.6193 18.6032C50.7082 18.1996 50.782 17.8272 50.7831 17.7757C50.7843 17.7242 50.3099 17.5895 49.7289 17.4767C49.1479 17.3638 48.5618 17.2496 48.4265 17.2228C48.2643 17.1907 48.1654 17.216 48.1357 17.2973ZM26.0154 19.4941C26.3121 19.5642 26.8785 19.7803 27.2741 19.9745C30.3382 21.4791 31.5466 25.2201 29.9531 28.2679C29.4398 29.2498 28.3073 30.352 27.3191 30.8316C26.3099 31.3214 25.6575 31.4776 24.61 31.4803C23.5548 31.483 22.7184 31.3001 21.8684 30.8812C20.3077 30.1118 19.1522 28.7256 18.6935 27.0722C18.1957 25.2778 18.4746 23.5441 19.5097 21.9984C20.9206 19.8917 23.4967 18.9 26.0154 19.4941ZM49.2887 22.2733C49.9725 22.5989 50.5948 23.2119 50.9255 23.8858C51.1671 24.3783 51.1899 24.5059 51.1899 25.3693C51.1899 26.2538 51.1712 26.352 50.8977 26.9069C50.5513 27.6097 49.987 28.1615 49.2726 28.496C48.8216 28.7071 48.6527 28.7348 47.8183 28.7348C46.9557 28.7348 46.8279 28.712 46.336 28.4708C45.6484 28.1337 45.0443 27.5292 44.713 26.8471C44.4795 26.3663 44.452 26.2168 44.4495 25.4124C44.4471 24.6242 44.4759 24.4521 44.6859 24.0048C45.1077 23.1061 45.9188 22.3862 46.855 22.0796C47.4775 21.8759 48.6499 21.9691 49.2887 22.2733ZM40.3397 33.4809C39.6137 33.5869 38.9945 33.6994 38.9636 33.7309C38.9328 33.7625 38.9711 34.2433 39.0488 34.7995C39.1265 35.3558 39.1792 35.8213 39.166 35.834C39.1529 35.8466 38.9144 35.9574 38.6362 36.08C38.3579 36.2027 37.9075 36.4454 37.6351 36.6193L37.1399 36.9357L36.3428 36.2259C35.9044 35.8354 35.5242 35.5258 35.4978 35.5376C35.4585 35.5555 34.0885 37.0509 33.401 37.8266L33.2221 38.0284L33.7545 38.5086C34.0474 38.7727 34.4066 39.091 34.5528 39.2159L34.8185 39.4431L34.5395 40.0604C34.3861 40.4 34.1911 40.894 34.1062 41.1584L33.9518 41.639L32.8853 41.6074L31.8189 41.5758L31.7768 41.8002C31.7535 41.9237 31.7222 42.6915 31.7071 43.5064L31.6797 44.988L32.7502 45.0329L33.8208 45.0778L34.0156 45.7962C34.1228 46.1913 34.2782 46.671 34.3611 46.8623C34.444 47.0535 34.5118 47.2366 34.5118 47.2692C34.5118 47.3018 34.1477 47.6087 33.7026 47.9513C33.2576 48.2939 32.8934 48.6051 32.8934 48.643C32.8934 48.681 33.345 49.2884 33.8967 49.9928C34.4485 50.6974 34.9101 51.2869 34.9223 51.3029C34.9346 51.3189 35.307 51.0461 35.7498 50.6968C36.1926 50.3474 36.6052 50.0615 36.6667 50.0615C36.7282 50.0615 36.926 50.1781 37.1062 50.3205C37.2864 50.4628 37.7082 50.73 38.0437 50.914C38.4882 51.1579 38.6419 51.2885 38.6111 51.3959C38.5163 51.7255 38.194 53.32 38.2176 53.3423C38.2316 53.3555 38.9808 53.5252 39.8825 53.7194C41.3185 54.0287 41.5271 54.0548 41.5628 53.9302C41.5852 53.8521 41.689 53.3854 41.7934 52.893C41.8979 52.4007 41.9914 51.9928 42.0013 51.9865C42.0111 51.9802 42.4238 51.923 42.9183 51.8594C43.4128 51.7957 43.9387 51.7268 44.0871 51.7063C44.3482 51.6701 44.3725 51.6992 44.8454 52.6134L45.334 53.5579L45.7894 53.3036C46.0399 53.1637 46.7209 52.7983 47.3026 52.4915L48.3604 51.9338L47.855 50.9928L47.3496 50.0518L47.8803 49.4955C48.1723 49.1894 48.5229 48.7906 48.6596 48.6092L48.9081 48.2793L49.8971 48.686C50.441 48.9098 50.9 49.0784 50.917 49.0608C50.934 49.0432 51.2338 48.3293 51.583 47.4742L52.2183 45.9196L51.9738 45.8305C51.8394 45.7815 51.4057 45.6099 51.0101 45.449L50.2908 45.1567L50.3043 43.9613L50.3179 42.766L51.2933 42.4524C51.8298 42.28 52.2836 42.1254 52.3017 42.1088C52.3301 42.0828 51.3414 38.9192 51.2864 38.8601C51.2753 38.8481 50.8466 38.9795 50.3338 39.152C49.8209 39.3244 49.3539 39.4655 49.296 39.4655C49.2382 39.4655 49.0782 39.2938 48.9405 39.0839C48.8028 38.874 48.4909 38.471 48.2474 38.1884C47.9755 37.8726 47.8295 37.6302 47.8692 37.5598C47.9046 37.4967 48.1504 37.0972 48.4154 36.6721C48.6804 36.247 48.8972 35.8778 48.8972 35.8518C48.8972 35.7844 46.1479 34.0777 46.0394 34.0777C45.9899 34.0777 45.9277 34.1344 45.9011 34.2036C45.8745 34.273 45.6301 34.6742 45.3581 35.0952L44.8636 35.8609L44.2981 35.6899C43.987 35.5958 43.4973 35.4923 43.2098 35.4598C42.8626 35.4206 42.6625 35.352 42.614 35.2556C42.5738 35.1758 42.4898 34.6962 42.4273 34.19L42.3136 33.2696L41.9865 33.2789C41.8067 33.284 41.0656 33.3749 40.3397 33.4809ZM42.8689 39.3749C44.4347 39.6714 45.8316 40.9933 46.2419 42.5667C46.9451 45.2631 44.8446 47.9901 42.0605 47.9951C40.8379 47.9974 39.6746 47.4992 38.8662 46.6271C38.0542 45.7511 37.6617 44.7931 37.6597 43.6824C37.6546 40.9169 40.1437 38.8587 42.8689 39.3749Z" fill="white"/>
<defs>
<linearGradient id="paint0_linear_418_9159" x1="0.5" y1="33.3784" x2="65.5" y2="33.3784" gradientUnits="userSpaceOnUse">
<stop stop-color="#00469F"/>
<stop offset="1" stop-color="#1E79D6"/>
</linearGradient>
</defs>
</svg>
