<svg width="66" height="65" viewBox="0 0 66 65" fill="none" xmlns="http://www.w3.org/2000/svg">
<rect x="0.5" width="65" height="65" rx="8" fill="url(#paint0_linear_418_9163)"/>
<path fill-rule="evenodd" clip-rule="evenodd" d="M24.4158 13.1347C23.9576 13.2974 23.5678 13.5956 23.3056 13.9839C22.9644 14.4894 22.8937 14.8832 22.8937 16.2783V17.5522L21.9838 17.592C21.4834 17.6138 20.8065 17.69 20.4796 17.7612C17.6979 18.3667 15.3605 20.4775 14.4534 23.2033C13.1629 27.081 14.6964 31.2314 18.1744 33.2739C19.2888 33.9284 20.8747 34.3469 22.2424 34.3476L22.891 34.3479L22.9109 42.3352L22.9308 50.3225L23.0905 50.677C23.2945 51.1301 23.7782 51.6267 24.2197 51.8361L24.565 52H37.4524H50.3398L50.6851 51.8361C51.1266 51.6267 51.6103 51.1301 51.8143 50.677L51.974 50.3225L51.9953 35.9111C52.007 27.9848 51.9961 21.3796 51.9711 21.2328C51.9324 21.0053 51.3701 20.3944 48.1641 17.097C46.0952 14.9692 44.2961 13.1763 44.166 13.1129C43.9586 13.012 42.7476 12.998 34.3586 13.0002C25.4787 13.0025 24.761 13.0122 24.4158 13.1347ZM43.0976 18.0672V21.6116L43.3143 21.8606L43.531 22.1097L47.0288 22.1309L50.5267 22.1521L50.5075 36.1022L50.4884 50.0522L50.2824 50.2635L50.0765 50.475H37.4524H24.8283L24.6224 50.2635L24.4164 50.0522V42.0397V34.0271L24.9735 33.818C26.1162 33.3889 27.0538 32.7625 27.9667 31.8183C28.9818 30.7684 29.6794 29.4917 30.0812 27.9485C30.2487 27.3052 30.2713 27.0691 30.2713 25.9603C30.2713 24.8516 30.2487 24.6155 30.0812 23.9722C29.6794 22.4289 28.9818 21.1523 27.9667 20.1024C27.0539 19.1583 26.1167 18.5321 24.9735 18.1026L24.4164 17.8933V16.4446C24.4164 15.1032 24.4274 14.9834 24.565 14.8266C24.6467 14.7334 24.7804 14.6292 24.8621 14.5948C24.9438 14.5605 29.0802 14.5302 34.0541 14.5275L43.0976 14.5227V18.0672ZM47.0344 18.1446L49.4476 20.6228H47.0154H44.5832V18.1446C44.5832 16.7816 44.5917 15.6665 44.6022 15.6665C44.6126 15.6665 45.7071 16.7816 47.0344 18.1446ZM32.7274 17.6475C32.4935 17.7445 32.2529 18.0979 32.2529 18.3443C32.2529 18.4766 32.3376 18.659 32.4696 18.8106L32.6863 19.0596L36.886 19.0805L41.0857 19.1014L41.3287 18.8786C41.53 18.6939 41.5715 18.6011 41.5715 18.3353C41.5715 18.0699 41.5299 17.9766 41.3306 17.7937L41.0897 17.5727L36.987 17.5775C34.7304 17.5802 32.8137 17.6117 32.7274 17.6475ZM21.4245 22.718L21.4453 26.262L21.6512 26.4734L21.8571 26.6847L25.3094 26.706L28.7617 26.7273V26.9013C28.7617 26.997 28.6933 27.3434 28.6098 27.6711C27.9948 30.0811 26.186 31.9453 23.8222 32.6051C22.9697 32.8431 21.3304 32.8429 20.4796 32.6046C18.1645 31.9562 16.3074 30.0495 15.6791 27.676C15.4665 26.8725 15.4446 25.1978 15.6366 24.4102C16.1472 22.3149 17.5012 20.6229 19.3803 19.7316C19.9569 19.4581 20.8544 19.1854 21.2017 19.1782L21.4038 19.174L21.4245 22.718ZM23.8289 19.3257C25.6234 19.7892 27.3006 21.2005 28.134 22.9484C28.4475 23.6058 28.7617 24.6426 28.7617 25.0194V25.1978H25.8277H22.8937V22.1859V19.174H23.0675C23.1631 19.174 23.5058 19.2423 23.8289 19.3257ZM32.7274 20.6975C32.4935 20.7945 32.2529 21.1479 32.2529 21.3944C32.2529 21.5267 32.3376 21.709 32.4696 21.8606L32.6863 22.1097L36.886 22.1306L41.0857 22.1515L41.3287 21.9286C41.53 21.744 41.5715 21.6512 41.5715 21.3853C41.5715 21.1199 41.5299 21.0266 41.3306 20.8438L41.0897 20.6228L36.987 20.6276C34.7304 20.6302 32.8137 20.6617 32.7274 20.6975ZM17.4342 25.2699C17.1771 25.3779 17.0094 25.6373 16.9711 25.9858C16.9116 26.5281 17.1452 27.5207 17.5216 28.3241C17.81 28.9398 17.9582 29.1475 18.5093 29.7085C19.0498 30.2586 19.2739 30.426 19.8558 30.7142C20.5757 31.0708 21.4271 31.2979 22.0438 31.2979C22.3369 31.2979 22.4265 31.259 22.6411 31.0386C22.9838 30.6869 22.9838 30.3839 22.6411 30.0321C22.4306 29.816 22.3343 29.7729 22.0625 29.7729C21.2414 29.7729 20.191 29.2981 19.5452 28.6352C18.8994 27.9723 18.437 26.894 18.437 26.0511C18.437 25.7721 18.3949 25.6732 18.1844 25.4571C17.9309 25.1968 17.7283 25.1463 17.4342 25.2699ZM32.2817 25.2726C32.0479 25.3695 31.8072 25.723 31.8072 25.9694C31.8072 26.2746 32.1486 26.641 32.4841 26.6956C32.7103 26.7325 32.7917 26.7034 33.0023 26.5102C33.211 26.3188 33.2523 26.2281 33.2523 25.9603C33.2523 25.695 33.2107 25.6017 33.0113 25.4188C32.7673 25.1949 32.5661 25.1546 32.2817 25.2726ZM35.2528 25.2726C35.019 25.3695 34.7784 25.723 34.7784 25.9694C34.7784 26.1017 34.8631 26.284 34.9951 26.4357L35.2118 26.6847L41.1204 26.7052L47.0291 26.7255L47.2715 26.5032C47.4724 26.319 47.5139 26.2261 47.5139 25.9603C47.5139 25.695 47.4723 25.6017 47.2729 25.4188L47.032 25.1978L41.2209 25.2026C38.0247 25.2053 35.3392 25.2368 35.2528 25.2726ZM32.2817 28.3226C32.0479 28.4196 31.8072 28.773 31.8072 29.0194C31.8072 29.3247 32.1486 29.691 32.4841 29.7457C32.7103 29.7826 32.7917 29.7534 33.0023 29.5602C33.211 29.3688 33.2523 29.2781 33.2523 29.0104C33.2523 28.745 33.2107 28.6517 33.0113 28.4688C32.7673 28.245 32.5661 28.2046 32.2817 28.3226ZM35.2528 28.3226C35.019 28.4196 34.7784 28.773 34.7784 29.0194C34.7784 29.1517 34.8631 29.3341 34.9951 29.4857L35.2118 29.7348L41.1204 29.7552L47.0291 29.7755L47.2715 29.5533C47.4724 29.3691 47.5139 29.2761 47.5139 29.0104C47.5139 28.745 47.4723 28.6517 47.2729 28.4688L47.032 28.2479L41.2209 28.2527C38.0247 28.2553 35.3392 28.2868 35.2528 28.3226ZM45.8825 33.4128C44.6246 33.8751 44.0374 35.2722 44.5759 36.522L44.7242 36.8662L42.1731 39.6744L39.6221 42.4827L39.0758 42.4757C38.7753 42.4718 38.4123 42.4966 38.2691 42.5308L38.0087 42.593L36.8773 41.1415L35.7459 39.6899L35.8648 39.2136C36.0736 38.3769 35.8757 37.6094 35.2983 37.0167C33.7695 35.4473 31.1561 36.8553 31.577 39.0215C31.6276 39.2819 31.675 39.5329 31.6824 39.5794C31.6898 39.6259 31.0979 40.3332 30.3672 41.151L29.0386 42.6381L28.6959 42.5287C27.9763 42.299 27.0971 42.5381 26.5334 43.1168C26.0774 43.5848 25.905 44.0242 25.905 44.718C25.905 45.4119 26.0774 45.8513 26.5334 46.3193C28.0622 47.8887 30.6756 46.4807 30.2547 44.3145C30.2041 44.0541 30.1567 43.8031 30.1493 43.7566C30.1419 43.7101 30.7338 43.0029 31.4645 42.185L32.7931 40.6979L33.1357 40.8073C33.4604 40.9109 33.9978 40.9028 34.4814 40.787C34.6499 40.7466 34.773 40.8782 35.7989 42.1943L36.9305 43.6461L36.8116 44.1224C36.5357 45.2278 37.0413 46.3347 38.0356 46.802C38.5153 47.0275 39.3607 47.0275 39.8404 46.802C40.2818 46.5945 40.7659 46.0976 40.968 45.6444C41.1895 45.1479 41.1877 44.2844 40.9643 43.783L40.8025 43.4198L43.3483 40.6173L45.8941 37.8148L46.5199 37.8154C47.2696 37.8162 47.6751 37.6552 48.1486 37.1692C48.6045 36.7012 48.7769 36.2618 48.7769 35.5679C48.7769 34.8741 48.6045 34.4347 48.1486 33.9667C47.5581 33.3605 46.6372 33.1354 45.8825 33.4128ZM47.107 35.0741C47.3707 35.3447 47.3623 35.7998 47.0884 36.0809C46.6399 36.5413 45.8864 36.2236 45.8864 35.574C45.8864 34.8936 46.6329 34.5878 47.107 35.0741ZM34.2567 38.1242C34.5436 38.4185 34.515 38.8704 34.1908 39.1678C33.9801 39.361 33.8987 39.3902 33.6726 39.3533C33.5009 39.3253 33.3277 39.2223 33.1918 39.0676C33.0165 38.8678 32.9868 38.7796 33.0216 38.5599C33.1254 37.9029 33.8068 37.6626 34.2567 38.1242ZM28.5546 44.1765C29.0548 44.6352 28.7611 45.439 28.0932 45.439C27.3149 45.439 27.1108 44.3311 27.8333 44.0276C28.1082 43.9121 28.3124 43.9542 28.5546 44.1765ZM39.4562 44.2242C39.7199 44.4948 39.7115 44.9499 39.4377 45.231C39.0175 45.6623 38.3212 45.4095 38.2233 44.7902C38.1917 44.5901 38.2213 44.4758 38.3473 44.3113C38.6561 43.9083 39.1133 43.8724 39.4562 44.2242Z" fill="white"/>
<defs>
<linearGradient id="paint0_linear_418_9163" x1="0.5" y1="33.3784" x2="65.5" y2="33.3784" gradientUnits="userSpaceOnUse">
<stop stop-color="#00469F"/>
<stop offset="1" stop-color="#1E79D6"/>
</linearGradient>
</defs>
</svg>
