<svg width="51" height="50" viewBox="0 0 51 50" fill="none" xmlns="http://www.w3.org/2000/svg">
<path d="M14.9828 28.1259L7.24841 34.3759V9.37585C7.24841 8.96145 7.41303 8.56403 7.70606 8.271C7.99908 7.97797 8.39651 7.81335 8.81091 7.81335H33.8109C34.2253 7.81335 34.6227 7.97797 34.9158 8.271C35.2088 8.56403 35.3734 8.96145 35.3734 9.37585V26.5634C35.3734 26.9778 35.2088 27.3752 34.9158 27.6682C34.6227 27.9612 34.2253 28.1259 33.8109 28.1259H14.9828Z" stroke="url(#paint0_linear_0_107)" stroke-width="2" stroke-linecap="round" stroke-linejoin="round"/>
<path d="M16.6234 28.1259V35.9384C16.6234 36.3528 16.788 36.7502 17.0811 37.0432C17.3741 37.3362 17.7715 37.5009 18.1859 37.5009H37.014L44.7484 43.7509V18.7509C44.7484 18.3365 44.5838 17.939 44.2908 17.646C43.9977 17.353 43.6003 17.1884 43.1859 17.1884H35.3734" stroke="url(#paint1_linear_0_107)" stroke-width="2" stroke-linecap="round" stroke-linejoin="round"/>
<defs>
<linearGradient id="paint0_linear_0_107" x1="7.24841" y1="21.4536" x2="35.3734" y2="21.4536" gradientUnits="userSpaceOnUse">
<stop stop-color="#00469F"/>
<stop offset="1" stop-color="#1E79D6"/>
</linearGradient>
<linearGradient id="paint1_linear_0_107" x1="16.6234" y1="30.8286" x2="44.7484" y2="30.8286" gradientUnits="userSpaceOnUse">
<stop stop-color="#00469F"/>
<stop offset="1" stop-color="#1E79D6"/>
</linearGradient>
</defs>
</svg>
