<svg width="50" height="50" viewBox="0 0 50 50" fill="none" xmlns="http://www.w3.org/2000/svg">
<path d="M44.0421 25.0009H37.7921C36.9633 25.0009 36.1685 25.3301 35.5824 25.9162C34.9964 26.5022 34.6671 27.2971 34.6671 28.1259V35.9384C34.6671 36.7672 34.9964 37.5621 35.5824 38.1481C36.1685 38.7342 36.9633 39.0634 37.7921 39.0634H40.9171C41.7459 39.0634 42.5408 38.7342 43.1268 38.1481C43.7129 37.5621 44.0421 36.7672 44.0421 35.9384V25.0009ZM44.0421 25.0009C44.0422 22.5254 43.5521 20.0744 42.6001 17.7893C41.648 15.5042 40.2529 13.4302 38.4952 11.6871C36.7376 9.94394 34.6521 8.56609 32.3592 7.63306C30.0663 6.70002 27.6113 6.23027 25.1359 6.2509C22.6621 6.23286 20.2092 6.70453 17.9186 7.63872C15.6279 8.57292 13.5447 9.95117 11.7891 11.6941C10.0335 13.437 8.64018 15.51 7.68937 17.7939C6.73856 20.0777 6.24908 22.5271 6.24915 25.0009V35.9384C6.24915 36.7672 6.57839 37.5621 7.16444 38.1481C7.75049 38.7342 8.54534 39.0634 9.37415 39.0634H12.4991C13.3279 39.0634 14.1228 38.7342 14.7089 38.1481C15.2949 37.5621 15.6241 36.7672 15.6241 35.9384V28.1259C15.6241 27.2971 15.2949 26.5022 14.7089 25.9162C14.1228 25.3301 13.3279 25.0009 12.4991 25.0009H6.24915" stroke="url(#paint0_linear_0_98)" stroke-width="2" stroke-linecap="round" stroke-linejoin="round"/>
<path d="M44.0421 35.9377V40.6252C44.0421 42.2828 43.3836 43.8726 42.2115 45.0447C41.0394 46.2168 39.4497 46.8752 37.7921 46.8752H26.5616" stroke="url(#paint1_linear_0_98)" stroke-width="2" stroke-linecap="round" stroke-linejoin="round"/>
<defs>
<linearGradient id="paint0_linear_0_98" x1="6.24915" y1="23.1002" x2="44.0421" y2="23.1002" gradientUnits="userSpaceOnUse">
<stop stop-color="#00469F"/>
<stop offset="1" stop-color="#1E79D6"/>
</linearGradient>
<linearGradient id="paint1_linear_0_98" x1="26.5616" y1="41.5543" x2="44.0421" y2="41.5543" gradientUnits="userSpaceOnUse">
<stop stop-color="#00469F"/>
<stop offset="1" stop-color="#1E79D6"/>
</linearGradient>
</defs>
</svg>
