<svg width="51" height="50" viewBox="0 0 51 50" fill="none" xmlns="http://www.w3.org/2000/svg">
<path d="M45.1455 12.5085C44.5353 12.508 43.9286 12.601 43.3469 12.7842C43.4021 12.3474 43.43 11.9075 43.4305 11.4672C43.3219 5.02714 37.9934 -0.1059 31.5288 0.00228966C26.8115 0.0812194 22.6028 2.97351 20.8533 7.3387C17.4701 5.24873 13.0268 6.28689 10.929 9.65734C10.2461 10.7545 9.8727 12.0149 9.84824 13.3057C8.93742 12.7818 7.90389 12.5067 6.85217 12.5085C3.61946 12.5085 0.99884 15.1192 0.99884 18.3397C0.99884 21.5602 3.61946 24.1709 6.85217 24.1709C7.31396 24.1709 7.68836 23.798 7.68836 23.3379C7.68836 22.8779 7.31396 22.5049 6.85217 22.5049C4.54335 22.4675 2.70216 20.5727 2.73968 18.2726C2.77721 15.9725 4.67923 14.1382 6.98805 14.1756C8.39348 14.1984 9.69334 14.9231 10.4478 16.1046C10.7007 16.4896 11.219 16.5973 11.6054 16.3454C11.9393 16.1277 12.0723 15.7053 11.9228 15.3365C11.6595 14.7038 11.5221 14.0263 11.5181 13.3414C11.5517 10.3225 14.0317 7.90037 17.0621 7.92672C18.4123 7.93203 19.7149 8.42445 20.7288 9.31288C21.0768 9.61527 21.6051 9.57924 21.9085 9.23249C21.9908 9.13857 22.0508 9.02736 22.0842 8.9072C23.6142 3.60328 29.1705 0.539283 34.4944 2.06352C38.7216 3.27371 41.6642 7.08629 41.7522 11.4671C41.7487 12.3403 41.6263 13.2091 41.3885 14.0495C41.2649 14.4928 41.5252 14.952 41.9702 15.0752C42.2109 15.1418 42.469 15.0978 42.6737 14.955C43.397 14.4469 44.2605 14.1742 45.1455 14.1745C47.4545 14.1745 49.3265 16.0393 49.3265 18.3396C49.3265 20.6399 47.4545 22.5048 45.1455 22.5048C44.6837 22.5048 44.3093 22.8778 44.3093 23.3378C44.3093 23.7979 44.6837 24.1708 45.1455 24.1708C48.3782 24.1708 50.9988 21.5601 50.9988 18.3396C50.9988 15.1192 48.3782 12.5085 45.1455 12.5085Z" fill="url(#paint0_linear_0_138)"/>
<path d="M40.2113 31.6703H11.7808C10.3954 31.6703 9.27228 32.7892 9.27228 34.1694V37.5015C9.27228 38.8817 10.3954 40.0006 11.7808 40.0006H40.2113C41.5968 40.0006 42.7199 38.8817 42.7199 37.5015V34.1694C42.7199 32.7892 41.5968 31.6703 40.2113 31.6703ZM41.0475 37.5015C41.0475 37.9616 40.6731 38.3345 40.2113 38.3345H11.7808C11.3191 38.3345 10.9447 37.9616 10.9447 37.5015V34.1694C10.9447 33.7093 11.3191 33.3364 11.7808 33.3364H40.2113C40.6731 33.3364 41.0475 33.7093 41.0475 34.1694V37.5015Z" fill="url(#paint1_linear_0_138)"/>
<path d="M37.8945 34.2233C37.0034 34.2288 36.284 34.95 36.284 35.8378C36.2882 36.7317 37.0173 37.4537 37.9146 37.4524C38.8096 37.4469 39.5306 36.7195 39.5251 35.8278C39.5195 34.9361 38.7895 34.2178 37.8945 34.2233ZM37.9146 35.8904C37.8895 35.8904 37.8728 35.8629 37.8728 35.8379L37.9146 35.7862V35.8904Z" fill="url(#paint2_linear_0_138)"/>
<path d="M29.1758 35.0044H13.2882C12.8264 35.0044 12.452 35.3774 12.452 35.8375C12.452 36.2976 12.8264 36.6706 13.2882 36.6706H29.1758C29.6376 36.6706 30.012 36.2976 30.012 35.8375C30.012 35.3774 29.6377 35.0044 29.1758 35.0044Z" fill="url(#paint3_linear_0_138)"/>
<path d="M34.3327 35.0044H32.1085C31.6467 35.0044 31.2723 35.3774 31.2723 35.8375C31.2723 36.2976 31.6467 36.6706 32.1085 36.6706H34.3327C34.7945 36.6706 35.1689 36.2976 35.1689 35.8375C35.1689 35.3774 34.7946 35.0044 34.3327 35.0044Z" fill="url(#paint4_linear_0_138)"/>
<path d="M40.2113 41.6698H11.7808C10.3954 41.6698 9.27228 42.7887 9.27228 44.1689V47.501C9.27228 48.8813 10.3954 50.0001 11.7808 50.0001H40.2113C41.5968 50.0001 42.7199 48.8813 42.7199 47.501V44.1689C42.7199 42.7887 41.5968 41.6698 40.2113 41.6698ZM41.0475 47.501C41.0475 47.9611 40.6731 48.3341 40.2113 48.3341H11.7808C11.3191 48.3341 10.9447 47.9611 10.9447 47.501V44.1689C10.9447 43.7089 11.3191 43.3359 11.7808 43.3359H40.2113C40.6731 43.3359 41.0475 43.7089 41.0475 44.1689V47.501Z" fill="url(#paint5_linear_0_138)"/>
<path d="M37.8945 44.2135C37.0034 44.2191 36.284 44.9402 36.284 45.828C36.2882 46.722 37.0173 47.444 37.9146 47.4426C38.8096 47.4371 39.5306 46.7098 39.5251 45.818C39.5195 44.9264 38.7895 44.208 37.8945 44.2135ZM37.9146 45.8806C37.8895 45.8806 37.8728 45.8531 37.8728 45.8281L37.9146 45.7765V45.8806Z" fill="url(#paint6_linear_0_138)"/>
<path d="M29.1758 44.9951H13.2882C12.8264 44.9951 12.452 45.3681 12.452 45.8282C12.452 46.2883 12.8264 46.6614 13.2882 46.6614H29.1758C29.6376 46.6614 30.012 46.2883 30.012 45.8282C30.012 45.3681 29.6377 44.9951 29.1758 44.9951Z" fill="url(#paint7_linear_0_138)"/>
<path d="M34.3327 44.9951H32.1085C31.6467 44.9951 31.2723 45.3681 31.2723 45.8282C31.2723 46.2883 31.6467 46.6614 32.1085 46.6614H34.3327C34.7945 46.6614 35.1689 46.2883 35.1689 45.8282C35.1689 45.3681 34.7946 44.9951 34.3327 44.9951Z" fill="url(#paint8_linear_0_138)"/>
<path d="M40.2113 21.6704H11.7808C10.3954 21.6704 9.27228 22.7893 9.27228 24.1695V27.5016C9.27228 28.8819 10.3954 30.0007 11.7808 30.0007H40.2113C41.5968 30.0007 42.7199 28.8819 42.7199 27.5016V24.1695C42.7199 22.7893 41.5968 21.6704 40.2113 21.6704ZM41.0475 27.5016C41.0475 27.9617 40.6731 28.3347 40.2113 28.3347H11.7808C11.3191 28.3347 10.9447 27.9617 10.9447 27.5016V24.1695C10.9447 23.7095 11.3191 23.3365 11.7808 23.3365H40.2113C40.6731 23.3365 41.0475 23.7095 41.0475 24.1695V27.5016Z" fill="url(#paint9_linear_0_138)"/>
<path d="M39.2633 25.6064C39.1021 24.7213 38.2514 24.1339 37.363 24.2945C36.9421 24.3705 36.5679 24.608 36.3207 24.9557C36.0725 25.3048 35.9755 25.7385 36.0515 26.1596C36.1921 26.9351 36.8694 27.4993 37.6603 27.5C37.7516 27.4999 37.8428 27.4924 37.9329 27.4776C38.3623 27.407 38.7449 27.1666 38.994 26.8111C39.2431 26.462 39.3402 26.0276 39.2633 25.6064ZM37.6176 25.8996L37.6553 25.8338L37.6594 25.9379C37.6218 25.9379 37.6193 25.9171 37.6176 25.8996Z" fill="url(#paint10_linear_0_138)"/>
<path d="M29.0039 25.0046H13.1163C12.6545 25.0046 12.2801 25.3777 12.2801 25.8378C12.2801 26.2979 12.6545 26.6709 13.1163 26.6709H29.0039C29.4657 26.6709 29.8401 26.2979 29.8401 25.8378C29.8401 25.3777 29.4658 25.0046 29.0039 25.0046Z" fill="url(#paint11_linear_0_138)"/>
<path d="M33.8054 25.0046H31.5811C31.1193 25.0046 30.7449 25.3777 30.7449 25.8378C30.7449 26.2979 31.1193 26.6709 31.5811 26.6709H33.8054C34.2672 26.6709 34.6416 26.2979 34.6416 25.8378C34.6416 25.3777 34.2673 25.0046 33.8054 25.0046Z" fill="url(#paint12_linear_0_138)"/>
<path d="M22.4057 13.5876L19.8971 11.0885C19.5706 10.7633 19.0413 10.7633 18.7148 11.0885L16.2062 13.5876C15.8854 13.9185 15.8946 14.4459 16.2268 14.7655C16.5508 15.0773 17.0645 15.0773 17.3886 14.7655L18.4698 13.6884V19.1747C18.4698 19.6348 18.8442 20.0078 19.3059 20.0078C19.7677 20.0078 20.1421 19.6348 20.1421 19.1747V13.6884L21.2233 14.7655C21.5555 15.0851 22.0849 15.0759 22.4057 14.745C22.7186 14.4222 22.7186 13.9104 22.4057 13.5876Z" fill="url(#paint13_linear_0_138)"/>
<path d="M35.772 16.0869C35.4479 15.7751 34.9342 15.7751 34.6101 16.0869L33.5289 17.164V11.6776C33.5289 11.2176 33.1545 10.8446 32.6927 10.8446C32.2309 10.8446 31.8565 11.2176 31.8565 11.6776V17.164L30.7753 16.0869C30.4431 15.7672 29.9138 15.7764 29.5929 16.1073C29.28 16.4301 29.28 16.9419 29.5929 17.2648L32.1015 19.7639C32.428 20.0891 32.9573 20.0891 33.2839 19.7639L35.7924 17.2648C36.1133 16.9339 36.1041 16.4064 35.772 16.0869Z" fill="url(#paint14_linear_0_138)"/>
<defs>
<linearGradient id="paint0_linear_0_138" x1="0.99884" y1="12.4124" x2="50.9988" y2="12.4124" gradientUnits="userSpaceOnUse">
<stop stop-color="#00469F"/>
<stop offset="1" stop-color="#1E79D6"/>
</linearGradient>
<linearGradient id="paint1_linear_0_138" x1="9.27228" y1="35.948" x2="42.7199" y2="35.948" gradientUnits="userSpaceOnUse">
<stop stop-color="#00469F"/>
<stop offset="1" stop-color="#1E79D6"/>
</linearGradient>
<linearGradient id="paint2_linear_0_138" x1="36.284" y1="35.8815" x2="39.5251" y2="35.8815" gradientUnits="userSpaceOnUse">
<stop stop-color="#00469F"/>
<stop offset="1" stop-color="#1E79D6"/>
</linearGradient>
<linearGradient id="paint3_linear_0_138" x1="12.452" y1="35.86" x2="30.012" y2="35.86" gradientUnits="userSpaceOnUse">
<stop stop-color="#00469F"/>
<stop offset="1" stop-color="#1E79D6"/>
</linearGradient>
<linearGradient id="paint4_linear_0_138" x1="31.2723" y1="35.86" x2="35.1689" y2="35.86" gradientUnits="userSpaceOnUse">
<stop stop-color="#00469F"/>
<stop offset="1" stop-color="#1E79D6"/>
</linearGradient>
<linearGradient id="paint5_linear_0_138" x1="9.27228" y1="45.9475" x2="42.7199" y2="45.9475" gradientUnits="userSpaceOnUse">
<stop stop-color="#00469F"/>
<stop offset="1" stop-color="#1E79D6"/>
</linearGradient>
<linearGradient id="paint6_linear_0_138" x1="36.284" y1="45.8717" x2="39.5251" y2="45.8717" gradientUnits="userSpaceOnUse">
<stop stop-color="#00469F"/>
<stop offset="1" stop-color="#1E79D6"/>
</linearGradient>
<linearGradient id="paint7_linear_0_138" x1="12.452" y1="45.8508" x2="30.012" y2="45.8508" gradientUnits="userSpaceOnUse">
<stop stop-color="#00469F"/>
<stop offset="1" stop-color="#1E79D6"/>
</linearGradient>
<linearGradient id="paint8_linear_0_138" x1="31.2723" y1="45.8508" x2="35.1689" y2="45.8508" gradientUnits="userSpaceOnUse">
<stop stop-color="#00469F"/>
<stop offset="1" stop-color="#1E79D6"/>
</linearGradient>
<linearGradient id="paint9_linear_0_138" x1="9.27228" y1="25.9481" x2="42.7199" y2="25.9481" gradientUnits="userSpaceOnUse">
<stop stop-color="#00469F"/>
<stop offset="1" stop-color="#1E79D6"/>
</linearGradient>
<linearGradient id="paint10_linear_0_138" x1="36.0262" y1="25.9277" x2="39.289" y2="25.9277" gradientUnits="userSpaceOnUse">
<stop stop-color="#00469F"/>
<stop offset="1" stop-color="#1E79D6"/>
</linearGradient>
<linearGradient id="paint11_linear_0_138" x1="12.2801" y1="25.8603" x2="29.8401" y2="25.8603" gradientUnits="userSpaceOnUse">
<stop stop-color="#00469F"/>
<stop offset="1" stop-color="#1E79D6"/>
</linearGradient>
<linearGradient id="paint12_linear_0_138" x1="30.7449" y1="25.8603" x2="34.6416" y2="25.8603" gradientUnits="userSpaceOnUse">
<stop stop-color="#00469F"/>
<stop offset="1" stop-color="#1E79D6"/>
</linearGradient>
<linearGradient id="paint13_linear_0_138" x1="15.9715" y1="15.55" x2="22.6404" y2="15.55" gradientUnits="userSpaceOnUse">
<stop stop-color="#00469F"/>
<stop offset="1" stop-color="#1E79D6"/>
</linearGradient>
<linearGradient id="paint14_linear_0_138" x1="29.3582" y1="15.55" x2="36.0272" y2="15.55" gradientUnits="userSpaceOnUse">
<stop stop-color="#00469F"/>
<stop offset="1" stop-color="#1E79D6"/>
</linearGradient>
</defs>
</svg>
