<svg width="40" height="40" viewBox="0 0 40 40" fill="none" xmlns="http://www.w3.org/2000/svg">
<rect x="7" y="22" width="4" height="14" rx="2" fill="url(#paint0_linear_2536_26393)"/>
<rect x="14" y="18" width="4" height="18" rx="2" fill="url(#paint1_linear_2536_26393)"/>
<rect x="22" y="22" width="4" height="14" rx="2" fill="url(#paint2_linear_2536_26393)"/>
<rect x="29" y="12" width="4" height="24" rx="2" fill="url(#paint3_linear_2536_26393)"/>
<path d="M11 17C11 18.1046 10.1046 19 9 19C7.89543 19 7 18.1046 7 17C7 15.8954 7.89543 15 9 15C10.1046 15 11 15.8954 11 17ZM7.59573 17C7.59573 17.7756 8.22444 18.4043 9 18.4043C9.77556 18.4043 10.4043 17.7756 10.4043 17C10.4043 16.2244 9.77556 15.5957 9 15.5957C8.22444 15.5957 7.59573 16.2244 7.59573 17Z" fill="url(#paint4_linear_2536_26393)"/>
<path d="M18 13C18 14.1046 17.1046 15 16 15C14.8954 15 14 14.1046 14 13C14 11.8954 14.8954 11 16 11C17.1046 11 18 11.8954 18 13ZM14.5957 13C14.5957 13.7756 15.2244 14.4043 16 14.4043C16.7756 14.4043 17.4043 13.7756 17.4043 13C17.4043 12.2244 16.7756 11.5957 16 11.5957C15.2244 11.5957 14.5957 12.2244 14.5957 13Z" fill="url(#paint5_linear_2536_26393)"/>
<path d="M26 17C26 18.1046 25.1046 19 24 19C22.8954 19 22 18.1046 22 17C22 15.8954 22.8954 15 24 15C25.1046 15 26 15.8954 26 17ZM22.5957 17C22.5957 17.7756 23.2244 18.4043 24 18.4043C24.7756 18.4043 25.4043 17.7756 25.4043 17C25.4043 16.2244 24.7756 15.5957 24 15.5957C23.2244 15.5957 22.5957 16.2244 22.5957 17Z" fill="url(#paint6_linear_2536_26393)"/>
<path d="M33 7C33 8.10457 32.1046 9 31 9C29.8954 9 29 8.10457 29 7C29 5.89543 29.8954 5 31 5C32.1046 5 33 5.89543 33 7ZM29.5957 7C29.5957 7.77556 30.2244 8.40427 31 8.40427C31.7756 8.40427 32.4043 7.77556 32.4043 7C32.4043 6.22444 31.7756 5.59573 31 5.59573C30.2244 5.59573 29.5957 6.22444 29.5957 7Z" fill="url(#paint7_linear_2536_26393)"/>
<path fill-rule="evenodd" clip-rule="evenodd" d="M14.7644 14.4222L10.7644 16.9222L10.2344 16.0742L14.2344 13.5742L14.7644 14.4222Z" fill="url(#paint8_linear_2536_26393)"/>
<path fill-rule="evenodd" clip-rule="evenodd" d="M22.2422 16.9278L17.2422 13.9278L17.7567 13.0703L22.7567 16.0703L22.2422 16.9278Z" fill="url(#paint9_linear_2536_26393)"/>
<path fill-rule="evenodd" clip-rule="evenodd" d="M30.416 8.77736L25.416 16.2774L24.584 15.7227L29.584 8.22266L30.416 8.77736Z" fill="url(#paint10_linear_2536_26393)"/>
<defs>
<linearGradient id="paint0_linear_2536_26393" x1="7" y1="29.1892" x2="11" y2="29.1892" gradientUnits="userSpaceOnUse">
<stop stop-color="#00469F"/>
<stop offset="1" stop-color="#1E79D6"/>
</linearGradient>
<linearGradient id="paint1_linear_2536_26393" x1="14" y1="27.2432" x2="18" y2="27.2432" gradientUnits="userSpaceOnUse">
<stop stop-color="#00469F"/>
<stop offset="1" stop-color="#1E79D6"/>
</linearGradient>
<linearGradient id="paint2_linear_2536_26393" x1="22" y1="29.1892" x2="26" y2="29.1892" gradientUnits="userSpaceOnUse">
<stop stop-color="#00469F"/>
<stop offset="1" stop-color="#1E79D6"/>
</linearGradient>
<linearGradient id="paint3_linear_2536_26393" x1="29" y1="24.3243" x2="33" y2="24.3243" gradientUnits="userSpaceOnUse">
<stop stop-color="#00469F"/>
<stop offset="1" stop-color="#1E79D6"/>
</linearGradient>
<linearGradient id="paint4_linear_2536_26393" x1="7" y1="12.1892" x2="33" y2="12.1892" gradientUnits="userSpaceOnUse">
<stop stop-color="#00469F"/>
<stop offset="1" stop-color="#1E79D6"/>
</linearGradient>
<linearGradient id="paint5_linear_2536_26393" x1="7" y1="12.1892" x2="33" y2="12.1892" gradientUnits="userSpaceOnUse">
<stop stop-color="#00469F"/>
<stop offset="1" stop-color="#1E79D6"/>
</linearGradient>
<linearGradient id="paint6_linear_2536_26393" x1="7" y1="12.1892" x2="33" y2="12.1892" gradientUnits="userSpaceOnUse">
<stop stop-color="#00469F"/>
<stop offset="1" stop-color="#1E79D6"/>
</linearGradient>
<linearGradient id="paint7_linear_2536_26393" x1="7" y1="12.1892" x2="33" y2="12.1892" gradientUnits="userSpaceOnUse">
<stop stop-color="#00469F"/>
<stop offset="1" stop-color="#1E79D6"/>
</linearGradient>
<linearGradient id="paint8_linear_2536_26393" x1="7" y1="12.1892" x2="33" y2="12.1892" gradientUnits="userSpaceOnUse">
<stop stop-color="#00469F"/>
<stop offset="1" stop-color="#1E79D6"/>
</linearGradient>
<linearGradient id="paint9_linear_2536_26393" x1="7" y1="12.1892" x2="33" y2="12.1892" gradientUnits="userSpaceOnUse">
<stop stop-color="#00469F"/>
<stop offset="1" stop-color="#1E79D6"/>
</linearGradient>
<linearGradient id="paint10_linear_2536_26393" x1="7" y1="12.1892" x2="33" y2="12.1892" gradientUnits="userSpaceOnUse">
<stop stop-color="#00469F"/>
<stop offset="1" stop-color="#1E79D6"/>
</linearGradient>
</defs>
</svg>
