<svg width="35" height="35" viewBox="0 0 35 35" fill="none" xmlns="http://www.w3.org/2000/svg">
<path fill-rule="evenodd" clip-rule="evenodd" d="M23.0754 0.0958387C22.225 0.399197 21.7751 1.02911 21.6207 2.13257C21.5628 2.54597 21.5078 2.60619 20.9879 2.82544L20.5567 3.00727L20.1887 2.73546C19.5668 2.27594 19.2806 2.157 18.729 2.12881C17.9575 2.08926 17.7279 2.20559 16.8218 3.09541C16.0181 3.88456 15.813 4.20667 15.7304 4.80921C15.6713 5.24006 15.8515 5.78286 16.253 6.38307C16.4409 6.66406 16.5947 6.92519 16.5947 6.96344C16.5947 7.00163 16.5069 7.22862 16.3995 7.46785L16.2044 7.90281L15.5632 8.02407C14.833 8.16209 14.4586 8.35247 14.105 8.76559C13.7048 9.23305 13.6369 9.54996 13.6634 10.8276C13.6853 11.8903 13.6944 11.9521 13.8708 12.2522C14.2387 12.878 14.8497 13.2577 15.6709 13.3705C16.2111 13.4448 16.2304 13.4591 16.4174 13.9264C16.5149 14.17 16.5947 14.395 16.5947 14.4265C16.5947 14.458 16.4279 14.7329 16.2241 15.0375C15.4114 16.2516 15.5399 17.0157 16.7621 18.2379C17.9888 19.4646 18.7207 19.5851 19.9817 18.7683L20.5711 18.3866L21.0467 18.5732C21.3976 18.7108 21.5305 18.7984 21.5535 18.9076C21.5708 18.9889 21.6198 19.2402 21.6625 19.466C21.8169 20.2827 22.1316 20.7629 22.7536 21.1313C23.0573 21.3111 23.0789 21.3137 24.3275 21.3137C25.581 21.3137 25.5966 21.3118 25.9092 21.1281C26.2488 20.9284 26.5887 20.5781 26.7553 20.2558C26.8124 20.1455 26.9128 19.7711 26.9784 19.4238L27.0978 18.7924L27.5245 18.5988C27.7593 18.4924 27.9862 18.4053 28.0287 18.4053C28.0713 18.4053 28.3359 18.5591 28.6169 18.747C29.8709 19.5857 30.6034 19.4726 31.8453 18.2486C32.7052 17.4009 32.8801 17.0862 32.8801 16.3866C32.8801 15.8411 32.7425 15.4825 32.2803 14.8245L32.0003 14.4257L32.1787 14.0033C32.2768 13.771 32.3797 13.5546 32.4074 13.5224C32.4351 13.4903 32.7397 13.4074 33.0844 13.3383C34.0076 13.153 34.4433 12.8547 34.817 12.1517C34.9486 11.9042 34.9696 11.7416 34.9903 10.8094C35.0113 9.86967 34.9979 9.70578 34.873 9.37231C34.5815 8.59472 33.9859 8.16777 32.9605 8.00121C32.4206 7.91355 32.4054 7.90582 32.308 7.66672C32.2531 7.53211 32.1618 7.31299 32.1052 7.17983L32.002 6.93764L32.3642 6.41065C32.7912 5.78943 32.9079 5.42708 32.8696 4.84138C32.8279 4.204 32.6229 3.8641 31.7906 3.05257C30.978 2.26033 30.701 2.11854 29.9666 2.11854C29.464 2.11854 29.1322 2.24767 28.5107 2.68523L28.0748 2.99208L27.5816 2.79116L27.0882 2.59024L26.9987 2.03848C26.8339 1.02377 26.4012 0.421642 25.625 0.126701C25.3466 0.0209744 25.1051 -0.00229242 24.3096 0.000171126C23.6707 0.00215565 23.2458 0.0350713 23.0754 0.0958387ZM25.1028 1.93036C25.1546 2.01508 25.2512 2.40767 25.3174 2.80286C25.4979 3.88005 25.5678 3.97284 26.4197 4.26634C26.6804 4.35613 27.1237 4.54089 27.405 4.67693C28.1284 5.02683 28.2963 5.01204 28.9939 4.53699C29.3067 4.32403 29.6359 4.09307 29.7257 4.02375C29.8155 3.95443 29.9394 3.89777 30.0012 3.89777C30.145 3.89777 31.1022 4.85787 31.1022 5.00219C31.1022 5.06207 31.0456 5.18449 30.9762 5.27427C30.9069 5.36406 30.676 5.69335 30.463 6.00608C29.9879 6.70375 29.9681 6.90295 30.3066 7.57769C30.4337 7.83082 30.6203 8.26885 30.7213 8.55113C31.0417 9.44594 31.1137 9.50103 32.1971 9.68258C33.2345 9.85646 33.2236 9.84599 33.2236 10.6692C33.2236 11.1569 33.1969 11.3737 33.1284 11.4422C33.0761 11.4946 32.6988 11.5933 32.2901 11.6614C31.1441 11.8526 30.9932 11.9617 30.7233 12.7939C30.6562 13.0009 30.4831 13.415 30.3385 13.7141C29.9398 14.5395 29.9637 14.6725 30.6966 15.7038C30.9197 16.0176 31.1022 16.3159 31.1022 16.3664C31.1022 16.5007 30.1276 17.4473 29.9894 17.4473C29.9248 17.4473 29.6176 17.2669 29.3066 17.0465C28.2891 16.325 28.1879 16.3029 27.4907 16.6497C27.2376 16.7756 26.7842 16.9661 26.4831 17.0731C26.182 17.1801 25.869 17.3098 25.7875 17.3614C25.5656 17.5021 25.4487 17.8105 25.2934 18.6651C25.2161 19.0902 25.1347 19.4674 25.1125 19.5034C25.0903 19.5392 24.7346 19.5686 24.322 19.5686C23.4444 19.5686 23.5072 19.6274 23.3347 18.6448C23.1367 17.5165 23.0297 17.3676 22.2255 17.1004C21.9702 17.0156 21.5166 16.8279 21.2175 16.6835C20.4268 16.3016 20.3703 16.3113 19.3979 16.9969C19.0467 17.2446 18.6964 17.4473 18.6196 17.4473C18.4316 17.4473 17.5527 16.5713 17.5527 16.384C17.5527 16.3052 17.7554 15.9533 18.0031 15.6021C18.6887 14.6297 18.6984 14.5732 18.3165 13.7825C18.1721 13.4834 17.9844 13.0298 17.8996 12.7745C17.6324 11.9703 17.4835 11.8633 16.3552 11.6653C15.3726 11.4928 15.4314 11.5556 15.4314 10.678C15.4314 10.2654 15.4608 9.9097 15.4966 9.88746C15.5326 9.86529 15.9098 9.78386 16.3349 9.7066C17.1894 9.55133 17.4978 9.43445 17.6388 9.21245C17.6905 9.13102 17.8191 8.81801 17.9246 8.51691C18.0301 8.21581 18.2204 7.76238 18.3478 7.50926C18.6977 6.81344 18.6757 6.71189 17.9535 5.69335C17.7331 5.3824 17.5527 5.0737 17.5527 5.00732C17.5527 4.87279 18.5006 3.89777 18.6314 3.89777C18.6771 3.89777 19.054 4.12873 19.4688 4.41101C20.38 5.031 20.4898 5.04612 21.2859 4.66147C21.585 4.51694 21.9991 4.34381 22.2061 4.27668C23.0403 4.00623 23.1554 3.8472 23.3396 2.71116C23.4058 2.30317 23.5034 1.92598 23.5565 1.87287C23.6265 1.8028 23.8387 1.77639 24.3308 1.77639C24.9602 1.77639 25.0154 1.7874 25.1028 1.93036ZM23.3848 6.52931C22.172 6.80557 21.0434 7.70709 20.511 8.82486C20.1805 9.51855 20.0844 9.94105 20.0857 10.693C20.0878 11.8373 20.5183 12.8807 21.3188 13.6812C22.1193 14.4817 23.1627 14.9122 24.307 14.9143C25.059 14.9156 25.4815 14.8195 26.1751 14.489C26.969 14.1109 27.7523 13.3396 28.1185 12.5755C29.2356 10.2441 28.1585 7.57789 25.7403 6.6891C25.059 6.43871 24.0755 6.37199 23.3848 6.52931ZM25.1509 8.38087C25.5477 8.52081 26.0153 8.86338 26.2556 9.19008C27.2065 10.4827 26.7651 12.2462 25.3262 12.903C23.2775 13.838 21.162 11.7225 22.097 9.67382C22.6291 8.50809 23.9393 7.95338 25.1509 8.38087ZM10.6619 9.70742C10.3299 9.916 10.2321 10.1207 10.1141 10.855C10.0546 11.2251 9.97181 11.5627 9.93006 11.6054C9.88832 11.6479 9.6757 11.7481 9.45754 11.828C9.23938 11.9078 8.93986 12.0349 8.79191 12.1104L8.52297 12.2476L7.78569 11.7468C6.93809 11.171 6.60928 11.0569 5.90655 11.0945C5.17358 11.1336 4.87131 11.3111 3.88754 12.2801C2.84074 13.3112 2.6685 13.6258 2.66952 14.5047C2.67028 15.2016 2.77053 15.4557 3.38635 16.3222L3.80522 16.9115L3.56208 17.4776C3.42836 17.7889 3.31894 18.0729 3.31894 18.1088C3.31894 18.3166 3.11084 18.412 2.3609 18.548C1.12379 18.7723 0.573869 19.1321 0.177991 19.9761C0.00485866 20.3452 0 20.393 0 21.7242C0 23.2852 0.0438647 23.4595 0.58386 24.0454C1.08225 24.5861 1.3091 24.6884 2.48825 24.9052C2.87817 24.9769 3.20213 25.045 3.20822 25.0565C3.21424 25.068 3.34973 25.4 3.50939 25.7942L3.7996 26.5111L3.39723 27.0944C2.72242 28.0729 2.66986 28.2038 2.66932 28.9096C2.66863 29.814 2.82644 30.1104 3.85805 31.142C4.77729 32.0613 5.1614 32.2903 5.88055 32.3481C6.50704 32.3984 6.9593 32.2397 7.79314 31.677L8.50333 31.1977L9.04189 31.4342C9.33806 31.5642 9.66434 31.6915 9.76685 31.717C9.9148 31.7539 9.96229 31.8149 9.99706 32.0131C10.2661 33.5459 10.4014 33.9021 10.8986 34.387C11.0393 34.5242 11.3237 34.7183 11.5308 34.8182C11.8996 34.9964 11.9345 35 13.2758 35C14.607 35 14.6548 34.9951 15.0239 34.822C15.8692 34.4255 16.2338 33.8684 16.4549 32.6357C16.5879 31.8937 16.6841 31.6811 16.8868 31.6811C16.9201 31.6811 17.2019 31.5717 17.513 31.4381L18.0787 31.1951L18.8282 31.7016C19.6685 32.2695 20.0627 32.405 20.7047 32.3468C21.407 32.2831 21.798 32.0442 22.7224 31.1138C23.6955 30.1344 23.8667 29.8422 23.906 29.0935C23.9429 28.3913 23.8286 28.0614 23.2566 27.2193L22.7593 26.4872L22.9906 25.9864C23.1178 25.7111 23.2437 25.3991 23.2703 25.2932C23.3297 25.0564 23.4466 25.0049 24.217 24.8753C24.8893 24.7623 25.0887 24.6627 25.2926 24.3381C25.5801 23.8801 25.3038 23.2141 24.7644 23.0652C24.5695 23.0114 23.3912 23.1676 22.4646 23.3702C22.1117 23.4473 21.9053 23.7333 21.6347 24.5201C21.4941 24.9287 21.2573 25.5054 21.1083 25.8017C20.6999 26.614 20.7137 26.6917 21.4557 27.7522C21.7958 28.2382 22.0917 28.7051 22.1132 28.7898C22.1867 29.0781 22.0747 29.2549 21.397 29.9207C20.8893 30.4195 20.675 30.5862 20.5411 30.5862C20.38 30.5862 19.9094 30.2951 18.7699 29.4908C18.3097 29.166 18.0286 29.1825 17.2448 29.5803C16.9061 29.7522 16.3826 29.9751 16.0815 30.0757C15.0517 30.4197 15.0182 30.4606 14.8125 31.6309C14.7381 32.0537 14.6435 32.5468 14.6022 32.7267C14.4938 33.1988 14.3499 33.255 13.2487 33.255C12.0255 33.255 12.0573 33.2854 11.8034 31.8699C11.6977 31.2801 11.5884 30.7578 11.5607 30.709C11.4083 30.4406 11.1817 30.3002 10.5811 30.1024C10.219 29.9831 9.66085 29.755 9.34093 29.5957C9.02102 29.4363 8.67331 29.2851 8.56834 29.2597C8.30235 29.1953 7.95211 29.3696 7.01761 30.0313C6.58662 30.3364 6.17706 30.5862 6.10747 30.5862C5.88014 30.5862 5.61989 30.3995 5.08865 29.8555C4.54715 29.3009 4.41385 29.1109 4.41385 28.8936C4.41385 28.8234 4.66356 28.4134 4.96869 27.9824C5.63029 27.048 5.80459 26.6977 5.74033 26.4317C5.71494 26.3267 5.57103 25.9944 5.42055 25.6933C5.27 25.3922 5.04397 24.8408 4.91819 24.4679C4.691 23.7947 4.56939 23.5891 4.31921 23.4552C4.24756 23.4168 3.70866 23.2989 3.12179 23.1929C1.7138 22.9389 1.74501 22.9716 1.74501 21.7513C1.74501 20.6501 1.80119 20.5062 2.2733 20.3978C2.45321 20.3565 2.94633 20.2619 3.3691 20.1875C4.53791 19.982 4.57979 19.948 4.92291 18.9249C5.02275 18.6273 5.24584 18.1038 5.41877 17.7616C5.81807 16.9711 5.83463 16.6911 5.50917 16.2301C4.53018 14.8431 4.40071 14.6218 4.44334 14.4079C4.49378 14.1548 5.65739 12.949 5.91428 12.8837C6.15722 12.8219 6.34061 12.9141 7.28052 13.5704C8.32636 14.3007 8.37201 14.3064 9.36523 13.8286C9.74708 13.6449 10.275 13.4252 10.5385 13.3403C11.1779 13.1341 11.3511 13.0405 11.493 12.8239C11.6722 12.5504 12.0189 10.5404 11.9376 10.246C11.786 9.69661 11.1241 9.4172 10.6619 9.70742ZM12.5739 15.8087C11.2352 15.9732 9.99452 16.5901 9.05386 17.5591C8.32979 18.3048 7.93097 18.9589 7.61994 19.9108C7.34273 20.7591 7.27532 21.9639 7.45496 22.8584C7.93165 25.2323 9.76425 27.0647 12.1416 27.5445C13.0349 27.7248 14.2396 27.6576 15.0892 27.3801C17.3691 26.6355 18.931 24.7063 19.1948 22.309C19.2611 21.7062 19.2564 21.5929 19.1558 21.3811C18.9322 20.9098 18.4305 20.7022 18.0041 20.9045C17.6164 21.0885 17.4936 21.32 17.4187 22.0084C17.3392 22.7388 17.2592 23.0331 16.9935 23.5719C16.6504 24.2678 16.1394 24.8161 15.4194 25.2609C14.2174 26.0033 12.6866 26.0567 11.3765 25.4017C10.7001 25.0634 9.93656 24.2999 9.59831 23.6235C8.78766 22.0022 9.0785 20.085 10.3279 18.814C11.1026 18.0259 11.9009 17.6805 13.2617 17.5446C13.5942 17.5114 13.6958 17.4674 13.8914 17.2719C14.1856 16.9777 14.254 16.6588 14.0949 16.3235C13.8573 15.8227 13.485 15.6968 12.5739 15.8087Z" fill="url(#paint0_linear_2536_26372)"/>
<defs>
<linearGradient id="paint0_linear_2536_26372" x1="0" y1="17.973" x2="34.9984" y2="17.973" gradientUnits="userSpaceOnUse">
<stop stop-color="#00469F"/>
<stop offset="1" stop-color="#1E79D6"/>
</linearGradient>
</defs>
</svg>
