<svg width="40" height="40" viewBox="0 0 40 40" fill="none" xmlns="http://www.w3.org/2000/svg">
<path fill-rule="evenodd" clip-rule="evenodd" d="M18.5411 3.11963C18.4534 3.19188 18.1941 3.76364 17.8861 4.56386C17.6058 5.29236 17.3674 5.8944 17.3565 5.90172C17.3456 5.90896 17.0133 5.99968 16.6181 6.10331C15.3801 6.42795 14.2297 6.92041 12.6767 7.79076L12.3964 7.94785L11.0463 7.34759C9.82447 6.80434 9.67836 6.75478 9.50701 6.82566C9.26653 6.9252 6.86392 9.33979 6.80165 9.54459C6.76784 9.65574 6.91874 10.0647 7.35411 11.0419L7.95317 12.3863L7.79591 12.6663C6.92462 14.2176 6.43163 15.3668 6.10665 16.6035C6.0029 16.9983 5.91209 17.3302 5.90484 17.3411C5.89752 17.352 5.29483 17.5901 4.56554 17.8701C3.76446 18.1778 3.19209 18.4368 3.11976 18.5244C3.01232 18.6546 3 18.8574 3 20.5C3 22.1426 3.01232 22.3454 3.11976 22.4756C3.19209 22.5632 3.76446 22.8222 4.56554 23.1299C5.29483 23.4099 5.89752 23.648 5.90484 23.6589C5.91209 23.6698 6.0029 24.0017 6.10665 24.3965C6.43163 25.6332 6.92462 26.7824 7.79591 28.3337L7.95317 28.6137L7.35411 29.9581C6.91874 30.9353 6.76784 31.3443 6.80165 31.4554C6.86392 31.6602 9.26653 34.0748 9.50701 34.1743C9.67829 34.2452 9.82255 34.1966 11.0187 33.6651C11.746 33.3419 12.3654 33.0776 12.395 33.0778C12.4247 33.078 12.8055 33.2762 13.2414 33.5183C14.2491 34.0781 15.4961 34.5906 16.5284 34.8693C16.973 34.9894 17.3456 35.0929 17.3565 35.0996C17.3674 35.1061 17.6058 35.7076 17.8861 36.4361C18.1941 37.2364 18.4534 37.8081 18.5411 37.8804C18.6714 37.9877 18.8744 38 20.5188 38C22.1628 38 22.3664 37.9877 22.4973 37.8804C22.6361 37.7667 23.8036 34.8605 23.8036 34.6287C23.8036 34.5738 23.7468 34.4588 23.6774 34.3731C23.5303 34.1917 23.1687 34.1616 23.0123 34.3178C22.9571 34.373 22.6872 35.001 22.4128 35.7134L21.9137 37.0088H20.5188H19.1239L18.6283 35.7223C18.3556 35.0148 18.0973 34.3934 18.0542 34.3415C18.011 34.2896 17.7395 34.1956 17.4509 34.1326C16.0945 33.8367 14.3798 33.1381 13.2144 32.4066C12.9042 32.212 12.574 32.0527 12.4803 32.0527C12.3867 32.0527 11.7543 32.2988 11.0751 32.5996C10.3958 32.9004 9.81728 33.1465 9.78943 33.1465C9.72449 33.1465 7.85873 31.281 7.85873 31.2161C7.85873 31.1892 8.10509 30.6121 8.4062 29.9336C8.7073 29.2551 8.95366 28.6262 8.95366 28.5361C8.95366 28.4459 8.79421 28.1159 8.59931 27.8028C7.85962 26.6142 7.16667 24.9143 6.87152 23.5646C6.80849 23.2763 6.7144 23.0051 6.66239 22.962C6.61045 22.9189 5.98839 22.6608 5.28011 22.3885L3.99228 21.8934V20.5V19.1066L5.28011 18.6115C5.98839 18.3392 6.61045 18.0811 6.66239 18.038C6.7144 17.9949 6.80849 17.7237 6.87152 17.4354C7.16667 16.0857 7.85962 14.3858 8.59931 13.1972C8.79421 12.8841 8.95366 12.5541 8.95366 12.4639C8.95366 12.3738 8.7073 11.7449 8.4062 11.0664C8.10509 10.3879 7.85873 9.80996 7.85873 9.78214C7.85873 9.71727 9.72627 7.85352 9.79121 7.85352C9.8181 7.85352 10.3958 8.09961 11.0751 8.40039C11.7543 8.70117 12.3839 8.94727 12.4741 8.94727C12.5644 8.94727 12.8947 8.78799 13.2082 8.5933C14.398 7.8544 16.0998 7.1622 17.4509 6.86736C17.7395 6.8044 18.011 6.71041 18.0542 6.65846C18.0973 6.60657 18.3556 5.98519 18.6283 5.27767L19.1239 3.99121H20.5188H21.9137L22.4128 5.28655C22.6872 5.99899 22.9571 6.62701 23.0123 6.68225C23.1687 6.83838 23.5303 6.8083 23.6774 6.62687C23.7468 6.54122 23.8032 6.42077 23.8029 6.35911C23.8013 6.12088 22.6381 3.23659 22.4963 3.11963C22.3662 3.0123 22.1633 3 20.5188 3C18.8744 3 18.6714 3.0123 18.5411 3.11963ZM27.5326 5.03273C26.2927 5.47604 25.716 6.90373 26.2974 8.09072C26.519 8.54319 26.9933 8.97625 27.4413 9.13525L27.7727 9.25276V10.0064V10.7599L26.2153 12.3145L24.6579 13.8691H22.8279H20.9978V12.101C20.9978 10.3865 20.9933 10.3272 20.8483 10.143L20.6988 9.95311L19.9325 9.99412C18.0198 10.0965 16.1848 10.7241 14.5309 11.8416C13.7264 12.3852 12.3953 13.7149 11.8511 14.5186C11.0294 15.7321 10.4863 17.0066 10.1763 18.4492C9.95264 19.4894 9.9525 21.5093 10.1759 22.5508C10.4811 23.9731 11.0389 25.282 11.8511 26.4814C12.3953 27.2851 13.7264 28.6148 14.5309 29.1584C16.178 30.2713 18.0277 30.9039 19.9325 31.0059L20.6988 31.0469L20.8483 30.857C20.9933 30.6728 20.9978 30.6135 20.9978 28.899V27.1309H22.829H24.6601L26.2164 28.6866L27.7727 30.2423V30.9947V31.7472L27.4413 31.8647C26.9865 32.0261 26.5194 32.4563 26.2881 32.9268C26.1228 33.2631 26.0963 33.3981 26.0978 33.8984C26.0998 34.5833 26.2619 34.9901 26.7121 35.4401C27.1641 35.8919 27.5666 36.0518 28.2517 36.0518C28.7493 36.0518 28.8895 36.0243 29.2208 35.8617C29.6463 35.653 30.0087 35.2938 30.2502 34.8415C30.3819 34.5947 30.407 34.4441 30.4072 33.8984C30.4074 33.3062 30.3895 33.2168 30.2044 32.883C29.9504 32.425 29.4938 32.0179 29.0621 31.8647L28.7308 31.7472V30.7929V29.8387L26.934 28.0404L25.1374 26.2422H23.0676H20.9978V25.1484V24.0547H23.3001H25.6023L26.5751 25.0117L27.548 25.9688H28.2995H29.051L29.1392 26.2355C29.2885 26.6875 29.6807 27.1311 30.1678 27.3987C30.5819 27.6263 30.6528 27.6429 31.1943 27.6399C31.903 27.6359 32.2993 27.471 32.7802 26.9803C33.2282 26.5231 33.407 26.0285 33.368 25.3535C33.3209 24.5372 32.9142 23.9058 32.1866 23.5193C31.8856 23.3594 31.7664 23.3375 31.1943 23.3373C30.6013 23.3369 30.5121 23.3547 30.1778 23.5397C29.7193 23.7934 29.3118 24.2495 29.1585 24.6807L29.0408 25.0117H28.4589H27.8771L26.9345 24.0718L25.9917 23.1318L23.4948 23.1123L20.9978 23.0928V22.0356V20.9785H27.3621C33.3774 20.9785 33.7264 20.9851 33.727 21.0981C33.7274 21.1639 33.8183 21.3756 33.9291 21.5685C34.7954 23.0775 36.9168 23.0536 37.7583 21.5254C37.9861 21.1117 38.0027 21.0409 37.9997 20.5C37.997 20.0289 37.965 19.8543 37.8305 19.5771C37.1979 18.2744 35.5049 17.9055 34.4191 18.8339C34.1193 19.0902 33.7281 19.6938 33.727 19.9019C33.7264 20.0149 33.3774 20.0215 27.3621 20.0215H20.9978V18.9619V17.9023H23.4037H25.8096L26.9515 16.7744L28.0934 15.6465H28.5451H28.9968L29.1806 16.0555C29.3959 16.5348 29.8819 17.0224 30.3583 17.2373C30.8416 17.4553 31.584 17.4419 32.0946 17.206C32.5502 16.9955 32.971 16.5859 33.1918 16.1382C33.3218 15.8745 33.3498 15.7077 33.3494 15.2021C33.3488 14.6675 33.3247 14.5412 33.1649 14.2377C32.2962 12.5873 29.9637 12.6419 29.1971 14.3306L29.0031 14.7578H28.3358H27.6685L26.5751 15.8516L25.4818 16.9453H23.2398H20.9978V15.8516V14.7578H23.0652H25.1326L26.9317 12.9606L28.7308 11.1635V10.2082V9.25276L29.0621 9.13525C29.2444 9.07059 29.5303 8.89743 29.6974 8.75039C30.6094 7.94854 30.6953 6.55735 29.8894 5.64271C29.336 5.01469 28.3193 4.7515 27.5326 5.03273ZM28.7092 5.94383C28.9452 6.0329 29.2573 6.32056 29.387 6.56836C29.5366 6.85451 29.5094 7.41294 29.3303 7.73129C29.0376 8.25144 28.2315 8.50361 27.718 8.23558C26.5541 7.6282 26.932 5.88593 28.2302 5.87376C28.3877 5.87232 28.6033 5.90384 28.7092 5.94383ZM20.0398 20.5V30.0703L19.8858 30.0699C19.5394 30.069 18.3924 29.8609 17.8157 29.6943C17.477 29.5965 16.854 29.351 16.4314 29.1487C13.6586 27.8217 11.746 25.3826 11.0967 22.3457C10.9212 21.5248 10.9212 19.4752 11.0967 18.6543C11.8563 15.1016 14.426 12.2949 17.8273 11.3029C18.4311 11.1268 19.3975 10.9488 19.8174 10.9363L20.0398 10.9297V20.5ZM31.9058 14.1941C32.3004 14.4719 32.4395 14.7711 32.4104 15.2794C32.3914 15.612 32.3463 15.751 32.1918 15.9533C31.8441 16.4087 31.2463 16.576 30.7327 16.3617C30.2459 16.1584 29.9625 15.7319 29.9625 15.2021C29.9625 14.1909 31.0789 13.6118 31.9058 14.1941ZM16.4802 14.6524C15.5518 15.2782 14.6779 16.2876 14.1634 17.3288C13.6315 18.405 13.4406 19.2427 13.4406 20.5C13.4406 21.7573 13.6315 22.595 14.1634 23.6712C14.6791 24.7147 15.5613 25.73 16.4904 26.3496C17.0101 26.696 17.1726 26.72 17.4082 26.4845C17.7203 26.1729 17.6438 26.0151 16.9296 25.4967C15.7135 24.6141 14.9208 23.4496 14.5246 21.964C14.3473 21.2988 14.3473 19.7012 14.5246 19.036C14.9208 17.5504 15.7135 16.3859 16.9296 15.5033C17.6438 14.9849 17.7203 14.8271 17.4082 14.5155C17.1731 14.2805 16.9924 14.3072 16.4802 14.6524ZM36.3904 19.3893C36.5194 19.455 36.7196 19.627 36.8352 19.7715C37.0235 20.0069 37.0453 20.0826 37.0453 20.5C37.0453 20.9174 37.0235 20.9931 36.8352 21.2285C36.563 21.5688 36.2373 21.7303 35.8229 21.7303C34.5892 21.7307 34.1359 20.0706 35.1962 19.4356C35.5325 19.2343 36.0468 19.2143 36.3904 19.3893ZM31.8244 24.4063C32.349 24.6684 32.589 25.4783 32.3062 26.0323C31.7423 27.1369 30.0789 26.8226 29.9768 25.592C29.8911 24.5602 30.8722 23.9305 31.8244 24.4063ZM28.8966 32.8322C29.2695 33.0504 29.4835 33.4377 29.4835 33.8941C29.4835 34.2908 29.3809 34.5307 29.0961 34.7998C28.3115 35.5414 27.0199 34.9806 27.0199 33.8984C27.0199 33.5559 27.1209 33.2967 27.3494 33.0527C27.7396 32.636 28.4006 32.5418 28.8966 32.8322Z" fill="url(#paint0_linear_298_2391)"/>
<defs>
<linearGradient id="paint0_linear_298_2391" x1="3" y1="20.973" x2="38" y2="20.973" gradientUnits="userSpaceOnUse">
<stop stop-color="#00469F"/>
<stop offset="1" stop-color="#1E79D6"/>
</linearGradient>
</defs>
</svg>
