<svg width="40" height="40" viewBox="0 0 40 40" fill="none" xmlns="http://www.w3.org/2000/svg">
<path fill-rule="evenodd" clip-rule="evenodd" d="M18.9348 3.11093C18.4225 3.28035 18.1745 3.44813 17.0096 4.41314C15.897 5.33479 15.719 5.46365 15.417 5.56597C15.2947 5.60742 14.5252 5.70611 13.707 5.78525C12.8889 5.86438 12.0657 5.97847 11.8776 6.03873C10.9995 6.32011 10.3131 7.00558 10.0425 7.87121C9.98372 8.05931 9.8708 8.88253 9.79166 9.70062C9.71252 10.5188 9.61383 11.2882 9.57238 11.4105C9.46985 11.7132 9.34154 11.8901 8.40731 13.0179C7.96335 13.5538 7.51145 14.1321 7.40318 14.3028C6.93008 15.0488 6.86749 16.0816 7.24641 16.8889C7.36665 17.1451 7.82744 17.7786 8.42352 18.5069C8.96221 19.1652 9.45734 19.827 9.52389 19.9774C9.60603 20.1632 9.69125 20.7341 9.78947 21.7558C9.95014 23.4277 10.0293 23.7891 10.3427 24.2825C10.91 25.1753 11.5577 25.5067 13.0227 25.6537C13.5488 25.7065 13.9858 25.759 13.9939 25.7704C14.002 25.7818 13.1623 27.8072 12.1281 30.2712C10.9543 33.0674 10.2467 34.8379 10.2453 34.9821C10.2424 35.2669 10.5818 35.606 10.8699 35.6062C10.9727 35.6063 11.7755 35.4041 12.6538 35.1569C13.5321 34.9097 14.2889 34.7221 14.3355 34.74C14.3821 34.7579 14.7701 35.4141 15.1977 36.1982C15.6253 36.9823 16.0627 37.7123 16.1697 37.8205C16.339 37.9917 16.4006 38.0122 16.6445 37.9795C16.7987 37.9588 16.9808 37.8857 17.0491 37.817C17.1174 37.7484 18.0678 35.5531 19.1611 32.9386C20.76 29.1149 21.1851 28.1583 21.3341 28.0483C21.436 27.973 21.997 27.5161 22.5806 27.0329C23.6083 26.1821 24.109 25.8616 24.3401 25.9064C24.4165 25.9212 25.004 27.2482 26.212 30.1344C27.1805 32.4479 27.9642 34.3495 27.9538 34.3601C27.9434 34.3708 27.3845 34.2209 26.7117 34.0272C24.6602 33.4362 24.6349 33.4461 23.6761 35.2209C23.3187 35.8824 23.0078 36.4244 22.9851 36.4252C22.9624 36.4261 22.5639 35.5164 22.0995 34.4036C21.5762 33.1496 21.2024 32.3434 21.1167 32.2833C20.7848 32.0508 20.3246 32.2686 20.3246 32.658C20.3246 32.767 20.7722 33.9289 21.3193 35.24C22.3612 37.737 22.5113 38 22.894 38C23.2998 38 23.4135 37.8585 24.2901 36.2616C24.7563 35.412 25.1773 34.717 25.2255 34.717C25.2737 34.717 26.0207 34.917 26.8855 35.1615C27.7504 35.4061 28.554 35.6061 28.6714 35.6061C28.9609 35.6061 29.2846 35.2834 29.2846 34.9947C29.2846 34.8723 28.4925 32.892 27.4038 30.2927C26.3695 27.823 25.5343 25.791 25.5481 25.7773C25.5618 25.7635 25.9849 25.7088 26.4883 25.6555C27.773 25.5196 28.3042 25.3073 28.8553 24.7095C29.4254 24.091 29.5304 23.7415 29.7243 21.8186C29.8436 20.6362 29.9182 20.164 30.0217 19.9377C30.0977 19.7714 30.582 19.1276 31.0981 18.5069C32.3811 16.9635 32.6239 16.4065 32.4826 15.3309C32.3977 14.6844 32.1756 14.3106 31.0981 13.001C30.541 12.3238 30.0403 11.6631 29.9855 11.5326C29.9308 11.4022 29.8123 10.5644 29.7223 9.67087C29.5581 8.04022 29.4857 7.71342 29.1793 7.22144C28.832 6.66367 28.2217 6.1985 27.6089 6.0245C27.4208 5.97108 26.5898 5.86206 25.7622 5.78217C24.7537 5.68484 24.1672 5.5975 23.9839 5.5172C23.8334 5.45134 23.2536 5.02098 22.6953 4.56081C21.0178 3.17803 20.7901 3.05232 19.88 3.0067C19.4661 2.98597 19.236 3.01135 18.9348 3.11093ZM20.5165 4.20515C20.6692 4.28312 21.2502 4.72332 21.8077 5.18349C23.0514 6.21027 23.3831 6.43775 23.8313 6.57079C24.0237 6.62797 24.8447 6.73699 25.6557 6.81312C27.2651 6.96414 27.5946 7.04785 27.9916 7.40646C28.451 7.82149 28.5162 8.04822 28.6994 9.86498C28.9194 12.0466 28.881 11.9559 30.3141 13.6849C30.8129 14.2868 31.2771 14.9024 31.3457 15.0529C31.4886 15.3666 31.5105 15.9388 31.3944 16.3263C31.351 16.4711 31.0817 16.8784 30.796 17.2314C30.5101 17.5844 30.0258 18.1818 29.7197 18.5591C28.954 19.5025 28.8972 19.6745 28.7017 21.6414C28.5625 23.0422 28.521 23.2822 28.3614 23.6084C27.9946 24.3581 27.6469 24.4966 25.6267 24.6974C23.6833 24.8905 23.5071 24.949 22.5655 25.7133C22.1882 26.0194 21.5908 26.5037 21.2378 26.7896C20.5471 27.3487 20.2781 27.4669 19.6956 27.4669C19.1701 27.4669 18.9015 27.3095 17.5888 26.2323C16.9681 25.7229 16.3734 25.2516 16.2673 25.1848C15.8766 24.9392 15.467 24.8552 13.8659 24.6924C12.0523 24.5081 11.8265 24.4431 11.4129 23.9852C11.0543 23.5882 10.9705 23.2587 10.8195 21.6493C10.7434 20.8383 10.6344 20.0173 10.5772 19.8249C10.4442 19.3767 10.2167 19.045 9.18991 17.8013C8.28426 16.7042 8.10096 16.4099 8.03824 15.9526C7.95439 15.341 8.1303 14.9942 9.16227 13.7364C9.67935 13.1062 10.1735 12.4899 10.2605 12.3669C10.5587 11.9444 10.6653 11.4751 10.815 9.92312C10.8948 9.09552 11.0075 8.27216 11.0653 8.09337C11.2047 7.66288 11.6701 7.19778 12.0998 7.05962C12.2786 7.00216 13.1016 6.88965 13.9287 6.80956C15.4764 6.65977 15.9476 6.55307 16.3733 6.25589C16.4963 6.16998 17.1023 5.68388 17.7199 5.17563C18.9656 4.15057 19.2867 3.98142 19.8884 4.03333C20.0811 4.04989 20.3638 4.12724 20.5165 4.20515ZM18.8618 7.6916C18.3129 7.77566 18.1147 8.16491 18.422 8.55546L18.5712 8.74519L19.2206 8.70251C22.6766 8.4755 25.744 10.69 26.6264 14.0492C26.8239 14.8008 26.8697 16.1033 26.7272 16.9192C26.193 19.9787 23.8071 22.3025 20.739 22.7511C20.0032 22.8587 18.7484 22.7964 18.0608 22.6181C14.1748 21.6109 11.8693 17.6334 12.97 13.8352C13.5367 11.8794 14.8455 10.3095 16.68 9.3849C17.2072 9.11918 17.325 8.79813 17.0105 8.48371C16.7958 8.26901 16.578 8.27168 16.1331 8.49438C13.9498 9.58722 12.3489 11.6853 11.8031 14.1691C11.6363 14.9288 11.6366 16.5571 11.8039 17.3442C12.4079 20.1859 14.4663 22.5293 17.1445 23.4243C18.789 23.9739 20.6985 23.9867 22.277 23.459C24.7797 22.6221 26.6868 20.6862 27.492 18.1649C28.0574 16.3944 27.9496 14.2654 27.2076 12.5491C26.184 10.1815 24.0171 8.39459 21.4874 7.83189C20.8471 7.68948 19.3856 7.61137 18.8618 7.6916ZM22.3081 12.1512C22.0833 12.2527 21.4619 12.8272 20.0023 14.2831L18.0042 16.2759L17.2986 15.5894C16.7238 15.0302 16.5253 14.8804 16.2278 14.7816C15.4475 14.5224 14.5859 14.9052 14.2751 15.6492C14.139 15.975 14.1389 16.5928 14.2749 16.9181C14.4028 17.2244 16.8086 19.6727 17.2126 19.9077C17.6106 20.1393 17.9879 20.1811 18.4583 20.0457C18.8454 19.9342 18.9129 19.8731 21.5408 17.2529C23.3578 15.4412 24.2728 14.4804 24.3677 14.2846C24.5536 13.9007 24.554 13.2786 24.3686 12.9151C23.9733 12.1403 23.0721 11.8062 22.3081 12.1512ZM23.303 13.2031C23.4134 13.3135 23.4709 13.4482 23.4709 13.5966C23.4709 13.8025 23.2397 14.0535 20.8429 16.4497C18.4965 18.7955 18.1919 19.0769 17.9995 19.0769C17.8108 19.0769 17.6219 18.915 16.4893 17.7838C15.1651 16.4608 15.1007 16.3697 15.2373 16.0135C15.2997 15.8511 15.6549 15.6879 15.831 15.7409C15.9137 15.7658 16.3841 16.1829 16.8763 16.6677C17.6632 17.4431 17.7987 17.5494 17.9995 17.5494C18.2081 17.5494 18.425 17.3531 20.4946 15.2923C22.9494 12.8478 22.9485 12.8485 23.303 13.2031ZM15.5561 25.9862C15.6772 26.0371 16.3303 26.5346 17.0074 27.0917C18.3225 28.1737 18.6871 28.3895 19.3545 28.4807C19.5872 28.5126 19.7934 28.5544 19.8127 28.5737C19.8502 28.6112 16.6597 36.2865 16.5677 36.38C16.5376 36.4107 16.2302 35.9182 15.8846 35.2857C15.539 34.6531 15.1543 34.0389 15.0296 33.9209C14.6504 33.5616 14.4513 33.5686 12.9409 33.9946C12.2091 34.201 11.5988 34.3583 11.5846 34.3441C11.5705 34.33 12.3522 32.4229 13.3218 30.1061C15.2237 25.5616 15.0978 25.7936 15.5561 25.9862Z" fill="url(#paint0_linear_298_2398)"/>
<defs>
<linearGradient id="paint0_linear_298_2398" x1="7" y1="20.973" x2="32.5183" y2="20.973" gradientUnits="userSpaceOnUse">
<stop stop-color="#00469F"/>
<stop offset="1" stop-color="#1E79D6"/>
</linearGradient>
</defs>
</svg>
