<svg width="26" height="27" viewBox="0 0 26 27" fill="none" xmlns="http://www.w3.org/2000/svg">
<path d="M13 25.7961C19.6274 25.7961 25 20.4236 25 13.7961C25 7.16873 19.6274 1.79614 13 1.79614C6.37258 1.79614 1 7.16873 1 13.7961C1 20.4236 6.37258 25.7961 13 25.7961Z" stroke="url(#paint0_linear_29_937)" stroke-width="2" stroke-linecap="round" stroke-linejoin="round"/>
<path d="M13.2188 18.9915C15.9844 18.9915 17.9141 17.3977 18.1797 14.8821H15.8828C15.6328 16.218 14.625 17.0383 13.2266 17.0383C11.4219 17.0383 10.2891 15.554 10.2891 13.1477C10.2891 10.7727 11.4375 9.28052 13.2188 9.28052C14.5938 9.28052 15.6562 10.1868 15.875 11.5696H18.1719C17.9922 9.04614 15.9297 7.32739 13.2188 7.32739C9.95312 7.32739 7.88281 9.52271 7.88281 13.1555C7.88281 16.7961 9.9375 18.9915 13.2188 18.9915Z" fill="url(#paint1_linear_29_937)"/>
<defs>
<linearGradient id="paint0_linear_29_937" x1="1" y1="14.1205" x2="25" y2="14.1205" gradientUnits="userSpaceOnUse">
<stop stop-color="#00469F"/>
<stop offset="1" stop-color="#1E79D6"/>
</linearGradient>
<linearGradient id="paint1_linear_29_937" x1="7" y1="13.5529" x2="19" y2="13.5529" gradientUnits="userSpaceOnUse">
<stop stop-color="#00469F"/>
<stop offset="1" stop-color="#1E79D6"/>
</linearGradient>
</defs>
</svg>
