<svg width="38" height="37" viewBox="0 0 38 37" fill="none" xmlns="http://www.w3.org/2000/svg">
<path d="M18.75 25.4375C22.5815 25.4375 25.6875 22.3315 25.6875 18.5C25.6875 14.6685 22.5815 11.5625 18.75 11.5625C14.9185 11.5625 11.8125 14.6685 11.8125 18.5C11.8125 22.3315 14.9185 25.4375 18.75 25.4375Z" stroke="url(#paint0_linear_266_5244)" stroke-opacity="0.8" stroke-width="2" stroke-linecap="round" stroke-linejoin="round"/>
<path d="M26.7996 8.88867C27.1658 9.22591 27.5126 9.57279 27.8402 9.9293L31.7859 10.493C32.4288 11.6095 32.9244 12.8046 33.2602 14.0484L30.8609 17.2426C30.8609 17.2426 30.9043 18.2254 30.8609 18.7168L33.2602 21.9109C32.9259 23.1553 32.4303 24.3506 31.7859 25.4664L27.8402 26.0301C27.8402 26.0301 27.1609 26.7383 26.7996 27.0707L26.2359 31.0164C25.1194 31.6593 23.9243 32.1548 22.6805 32.4906L19.4863 30.0914C18.9959 30.1348 18.5026 30.1348 18.0121 30.0914L14.818 32.4906C13.5736 32.1564 12.3783 31.6608 11.2625 31.0164L10.6988 27.0707C10.3423 26.7335 9.99544 26.3866 9.6582 26.0301L5.7125 25.4664C5.0696 24.3499 4.57407 23.1548 4.23828 21.9109L6.6375 18.7168C6.6375 18.7168 6.59414 17.734 6.6375 17.2426L4.23828 14.0484C4.57251 12.8041 5.06812 11.6088 5.7125 10.493L9.6582 9.9293C9.99544 9.57279 10.3423 9.22591 10.6988 8.88867L11.2625 4.94297C12.379 4.30007 13.5741 3.80454 14.818 3.46875L18.0121 5.86797C18.5026 5.8246 18.9959 5.8246 19.4863 5.86797L22.6805 3.46875C23.9249 3.80298 25.1202 4.29859 26.2359 4.94297L26.7996 8.88867Z" stroke="url(#paint1_linear_266_5244)" stroke-opacity="0.8" stroke-width="2" stroke-linecap="round" stroke-linejoin="round"/>
<defs>
<linearGradient id="paint0_linear_266_5244" x1="11.8125" y1="18.6875" x2="25.6875" y2="18.6875" gradientUnits="userSpaceOnUse">
<stop stop-color="#00469F"/>
<stop offset="1" stop-color="#1E79D6"/>
</linearGradient>
<linearGradient id="paint1_linear_266_5244" x1="4.23828" y1="18.3719" x2="33.2602" y2="18.3719" gradientUnits="userSpaceOnUse">
<stop stop-color="#00469F"/>
<stop offset="1" stop-color="#1E79D6"/>
</linearGradient>
</defs>
</svg>
