<svg width="26" height="30" viewBox="0 0 26 30" fill="none" xmlns="http://www.w3.org/2000/svg">
<path d="M18.8125 29H2.1875C1.87256 29 1.57051 28.8788 1.34781 28.6632C1.12511 28.4475 1 28.155 1 27.85V7.15C1 6.845 1.12511 6.55249 1.34781 6.33683C1.57051 6.12116 1.87256 6 2.1875 6H14.0625L20 11.75V27.85C20 28.155 19.8749 28.4475 19.6522 28.6632C19.4295 28.8788 19.1274 29 18.8125 29Z" stroke="url(#paint0_linear_3_342)" stroke-width="2" stroke-linecap="round" stroke-linejoin="round"/>
<path opacity="0.5" d="M6 5.6V2.15C6 1.845 6.12511 1.55249 6.34781 1.33683C6.57051 1.12116 6.87256 1 7.1875 1H19.0625L25 6.75V22.85C25 23.155 24.8749 23.4475 24.6522 23.6632C24.4295 23.8788 24.1274 24 23.8125 24H20.25" stroke="url(#paint1_linear_3_342)" stroke-width="2" stroke-linecap="round" stroke-linejoin="round"/>
<path opacity="0.8" d="M8 16H14" stroke="url(#paint2_linear_3_342)" stroke-width="2" stroke-linecap="round" stroke-linejoin="round"/>
<path opacity="0.8" d="M8 20H14" stroke="url(#paint3_linear_3_342)" stroke-width="2" stroke-linecap="round" stroke-linejoin="round"/>
<defs>
<linearGradient id="paint0_linear_3_342" x1="1" y1="17.8108" x2="20" y2="17.8108" gradientUnits="userSpaceOnUse">
<stop stop-color="#00469F"/>
<stop offset="1" stop-color="#1E79D6"/>
</linearGradient>
<linearGradient id="paint1_linear_3_342" x1="6" y1="12.8108" x2="25" y2="12.8108" gradientUnits="userSpaceOnUse">
<stop stop-color="#00469F"/>
<stop offset="1" stop-color="#1E79D6"/>
</linearGradient>
<linearGradient id="paint2_linear_3_342" x1="8" y1="16.5135" x2="14" y2="16.5135" gradientUnits="userSpaceOnUse">
<stop stop-color="#00469F"/>
<stop offset="1" stop-color="#1E79D6"/>
</linearGradient>
<linearGradient id="paint3_linear_3_342" x1="8" y1="20.5135" x2="14" y2="20.5135" gradientUnits="userSpaceOnUse">
<stop stop-color="#00469F"/>
<stop offset="1" stop-color="#1E79D6"/>
</linearGradient>
</defs>
</svg>
