<svg width="64" height="64" viewBox="0 0 64 64" fill="none" xmlns="http://www.w3.org/2000/svg">
<path d="M32 61.9984C48.5685 61.9984 62 48.567 62 31.9984C62 15.4299 48.5685 1.99841 32 1.99841C15.4315 1.99841 2 15.4299 2 31.9984C2 48.567 15.4315 61.9984 32 61.9984Z" stroke="url(#paint0_linear_0_1958)" stroke-width="3" stroke-miterlimit="10"/>
<path d="M3.71875 21.9984H60.2812" stroke="url(#paint1_linear_0_1958)" stroke-width="3" stroke-linecap="round" stroke-linejoin="round"/>
<path d="M3.71875 41.9984H60.2812" stroke="url(#paint2_linear_0_1958)" stroke-width="3" stroke-linecap="round" stroke-linejoin="round"/>
<path d="M32 61.1866C38.9036 61.1866 44.5 48.119 44.5 31.9991C44.5 15.8793 38.9036 2.81165 32 2.81165C25.0964 2.81165 19.5 15.8793 19.5 31.9991C19.5 48.119 25.0964 61.1866 32 61.1866Z" stroke="url(#paint3_linear_0_1958)" stroke-width="3" stroke-miterlimit="10"/>
<defs>
<linearGradient id="paint0_linear_0_1958" x1="2" y1="32.8092" x2="62" y2="32.8092" gradientUnits="userSpaceOnUse">
<stop stop-color="#00469F"/>
<stop offset="1" stop-color="#1E79D6"/>
</linearGradient>
<linearGradient id="paint1_linear_0_1958" x1="3.71875" y1="22.5119" x2="60.2812" y2="22.5119" gradientUnits="userSpaceOnUse">
<stop stop-color="#00469F"/>
<stop offset="1" stop-color="#1E79D6"/>
</linearGradient>
<linearGradient id="paint2_linear_0_1958" x1="3.71875" y1="42.5119" x2="60.2812" y2="42.5119" gradientUnits="userSpaceOnUse">
<stop stop-color="#00469F"/>
<stop offset="1" stop-color="#1E79D6"/>
</linearGradient>
<linearGradient id="paint3_linear_0_1958" x1="19.5" y1="32.788" x2="44.5" y2="32.788" gradientUnits="userSpaceOnUse">
<stop stop-color="#00469F"/>
<stop offset="1" stop-color="#1E79D6"/>
</linearGradient>
</defs>
</svg>
