<svg width="44" height="70" viewBox="0 0 44 70" fill="none" xmlns="http://www.w3.org/2000/svg">
<path d="M1.28442 39.5021C1.85071 39.5021 2.30981 39.0432 2.30981 38.4768V4.33945C2.30981 3.07754 3.33657 2.05078 4.59849 2.05078H39.4016C40.6635 2.05078 41.6903 3.07754 41.6903 4.33945V11.8918C41.6903 12.4582 42.1494 12.9172 42.7157 12.9172C43.282 12.9172 43.7411 12.4582 43.7411 11.8918V4.33945C43.7411 1.9466 41.7943 0 39.4016 0H4.59849C2.20577 0 0.259033 1.9466 0.259033 4.33945V38.4768C0.259033 39.043 0.718135 39.5021 1.28442 39.5021Z" fill="url(#paint0_linear_0_1936)"/>
<path d="M43.7411 16.6738C43.7411 16.1074 43.282 15.6484 42.7157 15.6484C42.1494 15.6484 41.6903 16.1074 41.6903 16.6738V59.1072H2.30981V43.2588C2.30981 42.6924 1.85071 42.2334 1.28442 42.2334C0.718135 42.2334 0.259033 42.6924 0.259033 43.2588V65.6574C0.259033 68.0503 2.20577 69.9969 4.59849 69.9969H31.6606C32.2269 69.9969 32.686 69.5379 32.686 68.9715C32.686 68.4051 32.2269 67.9461 31.6606 67.9461H4.59849C3.33657 67.9461 2.30981 66.9193 2.30981 65.6574V61.158H41.6903V65.6574C41.6903 66.9193 40.6635 67.9461 39.4016 67.9461H36.4457C35.8795 67.9461 35.4204 68.4051 35.4204 68.9715C35.4204 69.5379 35.8795 69.9969 36.4457 69.9969H39.4016C41.7943 69.9969 43.7411 68.0503 43.7411 65.6574V16.6738Z" fill="url(#paint1_linear_0_1936)"/>
<path d="M21.9959 39.8398C19.7932 39.8398 18.0012 41.6318 18.0012 43.8346C18.0012 46.0374 19.7932 47.8294 21.9959 47.8294C24.1985 47.8294 25.9905 46.0374 25.9905 43.8346C25.9905 41.6318 24.1985 39.8398 21.9959 39.8398ZM21.9959 45.7785C20.924 45.7785 20.052 44.9064 20.052 43.8345C20.052 42.7626 20.924 41.8905 21.9959 41.8905C23.0677 41.8905 23.9397 42.7626 23.9397 43.8345C23.9397 44.9064 23.0677 45.7785 21.9959 45.7785Z" fill="url(#paint2_linear_0_1936)"/>
<path d="M33.51 40.9619C34.1446 40.2729 34.2563 39.2649 33.7879 38.4535L32.5588 36.3248C32.0905 35.5133 31.1615 35.1067 30.2476 35.3111L27.922 35.833C27.9001 35.8378 27.8744 35.8308 27.8513 35.814C27.2824 35.3989 26.6675 35.0436 26.0232 34.758C25.9975 34.7465 25.9791 34.7279 25.9725 34.7068L25.2617 32.4325C24.9824 31.5384 24.1652 30.9375 23.2284 30.9375H20.7702C19.8334 30.9375 19.0163 31.5384 18.737 32.4324L18.0262 34.7068C18.0196 34.7279 18.001 34.7465 17.9752 34.758C17.3312 35.0436 16.7163 35.3989 16.1472 35.814C16.1241 35.8308 16.0981 35.8382 16.0768 35.833L13.7508 35.3111C12.8364 35.1061 11.908 35.5133 11.4397 36.3246L10.2106 38.4535C9.74223 39.2649 9.85393 40.2729 10.4886 40.9619L12.1036 42.7154C12.1187 42.7317 12.1255 42.7574 12.1225 42.7861C12.085 43.1365 12.0659 43.4913 12.0659 43.8405C12.0659 44.1896 12.0849 44.5443 12.1225 44.8951C12.1255 44.9236 12.1187 44.9493 12.1036 44.9655L10.4886 46.7191C9.85393 47.408 9.74223 48.416 10.2106 49.2275L11.4397 51.3562C11.908 52.1675 12.8369 52.5743 13.751 52.3698L16.0765 51.8479C16.0987 51.8434 16.124 51.8501 16.1474 51.8671C16.7169 52.2826 17.3319 52.6379 17.9749 52.9228C18.0007 52.9343 18.0195 52.953 18.026 52.9741L18.7368 55.2484C19.0161 56.1426 19.8333 56.7434 20.7701 56.7434H23.2283C24.1651 56.7434 24.9823 56.1426 25.2616 55.2485L25.9724 52.9741C25.9789 52.953 25.9977 52.9343 26.0231 52.923C26.6665 52.6379 27.2816 52.2826 27.8514 51.8668C27.8744 51.85 27.8998 51.843 27.9216 51.8479L30.2476 52.3698C31.1618 52.575 32.0904 52.1675 32.5587 51.3563L33.7878 49.2275C34.2562 48.416 34.1445 47.408 33.5098 46.7191L31.8948 44.9655C31.8797 44.9493 31.8729 44.9236 31.8759 44.8948C31.9134 44.5444 31.9325 44.1896 31.9325 43.8405C31.9325 43.4913 31.9135 43.1366 31.8759 42.7858C31.8729 42.7574 31.8797 42.7317 31.8948 42.7154L33.51 40.9619ZM29.837 43.0042C29.8668 43.2825 29.882 43.5639 29.882 43.8403C29.882 44.1168 29.867 44.3981 29.8371 44.6762C29.7711 45.292 29.9713 45.9038 30.3866 46.3546L32.0017 48.1081C32.0253 48.1338 32.0296 48.1714 32.0121 48.2018L30.7828 50.3308C30.7655 50.3609 30.7306 50.3759 30.6967 50.3684L28.3704 49.8465C27.7724 49.7124 27.1424 49.845 26.6426 50.2101C26.1907 50.5397 25.7028 50.8216 25.1921 51.0479C24.6268 51.2986 24.1978 51.7777 24.0153 52.3619L23.3045 54.6365C23.2941 54.6697 23.2636 54.6921 23.2286 54.6921H20.7704C20.7355 54.6921 20.7049 54.6697 20.6945 54.6363L19.9837 52.3619C19.8012 51.7777 19.3722 51.2986 18.8064 51.0477C18.2962 50.8216 17.8082 50.5397 17.3566 50.2103C16.9844 49.9384 16.54 49.7954 16.0904 49.7954C15.936 49.7954 15.781 49.8123 15.628 49.8465L13.3022 50.3684C13.2681 50.3766 13.2335 50.361 13.216 50.3306L11.9869 48.2018C11.9694 48.1714 11.9735 48.134 11.9973 48.1081L13.6125 46.3546C14.0277 45.9037 14.2278 45.292 14.1619 44.6765C14.1321 44.3981 14.117 44.1168 14.117 43.8403C14.117 43.5639 14.132 43.2825 14.1618 43.0044C14.2278 42.3887 14.0277 41.7768 13.6123 41.3261L11.9973 39.5725C11.9736 39.5468 11.9694 39.5092 11.9869 39.4789L13.2161 37.3499C13.2335 37.3197 13.2679 37.3042 13.3022 37.3123L15.6285 37.8341C16.2267 37.9683 16.8564 37.8356 17.3565 37.4707C17.8078 37.1414 18.2958 36.8595 18.8064 36.6329C19.372 36.3823 19.801 35.9033 19.9837 35.3188L20.6945 33.0442C20.7049 33.011 20.7354 32.9886 20.7704 32.9886H23.2286C23.2634 32.9886 23.2941 33.011 23.3045 33.0443L24.0153 35.3188C24.1979 35.9033 24.6271 36.3823 25.1924 36.6329C25.7033 36.8595 26.1913 37.1414 26.6426 37.4707C27.1427 37.8356 27.7724 37.9677 28.371 37.8341L30.6967 37.3123C30.7309 37.305 30.7655 37.3197 30.783 37.35L32.0121 39.4789C32.0296 39.5092 32.0255 39.5467 32.0017 39.5725L30.3865 41.3261C29.9713 41.777 29.771 42.3886 29.837 43.0042Z" fill="url(#paint3_linear_0_1936)"/>
<path d="M26.5863 7.73438H21.3079C20.7416 7.73438 20.2825 8.19334 20.2825 8.75977C20.2825 9.32619 20.7416 9.78516 21.3079 9.78516H26.5863C27.1526 9.78516 27.6117 9.32619 27.6117 8.75977C27.6117 8.19334 27.1526 7.73438 26.5863 7.73438Z" fill="url(#paint4_linear_0_1936)"/>
<path d="M11.6438 9.78516H16.8919C17.4582 9.78516 17.9173 9.32619 17.9173 8.75977C17.9173 8.19334 17.4582 7.73438 16.8919 7.73438H11.6438C11.0775 7.73438 10.6184 8.19334 10.6184 8.75977C10.6184 9.32619 11.0775 9.78516 11.6438 9.78516Z" fill="url(#paint5_linear_0_1936)"/>
<path d="M11.6438 14.207H23.5376C24.1039 14.207 24.563 13.7481 24.563 13.1816C24.563 12.6152 24.1039 12.1562 23.5376 12.1562H11.6438C11.0775 12.1562 10.6184 12.6152 10.6184 13.1816C10.6184 13.7481 11.0775 14.207 11.6438 14.207Z" fill="url(#paint6_linear_0_1936)"/>
<path d="M26.9309 13.1816C26.9309 13.7481 27.39 14.207 27.9563 14.207H32.3592C32.9255 14.207 33.3846 13.7481 33.3846 13.1816C33.3846 12.6152 32.9255 12.1562 32.3592 12.1562H27.9563C27.39 12.1562 26.9309 12.6152 26.9309 13.1816Z" fill="url(#paint7_linear_0_1936)"/>
<path d="M11.6438 18.6211H16.6157C17.182 18.6211 17.6411 18.1621 17.6411 17.5957C17.6411 17.0293 17.182 16.5703 16.6157 16.5703H11.6438C11.0775 16.5703 10.6184 17.0293 10.6184 17.5957C10.6184 18.1621 11.0775 18.6211 11.6438 18.6211Z" fill="url(#paint8_linear_0_1936)"/>
<path d="M23.5369 16.5703H21.0344C20.4681 16.5703 20.009 17.0293 20.009 17.5957C20.009 18.1621 20.4681 18.6211 21.0344 18.6211H23.5369C24.1032 18.6211 24.5623 18.1621 24.5623 17.5957C24.5623 17.0293 24.1032 16.5703 23.5369 16.5703Z" fill="url(#paint9_linear_0_1936)"/>
<path d="M32.3601 16.5703H27.9407C27.3744 16.5703 26.9153 17.0293 26.9153 17.5957C26.9153 18.1621 27.3744 18.6211 27.9407 18.6211H32.3601C32.9264 18.6211 33.3855 18.1621 33.3855 17.5957C33.3855 17.0293 32.9264 16.5703 32.3601 16.5703Z" fill="url(#paint10_linear_0_1936)"/>
<path d="M11.6438 23.043H23.5376C24.1039 23.043 24.563 22.584 24.563 22.0176C24.563 21.4512 24.1039 20.9922 23.5376 20.9922H11.6438C11.0775 20.9922 10.6184 21.4512 10.6184 22.0176C10.6184 22.584 11.0775 23.043 11.6438 23.043Z" fill="url(#paint11_linear_0_1936)"/>
<path d="M32.344 20.9922H27.9563C27.39 20.9922 26.9309 21.4512 26.9309 22.0176C26.9309 22.584 27.39 23.043 27.9563 23.043H32.344C32.9103 23.043 33.3694 22.584 33.3694 22.0176C33.3694 21.4512 32.9103 20.9922 32.344 20.9922Z" fill="url(#paint12_linear_0_1936)"/>
<path d="M11.6438 27.4609H13.7154C14.2816 27.4609 14.7408 27.002 14.7408 26.4355C14.7408 25.8691 14.2816 25.4102 13.7154 25.4102H11.6438C11.0775 25.4102 10.6184 25.8691 10.6184 26.4355C10.6184 27.002 11.0775 27.4609 11.6438 27.4609Z" fill="url(#paint13_linear_0_1936)"/>
<path d="M32.346 25.4102H18.136C17.5697 25.4102 17.1106 25.8691 17.1106 26.4355C17.1106 27.002 17.5697 27.4609 18.136 27.4609H32.346C32.9123 27.4609 33.3714 27.002 33.3714 26.4355C33.3714 25.8691 32.9123 25.4102 32.346 25.4102Z" fill="url(#paint14_linear_0_1936)"/>
<path d="M32.3456 9.78516C32.9118 9.78516 33.3709 9.32619 33.3709 8.75977C33.3709 8.19334 32.9118 7.73438 32.3456 7.73438H30.9797C30.4134 7.73438 29.9543 8.19334 29.9543 8.75977C29.9543 9.32619 30.4134 9.78516 30.9797 9.78516H32.3456Z" fill="url(#paint15_linear_0_1936)"/>
<path d="M7.68101 4.53051C7.17446 4.2769 6.55868 4.48253 6.30534 4.98907L5.47669 6.64637C5.33231 6.93512 5.33231 7.27487 5.47669 7.56362L6.30534 9.22092C6.48499 9.58022 6.84702 9.7879 7.22327 9.7879C7.37735 9.7879 7.53376 9.7529 7.68101 9.67934C8.18755 9.426 8.3929 8.81022 8.13956 8.30368L7.54019 7.10493L8.13956 5.90618C8.39276 5.39977 8.18755 4.78385 7.68101 4.53051Z" fill="url(#paint16_linear_0_1936)"/>
<path d="M36.3183 27.3549C36.4655 27.4286 36.6219 27.4634 36.776 27.4634C37.1521 27.4634 37.5143 27.2556 37.694 26.8964L38.5226 25.2391C38.667 24.9504 38.667 24.6106 38.5226 24.3219L37.694 22.6646C37.4406 22.1582 36.825 21.953 36.3183 22.206C35.8118 22.4594 35.6064 23.0752 35.8597 23.5817L36.4591 24.7804L35.8597 25.9792C35.6065 26.4857 35.8118 27.1017 36.3183 27.3549Z" fill="url(#paint17_linear_0_1936)"/>
<defs>
<linearGradient id="paint0_linear_0_1936" x1="0.259033" y1="20.2849" x2="43.7411" y2="20.2849" gradientUnits="userSpaceOnUse">
<stop stop-color="#00469F"/>
<stop offset="1" stop-color="#1E79D6"/>
</linearGradient>
<linearGradient id="paint1_linear_0_1936" x1="0.259033" y1="43.5571" x2="43.7411" y2="43.5571" gradientUnits="userSpaceOnUse">
<stop stop-color="#00469F"/>
<stop offset="1" stop-color="#1E79D6"/>
</linearGradient>
<linearGradient id="paint2_linear_0_1936" x1="18.0012" y1="43.9426" x2="25.9905" y2="43.9426" gradientUnits="userSpaceOnUse">
<stop stop-color="#00469F"/>
<stop offset="1" stop-color="#1E79D6"/>
</linearGradient>
<linearGradient id="paint3_linear_0_1936" x1="9.9231" y1="44.1892" x2="34.0754" y2="44.1892" gradientUnits="userSpaceOnUse">
<stop stop-color="#00469F"/>
<stop offset="1" stop-color="#1E79D6"/>
</linearGradient>
<linearGradient id="paint4_linear_0_1936" x1="20.2825" y1="8.78748" x2="27.6117" y2="8.78748" gradientUnits="userSpaceOnUse">
<stop stop-color="#00469F"/>
<stop offset="1" stop-color="#1E79D6"/>
</linearGradient>
<linearGradient id="paint5_linear_0_1936" x1="10.6184" y1="8.78748" x2="17.9173" y2="8.78748" gradientUnits="userSpaceOnUse">
<stop stop-color="#00469F"/>
<stop offset="1" stop-color="#1E79D6"/>
</linearGradient>
<linearGradient id="paint6_linear_0_1936" x1="10.6184" y1="13.2094" x2="24.563" y2="13.2094" gradientUnits="userSpaceOnUse">
<stop stop-color="#00469F"/>
<stop offset="1" stop-color="#1E79D6"/>
</linearGradient>
<linearGradient id="paint7_linear_0_1936" x1="26.9309" y1="13.2094" x2="33.3846" y2="13.2094" gradientUnits="userSpaceOnUse">
<stop stop-color="#00469F"/>
<stop offset="1" stop-color="#1E79D6"/>
</linearGradient>
<linearGradient id="paint8_linear_0_1936" x1="10.6184" y1="17.6234" x2="17.6411" y2="17.6234" gradientUnits="userSpaceOnUse">
<stop stop-color="#00469F"/>
<stop offset="1" stop-color="#1E79D6"/>
</linearGradient>
<linearGradient id="paint9_linear_0_1936" x1="20.009" y1="17.6234" x2="24.5623" y2="17.6234" gradientUnits="userSpaceOnUse">
<stop stop-color="#00469F"/>
<stop offset="1" stop-color="#1E79D6"/>
</linearGradient>
<linearGradient id="paint10_linear_0_1936" x1="26.9153" y1="17.6234" x2="33.3855" y2="17.6234" gradientUnits="userSpaceOnUse">
<stop stop-color="#00469F"/>
<stop offset="1" stop-color="#1E79D6"/>
</linearGradient>
<linearGradient id="paint11_linear_0_1936" x1="10.6184" y1="22.0453" x2="24.563" y2="22.0453" gradientUnits="userSpaceOnUse">
<stop stop-color="#00469F"/>
<stop offset="1" stop-color="#1E79D6"/>
</linearGradient>
<linearGradient id="paint12_linear_0_1936" x1="26.9309" y1="22.0453" x2="33.3694" y2="22.0453" gradientUnits="userSpaceOnUse">
<stop stop-color="#00469F"/>
<stop offset="1" stop-color="#1E79D6"/>
</linearGradient>
<linearGradient id="paint13_linear_0_1936" x1="10.6184" y1="26.4633" x2="14.7408" y2="26.4633" gradientUnits="userSpaceOnUse">
<stop stop-color="#00469F"/>
<stop offset="1" stop-color="#1E79D6"/>
</linearGradient>
<linearGradient id="paint14_linear_0_1936" x1="17.1106" y1="26.4633" x2="33.3714" y2="26.4633" gradientUnits="userSpaceOnUse">
<stop stop-color="#00469F"/>
<stop offset="1" stop-color="#1E79D6"/>
</linearGradient>
<linearGradient id="paint15_linear_0_1936" x1="29.9543" y1="8.78748" x2="33.3709" y2="8.78748" gradientUnits="userSpaceOnUse">
<stop stop-color="#00469F"/>
<stop offset="1" stop-color="#1E79D6"/>
</linearGradient>
<linearGradient id="paint16_linear_0_1936" x1="5.36841" y1="7.1774" x2="8.24808" y2="7.1774" gradientUnits="userSpaceOnUse">
<stop stop-color="#00469F"/>
<stop offset="1" stop-color="#1E79D6"/>
</linearGradient>
<linearGradient id="paint17_linear_0_1936" x1="35.7512" y1="24.853" x2="38.6309" y2="24.853" gradientUnits="userSpaceOnUse">
<stop stop-color="#00469F"/>
<stop offset="1" stop-color="#1E79D6"/>
</linearGradient>
</defs>
</svg>
