<svg width="66" height="65" viewBox="0 0 66 65" fill="none" xmlns="http://www.w3.org/2000/svg">
<rect x="0.5" width="65" height="65" rx="8" fill="url(#paint0_linear_333_4162)"/>
<path d="M10 26.3438V11.9603C10 11.4404 10.2155 10.9418 10.5991 10.5742C10.9827 10.2065 11.503 10 12.0455 10H52.9545C53.497 10 54.0173 10.2065 54.4009 10.5742C54.7845 10.9418 55 11.4404 55 11.9603V26.3438C55 46.9266 36.7699 53.7386 33.1392 54.8902C32.7267 55.0366 32.2732 55.0366 31.8608 54.8902C28.2301 53.7386 10 46.9266 10 26.3438Z" stroke="white" stroke-width="2" stroke-linecap="round" stroke-linejoin="round"/>
<path d="M33 19V35" stroke="white" stroke-width="2" stroke-linecap="round" stroke-linejoin="round"/>
<path d="M33 48C35.2091 48 37 46.2091 37 44C37 41.7909 35.2091 40 33 40C30.7909 40 29 41.7909 29 44C29 46.2091 30.7909 48 33 48Z" fill="white"/>
<defs>
<linearGradient id="paint0_linear_333_4162" x1="0.5" y1="33.3784" x2="65.5" y2="33.3784" gradientUnits="userSpaceOnUse">
<stop stop-color="#00469F"/>
<stop offset="1" stop-color="#1E79D6"/>
</linearGradient>
</defs>
</svg>
