<svg width="66" height="65" viewBox="0 0 66 65" fill="none" xmlns="http://www.w3.org/2000/svg">
<rect x="0.5" width="65" height="65" rx="8" fill="url(#paint0_linear_333_4148)"/>
<path d="M33 33C44.598 33 54 27.8513 54 21.5C54 15.1487 44.598 10 33 10C21.402 10 12 15.1487 12 21.5C12 27.8513 21.402 33 33 33Z" stroke="white" stroke-width="2" stroke-linecap="round" stroke-linejoin="round"/>
<path d="M12 22V33.5C12 39.849 21.4023 45 33 45C44.5977 45 54 39.849 54 33.5V22" stroke="white" stroke-width="2" stroke-linecap="round" stroke-linejoin="round"/>
<path d="M12 33V44.5C12 50.849 21.4023 56 33 56C44.5977 56 54 50.849 54 44.5V33" stroke="white" stroke-width="2" stroke-linecap="round" stroke-linejoin="round"/>
<defs>
<linearGradient id="paint0_linear_333_4148" x1="0.5" y1="33.3784" x2="65.5" y2="33.3784" gradientUnits="userSpaceOnUse">
<stop stop-color="#00469F"/>
<stop offset="1" stop-color="#1E79D6"/>
</linearGradient>
</defs>
</svg>
