<svg width="37" height="24" viewBox="0 0 37 24" fill="none" xmlns="http://www.w3.org/2000/svg">
<path d="M18.2587 13.322C21.7303 13.322 24.5447 10.5077 24.5447 7.03601C24.5447 3.56434 21.7303 0.75 18.2587 0.75C14.787 0.75 11.9727 3.56434 11.9727 7.03601C11.9727 10.5077 14.787 13.322 18.2587 13.322Z" fill="url(#paint0_linear_3_343)"/>
<path d="M18.5571 14.52H18.5571C20.78 14.52 22.9118 15.4211 24.4836 17.025C26.0554 18.6288 26.9385 20.8042 26.9385 23.0724V23.5H10.1758V23.0724C10.1758 20.8042 11.0588 18.6288 12.6306 17.025C14.2024 15.4211 16.3342 14.52 18.5571 14.52V14.52Z" fill="url(#paint1_linear_3_343)"/>
<path opacity="0.6" d="M5.68727 16.3149C8.16703 16.3149 10.1773 14.4387 10.1773 12.1243C10.1773 9.80982 8.16703 7.93359 5.68727 7.93359C3.20751 7.93359 1.19727 9.80982 1.19727 12.1243C1.19727 14.4387 3.20751 16.3149 5.68727 16.3149Z" fill="url(#paint2_linear_3_343)"/>
<path opacity="0.6" d="M10.1773 18.4929C9.29525 17.6913 8.20595 17.1679 7.04047 16.9857C5.87499 16.8036 4.68298 16.9704 3.60783 17.4662C2.53269 17.9619 1.62021 18.7655 0.980155 19.7802C0.340099 20.7949 -0.000267993 21.9775 1.58321e-07 23.1858V23.4994H8.96074V23.0514C8.95879 21.4474 9.37909 19.8726 10.1773 18.4929V18.4929Z" fill="url(#paint3_linear_3_343)"/>
<path opacity="0.6" d="M31.4295 16.3149C33.9092 16.3149 35.9195 14.4387 35.9195 12.1243C35.9195 9.80982 33.9092 7.93359 31.4295 7.93359C28.9497 7.93359 26.9395 9.80982 26.9395 12.1243C26.9395 14.4387 28.9497 16.3149 31.4295 16.3149Z" fill="url(#paint4_linear_3_343)"/>
<path opacity="0.6" d="M26.9395 18.4929C27.7697 17.6913 28.7949 17.1679 29.8918 16.9857C30.9887 16.8036 32.1106 16.9704 33.1225 17.4662C34.1344 17.9619 34.9932 18.7655 35.5956 19.7802C36.198 20.7949 36.5184 21.9775 36.5181 23.1858V23.4994H28.0845V23.0514C28.0863 21.4474 27.6908 19.8726 26.9395 18.4929V18.4929Z" fill="url(#paint5_linear_3_343)"/>
<defs>
<linearGradient id="paint0_linear_3_343" x1="11.9727" y1="7.2059" x2="24.5447" y2="7.2059" gradientUnits="userSpaceOnUse">
<stop stop-color="#00469F"/>
<stop offset="1" stop-color="#1E79D6"/>
</linearGradient>
<linearGradient id="paint1_linear_3_343" x1="10.1758" y1="19.1314" x2="26.9385" y2="19.1314" gradientUnits="userSpaceOnUse">
<stop stop-color="#00469F"/>
<stop offset="1" stop-color="#1E79D6"/>
</linearGradient>
<linearGradient id="paint2_linear_3_343" x1="1.19727" y1="12.2375" x2="10.1773" y2="12.2375" gradientUnits="userSpaceOnUse">
<stop stop-color="#00469F"/>
<stop offset="1" stop-color="#1E79D6"/>
</linearGradient>
<linearGradient id="paint3_linear_3_343" x1="0" y1="20.2957" x2="10.1773" y2="20.2957" gradientUnits="userSpaceOnUse">
<stop stop-color="#00469F"/>
<stop offset="1" stop-color="#1E79D6"/>
</linearGradient>
<linearGradient id="paint4_linear_3_343" x1="26.9395" y1="12.2375" x2="35.9195" y2="12.2375" gradientUnits="userSpaceOnUse">
<stop stop-color="#00469F"/>
<stop offset="1" stop-color="#1E79D6"/>
</linearGradient>
<linearGradient id="paint5_linear_3_343" x1="26.9395" y1="20.2957" x2="36.5181" y2="20.2957" gradientUnits="userSpaceOnUse">
<stop stop-color="#00469F"/>
<stop offset="1" stop-color="#1E79D6"/>
</linearGradient>
</defs>
</svg>
