<svg width="35" height="34" viewBox="0 0 35 34" fill="none" xmlns="http://www.w3.org/2000/svg">
<path fill-rule="evenodd" clip-rule="evenodd" d="M15.2775 0.464979C12.5803 0.817098 10.1089 1.83736 7.94443 3.49241C6.60992 4.51281 5.22687 6.04051 4.32706 7.48802C3.87766 8.21105 3.18505 9.65364 2.90559 10.4487C2.49831 11.6075 2.08412 13.6913 2.08412 14.5815C2.08412 14.8234 2.05766 14.8604 1.76044 15.0346C1.0322 15.4614 0.466666 16.1489 0.162399 16.977C0.000523888 17.4177 -0.0008433 17.4437 0.000113731 20.1216C0.0010024 22.7514 0.00503562 22.8323 0.154196 23.2264C0.365905 23.7857 0.650143 24.207 1.11485 24.6503C1.81635 25.3194 2.60946 25.6187 3.57688 25.5795C4.03229 25.561 4.24762 25.5168 4.5091 25.3885C4.94256 25.1757 5.36051 24.7578 5.574 24.3239L5.74134 23.9839L5.76007 20.1681L5.77887 16.3522L5.59779 15.9487C5.36079 15.4206 4.84303 14.928 4.31858 14.7319C4.10195 14.6508 3.88163 14.5845 3.82899 14.5845C3.76077 14.5845 3.74156 14.5208 3.76193 14.3623C3.77765 14.2401 3.82339 13.8683 3.86351 13.5361C3.90364 13.2039 4.02354 12.5887 4.12991 12.1689C5.53941 6.60878 10.1867 2.62965 15.9269 2.06801C17.3648 1.92732 19.0878 2.07183 20.5411 2.45513C25.6206 3.79456 29.4774 8.01431 30.3152 13.1489C30.5037 14.3041 30.5229 14.5845 30.4133 14.5845C30.3629 14.5845 30.1444 14.6508 29.9278 14.7319C29.4033 14.928 28.8856 15.4206 28.6486 15.9487L28.4675 16.3522L28.4863 20.1681L28.505 23.9839L28.6631 24.3047C28.9641 24.9159 29.6344 25.4391 30.269 25.5581L30.5216 25.6056V26.5858C30.5216 27.1249 30.4877 27.729 30.4463 27.9283C30.248 28.8822 29.5584 29.7608 28.6668 30.1954C28.0158 30.5128 27.5555 30.5794 26.0089 30.58L24.7433 30.5806L24.5796 30.2357C24.3676 29.7892 23.7931 29.2666 23.2924 29.0646C22.9167 28.9131 22.822 28.9062 21.1222 28.9062C19.4034 28.9062 19.3313 28.9116 18.9347 29.0709C18.3652 29.2996 17.7489 29.9195 17.5359 30.478C17.1237 31.5584 17.5011 32.7802 18.4472 33.4293C19.0379 33.8345 19.2962 33.8728 21.2738 33.849L23.0363 33.8276L23.4464 33.6264C23.9215 33.3933 24.4204 32.9118 24.6003 32.5128L24.7257 32.2349L26.4103 32.205C27.9297 32.1781 28.1418 32.1599 28.5734 32.0195C30.3511 31.4408 31.5934 30.1505 32.026 28.4334C32.1381 27.9885 32.1622 27.6647 32.1622 26.6061V25.3197L32.4303 25.1829C32.7955 24.9966 33.4719 24.359 33.7283 23.9594C33.8442 23.7788 34.0079 23.449 34.0922 23.2264C34.2413 22.8323 34.2454 22.7514 34.2462 20.1216C34.2472 17.4437 34.2458 17.4177 34.084 16.977C33.7797 16.1489 33.2142 15.4614 32.4859 15.0346C32.1887 14.8604 32.1622 14.8234 32.1622 14.5815C32.1622 14.4366 32.1151 13.955 32.0575 13.5113C31.1954 6.87114 26.1543 1.65491 19.5158 0.533954C18.6144 0.381717 16.2145 0.342684 15.2775 0.464979ZM11.2443 8.3637C9.75021 8.62962 8.59015 9.82898 8.36798 11.3374C8.28418 11.9066 8.29115 18.8119 8.37612 19.4C8.5894 20.8754 9.80572 22.0815 11.3242 22.3231L11.8484 22.4065L11.8717 23.537C11.8923 24.5391 11.9117 24.6991 12.0432 24.9456C12.5022 25.8068 13.505 26.1382 14.3546 25.7094C14.5089 25.6316 15.3301 24.8754 16.2387 23.9745L17.8494 22.3774L20.272 22.3763C22.087 22.3754 22.808 22.351 23.1471 22.2791C24.576 21.9762 25.6829 20.7797 25.8774 19.3279C25.9234 18.9847 25.9413 17.4091 25.9267 14.9946C25.9041 11.2816 25.9004 11.191 25.7511 10.7461C25.3928 9.67893 24.6297 8.909 23.5093 8.48449L23.1046 8.33116L17.3283 8.32002C14.1513 8.31393 11.4135 8.33355 11.2443 8.3637ZM23.173 10.132C23.5843 10.3195 23.8606 10.5837 24.0563 10.9765L24.2326 11.3301V15.3364V19.3428L24.0563 19.6964C23.8566 20.0971 23.586 20.3517 23.1388 20.5596C22.8464 20.6955 22.6902 20.7043 19.9867 20.7368L17.1422 20.771L16.056 21.8086C15.4586 22.3792 14.6628 23.156 14.2876 23.5346C13.9123 23.9133 13.5816 24.2231 13.5527 24.2231C13.5238 24.2231 13.5001 23.5469 13.5001 22.7203V21.2175L13.3007 20.9943L13.1013 20.771L12.2582 20.7309C11.0558 20.6736 10.5512 20.4211 10.19 19.6964L10.0138 19.3428L10.0153 15.3401C10.0167 11.6141 10.0254 11.3185 10.1414 11.064C10.3289 10.6526 10.5931 10.3763 10.9859 10.1806L11.3395 10.0044L17.1195 10.0059C22.5656 10.0073 22.9153 10.0146 23.173 10.132ZM12.6819 14.3509C12.3694 14.4864 12.2144 14.6328 12.0573 14.9406C11.5968 15.8429 12.4767 16.9295 13.4353 16.6423C13.9824 16.4784 14.3362 16.0192 14.3362 15.4731C14.3362 14.9575 14.0594 14.5602 13.5526 14.3485C13.2384 14.2172 12.9886 14.2179 12.6819 14.3509ZM16.7305 14.3155C16.2191 14.4713 15.8272 15.1329 15.9271 15.672C16.1309 16.772 17.5753 17.0501 18.1611 16.1023C18.4913 15.5681 18.3081 14.7787 17.778 14.4511C17.5065 14.2833 17.0363 14.2224 16.7305 14.3155ZM20.6783 14.3516C20.1829 14.5664 19.9101 14.9647 19.9101 15.4731C19.9101 16.0192 20.264 16.4784 20.8111 16.6423C21.7697 16.9295 22.6496 15.8429 22.189 14.9406C22.0291 14.6273 21.8739 14.4835 21.5492 14.3478C21.236 14.217 20.9862 14.2181 20.6783 14.3516ZM3.93508 16.4249L4.1349 16.6247V20.0874V23.5501L3.92592 23.7591C3.7296 23.9553 3.69309 23.9658 3.32286 23.9323C2.83409 23.8879 2.45743 23.7009 2.13231 23.341C1.63274 22.788 1.63978 22.8344 1.63978 20.0874V17.6265L1.82504 17.2752C2.15637 16.647 2.78152 16.2425 3.43948 16.2305C3.67928 16.2261 3.77307 16.2629 3.93508 16.4249ZM31.3559 16.3313C31.774 16.4738 32.1956 16.8474 32.4213 17.2752L32.6066 17.6265V20.0874C32.6066 22.8344 32.6136 22.788 32.1141 23.341C31.7889 23.7009 31.4123 23.8879 30.9235 23.9323C30.5533 23.9658 30.5168 23.9553 30.3204 23.7591L30.1115 23.5501V20.0874V16.6247L30.3113 16.4249C30.5456 16.1906 30.8602 16.1624 31.3559 16.3313ZM22.8505 30.6873C23.3532 31.0393 23.3085 31.8551 22.7726 32.1094C22.4497 32.2627 19.8435 32.2742 19.4839 32.1241C19.2025 32.0065 19.0372 31.7123 19.0372 31.3291C19.0372 31.0976 19.08 31.0026 19.2697 30.813L19.5021 30.5806H21.1001C22.4376 30.5806 22.723 30.5979 22.8505 30.6873Z" fill="url(#paint0_linear_2536_26506)"/>
<defs>
<linearGradient id="paint0_linear_2536_26506" x1="0" y1="17.5757" x2="34.2464" y2="17.5757" gradientUnits="userSpaceOnUse">
<stop stop-color="#00469F"/>
<stop offset="1" stop-color="#1E79D6"/>
</linearGradient>
</defs>
</svg>
