<svg width="40" height="40" viewBox="0 0 40 40" fill="none" xmlns="http://www.w3.org/2000/svg">
<path d="M26.0447 15.286C26.0447 18.4815 23.4542 21.072 20.2587 21.072C17.0631 21.072 14.4727 18.4815 14.4727 15.286C14.4727 12.0905 17.0631 9.5 20.2587 9.5C23.4542 9.5 26.0447 12.0905 26.0447 15.286Z" stroke="url(#paint0_linear_2536_26374)"/>
<path d="M20.5571 23.2695H20.5571C22.6441 23.2695 24.6477 24.1154 26.1265 25.6244C27.589 27.1168 28.4196 29.1369 28.4381 31.2495H12.6761C12.6947 29.1369 13.5252 27.1168 14.9877 25.6244C16.4666 24.1154 18.4701 23.2695 20.5571 23.2695Z" stroke="url(#paint1_linear_2536_26374)"/>
<path opacity="0.6" d="M7.68727 24.5649C10.167 24.5649 12.1773 22.6887 12.1773 20.3743C12.1773 18.0598 10.167 16.1836 7.68727 16.1836C5.20751 16.1836 3.19727 18.0598 3.19727 20.3743C3.19727 22.6887 5.20751 24.5649 7.68727 24.5649Z" fill="url(#paint2_linear_2536_26374)"/>
<path opacity="0.6" d="M12.1773 26.7429C11.2952 25.9413 10.2059 25.4179 9.04047 25.2357C7.87499 25.0536 6.68298 25.2204 5.60783 25.7162C4.53269 26.2119 3.62021 27.0155 2.98016 28.0302C2.3401 29.0449 1.99973 30.2275 2 31.4358V31.7494H10.9607V31.3014C10.9588 29.6974 11.3791 28.1226 12.1773 26.7429Z" fill="url(#paint3_linear_2536_26374)"/>
<path opacity="0.6" d="M33.4295 24.5649C35.9092 24.5649 37.9195 22.6887 37.9195 20.3743C37.9195 18.0598 35.9092 16.1836 33.4295 16.1836C30.9497 16.1836 28.9395 18.0598 28.9395 20.3743C28.9395 22.6887 30.9497 24.5649 33.4295 24.5649Z" fill="url(#paint4_linear_2536_26374)"/>
<path opacity="0.6" d="M28.9395 26.7429C29.7697 25.9413 30.7949 25.4179 31.8918 25.2357C32.9887 25.0536 34.1106 25.2204 35.1225 25.7162C36.1344 26.2119 36.9932 27.0155 37.5956 28.0302C38.198 29.0449 38.5184 30.2275 38.5181 31.4358V31.7494H30.0845V31.3014C30.0863 29.6974 29.6908 28.1226 28.9395 26.7429Z" fill="url(#paint5_linear_2536_26374)"/>
<defs>
<linearGradient id="paint0_linear_2536_26374" x1="13.9727" y1="15.4559" x2="26.5447" y2="15.4559" gradientUnits="userSpaceOnUse">
<stop stop-color="#00469F"/>
<stop offset="1" stop-color="#1E79D6"/>
</linearGradient>
<linearGradient id="paint1_linear_2536_26374" x1="12.1758" y1="27.3809" x2="28.9385" y2="27.3809" gradientUnits="userSpaceOnUse">
<stop stop-color="#00469F"/>
<stop offset="1" stop-color="#1E79D6"/>
</linearGradient>
<linearGradient id="paint2_linear_2536_26374" x1="3.19727" y1="20.4875" x2="12.1773" y2="20.4875" gradientUnits="userSpaceOnUse">
<stop stop-color="#00469F"/>
<stop offset="1" stop-color="#1E79D6"/>
</linearGradient>
<linearGradient id="paint3_linear_2536_26374" x1="2" y1="28.5457" x2="12.1773" y2="28.5457" gradientUnits="userSpaceOnUse">
<stop stop-color="#00469F"/>
<stop offset="1" stop-color="#1E79D6"/>
</linearGradient>
<linearGradient id="paint4_linear_2536_26374" x1="28.9395" y1="20.4875" x2="37.9195" y2="20.4875" gradientUnits="userSpaceOnUse">
<stop stop-color="#00469F"/>
<stop offset="1" stop-color="#1E79D6"/>
</linearGradient>
<linearGradient id="paint5_linear_2536_26374" x1="28.9395" y1="28.5457" x2="38.5181" y2="28.5457" gradientUnits="userSpaceOnUse">
<stop stop-color="#00469F"/>
<stop offset="1" stop-color="#1E79D6"/>
</linearGradient>
</defs>
</svg>
