<svg width="41" height="40" viewBox="0 0 41 40" fill="none" xmlns="http://www.w3.org/2000/svg">
<path fill-rule="evenodd" clip-rule="evenodd" d="M19.7999 5.03782C17.0212 5.26991 14.4942 6.32259 12.2915 8.16548C11.634 8.71562 11.6042 8.75614 11.7437 8.91033C11.8829 9.06415 11.8569 9.10987 11.2859 9.71514C9.82796 11.2606 8.63472 13.6258 8.2194 15.7932C8.13836 16.216 8.06288 16.5744 8.05159 16.5896C8.04029 16.6049 7.89561 16.6345 7.73003 16.6554C7.37074 16.7008 7.20499 16.8985 7.20499 17.2819C7.20499 17.4874 7.15022 17.5891 7.0033 17.6563C6.56046 17.8588 5.82816 18.533 5.50051 19.0399C4.94356 19.9016 4.73998 20.6158 4.75038 21.6716C4.76015 22.6678 4.98677 23.4333 5.48707 24.1601C5.8096 24.6287 6.54253 25.3228 6.92199 25.519C7.15336 25.6386 7.20499 25.7196 7.20499 25.9629C7.20499 26.4257 7.42112 26.5572 8.18148 26.5572C8.79213 26.5572 8.84341 26.5729 9.0564 26.8261C9.26796 27.0775 9.32345 27.095 9.90631 27.095C10.4489 27.095 10.5586 27.0664 10.7499 26.875L10.97 26.655V21.6029C10.97 16.6426 10.9667 16.5473 10.7872 16.3548C10.6787 16.2382 10.4966 16.1585 10.339 16.1585C10.0037 16.1585 10.0043 16.1084 10.3534 15.0167C10.8411 13.4916 11.6675 12.0565 12.741 10.8707C13.1371 10.4331 13.2029 10.3926 13.3368 10.5037C13.4691 10.6135 13.5223 10.5956 13.775 10.3566C14.6466 9.53245 16.3739 8.55328 17.6779 8.14405C19.8456 7.46393 22.1684 7.48195 24.2707 8.19524C25.4739 8.60348 27.0444 9.51327 27.9354 10.3181C28.2167 10.5722 28.2942 10.6035 28.4086 10.5086C28.5773 10.3685 28.7953 10.5527 29.4717 11.4074C30.3416 12.5066 30.9674 13.6617 31.4119 14.9882C31.7381 15.9619 31.7488 16.1581 31.4759 16.1599C31.365 16.1607 31.2299 16.1909 31.1756 16.2271C30.8859 16.4207 30.8709 16.6888 30.8709 21.6698V26.655L31.0777 26.8618C31.1914 26.9754 31.3399 27.0871 31.4076 27.1096C31.563 27.1614 31.3095 27.7093 30.6975 28.6443C29.2684 30.8277 26.7944 32.4336 24.186 32.871C23.8271 32.9312 23.8182 32.9262 23.6598 32.575C23.1232 31.3847 21.6124 31.1307 20.7245 32.0814C19.989 32.8688 20.1958 34.2082 21.138 34.7604C21.6023 35.0325 22.3554 35.0806 22.7728 34.8648C23.1807 34.6539 23.5915 34.1871 23.726 33.7816C23.8271 33.4769 23.892 33.4101 24.1097 33.3865C24.5419 33.3396 25.7723 33.0179 26.299 32.814C28.6474 31.9053 30.5299 30.2014 31.71 27.9166C32.0335 27.2901 32.1775 27.095 32.3163 27.095C32.4163 27.095 32.6193 26.974 32.7672 26.8261C33.0166 26.5766 33.0833 26.5572 33.6876 26.5572C34.4254 26.5572 34.6359 26.4255 34.6359 25.964C34.6359 25.7367 34.719 25.6442 35.2174 25.3164C35.9054 24.8641 36.4989 24.0894 36.8287 23.2133C37.4647 21.5237 37.0481 19.6114 35.7713 18.3596C35.4623 18.0566 35.0804 17.7553 34.9227 17.6899C34.6849 17.5914 34.6359 17.5223 34.6359 17.2854C34.6359 16.8892 34.4709 16.708 34.0663 16.6595C33.8762 16.6366 33.7109 16.6053 33.6989 16.5899C33.6869 16.5746 33.6287 16.2594 33.5697 15.8896C33.2481 13.8784 32.073 11.5146 30.519 9.75315C29.9482 9.10629 29.9025 9.02641 30.0252 8.89087C30.148 8.75524 30.1128 8.70083 29.6416 8.29582C27.258 6.24747 24.5628 5.17166 21.4135 5.01146C20.9697 4.98887 20.2436 5.00071 19.7999 5.03782ZM19.1934 15.5775C15.9143 16.198 13.5697 18.6797 13.5697 21.53C13.5697 24.1346 15.6415 26.5381 18.5957 27.3605C19.488 27.6088 20.8226 27.7506 21.566 27.6759C22.1473 27.6176 22.168 27.6073 22.0713 27.4264C21.942 27.1849 21.7288 26.3872 21.7312 26.1538C21.7326 26.001 21.7621 26.0142 21.9304 26.2434C22.5481 27.0844 23.5008 27.7822 24.5062 28.1299C25.6049 28.5099 27.2851 28.5373 27.2851 28.1752C27.2851 28.1318 27.0936 27.9555 26.8593 27.7833C26.3231 27.3892 26.0616 27.036 25.9235 26.5197L25.815 26.1138L26.3872 25.5959C27.0631 24.9843 27.728 24.0049 28 23.2203C28.247 22.5079 28.3297 21.3619 28.1876 20.6221C27.7684 18.4394 25.7161 16.4686 23.0719 15.7092C22.182 15.4538 20.2027 15.3864 19.1934 15.5775ZM17.9523 20.6909C18.7124 21.3305 18.1067 22.5816 17.126 22.3975C16.29 22.2408 16.0619 21.0611 16.7812 20.6149C17.1457 20.3888 17.6306 20.4203 17.9523 20.6909ZM21.2152 20.5587C21.7374 20.7967 21.8883 21.6009 21.4977 22.0651C21.0441 22.6042 20.179 22.4958 19.8767 21.8618C19.4715 21.0121 20.3447 20.1621 21.2152 20.5587ZM24.8057 20.6455C24.9344 20.7468 25.0857 20.983 25.1418 21.1705C25.2272 21.4554 25.2182 21.5656 25.0871 21.8419C24.6437 22.7765 23.3293 22.527 23.2452 21.4923C23.214 21.1094 23.2603 20.9763 23.5132 20.7234C23.8436 20.393 24.439 20.3571 24.8057 20.6455Z" fill="url(#paint0_linear_2377_13471)"/>
<defs>
<linearGradient id="paint0_linear_2377_13471" x1="4.75" y1="20.4054" x2="37.1224" y2="20.4054" gradientUnits="userSpaceOnUse">
<stop stop-color="#00469F"/>
<stop offset="1" stop-color="#1E79D6"/>
</linearGradient>
</defs>
</svg>
