<svg width="50" height="50" viewBox="0 0 50 50" fill="none" xmlns="http://www.w3.org/2000/svg">
<path d="M36.4862 12.8607C36.9909 13.3256 37.469 13.8036 37.9205 14.295L43.3588 15.0719C44.2448 16.6108 44.9278 18.2579 45.3906 19.9723L42.0839 24.3747C42.0839 24.3747 42.1436 25.7293 42.0839 26.4066L45.3906 30.809C44.93 32.524 44.2469 34.1715 43.3588 35.7094L37.9205 36.4862C37.9205 36.4862 36.9842 37.4623 36.4862 37.9205L35.7094 43.3588C34.1705 44.2448 32.5233 44.9278 30.809 45.3906L26.4066 42.0839C25.7306 42.1436 25.0507 42.1436 24.3747 42.0839L19.9723 45.3906C18.2572 44.93 16.6098 44.2469 15.0719 43.3588L14.295 37.9205C13.8036 37.4557 13.3256 36.9776 12.8607 36.4862L7.4225 35.7094C6.53641 34.1705 5.85343 32.5233 5.39062 30.809L8.6974 26.4066C8.6974 26.4066 8.63764 25.052 8.6974 24.3747L5.39062 19.9723C5.85129 18.2572 6.53437 16.6098 7.4225 15.0719L12.8607 14.295C13.3256 13.8036 13.8036 13.3256 14.295 12.8607L15.0719 7.4225C16.6108 6.53641 18.2579 5.85343 19.9723 5.39062L24.3747 8.6974C25.0507 8.63762 25.7306 8.63762 26.4066 8.6974L30.809 5.39062C32.524 5.85129 34.1715 6.53437 35.7094 7.4225L36.4862 12.8607Z" stroke="url(#paint0_linear_10_731)" stroke-width="2" stroke-linecap="round" stroke-linejoin="round"/>
<path d="M29.8655 17.5698C30.1401 17.0952 29.9796 16.4828 29.4799 16.2569C27.4873 15.3563 25.2431 15.1349 23.0976 15.6441C20.6287 16.2301 18.4777 17.7392 17.0866 19.8615C15.6954 21.9837 15.1696 24.5581 15.6172 27.0559C16.0061 29.2264 17.1043 31.196 18.725 32.6639C19.1315 33.032 19.7571 32.9349 20.0828 32.4938C20.4085 32.0526 20.3097 31.4351 19.9126 31.0569C18.6958 29.8982 17.8712 28.3763 17.5719 26.7057C17.2138 24.7074 17.6345 22.6479 18.7474 20.9501C19.8603 19.2523 21.581 18.0451 23.5562 17.5762C25.2076 17.1843 26.9321 17.3334 28.48 17.9869C28.9852 18.2002 29.5909 18.0445 29.8655 17.5698Z" fill="url(#paint1_linear_10_731)"/>
<path d="M21.7644 33.4721C21.5418 33.9733 21.7667 34.5651 22.2876 34.7365C24.2285 35.3751 26.328 35.4017 28.2971 34.7989C30.584 34.0987 32.5414 32.5967 33.8093 30.5688C35.0773 28.5409 35.5707 26.1235 35.1988 23.7609C34.8786 21.7266 33.9354 19.8507 32.5115 18.3854C32.1294 17.9921 31.4988 18.0491 31.1457 18.4686C30.7925 18.8881 30.8517 19.5107 31.2239 19.9134C32.2868 21.0634 32.9914 22.5082 33.2372 24.0696C33.5347 25.9597 33.14 27.8937 32.1256 29.516C31.1112 31.1383 29.5453 32.34 27.7158 32.9C26.2043 33.3627 24.5969 33.3619 23.0976 32.9098C22.5726 32.7515 21.9869 32.9709 21.7644 33.4721Z" fill="url(#paint2_linear_10_731)"/>
<defs>
<linearGradient id="paint0_linear_10_731" x1="5.39063" y1="25.9312" x2="45.3906" y2="25.9312" gradientUnits="userSpaceOnUse">
<stop stop-color="#00469F"/>
<stop offset="1" stop-color="#1E79D6"/>
</linearGradient>
<linearGradient id="paint1_linear_10_731" x1="15.4615" y1="25.5731" x2="35.3196" y2="25.5731" gradientUnits="userSpaceOnUse">
<stop stop-color="#00469F"/>
<stop offset="1" stop-color="#1E79D6"/>
</linearGradient>
<linearGradient id="paint2_linear_10_731" x1="15.4615" y1="25.5731" x2="35.3196" y2="25.5731" gradientUnits="userSpaceOnUse">
<stop stop-color="#00469F"/>
<stop offset="1" stop-color="#1E79D6"/>
</linearGradient>
</defs>
</svg>
