<svg width="29" height="28" viewBox="0 0 29 28" fill="none" xmlns="http://www.w3.org/2000/svg">
<path d="M22 13.9998C22.0042 18.4578 20.9851 22.8738 19 26.9998" stroke="url(#paint0_linear_15_295)" stroke-width="2" stroke-linecap="round" stroke-linejoin="round"/>
<path d="M20 10.1778C19.109 9.19187 17.9359 8.49673 16.6362 8.18443C15.3364 7.87213 13.9713 7.95741 12.7217 8.42898C11.4721 8.90055 10.397 9.73615 9.63868 10.8251C8.88038 11.9141 8.47473 13.205 8.47544 14.5269C8.48363 17.8418 7.63132 21.1033 6 23.9998" stroke="url(#paint1_linear_15_295)" stroke-width="2" stroke-linecap="round" stroke-linejoin="round"/>
<path d="M11 1.75605C12.3638 1.25173 13.8018 0.995866 15.25 0.999801C18.6315 0.999801 21.8745 2.39051 24.2656 4.86598C26.6567 7.34146 28 10.6989 28 14.1998C27.9986 17.16 27.6824 20.1111 27.057 22.9998" stroke="url(#paint2_linear_15_295)" stroke-width="2" stroke-linecap="round" stroke-linejoin="round"/>
<path d="M1 19.9998C1.70726 18.1992 2.0719 16.2409 2.0688 14.2598C2.06741 12.3225 2.41697 10.4068 3.0945 8.63845C3.77204 6.87014 4.76222 5.28929 6 3.99976" stroke="url(#paint3_linear_15_295)" stroke-width="2" stroke-linecap="round" stroke-linejoin="round"/>
<path d="M13 24.9998C12.697 25.6767 12.3636 26.3536 12 26.9998" stroke="url(#paint4_linear_15_295)" stroke-width="2" stroke-linecap="round" stroke-linejoin="round"/>
<path d="M15 13.9998C15.0041 16.3615 14.668 18.714 14 20.9998" stroke="url(#paint5_linear_15_295)" stroke-width="2" stroke-linecap="round" stroke-linejoin="round"/>
<defs>
<linearGradient id="paint0_linear_15_295" x1="19" y1="20.6754" x2="22" y2="20.6754" gradientUnits="userSpaceOnUse">
<stop stop-color="#00469F"/>
<stop offset="1" stop-color="#1E79D6"/>
</linearGradient>
<linearGradient id="paint1_linear_15_295" x1="6" y1="16.216" x2="20" y2="16.216" gradientUnits="userSpaceOnUse">
<stop stop-color="#00469F"/>
<stop offset="1" stop-color="#1E79D6"/>
</linearGradient>
<linearGradient id="paint2_linear_15_295" x1="11" y1="12.2971" x2="28" y2="12.2971" gradientUnits="userSpaceOnUse">
<stop stop-color="#00469F"/>
<stop offset="1" stop-color="#1E79D6"/>
</linearGradient>
<linearGradient id="paint3_linear_15_295" x1="1" y1="12.216" x2="6" y2="12.216" gradientUnits="userSpaceOnUse">
<stop stop-color="#00469F"/>
<stop offset="1" stop-color="#1E79D6"/>
</linearGradient>
<linearGradient id="paint4_linear_15_295" x1="12" y1="26.0268" x2="13" y2="26.0268" gradientUnits="userSpaceOnUse">
<stop stop-color="#00469F"/>
<stop offset="1" stop-color="#1E79D6"/>
</linearGradient>
<linearGradient id="paint5_linear_15_295" x1="14" y1="17.5944" x2="15" y2="17.5944" gradientUnits="userSpaceOnUse">
<stop stop-color="#00469F"/>
<stop offset="1" stop-color="#1E79D6"/>
</linearGradient>
</defs>
</svg>
