<svg width="32" height="23" viewBox="0 0 32 23" fill="none" xmlns="http://www.w3.org/2000/svg">
<path d="M9.57143 11.4998C9.57143 9.42306 10.1998 7.39299 11.3771 5.66627C12.5544 3.93956 14.2278 2.59375 16.1855 1.79903C18.1433 1.00431 20.2976 0.79637 22.376 1.20152C24.4543 1.60666 26.3634 2.60669 27.8619 4.07514C29.3603 5.54359 30.3807 7.41451 30.7941 9.45131C31.2075 11.4881 30.9954 13.5993 30.1844 15.5179C29.3735 17.4366 28.0002 19.0764 26.2382 20.2302C24.4763 21.3839 22.4048 21.9998 20.2857 21.9998H8.5C6.51087 21.9998 4.60322 21.2254 3.1967 19.847C1.79018 18.4686 1 16.5991 1 14.6498C1 12.7004 1.79018 10.8309 3.1967 9.45253C4.60322 8.07413 6.51087 7.29976 8.5 7.29976C9.12749 7.29953 9.75266 7.37446 10.3616 7.52288" stroke="url(#paint0_linear_12_82)" stroke-width="2" stroke-linecap="round" stroke-linejoin="round"/>
<defs>
<linearGradient id="paint0_linear_12_82" x1="1" y1="11.7835" x2="31" y2="11.7835" gradientUnits="userSpaceOnUse">
<stop stop-color="#00469F"/>
<stop offset="1" stop-color="#1E79D6"/>
</linearGradient>
</defs>
</svg>
