<svg width="36" height="32" viewBox="0 0 36 32" fill="none" xmlns="http://www.w3.org/2000/svg">
<path d="M31 16.4799L17.1471 30.3328C16.7133 30.7602 16.1288 30.9998 15.5199 30.9998C14.9109 30.9998 14.3264 30.7602 13.8927 30.3328L1.66698 18.1071C1.23958 17.6733 1 17.0888 1 16.4799C1 15.8709 1.23958 15.2864 1.66698 14.8527L15.5199 0.999756L31 16.4799Z" stroke="url(#paint0_linear_15_293)" stroke-width="2" stroke-linecap="round" stroke-linejoin="round"/>
<path d="M17.5 17.9998C18.8807 17.9998 20 16.8805 20 15.4998C20 14.119 18.8807 12.9998 17.5 12.9998C16.1193 12.9998 15 14.119 15 15.4998C15 16.8805 16.1193 17.9998 17.5 17.9998Z" stroke="url(#paint1_linear_15_293)" stroke-width="2" stroke-linecap="round" stroke-linejoin="round"/>
<path d="M29 27.9998C29 24.9998 32 21.9998 32 21.9998C32 21.9998 35 24.9998 35 27.9998C35 28.7954 34.6839 29.5585 34.1213 30.1211C33.5587 30.6837 32.7956 30.9998 32 30.9998C31.2044 30.9998 30.4413 30.6837 29.8787 30.1211C29.3161 29.5585 29 28.7954 29 27.9998V27.9998Z" stroke="url(#paint2_linear_15_293)" stroke-width="2" stroke-linecap="round" stroke-linejoin="round"/>
<path d="M15 12.9998L4 2.99976" stroke="url(#paint3_linear_15_293)" stroke-width="2" stroke-linecap="round" stroke-linejoin="round"/>
<defs>
<linearGradient id="paint0_linear_15_293" x1="1" y1="16.4052" x2="31" y2="16.4052" gradientUnits="userSpaceOnUse">
<stop stop-color="#00469F"/>
<stop offset="1" stop-color="#1E79D6"/>
</linearGradient>
<linearGradient id="paint1_linear_15_293" x1="15" y1="15.5673" x2="20" y2="15.5673" gradientUnits="userSpaceOnUse">
<stop stop-color="#00469F"/>
<stop offset="1" stop-color="#1E79D6"/>
</linearGradient>
<linearGradient id="paint2_linear_15_293" x1="29" y1="26.6214" x2="35" y2="26.6214" gradientUnits="userSpaceOnUse">
<stop stop-color="#00469F"/>
<stop offset="1" stop-color="#1E79D6"/>
</linearGradient>
<linearGradient id="paint3_linear_15_293" x1="4" y1="8.13489" x2="15" y2="8.13489" gradientUnits="userSpaceOnUse">
<stop stop-color="#00469F"/>
<stop offset="1" stop-color="#1E79D6"/>
</linearGradient>
</defs>
</svg>
