<svg width="66" height="66" viewBox="0 0 66 66" fill="none" xmlns="http://www.w3.org/2000/svg">
<rect x="0.5" y="0.5" width="65" height="65" rx="8" fill="url(#paint0_linear_10_491)"/>
<path d="M49.1662 42.9062C49.3083 42.5058 49.2656 43.2617 49.2656 31.9219C49.2656 30.9656 48.4875 30.1875 47.5312 30.1875C47.0242 30.1875 43.8454 30.1875 43.3849 30.1875C43.527 29.787 43.4844 30.5429 43.4844 19.2031C43.4844 18.2468 42.7063 17.4688 41.75 17.4688C38.7988 17.4688 35.416 17.4688 32.5 17.4688C31.5437 17.4688 30.7656 18.2468 30.7656 19.2031C30.7656 30.5445 30.7233 29.7878 30.8651 30.1875C30.4026 30.1875 27.2314 30.1875 26.7188 30.1875C25.7625 30.1875 24.9844 30.9656 24.9844 31.9219C24.9844 43.2632 24.942 42.5065 25.0838 42.9062H23.25V17.4688C23.25 15.556 21.6939 14 19.7812 14H15.7344C14.778 14 14 14.7781 14 15.7344C14 16.6907 14.778 17.4688 15.7344 17.4688H19.3477C19.5868 17.4688 19.7812 17.6632 19.7812 17.9023V45.7969C19.7812 46.7532 20.5593 47.5312 21.5156 47.5312H23.292C23.5735 49.4898 25.2618 51 27.2969 51C29.3319 51 31.0204 49.4898 31.3018 47.5312H39.4794C39.7609 49.4898 41.4492 51 43.4843 51C45.5194 51 47.2078 49.4898 47.4892 47.5312H49.2656C50.222 47.5312 51 46.7532 51 45.7969V44.6406C51 43.762 50.3328 42.9062 49.1662 42.9062ZM48.1094 31.9219V42.3281C48.1094 42.6469 47.85 42.9062 47.5312 42.9062H38.2812C37.9625 42.9062 37.7031 42.6469 37.7031 42.3281V31.9219C37.7031 31.6031 37.9625 31.3438 38.2812 31.3438H40.5938V34.2344C40.5938 34.5536 40.8526 34.8125 41.1719 34.8125H44.6406C44.9599 34.8125 45.2188 34.5536 45.2188 34.2344V31.3438H47.5312C47.85 31.3438 48.1094 31.6031 48.1094 31.9219ZM39.4795 46.375H31.3018C31.1724 45.475 30.746 44.67 30.1252 44.0625H40.656C40.0352 44.67 39.6088 45.475 39.4795 46.375ZM44.0625 33.6562H41.75V31.3438H44.0625V33.6562ZM38.2812 18.625V20.9375H35.9688V18.625H38.2812ZM31.9219 29.6094V19.2031C31.9219 18.8844 32.1812 18.625 32.5 18.625H34.8125V21.5156C34.8125 21.8349 35.0714 22.0938 35.3906 22.0938H38.8594C39.1786 22.0938 39.4375 21.8349 39.4375 21.5156V18.625H41.75C42.0688 18.625 42.3281 18.8844 42.3281 19.2031V29.6094C42.3281 29.9281 42.0688 30.1875 41.75 30.1875C37.194 30.1875 35.1832 30.1875 32.5 30.1875C32.1812 30.1875 31.9219 29.9281 31.9219 29.6094ZM32.5 31.3438V33.6562H30.1875V31.3438H32.5ZM26.1406 42.3281V31.9219C26.1406 31.6031 26.4 31.3438 26.7188 31.3438H29.0312V34.2344C29.0312 34.5536 29.2901 34.8125 29.6094 34.8125H33.0781C33.3974 34.8125 33.6562 34.5536 33.6562 34.2344V31.3438H35.9688C36.2875 31.3438 36.5469 31.6031 36.5469 31.9219V42.3281C36.5469 42.6469 36.2875 42.9062 35.9688 42.9062H26.7188C26.4 42.9062 26.1406 42.6469 26.1406 42.3281ZM20.9375 21.5156H22.0938V42.9062H20.9375V21.5156ZM19.3477 16.3125H15.7344C15.4156 16.3125 15.1562 16.0531 15.1562 15.7344C15.1562 15.4156 15.4156 15.1562 15.7344 15.1562H19.7812C21.0564 15.1562 22.0938 16.1936 22.0938 17.4688V20.3594H20.9375V17.9023C20.9375 17.0257 20.2243 16.3125 19.3477 16.3125ZM20.9375 45.7969V44.0625H24.4685C23.8477 44.67 23.4213 45.475 23.292 46.375H21.5156C21.1969 46.375 20.9375 46.1156 20.9375 45.7969ZM27.2969 49.8438C25.703 49.8438 24.4062 48.547 24.4062 46.9531C24.4062 45.3592 25.703 44.0625 27.2969 44.0625C28.8908 44.0625 30.1875 45.3592 30.1875 46.9531C30.1875 48.547 28.8908 49.8438 27.2969 49.8438ZM43.4844 49.8438C41.8905 49.8438 40.5938 48.547 40.5938 46.9531C40.5938 45.3592 41.8905 44.0625 43.4844 44.0625C45.0783 44.0625 46.375 45.3592 46.375 46.9531C46.375 48.547 45.0783 49.8438 43.4844 49.8438ZM49.8438 45.7969C49.8438 46.1156 49.5844 46.375 49.2656 46.375H47.4893C47.3599 45.475 46.9335 44.67 46.3127 44.0625H49.2656C49.5844 44.0625 49.8438 44.3219 49.8438 44.6406V45.7969Z" fill="white"/>
<defs>
<linearGradient id="paint0_linear_10_491" x1="0.5" y1="33.8784" x2="65.5" y2="33.8784" gradientUnits="userSpaceOnUse">
<stop stop-color="#00469F"/>
<stop offset="1" stop-color="#1E79D6"/>
</linearGradient>
</defs>
</svg>
