<svg width="88" height="89" viewBox="0 0 88 89" fill="none" xmlns="http://www.w3.org/2000/svg">
<rect y="0.607422" width="88" height="88" rx="8" fill="#393E50" fill-opacity="0.1"/>
<g opacity="0.8">
<path fill-rule="evenodd" clip-rule="evenodd" d="M19.8748 19.6989C19.0724 19.9431 18.2751 20.6527 18.0598 21.3714C17.9703 21.6699 18.0078 26.4604 18.0078 40.0322C18.0078 56.2098 18.026 58.355 18.1666 58.6915C18.4197 59.2972 18.773 59.6891 19.3484 60.0022C19.8185 60.2581 20.0288 60.3007 21.0729 60.3522L22.262 60.4107L22.263 61.407C22.2638 62.2341 22.3054 62.4923 22.5083 62.9278C23.0772 64.1499 24.7182 64.3258 26.066 64.3473C28.2449 64.382 32.2624 64.426 38.6163 64.4255L52.2425 64.4245C52.6225 64.4245 52.998 64.3414 53.3425 64.181C54.2256 63.7698 54.6963 63.0482 54.8248 61.9084L54.8947 61.2897L55.621 61.1049C56.7025 60.8296 57.6546 60.4187 58.63 59.8063L59.5024 59.2587L59.9385 59.8241L60.3747 60.3894L60.1249 60.5598C59.0905 61.2654 58.8816 62.0322 59.4953 62.8702C60.8934 64.7792 64.5642 69.3351 64.8044 69.4593C65.1756 69.6512 65.6021 69.6569 65.9512 69.4748C66.4808 69.1984 69.0927 67.0722 69.28 66.7651C69.5198 66.372 69.5277 65.7982 69.2981 65.4614C68.5238 64.3255 64.0364 58.7344 63.8199 58.6357C63.2515 58.3767 62.582 58.5596 61.9399 59.1493C61.7224 59.3489 61.7209 59.3482 61.3247 58.8531C61.1063 58.58 60.8834 58.298 60.8294 58.2266C60.7607 58.1356 60.8532 57.9642 61.1386 57.6547C62.4468 56.2355 63.4022 54.1713 63.7193 52.0791C63.9083 50.8322 63.9076 50.1063 63.7162 48.8363C63.0618 44.4949 59.8396 40.9069 55.6366 39.8398L54.8947 39.6514L54.8428 32.6617L54.795 26.221C54.7923 25.8597 54.708 25.5036 54.5483 25.1794C54.2574 24.5885 53.6441 24.0378 53.0936 23.8729C52.8725 23.8066 52.2254 23.7524 51.6557 23.7524H50.366V22.585C50.366 21.4651 50.4806 21.4381 50.216 20.9519C50.0602 20.6655 49.7774 20.3129 49.5878 20.1682C48.8063 19.5721 49.6071 19.6013 34.2592 19.6109C26.4908 19.6158 20.0178 19.6554 19.8748 19.6989ZM48.4022 21.414C48.7886 21.6138 48.8247 21.7344 48.8247 22.8271V23.7524H36.5257C26.3253 23.7524 24.1685 23.7768 23.8853 23.8951C23.3476 24.1197 22.7695 24.6902 22.5059 25.2562C22.3466 25.5984 22.264 25.9713 22.264 26.3488L22.263 42.1959L22.262 58.616H21.2359C20.3802 58.616 20.169 58.5831 19.9648 58.4176C19.8098 58.2921 19.7197 58.1035 19.7194 57.9041L19.6931 40.0449L19.6668 22.3007C19.6664 22.0253 19.7756 21.761 19.9704 21.5663C20.1651 21.3716 20.4292 21.2622 20.7046 21.2622H34.1916C46.2031 21.2622 48.1489 21.2829 48.4022 21.414ZM52.8054 25.6277C52.9781 25.7634 53.0789 25.9709 53.0789 26.1905V32.6232V39.4038L52.3785 39.4689C51.1646 39.5818 50.2502 39.75 49.4717 40.0037C48.6938 40.2571 47.4246 40.8557 46.941 41.1973C46.6865 41.3769 46.429 41.3917 43.5567 41.3917C40.5689 41.3917 40.4374 41.4001 40.1747 41.6068C39.8075 41.8956 39.799 42.4401 40.156 42.7971C40.4098 43.0511 40.4173 43.0519 42.5444 43.0519H44.678L44.1036 43.8041C43.7876 44.2179 43.3177 44.965 43.0592 45.4643L42.5893 46.3722H34.856H27.1227L26.8194 46.6755C26.4904 47.0045 26.4503 47.196 26.6368 47.5464C26.8999 48.0402 26.6603 48.0256 34.5957 48.0291L42.1044 48.0324L42.0379 48.3177C42.0013 48.4746 41.9425 49.2217 41.9074 49.9779L41.8432 51.3527H34.483H27.1227L26.8194 51.656C26.6526 51.8229 26.5161 52.0353 26.5161 52.1281C26.5161 52.3845 26.7986 52.8758 26.9877 52.9485C27.0801 52.9838 30.5301 53.0129 34.6544 53.0129H42.1532L42.338 53.6955C42.4397 54.071 42.7434 54.8181 43.013 55.3557L43.5032 56.3332H35.3268H27.1503L26.8644 56.5791C26.4861 56.9045 26.4631 57.5117 26.8182 57.7993C27.0482 57.9855 27.4162 57.9934 35.93 57.9934H44.8022L45.4191 58.5646C47.3001 60.3061 49.9019 61.3887 52.3164 61.4345L53.0789 61.449V61.8926C53.0789 62.2483 53.0247 62.3789 52.8054 62.5513C52.6283 62.6906 52.4095 62.7664 52.1842 62.7664H38.5304H24.9576C24.683 62.7664 24.4196 62.6573 24.2254 62.4631C24.0312 62.2689 23.9221 62.0055 23.9221 61.7309V44.0895V26.4481C23.9221 26.1735 24.0312 25.9101 24.2254 25.7159C24.4196 25.5217 24.683 25.4126 24.9576 25.4126H38.5304H52.1842C52.4095 25.4126 52.6283 25.4883 52.8054 25.6277ZM27.776 31.2397C27.2611 31.4945 26.7736 32.105 26.6151 32.6934C26.5464 32.9487 26.5183 34.6102 26.5376 37.2771L26.568 41.4603L26.8809 41.9661C27.1086 42.3343 27.3449 42.5509 27.7488 42.762L28.3037 43.0519H32.1862C35.4616 43.0519 36.1291 43.0267 36.4545 42.8907C36.941 42.6876 37.3733 42.2802 37.6281 41.785C37.8136 41.4242 37.826 41.1266 37.826 37.0447C37.826 34.6007 37.7836 32.5776 37.7292 32.4347C37.5716 32.0203 36.9765 31.412 36.53 31.2092C36.1512 31.0371 35.7606 31.02 32.1711 31.018C28.339 31.0159 28.2154 31.0221 27.776 31.2397ZM40.1268 31.6708C39.9046 31.9075 39.8395 32.2905 39.9657 32.6193C40.1392 33.0715 40.3628 33.0909 45.4034 33.0909H49.7606C50.0353 33.0909 50.2986 32.9818 50.4928 32.7876C50.8508 32.4295 50.879 32.0829 50.581 31.7041C50.4453 31.5315 50.2378 31.4307 50.0182 31.4307H45.3593H40.682C40.4718 31.4307 40.2708 31.5176 40.1268 31.6708ZM36.0029 32.8388C36.1454 32.9815 36.1659 33.5044 36.1659 37.0071C36.1659 40.5883 36.1477 41.0323 35.9942 41.2019C35.8342 41.3787 35.5792 41.3917 32.2519 41.3917C29.9891 41.3917 28.608 41.3524 28.4808 41.2843C28.2875 41.1809 28.2801 41.0238 28.2801 37.0353C28.2801 33.2003 28.2936 32.8858 28.4617 32.7879C28.5752 32.7218 29.9911 32.6809 32.2416 32.6789C35.3771 32.6762 35.8607 32.6968 36.0029 32.8388ZM40.1268 36.6513C39.8175 36.9806 39.8303 37.491 40.156 37.8166C40.319 37.9797 40.5402 38.0714 40.7708 38.0714H45.3H49.7606C50.0353 38.0714 50.2986 37.9623 50.4928 37.7681C50.8671 37.3938 50.8841 37.0086 50.5414 36.6659C50.3784 36.5028 50.1572 36.4112 49.9266 36.4112H45.3196H40.682C40.4718 36.4112 40.2708 36.4981 40.1268 36.6513ZM54.7174 41.349C57.5146 41.9254 59.9063 43.7603 61.1976 46.3203C62.1328 48.1745 62.3933 50.768 61.8514 52.828C61.113 55.6349 59.0352 58.0067 56.3689 59.0863C53.4065 60.2858 50.0245 59.8904 47.414 58.0393C46.582 57.4493 45.3896 56.1625 44.8799 55.3047C43.0201 52.1741 43.1079 48.265 45.1052 45.2788C45.6919 44.4017 47.0916 43.0451 47.9201 42.5506C48.7795 42.0377 50.0266 41.5284 50.848 41.3547C51.8324 41.1465 53.7215 41.1438 54.7174 41.349ZM50.9386 43.2572C48.5265 43.8896 46.5432 45.7701 45.7407 48.1859C45.494 48.9284 45.4642 49.1747 45.4642 50.4708C45.4642 51.7668 45.494 52.0132 45.7407 52.7557C46.7809 55.8868 49.5743 57.8896 52.9011 57.8896C57.9226 57.8896 61.5068 52.8761 59.9111 48.0843C59.5401 46.9703 59.0172 46.1669 58.0182 45.176C56.949 44.1154 56.0814 43.616 54.6905 43.2602C53.6208 42.9867 51.9755 42.9854 50.9386 43.2572ZM54.2095 44.8715C56.0514 45.3058 57.5685 46.6631 58.2643 48.4993C58.5561 49.2691 58.6601 50.8211 58.4788 51.695C58.0464 53.7775 56.2595 55.587 54.1424 56.0864C53.2578 56.2951 51.8189 56.2248 50.9827 55.9323C47.6625 54.7706 46.1459 51.0323 47.7031 47.8476C48.367 46.4897 49.8778 45.2814 51.4187 44.8759C52.1686 44.6785 53.3827 44.6767 54.2095 44.8715ZM52.2231 46.0507C51.5053 46.2007 51.1771 46.7387 51.4645 47.2943C51.6648 47.6817 51.7889 47.7211 52.8075 47.7211C53.5175 47.7211 53.7512 47.7662 54.2 47.9898C54.8626 48.32 55.2748 48.8045 55.561 49.5893C55.8184 50.2954 55.9871 50.4604 56.4511 50.4604C57.4722 50.4604 57.5373 49.3469 56.5985 47.9411C55.6801 46.5658 53.7495 45.7316 52.2231 46.0507ZM65.4155 63.1773C66.6199 64.7158 67.6027 66.0115 67.5995 66.0566C67.5898 66.1944 65.5148 67.7497 65.4194 67.6908C65.3703 67.6604 64.5023 66.575 63.4904 65.2789C62.4784 63.9826 61.4941 62.7279 61.303 62.4907L60.9555 62.0594L62.0218 61.2196C62.6083 60.7578 63.119 60.3799 63.1569 60.3799C63.1947 60.3799 64.211 61.6387 65.4155 63.1773Z" fill="#393E50"/>
</g>
</svg>
