<svg width="88" height="88" viewBox="0 0 88 88" fill="none" xmlns="http://www.w3.org/2000/svg">
<rect width="88" height="88" rx="8" fill="#393E50" fill-opacity="0.1"/>
<path d="M13.1992 30.7998H37.3992" stroke="#393E50" stroke-opacity="0.8" stroke-width="2" stroke-linecap="round" stroke-linejoin="round"/>
<path d="M50.5996 30.7998H74.7996" stroke="#393E50" stroke-opacity="0.8" stroke-width="2" stroke-linecap="round" stroke-linejoin="round"/>
<path d="M44.0004 37.4002C47.6455 37.4002 50.6004 34.4453 50.6004 30.8002C50.6004 27.1551 47.6455 24.2002 44.0004 24.2002C40.3553 24.2002 37.4004 27.1551 37.4004 30.8002C37.4004 34.4453 40.3553 37.4002 44.0004 37.4002Z" stroke="#393E50" stroke-opacity="0.8" stroke-width="2" stroke-linecap="round" stroke-linejoin="round"/>
<path d="M19.7992 63.8001C23.4443 63.8001 26.3992 60.8452 26.3992 57.2001C26.3992 53.555 23.4443 50.6001 19.7992 50.6001C16.1541 50.6001 13.1992 53.555 13.1992 57.2001C13.1992 60.8452 16.1541 63.8001 19.7992 63.8001Z" stroke="#393E50" stroke-opacity="0.8" stroke-width="2" stroke-linecap="round" stroke-linejoin="round"/>
<path d="M68.1996 63.8001C71.8447 63.8001 74.7996 60.8452 74.7996 57.2001C74.7996 53.555 71.8447 50.6001 68.1996 50.6001C64.5545 50.6001 61.5996 53.555 61.5996 57.2001C61.5996 60.8452 64.5545 63.8001 68.1996 63.8001Z" stroke="#393E50" stroke-opacity="0.8" stroke-width="2" stroke-linecap="round" stroke-linejoin="round"/>
<path d="M50.5996 30.7998C55.0382 32.0813 59.0393 34.6151 62.1498 38.1144C65.2603 41.6138 67.356 45.9388 68.1996 50.5998" stroke="#393E50" stroke-opacity="0.8" stroke-width="2" stroke-linecap="round" stroke-linejoin="round"/>
<path d="M19.8008 50.5998C20.6444 45.9388 22.7401 41.6138 25.8506 38.1144C28.9611 34.6151 32.9622 32.0813 37.4008 30.7998" stroke="#393E50" stroke-opacity="0.8" stroke-width="2" stroke-linecap="round" stroke-linejoin="round"/>
</svg>
