<svg width="88" height="88" viewBox="0 0 88 88" fill="none" xmlns="http://www.w3.org/2000/svg">
<rect width="88" height="88" rx="8" fill="url(#paint0_linear_2414_13474)"/>
<path fill-rule="evenodd" clip-rule="evenodd" d="M22.6874 22.0823C21.9651 22.3021 21.2476 22.9408 21.0538 23.5875C20.9733 23.8562 21.007 28.1676 21.007 40.3823C21.007 54.9421 21.0234 56.8728 21.15 57.1757C21.3777 57.7208 21.6957 58.0735 22.2135 58.3553C22.6367 58.5856 22.8259 58.624 23.7656 58.6703L24.8358 58.723L24.8367 59.6196C24.8374 60.364 24.8749 60.5963 25.0575 60.9884C25.5695 62.0882 27.0464 62.2465 28.2594 62.2659C30.2204 62.2971 33.8362 62.3367 39.5547 62.3363L51.8182 62.3354C52.1603 62.3354 52.4982 62.2605 52.8083 62.1162C53.6031 61.7461 54.0266 61.0967 54.1423 60.0709L54.2052 59.514L54.8589 59.3477C55.8322 59.1 56.6891 58.7301 57.567 58.179L58.3521 57.6861L58.7446 58.195L59.1372 58.7038L58.9124 58.8572C57.9815 59.4922 57.7934 60.1823 58.3458 60.9365C59.604 62.6546 62.9078 66.7549 63.124 66.8666C63.458 67.0394 63.8419 67.0446 64.1561 66.8807C64.6327 66.6319 66.9835 64.7183 67.152 64.4419C67.3678 64.0881 67.3749 63.5717 67.1683 63.2685C66.4714 62.2463 62.4327 57.2142 62.2379 57.1254C61.7264 56.8923 61.1238 57.057 60.5459 57.5877C60.3502 57.7674 60.3488 57.7667 59.9922 57.3211C59.7957 57.0753 59.5951 56.8216 59.5464 56.7572C59.4846 56.6753 59.5679 56.5211 59.8247 56.2426C61.0021 54.9653 61.862 53.1075 62.1474 51.2245C62.3175 50.1023 62.3169 49.4489 62.1446 48.306C61.5556 44.3987 58.6556 41.1696 54.8729 40.2091L54.2052 40.0396L54.1585 33.7489L54.1155 27.9522C54.1131 27.627 54.0372 27.3066 53.8935 27.0148C53.6316 26.483 53.0797 25.9873 52.5842 25.8389C52.3852 25.7792 51.8029 25.7305 51.2901 25.7305H50.1294V24.6798C50.1294 23.6719 50.2325 23.6477 49.9944 23.21C49.8541 22.9523 49.5997 22.6349 49.429 22.5047C48.7257 21.9682 49.4464 21.9945 35.6333 22.0031C28.6417 22.0075 22.816 22.0432 22.6874 22.0823ZM48.3619 23.6259C48.7097 23.8057 48.7422 23.9143 48.7422 24.8977V25.7305H37.6731C28.4928 25.7305 26.5516 25.7524 26.2968 25.8589C25.8128 26.0611 25.2925 26.5745 25.0553 27.0839C24.9119 27.3919 24.8376 27.7275 24.8376 28.0673L24.8367 42.3296L24.8358 57.1077H23.9123C23.1421 57.1077 22.9521 57.0781 22.7683 56.9291C22.6288 56.8162 22.5477 56.6465 22.5474 56.467L22.5238 40.3937L22.5001 24.424C22.4998 24.1761 22.5981 23.9383 22.7734 23.763C22.9486 23.5877 23.1863 23.4893 23.4342 23.4893H35.5725C46.3827 23.4893 48.134 23.5079 48.3619 23.6259ZM52.3249 27.4182C52.4803 27.5404 52.571 27.7271 52.571 27.9248V33.7142V39.8167L51.9406 39.8754C50.8481 39.977 50.0252 40.1283 49.3245 40.3567C48.6244 40.5847 47.4822 41.1234 47.0469 41.4309C46.8178 41.5925 46.5861 41.6059 44.0011 41.6059C41.312 41.6059 41.1937 41.6134 40.9572 41.7994C40.6267 42.0593 40.6191 42.5494 40.9404 42.8708C41.1688 43.0993 41.1755 43.1 43.0899 43.1H45.0102L44.4932 43.7771C44.2089 44.1495 43.7859 44.8218 43.5533 45.2712L43.1304 46.0883H36.1704H29.2105L28.9375 46.3613C28.6414 46.6574 28.6052 46.8297 28.7731 47.1451C29.0099 47.5895 28.7942 47.5764 35.9361 47.5795L42.694 47.5825L42.6341 47.8393C42.6011 47.9805 42.5483 48.6528 42.5166 49.3334L42.4589 50.5708H35.8347H29.2105L28.9375 50.8437C28.7873 50.9939 28.6645 51.1851 28.6645 51.2686C28.6645 51.4994 28.9187 51.9416 29.089 52.0069C29.1721 52.0388 32.2771 52.0649 35.989 52.0649H42.7379L42.9042 52.6793C42.9957 53.0173 43.269 53.6896 43.5117 54.1735L43.9529 55.0532H36.5941H29.2353L28.9779 55.2746C28.6375 55.5674 28.6168 56.1139 28.9364 56.3727C29.1434 56.5403 29.4746 56.5474 37.137 56.5474H45.122L45.6772 57.0615C47.3701 58.6288 49.7117 59.6031 51.8848 59.6444L52.571 59.6575V60.0567C52.571 60.3768 52.5222 60.4944 52.3249 60.6495C52.1655 60.7749 51.9686 60.8431 51.7657 60.8431H39.4773H27.2619C27.0147 60.8431 26.7777 60.7449 26.6029 60.5701C26.4281 60.3953 26.3299 60.1583 26.3299 59.9111V44.0339V28.1566C26.3299 27.9094 26.4281 27.6724 26.6029 27.4976C26.7777 27.3228 27.0147 27.2246 27.2619 27.2246H39.4773H51.7657C51.9686 27.2246 52.1655 27.2928 52.3249 27.4182ZM29.7984 32.469C29.335 32.6984 28.8962 33.2479 28.7536 33.7773C28.6918 34.0072 28.6665 35.5025 28.6839 37.9027L28.7112 41.6676L28.9928 42.1228C29.1978 42.4542 29.4104 42.6492 29.7739 42.8391L30.2734 43.1H33.7676C36.7154 43.1 37.3162 43.0773 37.6091 42.955C38.0469 42.7721 38.436 42.4055 38.6653 41.9598C38.8322 41.6351 38.8434 41.3673 38.8434 37.6935C38.8434 35.4939 38.8052 33.6731 38.7563 33.5445C38.6145 33.1716 38.0788 32.6241 37.677 32.4416C37.3361 32.2867 36.9845 32.2713 33.754 32.2696C30.3051 32.2676 30.1939 32.2732 29.7984 32.469ZM40.9142 32.857C40.7141 33.07 40.6556 33.4147 40.7691 33.7107C40.9253 34.1176 41.1265 34.1351 45.663 34.1351H49.5846C49.8317 34.1351 50.0688 34.0369 50.2435 33.8621C50.5657 33.5399 50.5911 33.228 50.3229 32.887C50.2008 32.7317 50.014 32.6409 49.8164 32.6409H45.6233H41.4138C41.2246 32.6409 41.0438 32.7191 40.9142 32.857ZM37.2026 33.9083C37.3309 34.0367 37.3493 34.5072 37.3493 37.6597C37.3493 40.8828 37.3329 41.2824 37.1947 41.4351C37.0507 41.5942 36.8213 41.6059 33.8267 41.6059C31.7902 41.6059 30.5472 41.5705 30.4327 41.5092C30.2588 41.4161 30.2521 41.2747 30.2521 37.6851C30.2521 34.2336 30.2642 33.9506 30.4155 33.8624C30.5177 33.8029 31.792 33.7661 33.8174 33.7644C36.6394 33.7619 37.0746 33.7804 37.2026 33.9083ZM40.9142 37.3395C40.6358 37.6359 40.6473 38.0953 40.9404 38.3883C41.0871 38.5351 41.2862 38.6176 41.4937 38.6176H45.57H49.5846C49.8317 38.6176 50.0688 38.5194 50.2435 38.3446C50.5804 38.0078 50.5957 37.661 50.2873 37.3527C50.1405 37.2059 49.9415 37.1234 49.7339 37.1234H45.5877H41.4138C41.2246 37.1234 41.0438 37.2016 40.9142 37.3395ZM54.0457 41.5674C56.5632 42.0861 58.7157 43.7375 59.8778 46.0416C60.7195 47.7104 60.954 50.0446 60.4663 51.8985C59.8017 54.4248 57.9317 56.5593 55.532 57.531C52.8659 58.6105 49.822 58.2546 47.4726 56.5887C46.7238 56.0577 45.6506 54.8996 45.1919 54.1275C43.5181 51.31 43.5971 47.7918 45.3946 45.1042C45.9227 44.3149 47.1824 43.0939 47.9281 42.6489C48.7016 42.1873 49.824 41.7288 50.5632 41.5725C51.4491 41.3852 53.1494 41.3828 54.0457 41.5674ZM50.6447 43.2848C48.4738 43.854 46.6889 45.5464 45.9666 47.7206C45.7446 48.3888 45.7178 48.6105 45.7178 49.777C45.7178 50.9435 45.7446 51.1652 45.9666 51.8334C46.9028 54.6514 49.4169 56.454 52.411 56.454C56.9303 56.454 60.1561 51.9418 58.72 47.6292C58.3861 46.6266 57.9155 45.9035 57.0163 45.0117C56.0541 44.0572 55.2732 43.6077 54.0214 43.2875C53.0587 43.0414 51.5779 43.0402 50.6447 43.2848ZM53.5886 44.7377C55.2463 45.1285 56.6116 46.3501 57.2379 48.0027C57.5005 48.6955 57.5941 50.0923 57.4309 50.8788C57.0418 52.7531 55.4336 54.3816 53.5282 54.8311C52.7321 55.0189 51.437 54.9556 50.6844 54.6924C47.6962 53.6469 46.3313 50.2824 47.7328 47.4162C48.3303 46.194 49.6901 45.1066 51.0768 44.7416C51.7517 44.564 52.8444 44.5623 53.5886 44.7377ZM51.8008 45.7989C51.1548 45.934 50.8594 46.4181 51.1181 46.9182C51.2983 47.2668 51.41 47.3023 52.3268 47.3023C52.9657 47.3023 53.1761 47.3429 53.58 47.5442C54.1763 47.8413 54.5474 48.2773 54.8049 48.9837C55.0366 49.6192 55.1884 49.7677 55.606 49.7677C56.525 49.7677 56.5836 48.7656 55.7387 47.5003C54.9121 46.2626 53.1745 45.5118 51.8008 45.7989ZM63.6739 61.2129C64.7579 62.5976 65.6425 63.7637 65.6396 63.8043C65.6308 63.9283 63.7633 65.328 63.6775 65.275C63.6333 65.2476 62.852 64.2708 61.9414 63.1043C61.0306 61.9376 60.1447 60.8084 59.9727 60.5949L59.66 60.2067L60.6196 59.451C61.1475 59.0353 61.6071 58.6952 61.6412 58.6952C61.6752 58.6952 62.5899 59.8282 63.6739 61.2129Z" fill="white"/>
<defs>
<linearGradient id="paint0_linear_2414_13474" x1="0" y1="45.1892" x2="88" y2="45.1892" gradientUnits="userSpaceOnUse">
<stop stop-color="#00469F"/>
<stop offset="1" stop-color="#1E79D6"/>
</linearGradient>
</defs>
</svg>
