<svg width="88" height="88" viewBox="0 0 88 88" fill="none" xmlns="http://www.w3.org/2000/svg">
<rect width="88" height="88" rx="8" fill="#393E50" fill-opacity="0.1"/>
<path d="M38.009 45.7104C38.3301 46.3166 38.979 46.4681 39.2633 46.4681C37.2163 49.1582 38.1093 52.5144 38.8117 53.8562C39.4539 54.1972 39.7148 53.7141 39.765 53.43C38.1193 50.5505 39.5141 47.589 40.4172 46.4681H47.6921C49.699 49.0445 48.9631 52.1828 48.3443 53.43C48.4246 54.1877 49.0133 54.0299 49.2976 53.8562C50.7827 50.2948 49.5485 47.4469 48.7457 46.4681C49.5886 46.4681 49.9331 46.0893 50 45.8998V45H38.009V45.7104Z" fill="#393E50"/>
<path d="M44.5 48H40.5C40.2239 48 40 48.2239 40 48.5V55.5C40 55.7761 40.2239 56 40.5 56H47.5C47.7761 56 48 55.7761 48 55.5V48.5C48 48.2239 47.7761 48 47.5 48H46.7325C46.4633 48 46.2424 48.2131 46.2328 48.4822L46.0172 54.5178C46.0076 54.7869 45.7867 55 45.5175 55H45.5C45.2239 55 45 54.7761 45 54.5V48.5C45 48.2239 44.7761 48 44.5 48Z" fill="#393E50"/>
<path d="M34.3874 36H20.5C20.2239 36 20 36.2239 20 36.5V38.2307C20 38.4769 20.1791 38.6864 20.4223 38.7247L34.3097 40.9091C34.6131 40.9569 34.8874 40.7223 34.8874 40.4152V36.5C34.8874 36.2239 34.6636 36 34.3874 36Z" fill="#393E50"/>
<path d="M53.4834 40.4129V36.5C53.4834 36.2239 53.7073 36 53.9834 36H67.5C67.7761 36 68 36.2239 68 36.5V38.2324C68 38.4778 67.8219 38.687 67.5796 38.726L54.0631 40.9065C53.7591 40.9555 53.4834 40.7208 53.4834 40.4129Z" fill="#393E50"/>
<path d="M36 34C36 33.5286 36 33.2929 36.1464 33.1464C36.2929 33 36.5286 33 37 33H51C51.4714 33 51.7071 33 51.8536 33.1464C52 33.2929 52 33.5286 52 34V43C52 43.4714 52 43.7071 51.8536 43.8536C51.7071 44 51.4714 44 51 44H37C36.5286 44 36.2929 44 36.1464 43.8536C36 43.7071 36 43.4714 36 43V34Z" fill="#393E50"/>
<rect x="14" y="35" width="5" height="5" rx="0.5" fill="#393E50"/>
<rect x="69" y="35" width="5" height="5" rx="0.5" fill="#393E50"/>
<path d="M71 33C71 34 68.7614 34 66 34C63.2386 34 61 33.5523 61 33C61 32.4477 63.2386 32 66 32C68.7614 32 71 32.0002 71 33Z" fill="#393E50"/>
<path d="M16 33C16 34 13.7614 34 11 34C8.23858 34 6 33.5523 6 33C6 32.4477 8.23858 32 11 32C13.7614 32 16 32.0002 16 33Z" fill="#393E50"/>
<path d="M82 33C82 33.5523 79.7614 34 77 34C74.2386 34 72 34 72 33C72 32 74.2386 32 77 32C79.7614 32 82 32.4477 82 33Z" fill="#393E50"/>
<path d="M27 33C27 33.5523 24.7614 34 22 34C19.2386 34 17 34 17 33C17 32 19.2386 32 22 32C24.7614 32 27 32.4477 27 33Z" fill="#393E50"/>
<rect x="16" y="46" width="10" height="1" rx="0.5" fill="#393E50"/>
<rect x="55" y="46" width="3" height="1" rx="0.5" fill="#393E50"/>
<rect x="13" y="49" width="21" height="1" rx="0.5" fill="#393E50"/>
<rect x="53" y="49" width="21" height="1" rx="0.5" fill="#393E50"/>
<rect x="18" y="52" width="3" height="1" rx="0.5" fill="#393E50"/>
<rect x="56" y="52" width="6" height="1" rx="0.5" fill="#393E50"/>
<rect x="25" y="52" width="6" height="1" rx="0.5" fill="#393E50"/>
<rect x="66" y="52" width="2" height="1" rx="0.5" fill="#393E50"/>
<rect x="24" y="55" width="10" height="1" rx="0.5" fill="#393E50"/>
<rect x="54" y="55" width="10" height="1" rx="0.5" fill="#393E50"/>
<rect x="29" y="46" width="3" height="1" rx="0.5" fill="#393E50"/>
<rect x="60" y="46" width="11" height="1" rx="0.5" fill="#393E50"/>
</svg>
