<svg width="34" height="41" viewBox="0 0 34 41" fill="none" xmlns="http://www.w3.org/2000/svg">
<path d="M31.4 40H2.6C2.17565 40 1.76869 39.8288 1.46863 39.524C1.16857 39.2193 1 38.806 1 38.375V2.625C1 2.19402 1.16857 1.7807 1.46863 1.47595C1.76869 1.17121 2.17565 1 2.6 1H21.8L33 12.375V38.375C33 38.806 32.8314 39.2193 32.5314 39.524C32.2313 39.8288 31.8243 40 31.4 40Z" stroke="url(#paint0_linear_31_573)" stroke-width="2" stroke-linecap="round" stroke-linejoin="round"/>
<path d="M22 1V12H33" stroke="url(#paint1_linear_31_573)" stroke-width="2" stroke-linecap="round" stroke-linejoin="round"/>
<path d="M16.5 27C18.433 27 20 25.433 20 23.5C20 21.567 18.433 20 16.5 20C14.567 20 13 21.567 13 23.5C13 25.433 14.567 27 16.5 27Z" stroke="url(#paint2_linear_31_573)" stroke-linecap="round" stroke-linejoin="round"/>
<path d="M21.2156 18.1748C21.4301 18.3723 21.6333 18.5755 21.8252 18.7844L24.1365 19.1145C24.513 19.7686 24.8033 20.4686 25 21.1972L23.5946 23.0682C23.5946 23.0682 23.62 23.6439 23.5946 23.9318L25 25.8028C24.8042 26.5317 24.5139 27.2319 24.1365 27.8855L21.8252 28.2156C21.8252 28.2156 21.4273 28.6305 21.2156 28.8252L20.8855 31.1365C20.2314 31.513 19.5314 31.8033 18.8028 32L16.9318 30.5946C16.6445 30.62 16.3555 30.62 16.0682 30.5946L14.1972 32C13.4683 31.8042 12.7681 31.5139 12.1145 31.1365L11.7844 28.8252C11.5755 28.6277 11.3723 28.4245 11.1748 28.2156L8.86355 27.8855C8.48696 27.2314 8.19669 26.5314 8 25.8028L9.40538 23.9318C9.40538 23.9318 9.37998 23.3561 9.40538 23.0682L8 21.1972C8.19578 20.4683 8.48609 19.7681 8.86355 19.1145L11.1748 18.7844C11.3723 18.5755 11.5755 18.3723 11.7844 18.1748L12.1145 15.8635C12.7686 15.487 13.4686 15.1967 14.1972 15L16.0682 16.4054C16.3555 16.38 16.6445 16.38 16.9318 16.4054L18.8028 15C19.5317 15.1958 20.2319 15.4861 20.8855 15.8635L21.2156 18.1748Z" stroke="url(#paint3_linear_31_573)" stroke-linecap="round" stroke-linejoin="round"/>
<defs>
<linearGradient id="paint0_linear_31_573" x1="1" y1="21.027" x2="33" y2="21.027" gradientUnits="userSpaceOnUse">
<stop stop-color="#00469F"/>
<stop offset="1" stop-color="#1E79D6"/>
</linearGradient>
<linearGradient id="paint1_linear_31_573" x1="22" y1="6.64865" x2="33" y2="6.64865" gradientUnits="userSpaceOnUse">
<stop stop-color="#00469F"/>
<stop offset="1" stop-color="#1E79D6"/>
</linearGradient>
<linearGradient id="paint2_linear_31_573" x1="13" y1="23.5946" x2="20" y2="23.5946" gradientUnits="userSpaceOnUse">
<stop stop-color="#00469F"/>
<stop offset="1" stop-color="#1E79D6"/>
</linearGradient>
<linearGradient id="paint3_linear_31_573" x1="8" y1="23.7297" x2="25" y2="23.7297" gradientUnits="userSpaceOnUse">
<stop stop-color="#00469F"/>
<stop offset="1" stop-color="#1E79D6"/>
</linearGradient>
</defs>
</svg>
