<svg width="66" height="72" viewBox="0 0 66 72" fill="none" xmlns="http://www.w3.org/2000/svg">
<path d="M25 8.63586H32.1837C32.736 8.63586 33.1837 8.18814 33.1837 7.63586V3.72423C33.1837 0.0926713 42.9413 0.0928144 42.9413 3.72436V7.63586C42.9413 8.18814 43.389 8.63586 43.9413 8.63586H51.125C51.6773 8.63586 52.125 9.08357 52.125 9.63586V14.2006C52.125 14.7528 51.6773 15.2006 51.125 15.2006H25C24.4477 15.2006 24 14.7528 24 14.2006V9.63586C24 9.08357 24.4477 8.63586 25 8.63586Z" stroke="url(#paint0_linear_23_83)"/>
<path d="M24 11.9183H20.375C19.2704 11.9183 18.375 12.8138 18.375 13.9183V43.1007M52.125 11.9183H55.1875C56.2921 11.9183 57.1875 12.8138 57.1875 13.9183V48.8206C57.1875 49.3607 56.9691 49.8778 56.5819 50.2544L50.4572 56.2109C50.0839 56.574 49.5885 56.7771 49.0677 56.7771C46.1273 56.7771 35.7818 56.7771 28.5 56.7771" stroke="url(#paint1_linear_23_83)" stroke-width="2"/>
<path d="M33 6.44763H14.625C12.9681 6.44763 11.625 7.79078 11.625 9.44763V43.1006M42.5625 6.44763H61.5C63.1569 6.44763 64.5 7.79078 64.5 9.44763V61.4358C64.5 63.0927 63.1549 64.4358 61.4981 64.4358C48.5209 64.4358 38.6031 64.4358 25.125 64.4358" stroke="url(#paint2_linear_23_83)" stroke-width="2"/>
<rect x="22.1603" y="23.2698" width="7.05441" height="0.820588" rx="0.410294" stroke="url(#paint3_linear_23_83)" stroke-width="0.820588"/>
<rect x="31.1603" y="23.2698" width="14.9294" height="0.820588" rx="0.410294" stroke="url(#paint4_linear_23_83)" stroke-width="0.820588"/>
<rect x="22.1603" y="29.8345" width="16.0544" height="0.820588" rx="0.410294" stroke="url(#paint5_linear_23_83)" stroke-width="0.820588"/>
<rect x="34.5353" y="37.4932" width="17.1794" height="0.820588" rx="0.410294" stroke="url(#paint6_linear_23_83)" stroke-width="0.820588"/>
<rect x="40.1603" y="44.0579" width="11.5544" height="0.820588" rx="0.410294" stroke="url(#paint7_linear_23_83)" stroke-width="0.820588"/>
<rect x="46.9103" y="29.8345" width="4.80441" height="0.820588" rx="0.410294" stroke="url(#paint8_linear_23_83)" stroke-width="0.820588"/>
<rect x="40.1603" y="29.8345" width="4.80441" height="0.820588" rx="0.410294" stroke="url(#paint9_linear_23_83)" stroke-width="0.820588"/>
<rect x="49.1603" y="23.2698" width="2.55441" height="0.820588" rx="0.410294" stroke="url(#paint10_linear_23_83)" stroke-width="0.820588"/>
<rect x="27.7853" y="37.4932" width="4.80441" height="0.820588" rx="0.410294" stroke="url(#paint11_linear_23_83)" stroke-width="0.820588"/>
<rect x="32.2853" y="44.0579" width="5.92941" height="0.820588" rx="0.410294" stroke="url(#paint12_linear_23_83)" stroke-width="0.820588"/>
<path d="M1.5 53.5821V44.8392C1.5 44.5232 1.6293 44.2202 1.85946 43.9967C2.08962 43.7732 2.40178 43.6477 2.72727 43.6477H27.2727C27.5982 43.6477 27.9104 43.7732 28.1405 43.9967C28.3707 44.2202 28.5 44.5232 28.5 44.8392V53.5821C28.5 66.0933 17.5619 70.2339 15.3835 70.9339C15.1361 71.0229 14.864 71.0229 14.6165 70.9339C12.4381 70.2339 1.5 66.0933 1.5 53.5821Z" stroke="url(#paint13_linear_23_83)" stroke-width="2" stroke-linecap="round" stroke-linejoin="round"/>
<path d="M19.5 52.4005L13.4966 57.8711L10.5 55.1358" stroke="url(#paint14_linear_23_83)" stroke-width="2" stroke-linecap="round" stroke-linejoin="round"/>
<defs>
<linearGradient id="paint0_linear_23_83" x1="24" y1="8.29247" x2="52.125" y2="8.29247" gradientUnits="userSpaceOnUse">
<stop stop-color="#00469F"/>
<stop offset="1" stop-color="#1E79D6"/>
</linearGradient>
<linearGradient id="paint1_linear_23_83" x1="18.375" y1="34.9539" x2="57.1875" y2="34.9539" gradientUnits="userSpaceOnUse">
<stop stop-color="#00469F"/>
<stop offset="1" stop-color="#1E79D6"/>
</linearGradient>
<linearGradient id="paint2_linear_23_83" x1="11.625" y1="36.2254" x2="64.5" y2="36.2254" gradientUnits="userSpaceOnUse">
<stop stop-color="#00469F"/>
<stop offset="1" stop-color="#1E79D6"/>
</linearGradient>
<linearGradient id="paint3_linear_23_83" x1="21.75" y1="23.7023" x2="29.625" y2="23.7023" gradientUnits="userSpaceOnUse">
<stop stop-color="#00469F"/>
<stop offset="1" stop-color="#1E79D6"/>
</linearGradient>
<linearGradient id="paint4_linear_23_83" x1="30.75" y1="23.7023" x2="46.5" y2="23.7023" gradientUnits="userSpaceOnUse">
<stop stop-color="#00469F"/>
<stop offset="1" stop-color="#1E79D6"/>
</linearGradient>
<linearGradient id="paint5_linear_23_83" x1="21.75" y1="30.267" x2="38.625" y2="30.267" gradientUnits="userSpaceOnUse">
<stop stop-color="#00469F"/>
<stop offset="1" stop-color="#1E79D6"/>
</linearGradient>
<linearGradient id="paint6_linear_23_83" x1="34.125" y1="37.9257" x2="52.125" y2="37.9257" gradientUnits="userSpaceOnUse">
<stop stop-color="#00469F"/>
<stop offset="1" stop-color="#1E79D6"/>
</linearGradient>
<linearGradient id="paint7_linear_23_83" x1="39.75" y1="44.4903" x2="52.125" y2="44.4903" gradientUnits="userSpaceOnUse">
<stop stop-color="#00469F"/>
<stop offset="1" stop-color="#1E79D6"/>
</linearGradient>
<linearGradient id="paint8_linear_23_83" x1="46.5" y1="30.267" x2="52.125" y2="30.267" gradientUnits="userSpaceOnUse">
<stop stop-color="#00469F"/>
<stop offset="1" stop-color="#1E79D6"/>
</linearGradient>
<linearGradient id="paint9_linear_23_83" x1="39.75" y1="30.267" x2="45.375" y2="30.267" gradientUnits="userSpaceOnUse">
<stop stop-color="#00469F"/>
<stop offset="1" stop-color="#1E79D6"/>
</linearGradient>
<linearGradient id="paint10_linear_23_83" x1="48.75" y1="23.7023" x2="52.125" y2="23.7023" gradientUnits="userSpaceOnUse">
<stop stop-color="#00469F"/>
<stop offset="1" stop-color="#1E79D6"/>
</linearGradient>
<linearGradient id="paint11_linear_23_83" x1="27.375" y1="37.9257" x2="33" y2="37.9257" gradientUnits="userSpaceOnUse">
<stop stop-color="#00469F"/>
<stop offset="1" stop-color="#1E79D6"/>
</linearGradient>
<linearGradient id="paint12_linear_23_83" x1="31.875" y1="44.4903" x2="38.625" y2="44.4903" gradientUnits="userSpaceOnUse">
<stop stop-color="#00469F"/>
<stop offset="1" stop-color="#1E79D6"/>
</linearGradient>
<linearGradient id="paint13_linear_23_83" x1="1.5" y1="57.6938" x2="28.5" y2="57.6938" gradientUnits="userSpaceOnUse">
<stop stop-color="#00469F"/>
<stop offset="1" stop-color="#1E79D6"/>
</linearGradient>
<linearGradient id="paint14_linear_23_83" x1="10.5" y1="55.2097" x2="19.5" y2="55.2097" gradientUnits="userSpaceOnUse">
<stop stop-color="#00469F"/>
<stop offset="1" stop-color="#1E79D6"/>
</linearGradient>
</defs>
</svg>
