<svg width="20" height="21" viewBox="0 0 20 21" fill="none" xmlns="http://www.w3.org/2000/svg">
<path d="M13.6726 6.14258H6.32738C5.66836 6.1433 5.13451 6.67733 5.13379 7.33617V14.6814C5.13451 15.3402 5.66836 15.8742 6.32738 15.875H13.6726C14.3314 15.8742 14.8655 15.3402 14.8662 14.6814V7.33617C14.8655 6.67733 14.3314 6.1433 13.6726 6.14258ZM14.3153 14.6814C14.3147 15.0361 14.0273 15.3237 13.6726 15.3241H6.32738C5.9725 15.3237 5.68504 15.0361 5.68468 14.6814V7.33617C5.68504 6.98129 5.9725 6.69383 6.32738 6.69347H13.6726C14.0273 6.69383 14.3149 6.98129 14.3153 7.33617V14.6814Z" fill="white"/>
<path d="M14.593 4.75977H5.41146C4.49905 4.76084 3.75969 5.50002 3.75879 6.41244V15.5939C3.75969 16.5062 4.49905 17.2455 5.41146 17.2466H14.593C15.5052 17.2455 16.2445 16.5062 16.2456 15.5939V6.41244C16.2445 5.50002 15.5052 4.76084 14.593 4.75977ZM15.6947 15.5939C15.694 16.2022 15.2011 16.695 14.593 16.6957H5.41146C4.80318 16.695 4.3104 16.2022 4.30968 15.5939V6.41244C4.31022 5.80416 4.80318 5.31137 5.41146 5.31066H14.593C15.2011 5.31137 15.694 5.80416 15.6947 6.41244V15.5939Z" fill="white"/>
<path d="M10.9952 18.1543C10.8429 18.1543 10.7197 18.2777 10.7197 18.4297V20.7251C10.7197 20.8774 10.8429 21.0006 10.9952 21.0006C11.1472 21.0006 11.2706 20.8774 11.2706 20.7251V18.4297C11.2706 18.2777 11.1472 18.1543 10.9952 18.1543Z" fill="white"/>
<path d="M9.0108 18.1543C8.85855 18.1543 8.73535 18.2777 8.73535 18.4297V20.7251C8.73535 20.8774 8.85855 21.0006 9.0108 21.0006C9.16287 21.0006 9.28624 20.8774 9.28624 20.7251V18.4297C9.28624 18.2777 9.16287 18.1543 9.0108 18.1543Z" fill="white"/>
<path d="M7.02252 18.1543C6.87045 18.1543 6.74707 18.2777 6.74707 18.4297V20.7251C6.74707 20.8774 6.87045 21.0006 7.02252 21.0006C7.17458 21.0006 7.29796 20.8774 7.29796 20.7251V18.4297C7.29796 18.2777 7.17458 18.1543 7.02252 18.1543Z" fill="white"/>
<path d="M12.9795 18.1543C12.8273 18.1543 12.7041 18.2777 12.7041 18.4297V20.7251C12.7041 20.8774 12.8273 21.0006 12.9795 21.0006C13.1316 21.0006 13.255 20.8774 13.255 20.7251V18.4297C13.255 18.2777 13.1316 18.1543 12.9795 18.1543Z" fill="white"/>
<path d="M9.28234 3.56887V1.27349C9.28234 1.12142 9.15896 0.998047 9.00689 0.998047C8.85464 0.998047 8.73145 1.12142 8.73145 1.27349V3.56887C8.73145 3.72093 8.85464 3.84431 9.00689 3.84431C9.15896 3.84431 9.28234 3.72093 9.28234 3.56887Z" fill="white"/>
<path d="M11.2667 3.56887V1.27349C11.2667 1.12142 11.1433 0.998047 10.9913 0.998047C10.839 0.998047 10.7158 1.12142 10.7158 1.27349V3.56887C10.7158 3.72093 10.839 3.84431 10.9913 3.84431C11.1433 3.84431 11.2667 3.72093 11.2667 3.56887Z" fill="white"/>
<path d="M13.255 3.56887V1.27349C13.255 1.12142 13.1316 0.998047 12.9795 0.998047C12.8273 0.998047 12.7041 1.12142 12.7041 1.27349V3.56887C12.7041 3.72093 12.8273 3.84431 12.9795 3.84431C13.1316 3.84431 13.255 3.72093 13.255 3.56887Z" fill="white"/>
<path d="M7.29796 3.56887V1.27349C7.29796 1.12142 7.17458 0.998047 7.02252 0.998047C6.87045 0.998047 6.74707 1.12142 6.74707 1.27349V3.56887C6.74707 3.72093 6.87045 3.84431 7.02252 3.84431C7.17458 3.84431 7.29796 3.72093 7.29796 3.56887Z" fill="white"/>
<path d="M19.7241 9.73242H17.4288C17.2767 9.73242 17.1533 9.85562 17.1533 10.0079C17.1533 10.1599 17.2767 10.2833 17.4288 10.2833H19.7241C19.8764 10.2833 19.9996 10.1599 19.9996 10.0079C19.9996 9.85562 19.8764 9.73242 19.7241 9.73242Z" fill="white"/>
<path d="M19.7241 11.7129H17.4288C17.2767 11.7129 17.1533 11.8361 17.1533 11.9883C17.1533 12.1404 17.2767 12.2638 17.4288 12.2638H19.7241C19.8764 12.2638 19.9996 12.1404 19.9996 11.9883C19.9996 11.8361 19.8764 11.7129 19.7241 11.7129Z" fill="white"/>
<path d="M19.7241 13.7012H17.4288C17.2767 13.7012 17.1533 13.8244 17.1533 13.9766C17.1533 14.1287 17.2767 14.2521 17.4288 14.2521H19.7241C19.8764 14.2521 19.9996 14.1287 19.9996 13.9766C19.9996 13.8244 19.8764 13.7012 19.7241 13.7012Z" fill="white"/>
<path d="M19.7241 7.74805H17.4288C17.2767 7.74805 17.1533 7.87142 17.1533 8.02349C17.1533 8.17556 17.2767 8.29894 17.4288 8.29894H19.7241C19.8764 8.29894 19.9996 8.17556 19.9996 8.02349C19.9996 7.87142 19.8764 7.74805 19.7241 7.74805Z" fill="white"/>
<path d="M2.5718 11.7129H0.276421C0.124353 11.7129 0.000976562 11.8361 0.000976562 11.9883C0.000976562 12.1404 0.124353 12.2638 0.276421 12.2638H2.5718C2.72386 12.2638 2.84724 12.1404 2.84724 11.9883C2.84724 11.8361 2.72386 11.7129 2.5718 11.7129Z" fill="white"/>
<path d="M2.5718 9.73242H0.276421C0.124353 9.73242 0.000976562 9.85562 0.000976562 10.0079C0.000976562 10.1599 0.124353 10.2833 0.276421 10.2833H2.5718C2.72386 10.2833 2.84724 10.1599 2.84724 10.0079C2.84724 9.85562 2.72386 9.73242 2.5718 9.73242Z" fill="white"/>
<path d="M2.5718 7.74805H0.276421C0.124353 7.74805 0.000976562 7.87142 0.000976562 8.02349C0.000976562 8.17556 0.124353 8.29894 0.276421 8.29894H2.5718C2.72386 8.29894 2.84724 8.17556 2.84724 8.02349C2.84724 7.87142 2.72386 7.74805 2.5718 7.74805Z" fill="white"/>
<path d="M2.5718 13.7012H0.276421C0.124353 13.7012 0.000976562 13.8244 0.000976562 13.9766C0.000976562 14.1287 0.124353 14.2521 0.276421 14.2521H2.5718C2.72386 14.2521 2.84724 14.1287 2.84724 13.9766C2.84724 13.8244 2.72386 13.7012 2.5718 13.7012Z" fill="white"/>
<path d="M9.74369 9.04316C9.70316 8.92194 9.55181 8.86133 9.40028 8.86133C9.24875 8.86133 9.10224 8.92194 9.06189 9.04316L8.05694 12.3153C8.05282 12.3302 8.05121 12.3456 8.05192 12.3609C8.05192 12.4921 8.23878 12.5831 8.38529 12.5831C8.47621 12.5831 8.54686 12.5528 8.57215 12.4719L8.77909 11.7549H10.0265L10.2334 12.4719C10.2587 12.5528 10.3294 12.5831 10.4153 12.5831C10.5668 12.5831 10.7537 12.4871 10.7537 12.3609C10.7528 12.3453 10.7493 12.3299 10.7434 12.3153L9.74369 9.04316ZM8.89529 11.3256L9.40028 9.59352L9.90526 11.3256H8.89529Z" fill="white"/>
<path d="M11.4171 8.89258C11.2859 8.89258 11.1494 8.94297 11.1494 9.06419V12.4072C11.1494 12.5234 11.2859 12.584 11.4171 12.584C11.5534 12.584 11.6847 12.5234 11.6847 12.4072V9.06437C11.6847 8.94297 11.5534 8.89258 11.4171 8.89258Z" fill="white"/>
</svg>
