<svg width="20" height="20" viewBox="0 0 20 20" fill="none" xmlns="http://www.w3.org/2000/svg">
<path d="M10 9C10.184 9 10.3333 9.14967 10.3333 9.33333H11C11 8.89933 10.7203 8.53267 10.3333 8.39467V8H9.66667V8.39467C9.27967 8.53267 9 8.89933 9 9.33333C9 9.88467 9.44867 10.3333 10 10.3333C10.184 10.3333 10.3333 10.483 10.3333 10.6667C10.3333 10.8503 10.184 11 10 11C9.816 11 9.66667 10.8503 9.66667 10.6667H9C9 11.1007 9.27967 11.4673 9.66667 11.6053V12H10.3333V11.6053C10.7203 11.4673 11 11.1007 11 10.6667C11 10.1153 10.5513 9.66667 10 9.66667C9.816 9.66667 9.66667 9.517 9.66667 9.33333C9.66667 9.14967 9.816 9 10 9Z" fill="white"/>
<path d="M18.1537 2.717C17.834 2.08033 17.1777 1.66667 16.454 1.66667C15.856 1.66667 15.298 1.95133 14.9423 2.41667C14.6387 2.22033 14.2843 2.115 13.9137 2.115C13.3497 2.115 12.8437 2.363 12.495 2.75433C11.4477 2.39267 10.3437 2.261 9.20767 2.37933C8.93967 1.651 8.26767 1.10567 7.48667 1.05067C7.16733 0.413667 6.511 0 5.78733 0C5.18933 0 4.63133 0.284667 4.27567 0.75C3.972 0.553667 3.61767 0.448333 3.247 0.448333C2.19833 0.448333 1.34467 1.30167 1.34467 2.35067V2.54033H1.22967C0.551667 2.54033 0 3.092 0 3.77033C0 4.44833 0.551667 5 1.22967 5H4.189C2.987 6.389 2.33333 8.137 2.33333 10C2.33333 13.9387 5.31933 17.1917 9.146 17.618C8.67367 17.7897 8.33333 18.239 8.33333 18.7703C8.33333 19.4483 8.885 20 9.563 20H15.7367C16.8373 20 17.6667 19.1703 17.6667 18.07C17.6667 17.0177 16.834 16.1217 15.8203 16.0503C15.7077 15.826 15.5517 15.6317 15.3677 15.471C16.8337 14.0323 17.6667 12.0617 17.6667 10C17.6667 8.84367 17.4023 7.70267 16.9017 6.66667H18.0703C19.1707 6.66667 20 5.837 20 4.73667C20 3.68433 19.1673 2.78867 18.1537 2.717ZM10.8097 6H10.3333V3.00733C10.9517 3.03567 11.5547 3.14733 12.1397 3.33633C12.058 3.548 12.0113 3.77733 12.0113 4.01733V4.207H11.8963C11.2183 4.207 10.6667 4.75867 10.6667 5.437C10.6667 5.64067 10.7213 5.83033 10.8097 6ZM0.666667 3.77033C0.666667 3.45967 0.919333 3.207 1.22967 3.207H1.678C1.86233 3.207 2.01133 3.05767 2.01133 2.87367V2.35067C2.01133 1.66933 2.56567 1.115 3.247 1.115C3.57967 1.115 3.89167 1.24533 4.12533 1.48233C4.202 1.56 4.31267 1.59567 4.42033 1.57633C4.528 1.55733 4.62 1.48667 4.66533 1.38767C4.867 0.949667 5.30733 0.666667 5.78733 0.666667C6.30867 0.666667 6.77633 0.997667 6.951 1.49067C6.99833 1.62367 7.124 1.71267 7.265 1.71267H7.356C8.06667 1.71267 8.66667 2.33433 8.66667 3.07C8.66667 3.79033 8.12367 4.33333 7.40367 4.33333H1.22967C0.919333 4.33333 0.666667 4.08067 0.666667 3.77033ZM7.40367 5C8.504 5 9.33333 4.17033 9.33333 3.07C9.33333 3.05833 9.332 3.047 9.33167 3.03567C9.44367 3.02467 9.55533 3.017 9.66667 3.01167V6H7.00533C7.03133 5.93033 7.055 5.85867 7.08233 5.79067L6.46333 5.543C6.40367 5.692 6.348 5.845 6.295 6.00033H4.25433C4.504 5.64433 4.793 5.31167 5.11167 5.00033H7.40367V5ZM12.9803 10.3333H13.6597C13.6333 11.393 13.483 12.4107 13.216 13.3333H10.3333V12.9803C11.7217 12.826 12.826 11.7213 12.9803 10.3333ZM16.991 10.3333C16.9403 11.392 16.6487 12.4157 16.151 13.3333H13.908C14.16 12.401 14.3013 11.3857 14.3263 10.3333H16.991ZM9.66667 16.9667C8.58567 16.7703 7.625 15.6323 7.01567 14H9.66667V16.9667ZM6.79267 13.3333C6.52867 12.429 6.37067 11.408 6.34267 10.3333H7.02C7.17433 11.7213 8.27867 12.826 9.667 12.9803V13.3333H6.79267ZM3.017 10.3333H5.67133C5.69633 11.4103 5.84067 12.4237 6.083 13.3333H3.846C3.357 12.4343 3.06833 11.4143 3.017 10.3333ZM3.01667 9.66667C3.06633 8.6 3.34633 7.581 3.84433 6.66667H6.092C5.84 7.599 5.69867 8.61433 5.67367 9.66667H3.01667ZM10 12.3333C8.71367 12.3333 7.66667 11.2867 7.66667 10C7.66667 8.71333 8.71367 7.66667 10 7.66667C11.2863 7.66667 12.3333 8.71333 12.3333 10C12.3333 11.2867 11.2863 12.3333 10 12.3333ZM9.66667 7.01967C8.27833 7.174 7.174 8.27867 7.01967 9.66667H6.34033C6.36667 8.607 6.517 7.58933 6.784 6.66667H9.66667V7.01967ZM4.26367 14H6.284C6.65633 15.0963 7.18033 16.0043 7.80767 16.6433C6.36 16.1643 5.12133 15.226 4.26367 14ZM15.5987 16.7127H15.6897C16.4 16.7127 17 17.3343 17 18.07C17 18.7903 16.457 19.3333 15.737 19.3333H9.563C9.25267 19.3333 9 19.0807 9 18.7703C9 18.46 9.25267 18.207 9.563 18.207H10.0113C10.1957 18.207 10.3447 18.0577 10.3447 17.8737V17.3507C10.3447 16.6693 10.899 16.115 11.5803 16.115C11.913 16.115 12.225 16.2453 12.4587 16.4823C12.5353 16.56 12.646 16.5953 12.7537 16.5763C12.8613 16.5573 12.9533 16.4867 12.9987 16.3877C13.2003 15.9497 13.6407 15.6667 14.1207 15.6667C14.642 15.6667 15.1097 15.9977 15.2843 16.4907C15.3317 16.6237 15.4573 16.7127 15.5987 16.7127ZM14.1207 15C13.5227 15 12.9647 15.2847 12.609 15.75C12.3053 15.5537 11.951 15.4483 11.5803 15.4483C11.103 15.4483 10.6677 15.6263 10.3333 15.9177V14H12.9947C12.9687 14.0697 12.945 14.1413 12.9177 14.2093L13.5367 14.457C13.5963 14.308 13.652 14.155 13.705 13.9997H15.739C15.4577 14.403 15.133 14.7783 14.768 15.1187C14.5637 15.0443 14.3463 15 14.1207 15ZM16.989 9.66667H14.325C14.3053 8.84033 14.217 8.03267 14.0533 7.264L13.401 7.403C13.5553 8.12667 13.639 8.88733 13.6583 9.667H12.9803C12.826 8.279 11.7217 7.17433 10.3333 7.02V6.66667H11.8963H12H16.1507C16.6517 7.59 16.9387 8.61633 16.989 9.66667ZM18.0703 6H12H11.8963C11.586 6 11.3333 5.74733 11.3333 5.437C11.3333 5.12667 11.586 4.87367 11.8963 4.87367H12.3447C12.529 4.87367 12.678 4.72433 12.678 4.54033V4.01733C12.678 3.336 13.2323 2.78167 13.9137 2.78167C14.2463 2.78167 14.5583 2.912 14.792 3.149C14.869 3.227 14.9797 3.26233 15.087 3.243C15.1947 3.224 15.2867 3.15333 15.332 3.05433C15.5337 2.61633 15.974 2.33333 16.454 2.33333C16.9753 2.33333 17.443 2.66433 17.6177 3.15733C17.665 3.29033 17.7907 3.37933 17.9317 3.37933H18.0227C18.7333 3.37933 19.3333 4.001 19.3333 4.73667C19.3333 5.457 18.7903 6 18.0703 6Z" fill="white"/>
<path d="M17.6641 3.66406V4.33073C17.8574 4.33073 18.0151 4.48806 18.0151 4.68173H18.6817C18.6817 4.12073 18.2254 3.66406 17.6641 3.66406Z" fill="white"/>
<path d="M15.3359 17.7214C15.5293 17.7214 15.6869 17.8787 15.6869 18.0724H16.3536C16.3536 17.5114 15.8973 17.0547 15.3359 17.0547V17.7214Z" fill="white"/>
<path d="M6.98438 2.31641V2.98307C7.17771 2.98307 7.33537 3.14041 7.33537 3.33407H8.00204C8.00204 2.77307 7.54571 2.31641 6.98438 2.31641Z" fill="white"/>
</svg>
