<svg width="20" height="18" viewBox="0 0 20 18" fill="none" xmlns="http://www.w3.org/2000/svg">
<path d="M19.2802 0H0.720261C0.344111 0 0.0380859 0.306025 0.0380859 0.682175V13.278C0.0380859 13.6542 0.344111 13.9602 0.720261 13.9602H4.55636L4.63508 14.3265C4.71883 14.7165 5.03563 15.0129 5.41882 15.0814C5.2613 15.364 5.17113 15.6891 5.17113 16.0349C5.17113 17.1185 6.05267 18 7.13621 18C8.21975 18 9.10128 17.1185 9.10128 16.0349C9.10128 15.6952 9.01458 15.3754 8.86223 15.0964H10.4942C10.3419 15.3754 10.2552 15.6952 10.2552 16.0349C10.2552 17.1185 11.1367 18 12.2203 18C13.3038 18 14.1853 17.1185 14.1853 16.0349C14.1853 15.6929 14.0974 15.3712 13.9431 15.0908C14.3575 15.0482 14.7087 14.7402 14.7975 14.3265L16.9209 4.44387H19.3776V13.278C19.3776 13.3318 19.3339 13.3755 19.2802 13.3755H16.0947C15.9332 13.3755 15.8023 13.5063 15.8023 13.6678C15.8023 13.8293 15.9332 13.9602 16.0947 13.9602H19.2802C19.6564 13.9602 19.9624 13.6542 19.9624 13.278V0.682175C19.9624 0.306025 19.6564 0 19.2802 0ZM7.13621 17.4153C6.37507 17.4153 5.75582 16.796 5.75582 16.0349C5.75582 15.2738 6.37504 14.6545 7.13621 14.6545C7.89738 14.6545 8.51659 15.2738 8.51659 16.0349C8.51659 16.7961 7.89734 17.4153 7.13621 17.4153ZM12.2203 17.4153C11.4592 17.4153 10.8399 16.796 10.8399 16.0349C10.8399 15.2738 11.4592 14.6545 12.2203 14.6545C12.9814 14.6545 13.6007 15.2738 13.6007 16.0349C13.6006 16.7961 12.9814 17.4153 12.2203 17.4153ZM18.5462 3.85913C18.7423 3.68075 18.8655 3.42368 18.8655 3.13839C18.8655 2.60102 18.4283 2.16385 17.891 2.16385H16.9712C16.0708 2.16385 15.28 2.80283 15.0908 3.68316L15.053 3.85909H12.2922C12.1307 3.85909 11.9998 3.98996 11.9998 4.15146C11.9998 4.31296 12.1307 4.44383 12.2922 4.44383H14.9274L14.6307 5.82495H4.01459C3.71876 5.82495 3.44246 5.95695 3.25653 6.18705C3.07063 6.41711 2.99965 6.71497 3.0618 7.00422L3.78265 10.3593C3.81659 10.5172 3.97197 10.6175 4.12989 10.5838C4.28773 10.5499 4.38821 10.3944 4.35431 10.2366L3.63346 6.88144C3.60863 6.76571 3.637 6.64656 3.71136 6.55452C3.78573 6.46253 3.89625 6.40972 4.01459 6.40972H14.8669C15.0047 6.40972 15.1238 6.31348 15.1528 6.17876L15.6626 3.80601C15.7942 3.1933 16.3446 2.74862 16.9713 2.74862H17.891C18.106 2.74862 18.2808 2.92351 18.2808 3.13843C18.2808 3.35336 18.106 3.52824 17.891 3.52824H16.9713C16.7097 3.52824 16.4798 3.71394 16.4248 3.96985L14.2259 14.2038C14.1876 14.3822 14.0273 14.5117 13.8448 14.5117H13.4601C13.1216 14.2357 12.69 14.0699 12.2203 14.0699C11.7506 14.0699 11.319 14.2357 10.9806 14.5117H8.37603C8.03759 14.2357 7.60599 14.0699 7.13629 14.0699C6.66658 14.0699 6.23498 14.2357 5.89654 14.5117H5.58795C5.40544 14.5117 5.24515 14.3822 5.20682 14.2038L4.60679 11.4112C4.5729 11.2533 4.41759 11.1532 4.25955 11.1867C4.10168 11.2207 4.00124 11.3761 4.03513 11.534L4.43082 13.3755H0.720261C0.66652 13.3755 0.622818 13.3318 0.622818 13.2781V4.44387H10.9399C11.1014 4.44387 11.2323 4.313 11.2323 4.1515C11.2323 3.99 11.1014 3.85913 10.9399 3.85913H0.622818V0.682136C0.622818 0.628395 0.666559 0.584694 0.720261 0.584694H19.2802C19.334 0.584694 19.3777 0.628395 19.3777 0.682136V3.85913H18.5462Z" fill="white"/>
<path d="M2.19803 2.78473C2.51289 2.78473 2.76813 2.52949 2.76813 2.21463C2.76813 1.89977 2.51289 1.64453 2.19803 1.64453C1.88317 1.64453 1.62793 1.89977 1.62793 2.21463C1.62793 2.52949 1.88317 2.78473 2.19803 2.78473Z" fill="white"/>
<path d="M3.93241 2.78473C4.24726 2.78473 4.50251 2.52949 4.50251 2.21463C4.50251 1.89977 4.24726 1.64453 3.93241 1.64453C3.61755 1.64453 3.3623 1.89977 3.3623 2.21463C3.3623 2.52949 3.61755 2.78473 3.93241 2.78473Z" fill="white"/>
<path d="M5.66678 2.78473C5.98164 2.78473 6.23688 2.52949 6.23688 2.21463C6.23688 1.89977 5.98164 1.64453 5.66678 1.64453C5.35192 1.64453 5.09668 1.89977 5.09668 2.21463C5.09668 2.52949 5.35192 2.78473 5.66678 2.78473Z" fill="white"/>
<path d="M10.5382 12.0664H8.81872C8.73699 12.0664 8.65901 12.1006 8.60367 12.1607C8.54834 12.2208 8.52063 12.3013 8.52736 12.3827L8.61601 13.4592C8.6285 13.6108 8.75521 13.7276 8.90736 13.7276H10.4496C10.6017 13.7276 10.7285 13.6109 10.7409 13.4592L10.8296 12.3827C10.8362 12.3013 10.8086 12.2208 10.7532 12.1607C10.6979 12.1006 10.6199 12.0664 10.5382 12.0664ZM10.1803 13.1428H9.17661L9.13614 12.6511H10.2208L10.1803 13.1428Z" fill="white"/>
<path d="M4.80403 8.62168C4.83298 8.7564 4.95206 8.85264 5.08986 8.85264H7.13587C7.30196 8.85626 7.44447 8.7015 7.42723 8.5363L7.33862 7.45988C7.32613 7.30823 7.19942 7.19149 7.04727 7.19149H4.85859C4.6779 7.18697 4.53038 7.3696 4.57276 7.54526L4.80403 8.62168ZM6.77801 7.77622L6.81849 8.26791H5.32611L5.22045 7.77622H6.77801Z" fill="white"/>
<path d="M5.90857 12.0664C5.82023 12.0664 5.73665 12.1063 5.68115 12.175C5.62566 12.2437 5.60418 12.3338 5.62274 12.4202L5.85401 13.4966C5.88296 13.6313 6.00204 13.7276 6.13984 13.7276H7.53898C7.6207 13.7276 7.69869 13.6934 7.75402 13.6333C7.80936 13.5731 7.83707 13.4926 7.83033 13.4112L7.74169 12.3348C7.7292 12.1832 7.60249 12.0664 7.45033 12.0664H5.90857ZM6.37605 13.1428L6.2704 12.6511H7.18104L7.22151 13.1428H6.37605Z" fill="white"/>
<path d="M5.38513 9.62891C5.2968 9.62891 5.21325 9.66883 5.15772 9.73752C5.10222 9.80624 5.08074 9.89633 5.0993 9.98268L5.33057 11.0591C5.35949 11.1939 5.47861 11.2901 5.6164 11.2901H7.339C7.42072 11.2901 7.49871 11.2559 7.55404 11.1958C7.60938 11.1357 7.63709 11.0552 7.63036 10.9738L7.54171 9.8973C7.52922 9.74565 7.40251 9.62891 7.25035 9.62891H5.38513ZM5.85262 10.7053L5.74696 10.2136H6.98106L7.02154 10.7053H5.85262Z" fill="white"/>
<path d="M8.21414 8.58423C8.22663 8.73588 8.35334 8.85262 8.50549 8.85262H10.8516C11.0037 8.85262 11.1305 8.73592 11.1429 8.58423L11.2315 7.50781C11.2487 7.34261 11.1063 7.18785 10.9402 7.19147H8.41681C8.25083 7.18785 8.10813 7.34261 8.12545 7.50781L8.21414 8.58423ZM10.6228 7.7762L10.5823 8.26789H8.77474L8.73427 7.7762H10.6228Z" fill="white"/>
<path d="M12.0179 11.2901H13.8166C13.9544 11.2901 14.0735 11.1939 14.1025 11.0591L14.3338 9.98268C14.3523 9.89633 14.3309 9.80624 14.2753 9.73752C14.2198 9.66883 14.1362 9.62891 14.0479 9.62891H12.1065C11.9544 9.62891 11.8276 9.74561 11.8152 9.8973L11.7266 10.9738C11.7199 11.0552 11.7475 11.1357 11.8029 11.1958C11.8582 11.2559 11.9362 11.2901 12.0179 11.2901ZM12.3758 10.2136H13.686L13.5804 10.7054H12.3353L12.3758 10.2136Z" fill="white"/>
<path d="M12.2215 8.85264H14.3437C14.4815 8.85264 14.6005 8.7564 14.6295 8.62168L14.8608 7.54526C14.9031 7.3696 14.7556 7.18701 14.5749 7.19149H12.3101C12.1579 7.19149 12.0312 7.30819 12.0187 7.45988L11.9301 8.5363C11.9128 8.7015 12.0554 8.85626 12.2215 8.85264ZM12.5794 7.77622H14.2131L14.1074 8.26791H12.5388L12.5794 7.77622Z" fill="white"/>
<path d="M10.7409 9.62891H8.6195C8.53778 9.62891 8.45979 9.66307 8.40445 9.7232C8.34912 9.78332 8.32141 9.86384 8.32814 9.94525L8.41675 11.0217C8.42924 11.1734 8.55595 11.2901 8.7081 11.2901H10.6523C10.8044 11.2901 10.9312 11.1734 10.9436 11.0217L11.0322 9.94525C11.0389 9.86384 11.0113 9.78332 10.9559 9.7232C10.9006 9.66307 10.8226 9.62891 10.7409 9.62891ZM10.383 10.7053H8.97739L8.93692 10.2136H10.4235L10.383 10.7053Z" fill="white"/>
<path d="M11.8187 13.7276H13.2939C13.4317 13.7276 13.5508 13.6313 13.5798 13.4966L13.8111 12.4202C13.8296 12.3338 13.8082 12.2437 13.7526 12.175C13.6972 12.1063 13.6136 12.0664 13.5252 12.0664H11.9073C11.7552 12.0664 11.6284 12.1831 11.616 12.3348L11.5274 13.4112C11.5207 13.4926 11.5483 13.5731 11.6037 13.6333C11.659 13.6934 11.737 13.7276 11.8187 13.7276ZM12.1766 12.6512H13.1634L13.0577 13.1429H12.1361L12.1766 12.6512Z" fill="white"/>
<path d="M7.13755 15.5312C6.8604 15.5312 6.63574 15.7559 6.63574 16.0331C6.63574 16.3102 6.8604 16.5349 7.13755 16.5349C7.4147 16.5349 7.63935 16.3102 7.63935 16.0331C7.63935 15.7559 7.4147 15.5312 7.13755 15.5312Z" fill="white"/>
<path d="M12.2196 15.5312C11.9424 15.5312 11.7178 15.7559 11.7178 16.0331C11.7178 16.3102 11.9424 16.5349 12.2196 16.5349C12.4967 16.5349 12.7214 16.3102 12.7214 16.0331C12.7214 15.7559 12.4967 15.5312 12.2196 15.5312Z" fill="white"/>
</svg>
