<svg width="14" height="21" viewBox="0 0 14 21" fill="none" xmlns="http://www.w3.org/2000/svg">
<path d="M1.08107 11.2867C1.24287 11.2867 1.37404 11.1556 1.37404 10.9938V1.23989C1.37404 0.879329 1.66741 0.585959 2.02797 0.585959H11.9721C12.3326 0.585959 12.626 0.879329 12.626 1.23989V3.39778C12.626 3.55962 12.7572 3.69076 12.919 3.69076C13.0808 3.69076 13.212 3.55962 13.212 3.39778V1.23989C13.212 0.556192 12.6557 0 11.9721 0H2.02797C1.34432 0 0.788086 0.556192 0.788086 1.23989V10.9938C0.788086 11.1556 0.919263 11.2867 1.08107 11.2867Z" fill="white"/>
<path d="M13.212 4.76564C13.212 4.60379 13.0808 4.47266 12.919 4.47266C12.7572 4.47266 12.626 4.60379 12.626 4.76564V16.8899H1.37404V12.3616C1.37404 12.1998 1.24287 12.0686 1.08107 12.0686C0.919263 12.0686 0.788086 12.1998 0.788086 12.3616V18.7615C0.788086 19.4452 1.34432 20.0013 2.02797 20.0013H9.76029C9.92209 20.0013 10.0533 19.8702 10.0533 19.7084C10.0533 19.5465 9.92209 19.4154 9.76029 19.4154H2.02797C1.66741 19.4154 1.37404 19.122 1.37404 18.7615V17.4759H12.626V18.7615C12.626 19.122 12.3326 19.4154 11.9721 19.4154H11.1275C10.9657 19.4154 10.8345 19.5465 10.8345 19.7084C10.8345 19.8702 10.9657 20.0013 11.1275 20.0013H11.9721C12.6557 20.0013 13.212 19.4452 13.212 18.7615V4.76564Z" fill="white"/>
<path d="M6.99977 11.3828C6.37041 11.3828 5.8584 11.8948 5.8584 12.5242C5.8584 13.1536 6.37041 13.6656 6.99977 13.6656C7.62913 13.6656 8.14114 13.1536 8.14114 12.5242C8.14114 11.8948 7.62913 11.3828 6.99977 11.3828ZM6.99977 13.0796C6.69351 13.0796 6.44436 12.8304 6.44436 12.5242C6.44436 12.2179 6.69351 11.9687 6.99977 11.9687C7.30603 11.9687 7.55518 12.2179 7.55518 12.5242C7.55518 12.8304 7.30603 13.0796 6.99977 13.0796Z" fill="white"/>
<path d="M10.2892 11.7041C10.4705 11.5072 10.5024 11.2192 10.3686 10.9873L10.0174 10.3791C9.88359 10.1473 9.61815 10.0311 9.35701 10.0895L8.69253 10.2386C8.68628 10.24 8.67894 10.238 8.67234 10.2332C8.50979 10.1146 8.33408 10.0131 8.15002 9.93145C8.14267 9.92816 8.1374 9.92285 8.13552 9.91684L7.93243 9.26701C7.85262 9.01153 7.61914 8.83984 7.35147 8.83984H6.6491C6.38143 8.83984 6.14795 9.01153 6.06814 9.26697L5.86505 9.91684C5.86317 9.92285 5.85786 9.92816 5.85048 9.93145C5.66649 10.0131 5.49078 10.1146 5.32819 10.2332C5.32159 10.238 5.31417 10.2401 5.30808 10.2386L4.64348 10.0895C4.38222 10.0309 4.11694 10.1473 3.98314 10.3791L3.63196 10.9873C3.49813 11.2192 3.53004 11.5072 3.71138 11.7041L4.17284 12.2051C4.17714 12.2097 4.17909 12.2171 4.17823 12.2253C4.16753 12.3254 4.16206 12.4268 4.16206 12.5265C4.16206 12.6263 4.16749 12.7276 4.17823 12.8279C4.17909 12.836 4.17714 12.8433 4.17284 12.848L3.71138 13.349C3.53004 13.5459 3.49813 13.8339 3.63196 14.0657L3.98314 14.674C4.11694 14.9058 4.38234 15.022 4.64352 14.9636L5.308 14.8145C5.31433 14.8132 5.32155 14.8151 5.32823 14.8199C5.49097 14.9387 5.66668 15.0402 5.8504 15.1216C5.85778 15.1249 5.86313 15.1302 5.86501 15.1362L6.0681 15.7861C6.14791 16.0416 6.3814 16.2132 6.64906 16.2132H7.35143C7.6191 16.2132 7.85258 16.0416 7.93239 15.7861L8.13548 15.1362C8.13736 15.1302 8.14271 15.1249 8.14998 15.1216C8.33381 15.0402 8.50956 14.9387 8.67238 14.8199C8.67894 14.8151 8.68621 14.8131 8.69242 14.8145L9.35701 14.9636C9.61823 15.0222 9.88355 14.9058 10.0173 14.674L10.3685 14.0657C10.5024 13.8339 10.4705 13.5459 10.2891 13.349L9.82765 12.848C9.82336 12.8433 9.8214 12.836 9.82226 12.8278C9.83297 12.7277 9.83844 12.6263 9.83844 12.5265C9.83844 12.4268 9.83301 12.3254 9.82226 12.2252C9.8214 12.2171 9.82336 12.2097 9.82765 12.2051L10.2892 11.7041ZM9.2397 12.2876C9.24822 12.3671 9.25255 12.4475 9.25255 12.5265C9.25255 12.6055 9.24826 12.6859 9.23974 12.7653C9.22087 12.9413 9.27806 13.1161 9.39674 13.2449L9.8582 13.7459C9.86496 13.7533 9.86617 13.764 9.86117 13.7727L9.50995 14.381C9.50499 14.3896 9.49502 14.3939 9.48534 14.3917L8.82066 14.2426C8.6498 14.2043 8.46979 14.2422 8.32697 14.3465C8.19787 14.4407 8.05845 14.5212 7.91255 14.5859C7.75102 14.6575 7.62843 14.7944 7.57628 14.9613L7.37319 15.6112C7.37022 15.6207 7.36151 15.6271 7.35151 15.6271H6.64914C6.63918 15.6271 6.63043 15.6207 6.62746 15.6112L6.42437 14.9613C6.37222 14.7944 6.24963 14.6575 6.08799 14.5858C5.9422 14.5212 5.80278 14.4407 5.67375 14.3466C5.56738 14.2689 5.44042 14.228 5.31194 14.228C5.26784 14.228 5.22354 14.2329 5.17983 14.2426L4.51531 14.3917C4.50555 14.3941 4.49566 14.3896 4.49066 14.3809L4.13948 13.7727C4.13448 13.764 4.13565 13.7533 4.14245 13.7459L4.60395 13.2449C4.72259 13.1161 4.77978 12.9413 4.76095 12.7654C4.75243 12.6859 4.74809 12.6055 4.74809 12.5265C4.74809 12.4475 4.75239 12.3671 4.76091 12.2877C4.77977 12.1117 4.72259 11.9369 4.60391 11.8081L4.14245 11.3071C4.13569 11.2997 4.13448 11.289 4.13948 11.2803L4.4907 10.672C4.49566 10.6634 4.50551 10.659 4.51531 10.6613L5.17998 10.8104C5.35089 10.8487 5.53082 10.8108 5.67371 10.7066C5.80266 10.6124 5.94208 10.5319 6.08799 10.4672C6.24959 10.3956 6.37218 10.2587 6.42437 10.0917L6.62746 9.44178C6.63043 9.43229 6.63914 9.42588 6.64914 9.42588H7.35151C7.36147 9.42588 7.37022 9.43229 7.37319 9.44182L7.57628 10.0917C7.62847 10.2587 7.75109 10.3956 7.91262 10.4672C8.05861 10.5319 8.19802 10.6124 8.32697 10.7066C8.46987 10.8108 8.6498 10.8485 8.82082 10.8104L9.48534 10.6613C9.4951 10.6592 9.50499 10.6634 9.50999 10.6721L9.86117 11.2803C9.86617 11.289 9.865 11.2997 9.8582 11.3071L9.3967 11.8081C9.27806 11.9369 9.22083 12.1117 9.2397 12.2876Z" fill="white"/>
<path d="M8.3119 2.21094H6.80372C6.64192 2.21094 6.51074 2.34208 6.51074 2.50392C6.51074 2.66576 6.64192 2.7969 6.80372 2.7969H8.3119C8.47371 2.7969 8.60488 2.66576 8.60488 2.50392C8.60488 2.34208 8.47371 2.21094 8.3119 2.21094Z" fill="white"/>
<path d="M4.042 2.7969H5.54151C5.70331 2.7969 5.83449 2.66576 5.83449 2.50392C5.83449 2.34208 5.70331 2.21094 5.54151 2.21094H4.042C3.8802 2.21094 3.74902 2.34208 3.74902 2.50392C3.74902 2.66576 3.8802 2.7969 4.042 2.7969Z" fill="white"/>
<path d="M4.042 4.05862H7.44037C7.60217 4.05862 7.73335 3.92748 7.73335 3.76564C7.73335 3.60379 7.60217 3.47266 7.44037 3.47266H4.042C3.8802 3.47266 3.74902 3.60379 3.74902 3.76564C3.74902 3.92748 3.8802 4.05862 4.042 4.05862Z" fill="white"/>
<path d="M8.40918 3.76564C8.40918 3.92748 8.54036 4.05862 8.70216 4.05862H9.96017C10.122 4.05862 10.2532 3.92748 10.2532 3.76564C10.2532 3.60379 10.122 3.47266 9.96017 3.47266H8.70216C8.54036 3.47266 8.40918 3.60379 8.40918 3.76564Z" fill="white"/>
<path d="M4.042 5.32424H5.4626C5.6244 5.32424 5.75558 5.1931 5.75558 5.03126C5.75558 4.86942 5.6244 4.73828 5.4626 4.73828H4.042C3.8802 4.73828 3.74902 4.86942 3.74902 5.03126C3.74902 5.1931 3.8802 5.32424 4.042 5.32424Z" fill="white"/>
<path d="M7.43672 4.73828H6.72169C6.55989 4.73828 6.42871 4.86942 6.42871 5.03126C6.42871 5.1931 6.55989 5.32424 6.72169 5.32424H7.43672C7.59852 5.32424 7.7297 5.1931 7.7297 5.03126C7.7297 4.86942 7.59852 4.73828 7.43672 4.73828Z" fill="white"/>
<path d="M9.96099 4.73828H8.69825C8.53645 4.73828 8.40527 4.86942 8.40527 5.03126C8.40527 5.1931 8.53645 5.32424 8.69825 5.32424H9.96099C10.1228 5.32424 10.254 5.1931 10.254 5.03126C10.254 4.86942 10.1228 4.73828 9.96099 4.73828Z" fill="white"/>
<path d="M4.042 6.58596H7.44037C7.60217 6.58596 7.73335 6.45482 7.73335 6.29298C7.73335 6.13114 7.60217 6 7.44037 6H4.042C3.8802 6 3.74902 6.13114 3.74902 6.29298C3.74902 6.45482 3.8802 6.58596 4.042 6.58596Z" fill="white"/>
<path d="M9.95584 6H8.70216C8.54036 6 8.40918 6.13114 8.40918 6.29298C8.40918 6.45482 8.54036 6.58596 8.70216 6.58596H9.95584C10.1176 6.58596 10.2488 6.45482 10.2488 6.29298C10.2488 6.13114 10.1176 6 9.95584 6Z" fill="white"/>
<path d="M4.042 7.84377H4.6339C4.7957 7.84377 4.92688 7.71263 4.92688 7.55079C4.92688 7.38895 4.7957 7.25781 4.6339 7.25781H4.042C3.8802 7.25781 3.74902 7.38895 3.74902 7.55079C3.74902 7.71263 3.8802 7.84377 4.042 7.84377Z" fill="white"/>
<path d="M9.95371 7.25781H5.89357C5.73176 7.25781 5.60059 7.38895 5.60059 7.55079C5.60059 7.71263 5.73176 7.84377 5.89357 7.84377H9.95371C10.1155 7.84377 10.2467 7.71263 10.2467 7.55079C10.2467 7.38895 10.1155 7.25781 9.95371 7.25781Z" fill="white"/>
<path d="M9.95569 2.7969C10.1175 2.7969 10.2487 2.66576 10.2487 2.50392C10.2487 2.34208 10.1175 2.21094 9.95569 2.21094H9.56544C9.40364 2.21094 9.27246 2.34208 9.27246 2.50392C9.27246 2.66576 9.40364 2.7969 9.56544 2.7969H9.95569Z" fill="white"/>
<path d="M2.90979 1.29276C2.76506 1.2203 2.58911 1.27905 2.51673 1.42378L2.27996 1.89731C2.23871 1.97982 2.23871 2.07689 2.27996 2.15939L2.51673 2.63293C2.56806 2.73559 2.6715 2.79492 2.779 2.79492C2.82303 2.79492 2.86772 2.78492 2.90979 2.76391C3.05452 2.69152 3.1132 2.51558 3.04081 2.37085L2.86955 2.02833L3.04081 1.68582C3.11316 1.54113 3.05452 1.36515 2.90979 1.29276Z" fill="white"/>
<path d="M11.0907 7.81852C11.1328 7.83957 11.1775 7.84954 11.2215 7.84954C11.329 7.84954 11.4325 7.79016 11.4838 7.68754L11.7206 7.214C11.7618 7.1315 11.7618 7.03443 11.7206 6.95192L11.4838 6.47839C11.4114 6.3337 11.2355 6.27506 11.0907 6.34737C10.946 6.41976 10.8873 6.5957 10.9597 6.74043L11.131 7.08295L10.9597 7.42546C10.8874 7.57019 10.946 7.74617 11.0907 7.81852Z" fill="white"/>
</svg>
