<svg width="20" height="20" viewBox="0 0 20 20" fill="none" xmlns="http://www.w3.org/2000/svg">
<path d="M7.1875 16.875C6.67055 16.875 6.25 17.2956 6.25 17.8125C6.25 18.3294 6.67055 18.75 7.1875 18.75C7.70445 18.75 8.125 18.3294 8.125 17.8125C8.125 17.2956 7.70445 16.875 7.1875 16.875ZM7.1875 18.125C7.0152 18.125 6.875 17.9848 6.875 17.8125C6.875 17.6402 7.0152 17.5 7.1875 17.5C7.3598 17.5 7.5 17.6402 7.5 17.8125C7.5 17.9848 7.3598 18.125 7.1875 18.125Z" fill="white"/>
<path d="M16.8742 17.7814C16.8577 17.2788 16.444 16.875 15.9375 16.875C15.4205 16.875 15 17.2956 15 17.8125C15 18.3294 15.4205 18.75 15.9375 18.75C16.444 18.75 16.8577 18.3462 16.8742 17.8436C16.8763 17.8225 16.8763 17.8025 16.8742 17.7814ZM15.9375 18.125C15.7652 18.125 15.625 17.9848 15.625 17.8125C15.625 17.6402 15.7652 17.5 15.9375 17.5C16.1098 17.5 16.25 17.6402 16.25 17.8125C16.25 17.9848 16.1098 18.125 15.9375 18.125Z" fill="white"/>
<path d="M19.0087 15.625C19.0855 15.4085 19.0625 15.8171 19.0625 9.6875C19.0625 9.17059 18.6419 8.75 18.125 8.75C17.8509 8.75 16.1327 8.75 15.8837 8.75C15.9605 8.53352 15.9375 8.94211 15.9375 2.8125C15.9375 2.29559 15.5169 1.875 15 1.875C13.4048 1.875 11.5762 1.875 10 1.875C9.48309 1.875 9.0625 2.29559 9.0625 2.8125C9.0625 8.94297 9.03961 8.53395 9.11625 8.75C8.86625 8.75 7.15211 8.75 6.875 8.75C6.35809 8.75 5.9375 9.17059 5.9375 9.6875C5.9375 15.818 5.91461 15.4089 5.99125 15.625H5V1.875C5 0.841094 4.15887 0 3.125 0H0.9375C0.420547 0 0 0.420586 0 0.9375C0 1.45441 0.420547 1.875 0.9375 1.875H2.89062C3.01988 1.875 3.125 1.98012 3.125 2.10938V17.1875C3.125 17.7044 3.54555 18.125 4.0625 18.125H5.0227C5.17484 19.1837 6.08746 20 7.1875 20C8.28754 20 9.2002 19.1837 9.3523 18.125H13.7727C13.9248 19.1837 14.8374 20 15.9375 20C17.0375 20 17.9502 19.1837 18.1023 18.125H19.0625C19.5795 18.125 20 17.7044 20 17.1875V16.5625C20 16.0876 19.6394 15.625 19.0087 15.625ZM18.4375 9.6875V15.3125C18.4375 15.4848 18.2973 15.625 18.125 15.625H13.125C12.9527 15.625 12.8125 15.4848 12.8125 15.3125V9.6875C12.8125 9.51519 12.9527 9.375 13.125 9.375H14.375V10.9375C14.375 11.1101 14.5149 11.25 14.6875 11.25H16.5625C16.7351 11.25 16.875 11.1101 16.875 10.9375V9.375H18.125C18.2973 9.375 18.4375 9.51519 18.4375 9.6875ZM13.7727 17.5H9.3523C9.28238 17.0135 9.05191 16.5784 8.71633 16.25H14.4086C14.0731 16.5784 13.8426 17.0135 13.7727 17.5ZM16.25 10.625H15V9.375H16.25V10.625ZM13.125 2.5V3.75H11.875V2.5H13.125ZM9.6875 8.4375V2.8125C9.6875 2.6402 9.82769 2.5 10 2.5H11.25V4.0625C11.25 4.23508 11.3899 4.375 11.5625 4.375H13.4375C13.6101 4.375 13.75 4.23508 13.75 4.0625V2.5H15C15.1723 2.5 15.3125 2.6402 15.3125 2.8125V8.4375C15.3125 8.60981 15.1723 8.75 15 8.75C12.5373 8.75 11.4504 8.75 10 8.75C9.82769 8.75 9.6875 8.60981 9.6875 8.4375ZM10 9.375V10.625H8.75V9.375H10ZM6.5625 15.3125V9.6875C6.5625 9.51519 6.7027 9.375 6.875 9.375H8.125V10.9375C8.125 11.1101 8.26492 11.25 8.4375 11.25H10.3125C10.4851 11.25 10.625 11.1101 10.625 10.9375V9.375H11.875C12.0473 9.375 12.1875 9.51519 12.1875 9.6875V15.3125C12.1875 15.4848 12.0473 15.625 11.875 15.625H6.875C6.7027 15.625 6.5625 15.4848 6.5625 15.3125ZM3.75 4.0625H4.375V15.625H3.75V4.0625ZM2.89062 1.25H0.9375C0.765195 1.25 0.625 1.1098 0.625 0.9375C0.625 0.765195 0.765195 0.625 0.9375 0.625H3.125C3.81426 0.625 4.375 1.18574 4.375 1.875V3.4375H3.75V2.10938C3.75 1.63551 3.36449 1.25 2.89062 1.25ZM3.75 17.1875V16.25H5.65867C5.32309 16.5784 5.09262 17.0135 5.0227 17.5H4.0625C3.8902 17.5 3.75 17.3598 3.75 17.1875ZM7.1875 19.375C6.32594 19.375 5.625 18.6741 5.625 17.8125C5.625 16.9509 6.32594 16.25 7.1875 16.25C8.04906 16.25 8.75 16.9509 8.75 17.8125C8.75 18.6741 8.04906 19.375 7.1875 19.375ZM15.9375 19.375C15.0759 19.375 14.375 18.6741 14.375 17.8125C14.375 16.9509 15.0759 16.25 15.9375 16.25C16.7991 16.25 17.5 16.9509 17.5 17.8125C17.5 18.6741 16.7991 19.375 15.9375 19.375ZM19.375 17.1875C19.375 17.3598 19.2348 17.5 19.0625 17.5H18.1023C18.0324 17.0135 17.8019 16.5784 17.4663 16.25H19.0625C19.2348 16.25 19.375 16.3902 19.375 16.5625V17.1875Z" fill="white"/>
<path d="M10.625 15H11.25C11.4226 15 11.5625 14.8601 11.5625 14.6875C11.5625 14.5149 11.4226 14.375 11.25 14.375H10.625C10.4524 14.375 10.3125 14.5149 10.3125 14.6875C10.3125 14.8601 10.4524 15 10.625 15Z" fill="white"/>
<path d="M16.875 14.375C16.7024 14.375 16.5625 14.5149 16.5625 14.6875C16.5625 14.8601 16.7024 15 16.875 15H17.5C17.6726 15 17.8125 14.8601 17.8125 14.6875C17.8125 14.5149 17.6726 14.375 17.5 14.375H16.875Z" fill="white"/>
<path d="M13.75 8.125H14.375C14.5476 8.125 14.6875 7.98508 14.6875 7.8125C14.6875 7.63992 14.5476 7.5 14.375 7.5H13.75C13.5774 7.5 13.4375 7.63992 13.4375 7.8125C13.4375 7.98508 13.5774 8.125 13.75 8.125Z" fill="white"/>
</svg>
