<svg width="20" height="20" viewBox="0 0 20 20" fill="none" xmlns="http://www.w3.org/2000/svg">
<path d="M19.6875 9.6875H17.8125V2.5C17.8125 2.3125 17.6875 2.1875 17.5 2.1875H10.3125V0.3125C10.3125 0.125 10.1875 0 10 0H0.3125C0.125 0 0 0.125 0 0.3125V10C0 10.1875 0.125 10.3125 0.3125 10.3125H2.1875V17.5C2.1875 17.6875 2.3125 17.8125 2.5 17.8125H9.6875V19.6875C9.6875 19.875 9.8125 20 10 20H19.6875C19.875 20 20 19.875 20 19.6875V10C20 9.8125 19.875 9.6875 19.6875 9.6875ZM9.6875 17.1875H2.8125V10.3125H7.5V12.1875C7.5 12.375 7.625 12.5 7.8125 12.5H9.6875V17.1875ZM2.8125 9.6875V8.125H7.5V9.6875H2.8125ZM9.6875 11.875H8.125V10.3125H9.6875V11.875ZM9.6875 9.6875H8.125V8.125H9.6875V9.6875ZM9.6875 7.5H8.125V2.8125H9.6875V7.5ZM9.6875 2.1875H7.8125C7.625 2.1875 7.5 2.3125 7.5 2.5V7.5H2.5C2.3125 7.5 2.1875 7.625 2.1875 7.8125V9.6875H0.625V0.625H9.6875V2.1875ZM10.3125 2.8125H17.1875V9.6875H12.5V7.8125C12.5 7.625 12.375 7.5 12.1875 7.5H10.3125V2.8125ZM17.1875 10.3125V11.875H12.5V10.3125H17.1875ZM10.3125 8.125H11.875V9.6875H10.3125V8.125ZM10.3125 10.3125H11.875V11.875H10.3125V10.3125ZM10.3125 12.5H11.875V17.1875H10.3125V12.5ZM19.375 19.375H10.3125V17.8125H12.1875C12.375 17.8125 12.5 17.6875 12.5 17.5V12.5H17.5C17.6875 12.5 17.8125 12.375 17.8125 12.1875V10.3125H19.375V19.375Z" fill="white"/>
<path d="M2.5 1.875H1.875V2.5H2.5V1.875Z" fill="white"/>
<path d="M3.75 1.875H3.125V2.5H3.75V1.875Z" fill="white"/>
<path d="M5 1.875H4.375V2.5H5V1.875Z" fill="white"/>
<path d="M2.5 3.125H1.875V3.75H2.5V3.125Z" fill="white"/>
<path d="M3.75 3.125H3.125V3.75H3.75V3.125Z" fill="white"/>
<path d="M5 3.125H4.375V3.75H5V3.125Z" fill="white"/>
<path d="M2.5 4.375H1.875V5H2.5V4.375Z" fill="white"/>
<path d="M3.75 4.375H3.125V5H3.75V4.375Z" fill="white"/>
<path d="M5 4.375H4.375V5H5V4.375Z" fill="white"/>
<path d="M15.625 15H15V15.625H15.625V15Z" fill="white"/>
<path d="M16.875 15H16.25V15.625H16.875V15Z" fill="white"/>
<path d="M18.125 15H17.5V15.625H18.125V15Z" fill="white"/>
<path d="M15.625 16.25H15V16.875H15.625V16.25Z" fill="white"/>
<path d="M16.875 16.25H16.25V16.875H16.875V16.25Z" fill="white"/>
<path d="M18.125 16.25H17.5V16.875H18.125V16.25Z" fill="white"/>
<path d="M15.625 17.5H15V18.125H15.625V17.5Z" fill="white"/>
<path d="M16.875 17.5H16.25V18.125H16.875V17.5Z" fill="white"/>
<path d="M18.125 17.5H17.5V18.125H18.125V17.5Z" fill="white"/>
<path d="M13.4375 4.0625H12.8125V4.6875H13.4375V4.0625Z" fill="white"/>
<path d="M14.6875 4.0625H14.0625V4.6875H14.6875V4.0625Z" fill="white"/>
<path d="M15.9375 4.0625H15.3125V4.6875H15.9375V4.0625Z" fill="white"/>
<path d="M13.4375 5.3125H12.8125V5.9375H13.4375V5.3125Z" fill="white"/>
<path d="M14.6875 5.3125H14.0625V5.9375H14.6875V5.3125Z" fill="white"/>
<path d="M15.9375 5.3125H15.3125V5.9375H15.9375V5.3125Z" fill="white"/>
<path d="M18.75 0H18.125V0.625H18.75V0Z" fill="white"/>
<path d="M20 0H19.375V0.625H20V0Z" fill="white"/>
<path d="M20 1.25H19.375V1.875H20V1.25Z" fill="white"/>
<path d="M13.4375 6.5625H12.8125V7.1875H13.4375V6.5625Z" fill="white"/>
<path d="M14.6875 6.5625H14.0625V7.1875H14.6875V6.5625Z" fill="white"/>
<path d="M15.9375 6.5625H15.3125V7.1875H15.9375V6.5625Z" fill="white"/>
<path d="M4.6875 12.8125H4.0625V13.4375H4.6875V12.8125Z" fill="white"/>
<path d="M5.9375 12.8125H5.3125V13.4375H5.9375V12.8125Z" fill="white"/>
<path d="M7.1875 12.8125H6.5625V13.4375H7.1875V12.8125Z" fill="white"/>
<path d="M4.6875 14.0625H4.0625V14.6875H4.6875V14.0625Z" fill="white"/>
<path d="M5.9375 14.0625H5.3125V14.6875H5.9375V14.0625Z" fill="white"/>
<path d="M7.1875 14.0625H6.5625V14.6875H7.1875V14.0625Z" fill="white"/>
<path d="M4.6875 15.3125H4.0625V15.9375H4.6875V15.3125Z" fill="white"/>
<path d="M5.9375 15.3125H5.3125V15.9375H5.9375V15.3125Z" fill="white"/>
<path d="M0.625 18.125H0V18.75H0.625V18.125Z" fill="white"/>
<path d="M0.625 19.375H0V20H0.625V19.375Z" fill="white"/>
<path d="M1.875 19.375H1.25V20H1.875V19.375Z" fill="white"/>
<path d="M7.1875 15.3125H6.5625V15.9375H7.1875V15.3125Z" fill="white"/>
</svg>
