<svg width="20" height="20" viewBox="0 0 20 20" fill="none" xmlns="http://www.w3.org/2000/svg">
<path d="M10.0002 4C8.62143 4.00156 7.2996 4.54996 6.32468 5.52488C5.34976 6.4998 4.80137 7.82163 4.7998 9.20037V12.4006C4.80015 12.7188 4.9267 13.0238 5.15169 13.2488C5.37667 13.4738 5.68171 13.6003 5.99989 13.6007H6.79995C7.11812 13.6003 7.42317 13.4738 7.64815 13.2488C7.87314 13.0238 7.99969 12.7188 8.00003 12.4006V10.0004C7.99969 9.68226 7.87314 9.37721 7.64815 9.15223C7.42317 8.92724 7.11812 8.80069 6.79995 8.80035H5.62013C5.7194 7.70726 6.22379 6.6908 7.03424 5.95062C7.84468 5.21044 8.9026 4.80005 10.0002 4.80005C11.0978 4.80005 12.1557 5.21044 12.9661 5.95062C13.7766 6.6908 14.281 7.70726 14.3802 8.80035H13.2004C12.8822 8.80069 12.5772 8.92724 12.3522 9.15223C12.1272 9.37721 12.0007 9.68226 12.0003 10.0004V12.4006C12.0007 12.7188 12.1272 13.0238 12.3522 13.2488C12.5772 13.4738 12.8822 13.6003 13.2004 13.6007H14.3644C14.2696 14.1594 13.9803 14.6666 13.5477 15.0326C13.1151 15.3986 12.567 15.5999 12.0003 15.6008H10.0002C9.89408 15.6008 9.79234 15.643 9.71732 15.718C9.6423 15.793 9.60015 15.8948 9.60015 16.0009C9.60015 16.107 9.6423 16.2087 9.71732 16.2837C9.79234 16.3587 9.89408 16.4009 10.0002 16.4009H12.0003C12.8488 16.3999 13.6622 16.0624 14.2622 15.4625C14.8621 14.8625 15.1996 14.0491 15.2006 13.2007V9.20037C15.199 7.82163 14.6506 6.4998 13.6757 5.52488C12.7008 4.54996 11.3789 4.00156 10.0002 4ZM7.19998 10.0004V12.4006C7.19987 12.5067 7.15769 12.6084 7.08269 12.6834C7.0077 12.7583 6.90601 12.8005 6.79995 12.8006H5.99989C5.89383 12.8005 5.79214 12.7583 5.71714 12.6834C5.64215 12.6084 5.59997 12.5067 5.59986 12.4006V9.6004H6.79995C6.90601 9.60051 7.0077 9.64269 7.08269 9.71769C7.15769 9.79268 7.19987 9.89437 7.19998 10.0004ZM12.8004 12.4006V10.0004C12.8005 9.89437 12.8427 9.79268 12.9177 9.71769C12.9927 9.64269 13.0943 9.60051 13.2004 9.6004H14.4005V12.8006H13.2004C13.0943 12.8005 12.9927 12.7583 12.9177 12.6834C12.8427 12.6084 12.8005 12.5067 12.8004 12.4006Z" fill="white"/>
<path d="M9.99974 2.86861e-07C8.17895 -0.000435801 6.39261 0.496344 4.83346 1.43674C3.27432 2.37713 2.00156 3.72543 1.15254 5.33615C0.303514 6.94688 -0.0895483 8.75887 0.0157641 10.5766C0.121077 12.3944 0.720765 14.1488 1.75012 15.6507L0.816856 18.6837C0.795579 18.7532 0.793613 18.8272 0.811168 18.8977C0.828722 18.9682 0.865136 19.0326 0.916504 19.084C0.967873 19.1354 1.03226 19.1718 1.10276 19.1894C1.17326 19.207 1.24722 19.205 1.3167 19.1838L4.34992 18.2505C5.64227 19.1356 7.12447 19.7047 8.67707 19.912C10.2297 20.1193 11.8093 19.959 13.2886 19.444C14.7679 18.9289 16.1055 18.0736 17.1936 16.9469C18.2818 15.8202 19.09 14.4536 19.5532 12.9572C20.0164 11.4609 20.1217 9.8767 19.8604 8.33225C19.5992 6.7878 18.9788 5.32632 18.0493 4.06557C17.1197 2.80483 15.907 1.78008 14.5088 1.0739C13.1106 0.367731 11.5661 -0.00011844 9.99974 2.86861e-07ZM9.99974 19.2014C8.08121 19.2051 6.21021 18.6047 4.65209 17.4853C4.60199 17.4495 4.54431 17.4257 4.48354 17.4158C4.42277 17.4059 4.36053 17.4102 4.30167 17.4282L1.80364 18.197L2.57225 15.6988C2.59036 15.6399 2.59463 15.5777 2.58474 15.5169C2.57485 15.4561 2.55106 15.3984 2.51522 15.3484C1.95769 14.5713 1.52522 13.7117 1.23351 12.8009H3.59928C3.70537 12.8009 3.80712 12.7588 3.88214 12.6838C3.95716 12.6087 3.99931 12.507 3.99931 12.4009C3.99931 12.2948 3.95716 12.193 3.88214 12.118C3.80712 12.043 3.70537 12.0009 3.59928 12.0009H1.02121C0.905549 11.4746 0.836364 10.9391 0.814459 10.4007H3.19925C3.30535 10.4007 3.40709 10.3586 3.48211 10.2836C3.55713 10.2086 3.59928 10.1068 3.59928 10.0007C3.59928 9.89462 3.55713 9.79288 3.48211 9.71786C3.40709 9.64284 3.30535 9.60069 3.19925 9.60069H0.809211C0.832514 9.06214 0.90326 8.5267 1.02063 8.00058H3.59928C3.70537 8.00058 3.80712 7.95843 3.88214 7.88341C3.95716 7.80839 3.99931 7.70664 3.99931 7.60055C3.99931 7.49445 3.95716 7.3927 3.88214 7.31768C3.80712 7.24266 3.70537 7.20052 3.59928 7.20052H1.23619C1.82973 5.34239 2.99852 3.721 4.57375 2.57053C6.14898 1.42006 8.04912 0.800056 9.99974 0.800056C11.9504 0.800056 13.8505 1.42006 15.4257 2.57053C17.001 3.721 18.1697 5.34239 18.7633 7.20052H16.4002C16.2941 7.20052 16.1924 7.24266 16.1173 7.31768C16.0423 7.3927 16.0002 7.49445 16.0002 7.60055C16.0002 7.70664 16.0423 7.80839 16.1173 7.88341C16.1924 7.95843 16.2941 8.00058 16.4002 8.00058H18.9789C19.0962 8.5267 19.167 9.06214 19.1903 9.60069H16.8002C16.6941 9.60069 16.5924 9.64284 16.5174 9.71786C16.4423 9.79288 16.4002 9.89462 16.4002 10.0007C16.4002 10.1068 16.4423 10.2086 16.5174 10.2836C16.5924 10.3586 16.6941 10.4007 16.8002 10.4007H19.1903C19.167 10.9393 19.0962 11.4747 18.9789 12.0009H16.4002C16.2941 12.0009 16.1924 12.043 16.1173 12.118C16.0423 12.193 16.0002 12.2948 16.0002 12.4009C16.0002 12.507 16.0423 12.6087 16.1173 12.6838C16.1924 12.7588 16.2941 12.8009 16.4002 12.8009H18.7633C18.1675 14.6577 16.9982 16.2777 15.4235 17.4278C13.8487 18.5779 11.9498 19.1989 9.99974 19.2014Z" fill="white"/>
</svg>
