<svg width="22" height="20" viewBox="0 0 22 20" fill="none" xmlns="http://www.w3.org/2000/svg">
<path d="M18.4785 10.5185V9.09817C18.4785 8.44855 17.95 7.92005 17.3004 7.92005H17.2868V7.1783C17.2868 5.91955 16.9357 4.70142 16.2699 3.6404C16.3654 3.55223 16.4309 3.43404 16.4524 3.30463C16.4788 3.14644 16.4386 2.98239 16.3421 2.85459C15.6764 1.97288 14.8032 1.24669 13.8167 0.75447C12.8277 0.260883 11.7193 0 10.6115 0C9.50373 0 8.39535 0.260883 7.40625 0.75447C6.41992 1.24669 5.54665 1.97288 4.88096 2.85459C4.78445 2.98239 4.74425 3.14639 4.7706 3.30463C4.79218 3.43404 4.85759 3.55223 4.95316 3.6404C4.28738 4.70142 3.9363 5.91955 3.9363 7.1783V7.92H3.92268C3.27306 7.92 2.74455 8.44851 2.74455 9.09812V10.5184C1.12798 11.2474 0 12.8743 0 14.7597C0 16.0421 0.521814 17.2048 1.36422 18.0469V19.5288C1.36422 19.7886 1.57562 20 1.83547 20H2.548C2.80784 20 3.01925 19.7886 3.01925 19.5288V19.1142C3.52688 19.3049 4.0763 19.4095 4.64982 19.4095C7.21374 19.4095 9.29963 17.3236 9.29963 14.7597C9.29963 14.1455 9.18309 13.5542 8.95336 12.9969H9.69025V13.195C9.69025 13.4639 9.83954 13.7059 10.0799 13.8266C10.181 13.8774 10.2897 13.9025 10.3978 13.9025C10.5466 13.9025 10.6942 13.855 10.8192 13.762L11.8471 12.9969H12.2698C12.0401 13.5542 11.9235 14.1455 11.9235 14.7597C11.9235 17.3236 14.0094 19.4095 16.5733 19.4095C19.1372 19.4095 21.2231 17.3236 21.2231 14.7597C21.2231 12.8743 20.0951 11.2475 18.4785 10.5185ZM18.0073 9.09817V10.3366C17.7682 10.2589 17.5207 10.1999 17.2665 10.1617V9.32767C17.2665 9.06782 17.0551 8.85642 16.7952 8.85642H16.3504C16.0906 8.85642 15.8792 9.06782 15.8792 9.32767V10.1627C15.6272 10.2006 15.3796 10.2588 15.1388 10.3368V9.09817C15.1388 8.7084 15.4559 8.3913 15.8457 8.3913H17.3004C17.6902 8.3913 18.0073 8.70835 18.0073 9.09817ZM16.7953 10.1154C16.7217 10.1119 16.6477 10.1099 16.5733 10.1099C16.4988 10.1099 16.4245 10.1119 16.3505 10.1154V9.32767H16.7953V10.1154ZM5.25707 3.13857C6.51808 1.46841 8.51976 0.471249 10.6116 0.471249C12.7034 0.471249 14.705 1.46836 15.966 3.13857C15.9919 3.17292 15.9907 3.20883 15.9876 3.22721C15.9845 3.24582 15.9739 3.28065 15.9376 3.30511L14.9842 3.94874C14.9842 3.94874 14.9842 3.94874 14.9842 3.94878C14.9842 3.94883 14.9842 3.94878 14.9841 3.94883L14.8517 4.03823C14.8013 4.07225 14.7326 4.06146 14.6953 4.01353C13.7087 2.74149 12.2202 2.012 10.6116 2.012C9.00289 2.012 7.51435 2.74144 6.52774 4.01339C6.49056 4.06132 6.42181 4.0723 6.37138 4.03813L6.23953 3.94911C6.2391 3.94883 6.23882 3.94845 6.2384 3.94817C6.23797 3.94789 6.2375 3.94775 6.23712 3.94747L5.28548 3.30506C5.24915 3.28051 5.23859 3.24568 5.23544 3.22711C5.23242 3.20883 5.23115 3.17292 5.25707 3.13857ZM4.40755 7.1783C4.40755 6.01639 4.72922 4.89166 5.33982 3.91038L5.78345 4.20981C5.23247 5.10221 4.94199 6.12336 4.94199 7.17826V7.91995H4.40755V7.1783ZM3.2158 9.09817C3.2158 8.7084 3.53291 8.3913 3.92268 8.3913H5.37738C5.76715 8.3913 6.08425 8.7084 6.08425 9.09817V10.3368C5.84325 10.2588 5.59557 10.2006 5.34345 10.1627V9.32767C5.34345 9.06782 5.13204 8.85642 4.8722 8.85642H4.42734C4.16749 8.85642 3.95609 9.06782 3.95609 9.32767V10.1617C3.70204 10.1999 3.45477 10.2589 3.2158 10.3365V9.09817ZM4.8722 10.1154C4.79826 10.1119 4.72413 10.11 4.64977 10.11C4.57517 10.11 4.50104 10.1119 4.42729 10.1154V9.32767H4.87215V10.1154H4.8722ZM2.548 19.5288H1.83547V18.4585C2.05818 18.6283 2.29644 18.7787 2.548 18.9067V19.5288ZM8.82833 14.7598C8.82833 17.0638 6.95385 18.9383 4.64977 18.9383C2.34569 18.9383 0.471202 17.0638 0.471202 14.7598C0.471202 12.4557 2.34569 10.5812 4.64977 10.5812C5.65023 10.5812 6.61087 10.9384 7.36751 11.5874V12.29C7.36751 12.6798 7.68461 12.9969 8.07438 12.9969H8.4388C8.69719 13.5492 8.82833 14.1414 8.82833 14.7598ZM11.7691 12.5257C11.7184 12.5257 11.669 12.542 11.6284 12.5723L10.5378 13.3841C10.4648 13.4384 10.3727 13.4465 10.2914 13.4056C10.21 13.3648 10.1615 13.2861 10.1615 13.195V12.7613C10.1615 12.6311 10.056 12.5257 9.92587 12.5257H8.07443C7.94451 12.5257 7.83881 12.42 7.83881 12.29V6.63505C7.83881 6.50512 7.94451 6.39942 8.07443 6.39942H8.89695C9.02711 6.39942 9.13257 6.29396 9.13257 6.1638C9.13257 6.03364 9.02711 5.92817 8.89695 5.92817H8.07443C7.68466 5.92817 7.36756 6.24528 7.36756 6.63505V10.9881C7.11219 10.8038 6.84023 10.6466 6.55555 10.5187V9.09817C6.55555 8.46057 6.04636 7.94003 5.41329 7.92094V7.1783C5.41329 6.21568 5.67723 5.28388 6.17779 4.46857C6.42383 4.58935 6.72798 4.52413 6.90012 4.30222C7.79682 3.14625 9.14963 2.4832 10.6116 2.4832C12.0735 2.4832 13.4264 3.1462 14.3231 4.30227C14.438 4.45034 14.6117 4.52885 14.7878 4.52885C14.8753 4.52885 14.9632 4.50919 15.045 4.46923C15.4926 5.19891 15.7536 6.02996 15.8014 6.8874C15.8083 7.01285 15.9123 7.10992 16.0364 7.10992C16.0408 7.10992 16.0452 7.10978 16.0497 7.10955C16.1796 7.10234 16.2791 6.99112 16.2719 6.86115C16.2195 5.92082 15.9321 5.00947 15.439 4.21028L15.8833 3.91033C16.494 4.89157 16.8156 6.01634 16.8156 7.17826V7.91995H15.8458C15.1961 7.91995 14.6676 8.44846 14.6676 9.09808V10.5186C14.3829 10.6466 14.1109 10.8038 13.8556 10.9881V6.635C13.8556 6.24523 13.5385 5.92813 13.1487 5.92813H10.2276C10.0975 5.92813 9.99199 6.03359 9.99199 6.16375C9.99199 6.29391 10.0975 6.39937 10.2276 6.39937H13.1487C13.2787 6.39937 13.3844 6.50508 13.3844 6.635V12.29C13.3844 12.4199 13.2787 12.5256 13.1487 12.5256L11.7691 12.5257ZM16.5733 18.9383C14.2692 18.9383 12.3947 17.0638 12.3947 14.7598C12.3947 14.1414 12.5259 13.5492 12.7843 12.9969H13.1487C13.5385 12.9969 13.8556 12.6798 13.8556 12.29V11.5874C14.6122 10.9384 15.5729 10.5812 16.5733 10.5812C18.8774 10.5812 20.7519 12.4557 20.7519 14.7598C20.7519 17.0638 18.8773 18.9383 16.5733 18.9383Z" fill="white"/>
</svg>
