<svg width="16" height="20" viewBox="0 0 16 20" fill="none" xmlns="http://www.w3.org/2000/svg">
<path d="M3.594 8.55231L5.42025 6.35524C5.52369 6.23078 5.50665 6.04609 5.3822 5.94265C5.25782 5.83925 5.07305 5.85628 4.96961 5.9807L3.40419 7.86398L3.06204 7.30818C2.97723 7.17041 2.7968 7.1274 2.65895 7.21228C2.52117 7.29713 2.47824 7.4776 2.56305 7.61534L3.11915 8.5186C3.22431 8.6893 3.46595 8.70637 3.594 8.55231Z" fill="white"/>
<path d="M2.56308 11.4826L3.11918 12.3858C3.22426 12.5565 3.46591 12.5736 3.59395 12.4195L5.4202 10.2224C5.52364 10.098 5.5066 9.91329 5.38215 9.80985C5.25777 9.70645 5.073 9.72345 4.96956 9.8479L3.40415 11.7312L3.06199 11.1754C2.97719 11.0376 2.79675 10.9946 2.6589 11.0795C2.52116 11.1644 2.47823 11.3448 2.56308 11.4826Z" fill="white"/>
<path d="M2.56308 15.3771L3.11918 16.2804C3.22426 16.4511 3.46591 16.4681 3.59395 16.314L5.4202 14.117C5.52364 13.9925 5.5066 13.8078 5.38215 13.7044C5.25777 13.601 5.073 13.618 4.96956 13.7424L3.40415 15.6257L3.06199 15.0699C2.97719 14.9321 2.79675 14.8892 2.6589 14.974C2.52116 15.0589 2.47823 15.2394 2.56308 15.3771Z" fill="white"/>
<path d="M15.5198 16.5391C15.358 16.5391 15.2268 16.6702 15.2268 16.8321V18.9647C15.2268 19.2124 15.0253 19.4139 14.7776 19.4139H1.22267C0.974975 19.4139 0.773448 19.2124 0.773448 18.9647V6.12501C0.773448 5.96317 0.642274 5.83203 0.480474 5.83203C0.318674 5.83203 0.1875 5.96317 0.1875 6.12501V18.9647C0.1875 19.5355 0.651883 19.9999 1.22267 19.9999H14.7776C15.3484 19.9999 15.8128 19.5355 15.8128 18.9647V16.8321C15.8128 16.6703 15.6816 16.5391 15.5198 16.5391Z" fill="white"/>
<path d="M14.7776 2.2575H13.3444V1.04689C13.3444 0.469657 12.8748 0 12.2976 0C11.7203 0 11.2507 0.469618 11.2507 1.04689V2.2575H9.04703V1.04689C9.04703 0.469618 8.57737 0 8.00014 0C7.4229 0 6.95324 0.469618 6.95324 1.04689V2.2575H4.74957V1.04689C4.74957 0.469657 4.27995 0 3.70268 0C3.12544 0 2.65579 0.469618 2.65579 1.04689V2.2575H1.22267C0.651883 2.2575 0.1875 2.72188 0.1875 3.29268V4.75825C0.1875 4.92009 0.318674 5.05122 0.480474 5.05122C0.642274 5.05122 0.773448 4.92009 0.773448 4.75825V3.29268C0.773448 3.04498 0.974975 2.84345 1.22267 2.84345H2.65579V3.30865C2.65579 3.88589 3.1254 4.35555 3.70268 4.35555C4.27995 4.35555 4.74957 3.88593 4.74957 3.30865V2.84345H6.95324V3.30865C6.95324 3.88589 7.42286 4.35555 8.00014 4.35555C8.57741 4.35555 9.04703 3.88593 9.04703 3.30865V2.84345H11.2507V3.30865C11.2507 3.88589 11.7203 4.35555 12.2976 4.35555C12.8748 4.35555 13.3445 3.88593 13.3445 3.30865V2.84345H14.7776C15.0253 2.84345 15.2268 3.04498 15.2268 3.29268V15.4653C15.2268 15.6272 15.358 15.7583 15.5198 15.7583C15.6816 15.7583 15.8128 15.6272 15.8128 15.4653V3.29268C15.8128 2.72188 15.3484 2.2575 14.7776 2.2575ZM4.16366 3.30865C4.16366 3.56284 3.9569 3.7696 3.70272 3.7696C3.44857 3.7696 3.24177 3.56284 3.24177 3.30865C3.24177 2.68415 3.24177 1.24237 3.24177 1.04689C3.24177 0.792709 3.44853 0.585948 3.70272 0.585948C3.9569 0.585948 4.16366 0.792709 4.16366 1.04689V3.30865ZM8.46108 3.30865C8.46108 3.56284 8.25432 3.7696 8.00014 3.7696C7.74595 3.7696 7.53919 3.56284 7.53919 3.30865C7.53919 2.68415 7.53919 1.24237 7.53919 1.04689C7.53919 0.792709 7.74595 0.585948 8.00014 0.585948C8.25432 0.585948 8.46108 0.792709 8.46108 1.04689V3.30865ZM12.7585 3.30865C12.7585 3.56284 12.5518 3.7696 12.2976 3.7696C12.0434 3.7696 11.8366 3.56284 11.8366 3.30865C11.8366 2.68415 11.8366 1.24237 11.8366 1.04689C11.8366 0.792709 12.0434 0.585948 12.2976 0.585948C12.5517 0.585948 12.7585 0.792709 12.7585 1.04689V3.30865Z" fill="white"/>
<path d="M6.66017 8.79691H12.8322C13.3383 8.79691 13.7501 8.3851 13.7501 7.87892C13.7501 7.37274 13.3383 6.96094 12.8322 6.96094H6.66017C6.15399 6.96094 5.74219 7.37274 5.74219 7.87892C5.74219 8.3851 6.15399 8.79691 6.66017 8.79691ZM6.66017 7.54689H12.8322C13.0152 7.54689 13.1642 7.69583 13.1642 7.87892C13.1642 8.06201 13.0152 8.21096 12.8322 8.21096H6.66017C6.47708 8.21096 6.32814 8.06201 6.32814 7.87892C6.32814 7.69583 6.47708 7.54689 6.66017 7.54689Z" fill="white"/>
<path d="M6.66017 12.6719H12.8322C13.3383 12.6719 13.7501 12.2601 13.7501 11.7539C13.7501 11.2477 13.3383 10.8359 12.8322 10.8359H6.66017C6.15399 10.8359 5.74219 11.2477 5.74219 11.7539C5.74219 12.2601 6.15399 12.6719 6.66017 12.6719ZM6.66017 11.4219H12.8322C13.0152 11.4219 13.1642 11.5708 13.1642 11.7539C13.1642 11.937 13.0152 12.086 12.8322 12.086H6.66017C6.47708 12.086 6.32814 11.937 6.32814 11.7539C6.32814 11.5708 6.47708 11.4219 6.66017 11.4219Z" fill="white"/>
<path d="M6.66017 16.5469H12.8322C13.3383 16.5469 13.7501 16.1351 13.7501 15.6289C13.7501 15.1227 13.3383 14.7109 12.8322 14.7109H6.66017C6.15399 14.7109 5.74219 15.1227 5.74219 15.6289C5.74219 16.1351 6.15399 16.5469 6.66017 16.5469ZM6.66017 15.2969H12.8322C13.0152 15.2969 13.1642 15.4458 13.1642 15.6289C13.1642 15.812 13.0152 15.961 12.8322 15.961H6.66017C6.47708 15.961 6.32814 15.812 6.32814 15.6289C6.32814 15.4458 6.47708 15.2969 6.66017 15.2969Z" fill="white"/>
</svg>
