<svg width="20" height="20" viewBox="0 0 20 20" fill="none" xmlns="http://www.w3.org/2000/svg">
<path d="M17.6296 5.00303C17.3865 5.00282 17.1447 5.04001 16.9129 5.11332C16.9349 4.9386 16.946 4.76262 16.9462 4.58652C16.9029 2.01056 14.7796 -0.0426032 12.2036 0.000671705C10.3239 0.0322428 8.6468 1.18913 7.94969 2.93516C6.60155 2.09919 4.83098 2.51445 3.99506 3.8626C3.72291 4.30147 3.57414 4.80561 3.56439 5.32191C3.20145 5.11236 2.78961 5.00232 2.37052 5.00303C1.08235 5.00303 0.0380859 6.04729 0.0380859 7.33546C0.0380859 8.62363 1.08235 9.66789 2.37052 9.66789C2.55453 9.66789 2.70372 9.5187 2.70372 9.33469C2.70372 9.15067 2.55453 9.00148 2.37052 9.00148C1.4505 8.98653 0.716824 8.22861 0.731776 7.3086C0.746729 6.38858 1.50464 5.6549 2.42466 5.66985C2.9847 5.67898 3.50266 5.96886 3.8033 6.44143C3.90409 6.59541 4.1106 6.63852 4.26458 6.53777C4.39765 6.45068 4.45063 6.2817 4.39107 6.13422C4.28615 5.88115 4.23138 5.61013 4.2298 5.33619C4.24317 4.12866 5.23141 3.15982 6.43895 3.17036C6.97699 3.17249 7.49604 3.36945 7.90005 3.72481C8.03874 3.84577 8.24925 3.83136 8.37016 3.69266C8.40294 3.65509 8.42684 3.61061 8.44017 3.56254C9.04985 1.44103 11.2639 0.215464 13.3854 0.825145C15.0698 1.30921 16.2424 2.8342 16.2775 4.58648C16.2761 4.93576 16.2273 5.28325 16.1325 5.61942C16.0833 5.79672 16.187 5.9804 16.3643 6.02967C16.4602 6.05633 16.5631 6.03871 16.6447 5.98161C16.9329 5.77835 17.277 5.66931 17.6296 5.6694C18.5497 5.6694 19.2956 6.41532 19.2956 7.33542C19.2956 8.25552 18.5497 9.00144 17.6296 9.00144C17.4456 9.00144 17.2964 9.15063 17.2964 9.33465C17.2964 9.51866 17.4456 9.66785 17.6296 9.66785C18.9178 9.66785 19.9621 8.62359 19.9621 7.33542C19.9621 6.04729 18.9178 5.00303 17.6296 5.00303Z" fill="white"/>
<path d="M15.6635 12.6641H4.33457C3.7825 12.6641 3.33496 13.1116 3.33496 13.6637V14.9965C3.33496 15.5486 3.7825 15.9961 4.33457 15.9961H15.6635C16.2156 15.9961 16.6631 15.5486 16.6631 14.9965V13.6637C16.6631 13.1116 16.2156 12.6641 15.6635 12.6641ZM15.9967 14.9965C15.9967 15.1805 15.8475 15.3297 15.6635 15.3297H4.33457C4.15056 15.3297 4.00137 15.1805 4.00137 14.9965V13.6637C4.00137 13.4797 4.15056 13.3305 4.33457 13.3305H15.6635C15.8475 13.3305 15.9967 13.4797 15.9967 13.6637V14.9965Z" fill="white"/>
<path d="M14.7384 13.6914C14.3834 13.6936 14.0967 13.9821 14.0967 14.3371C14.0983 14.6947 14.3889 14.9834 14.7464 14.9829C15.1031 14.9807 15.3904 14.6898 15.3882 14.3331C15.386 13.9765 15.0951 13.6892 14.7384 13.6914ZM14.7464 14.3582C14.7364 14.3582 14.7298 14.3472 14.7298 14.3372L14.7464 14.3165V14.3582Z" fill="white"/>
<path d="M11.2647 14H4.93379C4.74978 14 4.60059 14.1492 4.60059 14.3332C4.60059 14.5172 4.74978 14.6664 4.93379 14.6664H11.2647C11.4487 14.6664 11.5979 14.5172 11.5979 14.3332C11.5979 14.1492 11.4487 14 11.2647 14Z" fill="white"/>
<path d="M13.324 14H12.4377C12.2537 14 12.1045 14.1492 12.1045 14.3332C12.1045 14.5172 12.2537 14.6664 12.4377 14.6664H13.324C13.508 14.6664 13.6572 14.5172 13.6572 14.3332C13.6572 14.1492 13.5081 14 13.324 14Z" fill="white"/>
<path d="M15.6635 16.668H4.33457C3.7825 16.668 3.33496 17.1155 3.33496 17.6676V19.0004C3.33496 19.5525 3.7825 20 4.33457 20H15.6635C16.2156 20 16.6631 19.5525 16.6631 19.0004V17.6676C16.6631 17.1155 16.2156 16.668 15.6635 16.668ZM15.9967 19.0004C15.9967 19.1844 15.8475 19.3336 15.6635 19.3336H4.33457C4.15056 19.3336 4.00137 19.1844 4.00137 19.0004V17.6676C4.00137 17.4836 4.15056 17.3344 4.33457 17.3344H15.6635C15.8475 17.3344 15.9967 17.4836 15.9967 17.6676V19.0004Z" fill="white"/>
<path d="M14.7384 17.6836C14.3834 17.6858 14.0967 17.9742 14.0967 18.3293C14.0983 18.6868 14.3889 18.9756 14.7464 18.9751C15.1031 18.9729 15.3904 18.682 15.3882 18.3253C15.386 17.9687 15.0951 17.6814 14.7384 17.6836ZM14.7464 18.3503C14.7364 18.3503 14.7298 18.3394 14.7298 18.3294L14.7464 18.3087V18.3503Z" fill="white"/>
<path d="M11.2647 17.9961H4.93379C4.74978 17.9961 4.60059 18.1453 4.60059 18.3293C4.60059 18.5133 4.74978 18.6625 4.93379 18.6625H11.2647C11.4487 18.6625 11.5979 18.5133 11.5979 18.3293C11.5979 18.1453 11.4487 17.9961 11.2647 17.9961Z" fill="white"/>
<path d="M13.324 17.9961H12.4377C12.2537 17.9961 12.1045 18.1453 12.1045 18.3293C12.1045 18.5133 12.2537 18.6625 12.4377 18.6625H13.324C13.508 18.6625 13.6572 18.5133 13.6572 18.3293C13.6572 18.1453 13.5081 17.9961 13.324 17.9961Z" fill="white"/>
<path d="M15.6635 8.66797H4.33457C3.7825 8.66797 3.33496 9.1155 3.33496 9.66758V11.0004C3.33496 11.5525 3.7825 12 4.33457 12H15.6635C16.2156 12 16.6631 11.5525 16.6631 11.0004V9.66758C16.6631 9.1155 16.2156 8.66797 15.6635 8.66797ZM15.9967 11.0004C15.9967 11.1844 15.8475 11.3336 15.6635 11.3336H4.33457C4.15056 11.3336 4.00137 11.1844 4.00137 11.0004V9.66758C4.00137 9.48357 4.15056 9.33438 4.33457 9.33438H15.6635C15.8475 9.33438 15.9967 9.48357 15.9967 9.66758V11.0004Z" fill="white"/>
<path d="M15.285 10.2384C15.2208 9.88439 14.8818 9.64948 14.5278 9.7137C14.3601 9.74411 14.211 9.83907 14.1125 9.97814C14.0136 10.1178 13.9749 10.2912 14.0052 10.4596C14.0612 10.7698 14.3311 10.9955 14.6463 10.9957C14.6827 10.9957 14.719 10.9927 14.7549 10.9868C14.926 10.9585 15.0785 10.8624 15.1777 10.7202C15.277 10.5806 15.3157 10.4069 15.285 10.2384ZM14.6293 10.3557L14.6443 10.3293L14.6459 10.371C14.6309 10.371 14.6299 10.3627 14.6293 10.3557Z" fill="white"/>
<path d="M11.1983 9.99609H4.86738C4.68337 9.99609 4.53418 10.1453 4.53418 10.3293C4.53418 10.5133 4.68337 10.6625 4.86738 10.6625H11.1983C11.3823 10.6625 11.5315 10.5133 11.5315 10.3293C11.5315 10.1453 11.3823 9.99609 11.1983 9.99609Z" fill="white"/>
<path d="M13.1092 9.99609H12.2229C12.0388 9.99609 11.8896 10.1453 11.8896 10.3293C11.8896 10.5133 12.0388 10.6625 12.2229 10.6625H13.1092C13.2932 10.6625 13.4424 10.5133 13.4424 10.3293C13.4424 10.1453 13.2932 9.99609 13.1092 9.99609Z" fill="white"/>
<path d="M8.57073 5.43311L7.57112 4.43349C7.441 4.30342 7.23009 4.30342 7.09997 4.43349L6.10036 5.43311C5.97253 5.56547 5.9762 5.77643 6.10856 5.90426C6.23768 6.02896 6.44239 6.02896 6.57151 5.90426L7.00234 5.47343V7.66791C7.00234 7.85192 7.15153 8.00112 7.33555 8.00112C7.51956 8.00112 7.66875 7.85192 7.66875 7.66791V5.47343L8.09958 5.90426C8.23195 6.03208 8.44291 6.02842 8.57073 5.89605C8.69544 5.76694 8.69544 5.56222 8.57073 5.43311Z" fill="white"/>
<path d="M13.8907 6.43279C13.7616 6.30809 13.5569 6.30809 13.4277 6.43279L12.9969 6.86363V4.66914C12.9969 4.48513 12.8477 4.33594 12.6637 4.33594C12.4797 4.33594 12.3305 4.48513 12.3305 4.66914V6.86363L11.8996 6.43279C11.7673 6.30493 11.5564 6.30859 11.4285 6.44096C11.3038 6.57007 11.3038 6.77479 11.4285 6.90394L12.4281 7.90356C12.5582 8.03363 12.7691 8.03363 12.8993 7.90356L13.8989 6.90394C14.0267 6.77158 14.0231 6.56062 13.8907 6.43279Z" fill="white"/>
</svg>
