<svg width="20" height="18" viewBox="0 0 20 18" fill="none" xmlns="http://www.w3.org/2000/svg">
<path d="M1.64062 1.75715C1.64062 1.91859 1.77148 2.04945 1.93293 2.04945C2.09437 2.04945 2.22523 1.91859 2.22523 1.75715C2.22523 1.5957 2.09437 1.46484 1.93293 1.46484C1.77148 1.46484 1.64062 1.5957 1.64062 1.75715Z" fill="white"/>
<path d="M3.10938 1.75715C3.10938 1.91859 3.24023 2.04945 3.40168 2.04945C3.56313 2.04945 3.69398 1.91859 3.69398 1.75715C3.69398 1.5957 3.56313 1.46484 3.40168 1.46484C3.24027 1.46484 3.10938 1.5957 3.10938 1.75715Z" fill="white"/>
<path d="M4.58203 1.75715C4.58203 1.91859 4.71289 2.04945 4.87434 2.04945C5.03578 2.04945 5.16664 1.91859 5.16664 1.75715C5.16664 1.5957 5.03578 1.46484 4.87434 1.46484C4.71289 1.46484 4.58203 1.5957 4.58203 1.75715Z" fill="white"/>
<path d="M13.1439 5.97133H13.5394C13.7008 5.97133 13.8317 5.84047 13.8317 5.67902C13.8317 5.51758 13.7008 5.38672 13.5394 5.38672H13.1439C12.9824 5.38672 12.8516 5.51758 12.8516 5.67902C12.8516 5.84047 12.9824 5.97133 13.1439 5.97133Z" fill="white"/>
<path d="M13.1439 7.13539H18.3735C18.535 7.13539 18.6658 7.00453 18.6658 6.84309C18.6658 6.68164 18.535 6.55078 18.3735 6.55078H13.1439C12.9824 6.55078 12.8516 6.68164 12.8516 6.84309C12.8516 7.00453 12.9824 7.13539 13.1439 7.13539Z" fill="white"/>
<path d="M13.1439 8.31117H18.3735C18.535 8.31117 18.6658 8.18031 18.6658 8.01887C18.6658 7.85742 18.535 7.72656 18.3735 7.72656H13.1439C12.9824 7.72656 12.8516 7.85742 12.8516 8.01887C12.8516 8.18035 12.9824 8.31117 13.1439 8.31117Z" fill="white"/>
<path d="M13.1439 9.49086H18.3735C18.535 9.49086 18.6658 9.36 18.6658 9.19855C18.6658 9.03711 18.535 8.90625 18.3735 8.90625H13.1439C12.9824 8.90625 12.8516 9.03711 12.8516 9.19855C12.8516 9.36004 12.9824 9.49086 13.1439 9.49086Z" fill="white"/>
<path d="M13.1439 10.6666H18.3735C18.535 10.6666 18.6658 10.5358 18.6658 10.3743C18.6658 10.2129 18.535 10.082 18.3735 10.082H13.1439C12.9824 10.082 12.8516 10.2129 12.8516 10.3743C12.8516 10.5358 12.9824 10.6666 13.1439 10.6666Z" fill="white"/>
<path d="M6.56702 6.84488C6.41905 6.78023 6.24679 6.84754 6.18206 6.99543L5.38397 8.81883C5.31925 8.96668 5.38667 9.13906 5.53452 9.20379C5.57268 9.22047 5.61241 9.22836 5.65159 9.22836C5.76417 9.22836 5.87147 9.16293 5.91952 9.0532L6.71761 7.2298C6.78233 7.08199 6.71491 6.90965 6.56702 6.84488Z" fill="white"/>
<path d="M8.03198 7.04087C7.94272 6.90638 7.76136 6.8697 7.62682 6.95888C7.49229 7.04813 7.45561 7.22954 7.54487 7.36407L7.97569 8.01345L7.54194 8.69388C7.45518 8.82997 7.49518 9.01067 7.63128 9.09747C7.67999 9.12852 7.73436 9.14333 7.78811 9.14333C7.88464 9.14333 7.97913 9.09552 8.03487 9.0081L8.57081 8.16735C8.63296 8.06989 8.63179 7.94497 8.56788 7.84864L8.03198 7.04087Z" fill="white"/>
<path d="M4.47811 6.95886C4.34362 6.86972 4.16221 6.90636 4.07295 7.04085L3.53701 7.84862C3.47311 7.94495 3.47198 8.06987 3.53408 8.16734L4.07002 9.00808C4.12576 9.09554 4.22026 9.14331 4.31678 9.14331C4.37053 9.14331 4.42494 9.12851 4.47362 9.09745C4.60975 9.0107 4.64975 8.82999 4.56295 8.69386L4.1292 8.01343L4.56002 7.36405C4.64932 7.22952 4.61264 7.04812 4.47811 6.95886Z" fill="white"/>
<path d="M18.9274 0.347656H16.4464C16.2849 0.347656 16.1541 0.478516 16.1541 0.639961C16.1541 0.801406 16.2849 0.932266 16.4464 0.932266H18.9274C19.1965 0.932266 19.4154 1.15117 19.4154 1.42027V2.57301H0.584609V1.42027C0.584609 1.15121 0.803516 0.932266 1.07262 0.932266H15.1003C15.2617 0.932266 15.3926 0.801406 15.3926 0.639961C15.3926 0.478516 15.2617 0.347656 15.1003 0.347656H1.07262C0.481172 0.347656 0 0.828828 0 1.42027V13.1962C0 13.7877 0.481172 14.2688 1.07262 14.2688H8.35719C8.33449 14.4109 8.30562 14.5893 8.27242 14.7897C8.24602 14.9489 8.35375 15.0995 8.51301 15.1259C8.67215 15.1523 8.82277 15.0446 8.84914 14.8852C8.89012 14.638 8.92473 14.4227 8.94918 14.2688H11.0507C11.1403 14.8339 11.3663 16.2222 11.5549 17.0677H8.44504C8.49484 16.8443 8.55066 16.5678 8.61191 16.2407C8.64164 16.0821 8.53711 15.9293 8.37844 15.8996C8.21973 15.87 8.06703 15.9745 8.0373 16.1331C7.96445 16.522 7.9002 16.8349 7.84539 17.0678H7.47348C7.31203 17.0678 7.18117 17.1986 7.18117 17.3601C7.18117 17.5215 7.31203 17.6524 7.47348 17.6524H12.5266C12.688 17.6524 12.8189 17.5215 12.8189 17.3601C12.8189 17.1986 12.688 17.0678 12.5266 17.0678H12.1546C11.977 16.3136 11.7455 14.9111 11.6428 14.2688H18.9274C19.5189 14.2688 20 13.7877 20 13.1963V1.42027C20 0.828828 19.5188 0.347656 18.9274 0.347656ZM0.584609 4.61586H11.5192V11.4384H0.584609V4.61586ZM19.4154 13.1962C19.4154 13.4652 19.1965 13.6842 18.9274 13.6842H1.07262C0.803555 13.6842 0.584609 13.4653 0.584609 13.1962V12.023H19.4154V13.1962H19.4154ZM19.4154 11.4384H12.1038V4.61586H19.4154V11.4384H19.4154ZM19.4154 4.03125H11.8115H0.584609V3.15762H19.4154V4.03125H19.4154Z" fill="white"/>
</svg>
