<svg width="20" height="20" viewBox="0 0 20 20" fill="none" xmlns="http://www.w3.org/2000/svg">
<path d="M16.2048 10.293H17.0758C17.2121 10.9674 17.8093 11.4768 18.5233 11.4768C19.3375 11.4768 20 10.8143 20 10C20 9.1857 19.3375 8.52324 18.5232 8.52324C17.8093 8.52324 17.2121 9.03262 17.0758 9.70703H16.2048C16.1351 8.21473 15.5367 6.85832 14.5927 5.82164L16.1616 4.25277C16.4704 4.47766 16.8501 4.61082 17.2605 4.61082C18.2924 4.61082 19.1319 3.77133 19.1319 2.73945C19.1319 1.70758 18.2924 0.868125 17.2605 0.868125C16.2287 0.868125 15.3892 1.70762 15.3892 2.73945C15.3892 3.14988 15.5223 3.52961 15.7473 3.83844L14.1784 5.4073C13.1417 4.46332 11.7853 3.86484 10.293 3.79523V2.92422C10.9674 2.78793 11.4768 2.19074 11.4768 1.47676C11.4768 0.662461 10.8143 0 10 0C9.1857 0 8.52324 0.662461 8.52324 1.47676C8.52324 2.19074 9.03262 2.78793 9.70703 2.92422V3.7952C8.21473 3.86484 6.85832 4.46328 5.82164 5.40727L4.25285 3.83852C4.47777 3.52965 4.61094 3.14988 4.61094 2.73945C4.61094 2.11633 4.3023 1.53605 3.78535 1.18723C3.65113 1.09676 3.46906 1.13207 3.37863 1.26621C3.28812 1.40035 3.32348 1.58242 3.45758 1.67293C3.81289 1.91266 4.02496 2.31137 4.02496 2.73945C4.02496 3.44828 3.44824 4.025 2.73941 4.025C2.03059 4.025 1.45391 3.44828 1.45391 2.73945C1.45391 2.16703 1.83809 1.65824 2.38816 1.50219C2.54383 1.45801 2.63422 1.29602 2.59004 1.14035C2.54586 0.984688 2.38379 0.894414 2.22824 0.938477C1.4273 1.16574 0.867969 1.90633 0.867969 2.73945C0.867969 3.77141 1.7075 4.61094 2.73945 4.61094C3.14992 4.61094 3.52969 4.47777 3.83852 4.25285L5.4073 5.8216C4.46328 6.85828 3.86484 8.21469 3.7952 9.70699H2.92422C2.78793 9.03258 2.19074 8.5232 1.47676 8.5232C0.662461 8.52324 0 9.1857 0 10C0 10.8143 0.662461 11.4768 1.47676 11.4768C2.19074 11.4768 2.78793 10.9674 2.92422 10.293H3.79523C3.86488 11.7853 4.46332 13.1417 5.40734 14.1784L3.83844 15.7472C3.52961 15.5223 3.14988 15.3892 2.73945 15.3892C1.70758 15.3892 0.868125 16.2287 0.868125 17.2605C0.868125 18.2924 1.70758 19.1319 2.73945 19.1319C3.77133 19.1319 4.61078 18.2924 4.61078 17.2605C4.61078 16.8501 4.47766 16.4704 4.25273 16.1616L5.82164 14.5927C6.85832 15.5367 8.21473 16.1352 9.70703 16.2048V17.0757C9.03262 17.212 8.52324 17.8092 8.52324 18.5232C8.52324 19.3375 9.1857 20 10 20C10.8143 20 11.4768 19.3375 11.4768 18.5232C11.4768 17.8093 10.9674 17.2121 10.293 17.0758V16.2048C11.7853 16.1352 13.1417 15.5367 14.1784 14.5927L15.7471 16.1615C15.5222 16.4704 15.3891 16.8501 15.3891 17.2605C15.3891 18.2925 16.2286 19.132 17.2605 19.132C18.2925 19.132 19.132 18.2925 19.132 17.2605C19.132 17.058 19.0998 16.8585 19.0361 16.6675C18.9849 16.514 18.8189 16.4311 18.6656 16.4822C18.5121 16.5334 18.4291 16.6993 18.4803 16.8528C18.5239 16.9838 18.5461 17.1211 18.5461 17.2605C18.5461 17.9693 17.9694 18.5461 17.2606 18.5461C16.5518 18.5461 15.975 17.9694 15.975 17.2605C15.975 16.5516 16.5518 15.975 17.2606 15.975C17.4228 15.975 17.581 16.0048 17.7308 16.0637C17.8812 16.1229 18.0514 16.0487 18.1106 15.8982C18.1698 15.7476 18.0957 15.5775 17.9451 15.5183C17.7268 15.4325 17.4965 15.389 17.2606 15.389C16.8502 15.389 16.4704 15.5222 16.1616 15.7471L14.5928 14.1784C15.5367 13.1417 16.1352 11.7853 16.2048 10.293ZM18.5232 9.10918C19.0145 9.10918 19.4141 9.50879 19.4141 10C19.4141 10.4912 19.0145 10.8908 18.5232 10.8908C18.032 10.8908 17.6324 10.4912 17.6324 10C17.6324 9.50879 18.0321 9.10918 18.5232 9.10918ZM17.2605 1.45406C17.9693 1.45406 18.5459 2.0307 18.5459 2.73945C18.5459 3.44824 17.9693 4.02488 17.2605 4.02488C16.5518 4.02488 15.9752 3.44824 15.9752 2.73945C15.9752 2.03066 16.5518 1.45406 17.2605 1.45406ZM9.10918 1.47676C9.10918 0.985547 9.50883 0.585938 10 0.585938C10.4912 0.585938 10.8908 0.985547 10.8908 1.47676C10.8908 1.96797 10.4912 2.36758 10 2.36758C9.50883 2.36758 9.10918 1.96793 9.10918 1.47676ZM1.47676 10.8908C0.985547 10.8908 0.585938 10.4912 0.585938 10C0.585938 9.50879 0.985547 9.10918 1.47676 9.10918C1.96797 9.10918 2.36754 9.50879 2.36754 10C2.36754 10.4912 1.96793 10.8908 1.47676 10.8908ZM10 4.37406C13.1021 4.37406 15.6259 6.89785 15.6259 10C15.6259 13.1021 13.1021 15.6259 10 15.6259C6.89785 15.6259 4.37406 13.1022 4.37406 10C4.37406 6.89781 6.89785 4.37406 10 4.37406ZM2.73945 18.5459C2.03066 18.5459 1.45406 17.9693 1.45406 17.2605C1.45406 16.5518 2.0307 15.9751 2.73945 15.9751C3.4482 15.9751 4.02484 16.5518 4.02484 17.2605C4.02484 17.9693 3.4482 18.5459 2.73945 18.5459ZM10.8908 18.5232C10.8908 19.0145 10.4912 19.4141 10 19.4141C9.50883 19.4141 9.10918 19.0145 9.10918 18.5232C9.10918 18.032 9.50883 17.6324 10 17.6324C10.4912 17.6324 10.8908 18.0321 10.8908 18.5232Z" fill="white"/>
<path d="M6.68742 13.608H8.34191C8.34281 13.608 8.34367 13.6082 8.34457 13.6082C8.34547 13.6082 8.34633 13.608 8.34723 13.608H9.31828C9.48012 13.608 9.61125 13.4769 9.61125 13.3151C9.61125 13.1533 9.48012 13.0221 9.31828 13.0221H8.63754V12.526C8.63754 12.3642 8.50641 12.233 8.34457 12.233C8.18273 12.233 8.0516 12.3642 8.0516 12.526V13.0221H6.98039V11.5791C6.98039 10.8703 7.55691 10.2936 8.26551 10.2936H11.7382C12.4468 10.2936 13.0233 10.8703 13.0233 11.5791V13.0221H11.9521V12.526C11.9521 12.3642 11.8209 12.233 11.6591 12.233C11.4973 12.233 11.3661 12.3642 11.3661 12.526V13.0221H10.6855C10.5236 13.0221 10.3925 13.1533 10.3925 13.3151C10.3925 13.4769 10.5236 13.608 10.6855 13.608H11.6565C11.6574 13.608 11.6583 13.6082 11.6592 13.6082C11.6601 13.6082 11.6609 13.608 11.6618 13.608H13.3163C13.4782 13.608 13.6093 13.4769 13.6093 13.3151V11.5791C13.6093 10.5472 12.77 9.70766 11.7382 9.70766H11.5207C11.9793 9.29273 12.2679 8.69328 12.2679 8.02766C12.2679 6.7782 11.2514 5.76172 10.0019 5.76172C8.75246 5.76172 7.73598 6.7782 7.73598 8.02766C7.73598 8.69328 8.02457 9.29273 8.48309 9.70766H8.26559C7.23387 9.70766 6.39453 10.5472 6.39453 11.5791V13.3151C6.39445 13.4769 6.52563 13.608 6.68742 13.608ZM8.32188 8.02766C8.32188 7.10133 9.07551 6.34766 10.0019 6.34766C10.9282 6.34766 11.6819 7.10129 11.6819 8.02766C11.6819 8.95402 10.9282 9.70766 10.0019 9.70766C9.07551 9.70766 8.32188 8.95402 8.32188 8.02766Z" fill="white"/>
</svg>
