<svg width="66" height="66" viewBox="0 0 66 66" fill="none" xmlns="http://www.w3.org/2000/svg">
<rect x="0.5" y="0.5" width="65" height="65" rx="8" fill="url(#paint0_linear_390_2767)"/>
<path d="M16 33H22.875L25.625 29L31.125 37L33.875 33H38" stroke="white" stroke-width="2" stroke-linecap="round" stroke-linejoin="round"/>
<path d="M16.0165 27.5455C16 27.3239 16 27.0852 16 26.8636C16 24.8146 16.6872 22.8288 17.9447 21.2442C19.2022 19.6596 20.9524 18.574 22.8973 18.1721C24.8423 17.7703 26.862 18.077 28.6127 19.0401C30.3635 20.0032 31.7371 21.5631 32.5 23.4546V23.4546C33.2629 21.5631 34.6365 20.0032 36.3873 19.0401C38.138 18.077 40.1577 17.7703 42.1027 18.1721C44.0476 18.574 45.7978 19.6596 47.0553 21.2442C48.3128 22.8288 49 24.8146 49 26.8636C49 38.4546 32.5 48 32.5 48C32.5 48 25.9165 44.1818 21.0655 38.4546" stroke="white" stroke-width="2" stroke-linecap="round" stroke-linejoin="round"/>
<defs>
<linearGradient id="paint0_linear_390_2767" x1="0.5" y1="33.8784" x2="65.5" y2="33.8784" gradientUnits="userSpaceOnUse">
<stop stop-color="#00469F"/>
<stop offset="1" stop-color="#1E79D6"/>
</linearGradient>
</defs>
</svg>
