<svg width="66" height="66" viewBox="0 0 66 66" fill="none" xmlns="http://www.w3.org/2000/svg">
<rect x="0.5" y="0.5" width="65" height="65" rx="8" fill="url(#paint0_linear_390_2757)"/>
<path fill-rule="evenodd" clip-rule="evenodd" d="M18.7205 14.0876C18.4425 14.2094 18.1905 14.4709 18.0834 14.7489C17.9763 15.0266 17.9703 47.5329 18.0772 47.9111C18.1333 48.1094 18.6053 48.6162 20.0601 50.0399C22.639 52.5638 22.4027 52.5384 24.46 50.5127L25.8174 49.1761L27.2191 50.5413C29.2188 52.489 29.1474 52.4893 31.1677 50.5236L32.5088 49.2188L33.8498 50.5236C35.8701 52.4893 35.7987 52.489 37.7984 50.5413L39.2001 49.1761L40.5575 50.5127C42.6149 52.5384 42.3784 52.5639 44.958 50.0394C46.4605 48.5691 46.8836 48.113 46.9417 47.9009C46.9893 47.7279 47.0088 41.7396 46.9964 31.1839L46.9769 14.7364L46.8212 14.5314C46.7355 14.4186 46.5715 14.2575 46.4568 14.1733L46.2482 14.0202L32.5977 14.0043C21.3367 13.9911 18.9075 14.0057 18.7205 14.0876ZM44.7482 31.6717V47.133L43.6329 48.2271L42.5176 49.3211L41.1964 48.017C40.4697 47.2997 39.7833 46.6649 39.6711 46.6064C39.4011 46.4657 38.9804 46.4717 38.6813 46.6204C38.5484 46.6865 37.8531 47.3117 37.1362 48.0096L35.8329 49.2787L34.4541 47.9326C33.2937 46.7997 33.0305 46.5783 32.7921 46.535C32.1508 46.4186 32.048 46.4831 30.5634 47.9326L29.1846 49.2787L27.8813 48.0096C27.1644 47.3117 26.4691 46.6865 26.3362 46.6204C26.0371 46.4717 25.6164 46.4657 25.3464 46.6064C25.2342 46.6649 24.5478 47.2997 23.8211 48.017L22.4999 49.3211L21.3846 48.2271L20.2693 47.133V31.6717V16.2103H32.5088H44.7482V31.6717ZM32.1778 19.9968C31.5955 20.1743 31.3755 20.6174 31.3755 21.6126V22.3425L30.9373 22.4314C29.1652 22.7911 27.907 24.5628 28.1823 26.3108C28.4108 27.7609 29.5368 28.9418 30.9773 29.2417C31.2834 29.3054 31.9246 29.3487 32.574 29.3495C33.5271 29.3506 33.6928 29.3693 33.9352 29.5032C34.6647 29.9061 34.815 30.7961 34.2624 31.4414C33.9143 31.8479 33.7554 31.8749 31.7104 31.8749C29.6481 31.8749 29.4856 31.9051 29.1641 32.348C28.929 32.672 28.929 33.305 29.1641 33.629C29.4342 34.001 29.7437 34.1021 30.6125 34.1021H31.3755V34.8518C31.3755 35.7055 31.4784 36.0097 31.857 36.2751C32.0325 36.3981 32.1999 36.4406 32.5088 36.4406C32.8176 36.4406 32.985 36.3981 33.1605 36.2751C33.5389 36.0098 33.642 35.7054 33.642 34.8532V34.1049L33.8498 34.0619C35.2508 33.7722 36.1852 33.0128 36.6499 31.7859C37.3711 29.882 36.2338 27.757 34.2087 27.2246C33.9773 27.1638 33.3917 27.1237 32.6976 27.1212C31.5214 27.1169 31.1382 27.0464 30.831 26.778C30.622 26.5954 30.3966 26.1006 30.3966 25.8244C30.3966 25.447 30.6557 24.9986 31.005 24.7713L31.3264 24.5623L33.3379 24.5252C35.1095 24.4925 35.3741 24.4721 35.557 24.3541C36.0537 24.0337 36.2088 23.3519 35.8897 22.8911C35.5633 22.4199 35.3924 22.3498 34.4817 22.3129L33.6549 22.2794L33.6296 21.4772C33.6084 20.8074 33.5786 20.6413 33.4485 20.4703C33.1194 20.0378 32.6352 19.8573 32.1778 19.9968ZM26.2002 40.2577C25.6227 40.3977 25.3691 40.7333 25.3691 41.3577C25.3691 41.7939 25.3855 41.8366 25.6537 42.1001L25.9382 42.3798H32.5039H39.0696L39.2717 42.1942C39.5912 41.9009 39.7072 41.6188 39.669 41.2281C39.631 40.8396 39.4573 40.5659 39.1195 40.363C38.905 40.2341 38.5605 40.2262 32.6599 40.2148C29.2317 40.2082 26.3248 40.2276 26.2002 40.2577Z" fill="white"/>
<defs>
<linearGradient id="paint0_linear_390_2757" x1="0.5" y1="33.8784" x2="65.5" y2="33.8784" gradientUnits="userSpaceOnUse">
<stop stop-color="#00469F"/>
<stop offset="1" stop-color="#1E79D6"/>
</linearGradient>
</defs>
</svg>
