<svg width="66" height="66" viewBox="0 0 66 66" fill="none" xmlns="http://www.w3.org/2000/svg">
<rect x="0.5" y="0.5" width="65" height="65" rx="8" fill="url(#paint0_linear_390_2740)"/>
<mask id="path-2-inside-1_390_2740" fill="white">
<path fill-rule="evenodd" clip-rule="evenodd" d="M49.215 17.5698C48.5597 16.2647 47.2142 15.4167 45.7307 15.4167C44.5048 15.4167 43.3609 16.0002 42.6318 16.9542C42.0093 16.5517 41.2829 16.3358 40.523 16.3358C39.3668 16.3358 38.3295 16.8441 37.6147 17.6464C35.4677 16.905 33.2045 16.635 30.8757 16.8776C30.3263 15.3845 28.9487 14.2666 27.3477 14.1539C26.693 12.848 25.3475 12 23.864 12C22.6381 12 21.4942 12.5836 20.7651 13.5375C20.1426 13.135 19.4162 12.9191 18.6564 12.9191C16.5066 12.9191 14.7566 14.6684 14.7566 16.8189V17.2077H14.5208C13.1309 17.2077 12 18.3386 12 19.7292C12 21.1191 13.1309 22.25 14.5208 22.25H20.5875C18.1234 25.0974 16.7833 28.6808 16.7833 32.5C16.7833 40.5743 22.9046 47.2429 30.7493 48.1169C29.781 48.4688 29.0833 49.3899 29.0833 50.4792C29.0833 51.8691 30.2142 53 31.6041 53H44.2602C46.5165 53 48.2167 51.2992 48.2167 49.0435C48.2167 46.8862 46.5097 45.0494 44.4317 44.9032C44.2007 44.4433 43.8809 44.0449 43.5037 43.7155C46.509 40.7663 48.2167 36.7264 48.2167 32.5C48.2167 30.1295 47.6748 27.7905 46.6484 25.6667H49.0442C51.2999 25.6667 53 23.9658 53 21.7102C53 19.5529 51.293 17.7168 49.215 17.5698ZM34.1598 24.3H33.1833V18.165C34.4509 18.2231 35.6871 18.452 36.8863 18.8395C36.7189 19.2734 36.6232 19.7435 36.6232 20.2355V20.6243H36.3875C34.9976 20.6243 33.8667 21.7553 33.8667 23.1459C33.8667 23.5634 33.9787 23.9522 34.1598 24.3ZM13.3667 19.7292C13.3667 19.0923 13.8846 18.5743 14.5208 18.5743H15.4399C15.8178 18.5743 16.1232 18.2682 16.1232 17.891V16.8189C16.1232 15.4221 17.2596 14.2857 18.6564 14.2857C19.3383 14.2857 19.9779 14.5529 20.4569 15.0388C20.6141 15.198 20.841 15.2711 21.0617 15.2315C21.2824 15.1925 21.471 15.0477 21.5639 14.8447C21.9774 13.9468 22.88 13.3667 23.864 13.3667C24.9328 13.3667 25.8915 14.0452 26.2495 15.0559C26.3466 15.3285 26.6042 15.511 26.8932 15.511H27.0798C28.5367 15.511 29.7667 16.7854 29.7667 18.2935C29.7667 19.7702 28.6535 20.8833 27.1775 20.8833H14.5208C13.8846 20.8833 13.3667 20.3654 13.3667 19.7292ZM27.1775 22.25C29.4332 22.25 31.1333 20.5492 31.1333 18.2935C31.1333 18.2798 31.1324 18.2662 31.1315 18.2528L31.1315 18.2528L31.1315 18.2526L31.1315 18.2525L31.1315 18.2524C31.1309 18.2426 31.1302 18.2329 31.1299 18.2231C31.3595 18.2006 31.5884 18.1848 31.8167 18.1739V24.3H26.3609H26.35H24.8857L24.8242 24.3L24.8452 24.3C24.9427 24.3 25.3293 24.3002 24.9047 24.3007H20.7214C21.2332 23.5709 21.8256 22.8889 22.4789 22.2507H27.1775V22.25ZM38.6097 33.1833H40.0023C39.9483 35.3556 39.6401 37.4419 39.0928 39.3333H33.1833V38.6097C36.0294 38.2933 38.2933 36.0287 38.6097 33.1833ZM46.8315 33.1833C46.7277 35.3536 46.1298 37.4521 45.1095 39.3333H40.5114C41.028 37.422 41.3177 35.3406 41.369 33.1833H46.8315ZM31.8167 46.7817C29.6006 46.3792 27.6313 44.0463 26.3821 40.7H31.8167V46.7817ZM25.925 39.3333C25.3838 37.4794 25.0599 35.3864 25.0025 33.1833H26.391C26.7074 36.0287 28.9713 38.2933 31.8174 38.6097V39.3333H25.925ZM18.1848 33.1833H23.6262C23.6775 35.3912 23.9734 37.4685 24.4701 39.3333H19.8843C18.8818 37.4904 18.2901 35.3994 18.1848 33.1833ZM18.1842 31.8167C18.286 29.63 18.86 27.541 19.8809 25.6667H24.4886C23.972 27.5779 23.6823 29.6594 23.631 31.8167H18.1842ZM32.5 37.2833C29.863 37.2833 27.7167 35.1377 27.7167 32.5C27.7167 29.8623 29.863 27.7167 32.5 27.7167C35.137 27.7167 37.2833 29.8623 37.2833 32.5C37.2833 35.1377 35.137 37.2833 32.5 37.2833ZM31.8167 26.3903C28.9706 26.7067 26.7067 28.9713 26.3903 31.8167H24.9977C25.0517 29.6444 25.3598 27.5581 25.9072 25.6667H31.8167V26.3903ZM20.7405 40.7H24.8822C25.6455 42.9475 26.7197 44.8089 28.0057 46.1188C25.038 45.1369 22.4987 43.2133 20.7405 40.7ZM43.9773 46.261H44.1638C45.62 46.261 46.85 47.5354 46.85 49.0435C46.85 50.5202 45.7368 51.6333 44.2608 51.6333H31.6041C30.968 51.6333 30.45 51.1154 30.45 50.4792C30.45 49.843 30.968 49.3243 31.6041 49.3243H32.5232C32.9011 49.3243 33.2066 49.0182 33.2066 48.641V47.5689C33.2066 46.1721 34.3429 45.0358 35.7397 45.0358C36.4216 45.0358 37.0612 45.3029 37.5403 45.7888C37.6974 45.948 37.9243 46.0204 38.145 45.9815C38.3657 45.9425 38.5543 45.7977 38.6473 45.5947C39.0607 44.6968 39.9634 44.1167 40.9474 44.1167C42.0161 44.1167 42.9748 44.7952 43.3329 45.8059C43.4299 46.0785 43.6875 46.261 43.9773 46.261ZM40.9474 42.75C39.7215 42.75 38.5776 43.3336 37.8484 44.2875C37.2259 43.885 36.4995 43.6691 35.7397 43.6691C34.7612 43.6691 33.8687 44.034 33.1833 44.6312V40.7H38.6391C38.6188 40.7542 38.5993 40.809 38.5798 40.8638L38.5797 40.8638L38.5797 40.8638C38.5478 40.9533 38.516 41.0427 38.4812 41.1291L39.7502 41.6368C39.8725 41.3314 39.9866 41.0177 40.0952 40.6993H44.2649C43.6882 41.5261 43.0226 42.2956 42.2744 42.9933C41.8555 42.8409 41.41 42.75 40.9474 42.75ZM46.8274 31.8167H41.3662C41.3259 30.1227 41.1448 28.467 40.8093 26.8912L39.472 27.1761C39.7884 28.6597 39.9599 30.219 39.9996 31.8174H38.6097C38.2933 28.972 36.0294 26.7074 33.1833 26.391V25.6667H36.3875H36.6H45.1089C46.1359 27.5595 46.7243 29.6635 46.8274 31.8167ZM49.0442 24.3H36.6H36.3875C35.7513 24.3 35.2333 23.782 35.2333 23.1459C35.2333 22.5097 35.7513 21.991 36.3875 21.991H37.3066C37.6845 21.991 37.9899 21.6849 37.9899 21.3077V20.2355C37.9899 18.8388 39.1263 17.7024 40.523 17.7024C41.205 17.7024 41.8446 17.9696 42.3236 18.4554C42.4814 18.6153 42.7083 18.6878 42.9284 18.6481C43.1491 18.6092 43.3377 18.4643 43.4306 18.2614C43.844 17.3635 44.7467 16.7833 45.7307 16.7833C46.7994 16.7833 47.7581 17.4619 48.1162 18.4725C48.2132 18.7452 48.4709 18.9276 48.7599 18.9276H48.9465C50.4033 18.9276 51.6333 20.202 51.6333 21.7102C51.6333 23.1868 50.5202 24.3 49.0442 24.3ZM32.5 30.45C32.8772 30.45 33.1833 30.7568 33.1833 31.1333H34.55C34.55 30.2436 33.9767 29.492 33.1833 29.2091V28.4H31.8167V29.2091C31.0233 29.492 30.45 30.2436 30.45 31.1333C30.45 32.2636 31.3698 33.1833 32.5 33.1833C32.8772 33.1833 33.1833 33.4902 33.1833 33.8667C33.1833 34.2432 32.8772 34.55 32.5 34.55C32.1228 34.55 31.8167 34.2432 31.8167 33.8667H30.45C30.45 34.7564 31.0233 35.508 31.8167 35.7909V36.6H33.1833V35.7909C33.9767 35.508 34.55 34.7564 34.55 33.8667C34.55 32.7364 33.6302 31.8167 32.5 31.8167C32.1228 31.8167 31.8167 31.5098 31.8167 31.1333C31.8167 30.7568 32.1228 30.45 32.5 30.45ZM48.2159 20.8826V19.5159C49.3666 19.5159 50.3021 20.4521 50.3021 21.6021H48.9355C48.9355 21.2051 48.6122 20.8826 48.2159 20.8826ZM43.4341 48.3242C43.8304 48.3242 44.1536 48.6467 44.1536 49.0438H45.5203C45.5203 47.8937 44.5848 46.9575 43.4341 46.9575V48.3242ZM26.3134 18.1164V16.7498C27.4641 16.7498 28.3996 17.6859 28.3996 18.836H27.0329C27.0329 18.439 26.7097 18.1164 26.3134 18.1164Z"/>
</mask>
<path fill-rule="evenodd" clip-rule="evenodd" d="M49.215 17.5698C48.5597 16.2647 47.2142 15.4167 45.7307 15.4167C44.5048 15.4167 43.3609 16.0002 42.6318 16.9542C42.0093 16.5517 41.2829 16.3358 40.523 16.3358C39.3668 16.3358 38.3295 16.8441 37.6147 17.6464C35.4677 16.905 33.2045 16.635 30.8757 16.8776C30.3263 15.3845 28.9487 14.2666 27.3477 14.1539C26.693 12.848 25.3475 12 23.864 12C22.6381 12 21.4942 12.5836 20.7651 13.5375C20.1426 13.135 19.4162 12.9191 18.6564 12.9191C16.5066 12.9191 14.7566 14.6684 14.7566 16.8189V17.2077H14.5208C13.1309 17.2077 12 18.3386 12 19.7292C12 21.1191 13.1309 22.25 14.5208 22.25H20.5875C18.1234 25.0974 16.7833 28.6808 16.7833 32.5C16.7833 40.5743 22.9046 47.2429 30.7493 48.1169C29.781 48.4688 29.0833 49.3899 29.0833 50.4792C29.0833 51.8691 30.2142 53 31.6041 53H44.2602C46.5165 53 48.2167 51.2992 48.2167 49.0435C48.2167 46.8862 46.5097 45.0494 44.4317 44.9032C44.2007 44.4433 43.8809 44.0449 43.5037 43.7155C46.509 40.7663 48.2167 36.7264 48.2167 32.5C48.2167 30.1295 47.6748 27.7905 46.6484 25.6667H49.0442C51.2999 25.6667 53 23.9658 53 21.7102C53 19.5529 51.293 17.7168 49.215 17.5698ZM34.1598 24.3H33.1833V18.165C34.4509 18.2231 35.6871 18.452 36.8863 18.8395C36.7189 19.2734 36.6232 19.7435 36.6232 20.2355V20.6243H36.3875C34.9976 20.6243 33.8667 21.7553 33.8667 23.1459C33.8667 23.5634 33.9787 23.9522 34.1598 24.3ZM13.3667 19.7292C13.3667 19.0923 13.8846 18.5743 14.5208 18.5743H15.4399C15.8178 18.5743 16.1232 18.2682 16.1232 17.891V16.8189C16.1232 15.4221 17.2596 14.2857 18.6564 14.2857C19.3383 14.2857 19.9779 14.5529 20.4569 15.0388C20.6141 15.198 20.841 15.2711 21.0617 15.2315C21.2824 15.1925 21.471 15.0477 21.5639 14.8447C21.9774 13.9468 22.88 13.3667 23.864 13.3667C24.9328 13.3667 25.8915 14.0452 26.2495 15.0559C26.3466 15.3285 26.6042 15.511 26.8932 15.511H27.0798C28.5367 15.511 29.7667 16.7854 29.7667 18.2935C29.7667 19.7702 28.6535 20.8833 27.1775 20.8833H14.5208C13.8846 20.8833 13.3667 20.3654 13.3667 19.7292ZM27.1775 22.25C29.4332 22.25 31.1333 20.5492 31.1333 18.2935C31.1333 18.2798 31.1324 18.2662 31.1315 18.2528L31.1315 18.2528L31.1315 18.2526L31.1315 18.2525L31.1315 18.2524C31.1309 18.2426 31.1302 18.2329 31.1299 18.2231C31.3595 18.2006 31.5884 18.1848 31.8167 18.1739V24.3H26.3609H26.35H24.8857L24.8242 24.3L24.8452 24.3C24.9427 24.3 25.3293 24.3002 24.9047 24.3007H20.7214C21.2332 23.5709 21.8256 22.8889 22.4789 22.2507H27.1775V22.25ZM38.6097 33.1833H40.0023C39.9483 35.3556 39.6401 37.4419 39.0928 39.3333H33.1833V38.6097C36.0294 38.2933 38.2933 36.0287 38.6097 33.1833ZM46.8315 33.1833C46.7277 35.3536 46.1298 37.4521 45.1095 39.3333H40.5114C41.028 37.422 41.3177 35.3406 41.369 33.1833H46.8315ZM31.8167 46.7817C29.6006 46.3792 27.6313 44.0463 26.3821 40.7H31.8167V46.7817ZM25.925 39.3333C25.3838 37.4794 25.0599 35.3864 25.0025 33.1833H26.391C26.7074 36.0287 28.9713 38.2933 31.8174 38.6097V39.3333H25.925ZM18.1848 33.1833H23.6262C23.6775 35.3912 23.9734 37.4685 24.4701 39.3333H19.8843C18.8818 37.4904 18.2901 35.3994 18.1848 33.1833ZM18.1842 31.8167C18.286 29.63 18.86 27.541 19.8809 25.6667H24.4886C23.972 27.5779 23.6823 29.6594 23.631 31.8167H18.1842ZM32.5 37.2833C29.863 37.2833 27.7167 35.1377 27.7167 32.5C27.7167 29.8623 29.863 27.7167 32.5 27.7167C35.137 27.7167 37.2833 29.8623 37.2833 32.5C37.2833 35.1377 35.137 37.2833 32.5 37.2833ZM31.8167 26.3903C28.9706 26.7067 26.7067 28.9713 26.3903 31.8167H24.9977C25.0517 29.6444 25.3598 27.5581 25.9072 25.6667H31.8167V26.3903ZM20.7405 40.7H24.8822C25.6455 42.9475 26.7197 44.8089 28.0057 46.1188C25.038 45.1369 22.4987 43.2133 20.7405 40.7ZM43.9773 46.261H44.1638C45.62 46.261 46.85 47.5354 46.85 49.0435C46.85 50.5202 45.7368 51.6333 44.2608 51.6333H31.6041C30.968 51.6333 30.45 51.1154 30.45 50.4792C30.45 49.843 30.968 49.3243 31.6041 49.3243H32.5232C32.9011 49.3243 33.2066 49.0182 33.2066 48.641V47.5689C33.2066 46.1721 34.3429 45.0358 35.7397 45.0358C36.4216 45.0358 37.0612 45.3029 37.5403 45.7888C37.6974 45.948 37.9243 46.0204 38.145 45.9815C38.3657 45.9425 38.5543 45.7977 38.6473 45.5947C39.0607 44.6968 39.9634 44.1167 40.9474 44.1167C42.0161 44.1167 42.9748 44.7952 43.3329 45.8059C43.4299 46.0785 43.6875 46.261 43.9773 46.261ZM40.9474 42.75C39.7215 42.75 38.5776 43.3336 37.8484 44.2875C37.2259 43.885 36.4995 43.6691 35.7397 43.6691C34.7612 43.6691 33.8687 44.034 33.1833 44.6312V40.7H38.6391C38.6188 40.7542 38.5993 40.809 38.5798 40.8638L38.5797 40.8638L38.5797 40.8638C38.5478 40.9533 38.516 41.0427 38.4812 41.1291L39.7502 41.6368C39.8725 41.3314 39.9866 41.0177 40.0952 40.6993H44.2649C43.6882 41.5261 43.0226 42.2956 42.2744 42.9933C41.8555 42.8409 41.41 42.75 40.9474 42.75ZM46.8274 31.8167H41.3662C41.3259 30.1227 41.1448 28.467 40.8093 26.8912L39.472 27.1761C39.7884 28.6597 39.9599 30.219 39.9996 31.8174H38.6097C38.2933 28.972 36.0294 26.7074 33.1833 26.391V25.6667H36.3875H36.6H45.1089C46.1359 27.5595 46.7243 29.6635 46.8274 31.8167ZM49.0442 24.3H36.6H36.3875C35.7513 24.3 35.2333 23.782 35.2333 23.1459C35.2333 22.5097 35.7513 21.991 36.3875 21.991H37.3066C37.6845 21.991 37.9899 21.6849 37.9899 21.3077V20.2355C37.9899 18.8388 39.1263 17.7024 40.523 17.7024C41.205 17.7024 41.8446 17.9696 42.3236 18.4554C42.4814 18.6153 42.7083 18.6878 42.9284 18.6481C43.1491 18.6092 43.3377 18.4643 43.4306 18.2614C43.844 17.3635 44.7467 16.7833 45.7307 16.7833C46.7994 16.7833 47.7581 17.4619 48.1162 18.4725C48.2132 18.7452 48.4709 18.9276 48.7599 18.9276H48.9465C50.4033 18.9276 51.6333 20.202 51.6333 21.7102C51.6333 23.1868 50.5202 24.3 49.0442 24.3ZM32.5 30.45C32.8772 30.45 33.1833 30.7568 33.1833 31.1333H34.55C34.55 30.2436 33.9767 29.492 33.1833 29.2091V28.4H31.8167V29.2091C31.0233 29.492 30.45 30.2436 30.45 31.1333C30.45 32.2636 31.3698 33.1833 32.5 33.1833C32.8772 33.1833 33.1833 33.4902 33.1833 33.8667C33.1833 34.2432 32.8772 34.55 32.5 34.55C32.1228 34.55 31.8167 34.2432 31.8167 33.8667H30.45C30.45 34.7564 31.0233 35.508 31.8167 35.7909V36.6H33.1833V35.7909C33.9767 35.508 34.55 34.7564 34.55 33.8667C34.55 32.7364 33.6302 31.8167 32.5 31.8167C32.1228 31.8167 31.8167 31.5098 31.8167 31.1333C31.8167 30.7568 32.1228 30.45 32.5 30.45ZM48.2159 20.8826V19.5159C49.3666 19.5159 50.3021 20.4521 50.3021 21.6021H48.9355C48.9355 21.2051 48.6122 20.8826 48.2159 20.8826ZM43.4341 48.3242C43.8304 48.3242 44.1536 48.6467 44.1536 49.0438H45.5203C45.5203 47.8937 44.5848 46.9575 43.4341 46.9575V48.3242ZM26.3134 18.1164V16.7498C27.4641 16.7498 28.3996 17.6859 28.3996 18.836H27.0329C27.0329 18.439 26.7097 18.1164 26.3134 18.1164Z" fill="white"/>
<path d="M49.215 17.5698L49.0363 17.6596L49.0874 17.7613L49.2009 17.7694L49.215 17.5698ZM42.6318 16.9542L42.5232 17.1221L42.6784 17.2225L42.7907 17.0756L42.6318 16.9542ZM37.6147 17.6464L37.5495 17.8354L37.6754 17.8789L37.7641 17.7794L37.6147 17.6464ZM30.8757 16.8776L30.688 16.9467L30.7417 17.0927L30.8964 17.0766L30.8757 16.8776ZM27.3477 14.1539L27.1689 14.2435L27.2199 14.3454L27.3336 14.3534L27.3477 14.1539ZM20.7651 13.5375L20.6565 13.7055L20.8118 13.8058L20.924 13.659L20.7651 13.5375ZM14.7566 17.2077V17.4077H14.9566V17.2077H14.7566ZM20.5875 22.25L20.7387 22.3809L21.025 22.05H20.5875V22.25ZM30.7493 48.1169L30.8176 48.3049L30.7714 47.9181L30.7493 48.1169ZM44.4317 44.9032L44.253 44.9929L44.3041 45.0947L44.4176 45.1027L44.4317 44.9032ZM43.5037 43.7155L43.3636 43.5728L43.2094 43.7241L43.3722 43.8662L43.5037 43.7155ZM46.6484 25.6667V25.4667H46.3296L46.4683 25.7537L46.6484 25.6667ZM33.1833 24.3H32.9833V24.5H33.1833V24.3ZM34.1598 24.3V24.5H34.4894L34.3372 24.2076L34.1598 24.3ZM33.1833 18.165L33.1925 17.9652L32.9833 17.9557V18.165H33.1833ZM36.8863 18.8395L37.0729 18.9115L37.149 18.7142L36.9478 18.6492L36.8863 18.8395ZM36.6232 20.6243V20.8243H36.8232V20.6243H36.6232ZM20.4569 15.0388L20.3145 15.1792L20.3146 15.1793L20.4569 15.0388ZM21.0617 15.2315L21.0269 15.0345L21.0263 15.0346L21.0617 15.2315ZM21.5639 14.8447L21.3823 14.7611L21.3821 14.7614L21.5639 14.8447ZM26.2495 15.0559L26.061 15.1227L26.0611 15.1229L26.2495 15.0559ZM27.1775 22.25V22.05H26.9775V22.25H27.1775ZM31.1315 18.2528L31.3313 18.2395L31.3304 18.2313L31.1315 18.2528ZM31.1315 18.2528L30.9314 18.262L30.9327 18.2743L31.1315 18.2528ZM31.1315 18.2524L31.3313 18.2432L31.3311 18.239L31.1315 18.2524ZM31.1299 18.2231L31.1104 18.0241L30.9246 18.0423L30.93 18.2289L31.1299 18.2231ZM31.8167 18.1739H32.0167V17.9641L31.8071 17.9741L31.8167 18.1739ZM31.8167 24.3V24.5H32.0167V24.3H31.8167ZM24.8857 24.3V24.1H24.8857L24.8857 24.3ZM24.8242 24.3L24.8242 24.1L24.8241 24.5L24.8242 24.3ZM24.8452 24.3L24.8451 24.5H24.8451L24.8452 24.3ZM24.9047 24.3007V24.5007H24.905L24.9047 24.3007ZM20.7214 24.3007L20.5576 24.1858L20.3368 24.5007H20.7214V24.3007ZM22.4789 22.2507V22.0507H22.3974L22.3391 22.1076L22.4789 22.2507ZM27.1775 22.2507V22.4507H27.3775V22.2507H27.1775ZM40.0023 33.1833L40.2023 33.1883L40.2073 32.9833H40.0023V33.1833ZM38.6097 33.1833V32.9833H38.4307L38.4109 33.1612L38.6097 33.1833ZM39.0928 39.3333V39.5333H39.2431L39.2849 39.3889L39.0928 39.3333ZM33.1833 39.3333H32.9833V39.5333H33.1833V39.3333ZM33.1833 38.6097L33.1612 38.4109L32.9833 38.4307V38.6097H33.1833ZM45.1095 39.3333V39.5333H45.2286L45.2854 39.4287L45.1095 39.3333ZM46.8315 33.1833L47.0313 33.1929L47.0413 32.9833H46.8315V33.1833ZM40.5114 39.3333L40.3183 39.2811L40.2502 39.5333H40.5114V39.3333ZM41.369 33.1833V32.9833H41.1737L41.169 33.1786L41.369 33.1833ZM26.3821 40.7V40.5H26.094L26.1947 40.7699L26.3821 40.7ZM31.8167 46.7817L31.7809 46.9784L32.0167 47.0213V46.7817H31.8167ZM31.8167 40.7H32.0167V40.5H31.8167V40.7ZM25.0025 33.1833V32.9833H24.7972L24.8025 33.1885L25.0025 33.1833ZM25.925 39.3333L25.733 39.3894L25.775 39.5333H25.925V39.3333ZM26.391 33.1833L26.5898 33.1612L26.57 32.9833H26.391V33.1833ZM31.8174 38.6097H32.0174V38.4307L31.8394 38.4109L31.8174 38.6097ZM31.8174 39.3333V39.5333H32.0174V39.3333H31.8174ZM23.6262 33.1833L23.8262 33.1787L23.8216 32.9833H23.6262V33.1833ZM18.1848 33.1833V32.9833H17.9751L17.9851 33.1928L18.1848 33.1833ZM24.4701 39.3333V39.5333H24.7304L24.6634 39.2818L24.4701 39.3333ZM19.8843 39.3333L19.7086 39.4289L19.7654 39.5333H19.8843V39.3333ZM19.8809 25.6667V25.4667H19.7621L19.7052 25.571L19.8809 25.6667ZM18.1842 31.8167L17.9844 31.8074L17.9746 32.0167H18.1842V31.8167ZM24.4886 25.6667L24.6817 25.7189L24.7498 25.4667H24.4886V25.6667ZM23.631 31.8167V32.0167H23.8263L23.831 31.8214L23.631 31.8167ZM26.3903 31.8167V32.0167H26.5693L26.5891 31.8388L26.3903 31.8167ZM31.8167 26.3903L31.8388 26.5891L32.0167 26.5693V26.3903H31.8167ZM24.9977 31.8167L24.7977 31.8117L24.7927 32.0167H24.9977V31.8167ZM25.9072 25.6667V25.4667H25.7569L25.7151 25.6111L25.9072 25.6667ZM31.8167 25.6667H32.0167V25.4667H31.8167V25.6667ZM24.8822 40.7L25.0716 40.6357L25.0255 40.5H24.8822V40.7ZM20.7405 40.7V40.5H20.3565L20.5766 40.8146L20.7405 40.7ZM28.0057 46.1188L27.9429 46.3087L28.1484 45.9787L28.0057 46.1188ZM37.5403 45.7888L37.3978 45.9292L37.3979 45.9293L37.5403 45.7888ZM38.145 45.9815L38.1798 46.1784H38.1798L38.145 45.9815ZM38.6473 45.5947L38.4656 45.5111L38.4654 45.5114L38.6473 45.5947ZM43.3329 45.8059L43.1444 45.8727L43.1445 45.8729L43.3329 45.8059ZM37.8484 44.2875L37.7399 44.4555L37.8951 44.5558L38.0073 44.409L37.8484 44.2875ZM33.1833 44.6312H32.9833V45.0708L33.3147 44.782L33.1833 44.6312ZM33.1833 40.7V40.5H32.9833V40.7H33.1833ZM38.6391 40.7L38.8264 40.7699L38.9272 40.5H38.6391V40.7ZM38.5798 40.8638L38.3913 40.7966L38.39 40.8005L38.5798 40.8638ZM38.5797 40.8638L38.39 40.8006L38.3876 40.8079L38.3857 40.8153L38.5797 40.8638ZM38.5797 40.8638L38.7681 40.931L38.7714 40.9218L38.7738 40.9124L38.5797 40.8638ZM38.4812 41.1291L38.2956 41.0545L38.2209 41.2404L38.4069 41.3148L38.4812 41.1291ZM39.7502 41.6368L39.6759 41.8225L39.8615 41.8968L39.9358 41.7112L39.7502 41.6368ZM40.0952 40.6993V40.4993H39.9522L39.906 40.6347L40.0952 40.6993ZM44.2649 40.6993L44.429 40.8137L44.6483 40.4993H44.2649V40.6993ZM42.2744 42.9933L42.206 43.1812L42.3212 43.2231L42.4108 43.1395L42.2744 42.9933ZM41.3662 31.8167L41.1663 31.8214L41.1709 32.0167H41.3662V31.8167ZM46.8274 31.8167V32.0167H47.0373L47.0272 31.8071L46.8274 31.8167ZM40.8093 26.8912L41.0049 26.8495L40.9633 26.6539L40.7677 26.6956L40.8093 26.8912ZM39.472 27.1761L39.4304 26.9805L39.2347 27.0222L39.2764 27.2179L39.472 27.1761ZM39.9996 31.8174V32.0174H40.2046L40.1995 31.8124L39.9996 31.8174ZM38.6097 31.8174L38.4109 31.8395L38.4307 32.0174H38.6097V31.8174ZM33.1833 26.391H32.9833V26.57L33.1612 26.5898L33.1833 26.391ZM33.1833 25.6667V25.4667H32.9833V25.6667H33.1833ZM45.1089 25.6667L45.2847 25.5713L45.2279 25.4667H45.1089V25.6667ZM42.3236 18.4554L42.1812 18.5959L42.1813 18.596L42.3236 18.4554ZM42.9284 18.6481L42.8936 18.4512L42.8929 18.4513L42.9284 18.6481ZM43.4306 18.2614L43.2489 18.1777L43.2488 18.1781L43.4306 18.2614ZM48.1162 18.4725L47.9277 18.5393L47.9278 18.5396L48.1162 18.4725ZM33.1833 31.1333H32.9833V31.3333H33.1833V31.1333ZM34.55 31.1333V31.3333H34.75V31.1333H34.55ZM33.1833 29.2091H32.9833V29.3501L33.1162 29.3974L33.1833 29.2091ZM33.1833 28.4H33.3833V28.2H33.1833V28.4ZM31.8167 28.4V28.2H31.6167V28.4H31.8167ZM31.8167 29.2091L31.8838 29.3974L32.0167 29.3501V29.2091H31.8167ZM31.8167 33.8667H32.0167V33.6667H31.8167V33.8667ZM30.45 33.8667V33.6667H30.25V33.8667H30.45ZM31.8167 35.7909H32.0167V35.6499L31.8838 35.6026L31.8167 35.7909ZM31.8167 36.6H31.6167V36.8H31.8167V36.6ZM33.1833 36.6V36.8H33.3833V36.6H33.1833ZM33.1833 35.7909L33.1162 35.6026L32.9833 35.6499V35.7909H33.1833ZM48.2159 19.5159V19.3159H48.0159V19.5159H48.2159ZM48.2159 20.8826H48.0159V21.0826H48.2159V20.8826ZM50.3021 21.6021V21.8021H50.5021V21.6021H50.3021ZM48.9355 21.6021H48.7355V21.8021H48.9355V21.6021ZM44.1536 49.0438H43.9536V49.2438H44.1536V49.0438ZM43.4341 48.3242H43.2341V48.5242H43.4341V48.3242ZM45.5203 49.0438V49.2438H45.7203V49.0438H45.5203ZM43.4341 46.9575V46.7575H43.2341V46.9575H43.4341ZM26.3134 16.7498V16.5498H26.1134V16.7498H26.3134ZM26.3134 18.1164H26.1134V18.3164H26.3134V18.1164ZM28.3996 18.836V19.036H28.5996V18.836H28.3996ZM27.0329 18.836H26.8329V19.036H27.0329V18.836ZM45.7307 15.6167C47.1376 15.6167 48.4144 16.4211 49.0363 17.6596L49.3937 17.4801C48.705 16.1083 47.2909 15.2167 45.7307 15.2167V15.6167ZM42.7907 17.0756C43.4828 16.1701 44.5684 15.6167 45.7307 15.6167V15.2167C44.4412 15.2167 43.239 15.8303 42.4729 16.8327L42.7907 17.0756ZM40.523 16.5357C41.2446 16.5357 41.9332 16.7407 42.5232 17.1221L42.7404 16.7862C42.0853 16.3627 41.3212 16.1358 40.523 16.1358V16.5357ZM37.7641 17.7794C38.443 17.0175 39.4269 16.5357 40.523 16.5357V16.1358C39.3067 16.1358 38.2161 16.6708 37.4654 17.5133L37.7641 17.7794ZM30.8964 17.0766C33.1961 16.837 35.4299 17.1035 37.5495 17.8354L37.68 17.4573C35.5055 16.7064 33.213 16.4331 30.855 16.6787L30.8964 17.0766ZM27.3336 14.3534C28.8499 14.4602 30.1636 15.5214 30.688 16.9467L31.0634 16.8086C30.4891 15.2477 29.0475 14.0731 27.3617 13.9544L27.3336 14.3534ZM23.864 12.2C25.2709 12.2 26.5477 13.0044 27.1689 14.2435L27.5265 14.0642C26.8383 12.6916 25.4242 11.8 23.864 11.8V12.2ZM20.924 13.659C21.6161 12.7535 22.7018 12.2 23.864 12.2V11.8C22.5745 11.8 21.3724 12.4137 20.6062 13.416L20.924 13.659ZM18.6564 13.1191C19.3779 13.1191 20.0665 13.324 20.6565 13.7055L20.8737 13.3695C20.2187 12.946 19.4545 12.7191 18.6564 12.7191V13.1191ZM14.9566 16.8189C14.9566 14.7789 16.617 13.1191 18.6564 13.1191V12.7191C16.3961 12.7191 14.5566 14.5579 14.5566 16.8189H14.9566ZM14.9566 17.2077V16.8189H14.5566V17.2077H14.9566ZM14.5208 17.4077H14.7566V17.0077H14.5208V17.4077ZM12.2 19.7292C12.2 18.449 13.2414 17.4077 14.5208 17.4077V17.0077C13.0204 17.0077 11.8 18.2282 11.8 19.7292H12.2ZM14.5208 22.05C13.2414 22.05 12.2 21.0086 12.2 19.7292H11.8C11.8 21.2295 13.0205 22.45 14.5208 22.45V22.05ZM20.5875 22.05H14.5208V22.45H20.5875V22.05ZM16.9833 32.5C16.9833 28.7287 18.3062 25.1918 20.7387 22.3809L20.4362 22.1191C17.9405 25.0031 16.5833 28.633 16.5833 32.5H16.9833ZM30.7714 47.9181C23.0267 47.0553 16.9833 40.4711 16.9833 32.5H16.5833C16.5833 40.6775 22.7825 47.4305 30.7272 48.3157L30.7714 47.9181ZM29.2833 50.4792C29.2833 49.4782 29.9244 48.6295 30.8176 48.3049L30.681 47.9289C29.6376 48.3081 28.8833 49.3017 28.8833 50.4792H29.2833ZM31.6041 52.8C30.3247 52.8 29.2833 51.7586 29.2833 50.4792H28.8833C28.8833 51.9795 30.1038 53.2 31.6041 53.2V52.8ZM44.2602 52.8H31.6041V53.2H44.2602V52.8ZM48.0167 49.0435C48.0167 51.1887 46.4061 52.8 44.2602 52.8V53.2C46.627 53.2 48.4167 51.4096 48.4167 49.0435H48.0167ZM44.4176 45.1027C46.3883 45.2414 48.0167 46.9886 48.0167 49.0435H48.4167C48.4167 46.7838 46.6311 44.8575 44.4457 44.7037L44.4176 45.1027ZM43.3722 43.8662C43.7314 44.1799 44.0345 44.558 44.253 44.9929L44.6104 44.8134C44.3669 44.3286 44.0304 43.91 43.6353 43.5649L43.3722 43.8662ZM48.0167 32.5C48.0167 36.6724 46.3308 40.6609 43.3636 43.5728L43.6438 43.8583C46.6872 40.8716 48.4167 36.7804 48.4167 32.5H48.0167ZM46.4683 25.7537C47.4817 27.8506 48.0167 30.1599 48.0167 32.5H48.4167C48.4167 30.0991 47.8678 27.7303 46.8285 25.5796L46.4683 25.7537ZM49.0442 25.4667H46.6484V25.8667H49.0442V25.4667ZM52.8 21.7102C52.8 23.8554 51.1894 25.4667 49.0442 25.4667V25.8667C51.4104 25.8667 53.2 24.0763 53.2 21.7102H52.8ZM49.2009 17.7694C51.1717 17.9087 52.8 19.6553 52.8 21.7102H53.2C53.2 19.4504 51.4144 17.5248 49.2291 17.3703L49.2009 17.7694ZM33.1833 24.5H34.1598V24.1H33.1833V24.5ZM32.9833 18.165V24.3H33.3833V18.165H32.9833ZM36.9478 18.6492C35.7321 18.2564 34.4783 18.0242 33.1925 17.9652L33.1742 18.3648C34.4235 18.4221 35.6421 18.6477 36.8248 19.0298L36.9478 18.6492ZM36.8232 20.2355C36.8232 19.7697 36.9138 19.3239 37.0729 18.9115L36.6997 18.7675C36.524 19.2229 36.4232 19.7174 36.4232 20.2355H36.8232ZM36.8232 20.6243V20.2355H36.4232V20.6243H36.8232ZM36.3875 20.8243H36.6232V20.4243H36.3875V20.8243ZM34.0667 23.1459C34.0667 21.8657 35.1081 20.8243 36.3875 20.8243V20.4243C34.8871 20.4243 33.6667 21.6448 33.6667 23.1459H34.0667ZM34.3372 24.2076C34.1688 23.8841 34.0667 23.5268 34.0667 23.1459H33.6667C33.6667 23.6 33.7887 24.0203 33.9824 24.3924L34.3372 24.2076ZM14.5208 18.3744C13.7741 18.3744 13.1667 18.9819 13.1667 19.7292H13.5667C13.5667 19.2027 13.9952 18.7743 14.5208 18.7743V18.3744ZM15.4399 18.3744H14.5208V18.7743H15.4399V18.3744ZM15.9232 17.891C15.9232 18.1579 15.7072 18.3744 15.4399 18.3744V18.7743C15.9284 18.7743 16.3232 18.3785 16.3232 17.891H15.9232ZM15.9232 16.8189V17.891H16.3232V16.8189H15.9232ZM18.6564 14.0857C17.1492 14.0857 15.9232 15.3117 15.9232 16.8189H16.3232C16.3232 15.5326 17.3701 14.4857 18.6564 14.4857V14.0857ZM20.5994 14.8984C20.0827 14.3743 19.3918 14.0857 18.6564 14.0857V14.4857C19.2849 14.4857 19.8731 14.7315 20.3145 15.1792L20.5994 14.8984ZM21.0263 15.0346C20.8712 15.0625 20.7106 15.0111 20.5993 14.8983L20.3146 15.1793C20.5176 15.3849 20.8107 15.4797 21.097 15.4283L21.0263 15.0346ZM21.3821 14.7614C21.3168 14.904 21.1835 15.0069 21.0269 15.0345L21.0964 15.4284C21.3813 15.3782 21.6252 15.1913 21.7458 14.928L21.3821 14.7614ZM23.864 13.1667C22.8015 13.1667 21.8281 13.7927 21.3823 14.7611L21.7456 14.9284C22.1266 14.1009 22.9586 13.5667 23.864 13.5667V13.1667ZM26.4381 14.9891C26.0518 13.8989 25.0178 13.1667 23.864 13.1667V13.5667C24.8478 13.5667 25.7312 14.1916 26.061 15.1227L26.4381 14.9891ZM26.8932 15.311C26.6892 15.311 26.5068 15.1821 26.438 14.9888L26.0611 15.1229C26.1864 15.4749 26.5192 15.711 26.8932 15.711V15.311ZM27.0798 15.311H26.8932V15.711H27.0798V15.311ZM29.9667 18.2935C29.9667 16.6816 28.6537 15.311 27.0798 15.311V15.711C28.4196 15.711 29.5667 16.8892 29.5667 18.2935H29.9667ZM27.1775 21.0833C28.764 21.0833 29.9667 19.8806 29.9667 18.2935H29.5667C29.5667 19.6598 28.543 20.6833 27.1775 20.6833V21.0833ZM14.5208 21.0833H27.1775V20.6833H14.5208V21.0833ZM13.1667 19.7292C13.1667 20.4758 13.7742 21.0833 14.5208 21.0833V20.6833C13.9951 20.6833 13.5667 20.2549 13.5667 19.7292H13.1667ZM30.9333 18.2935C30.9333 20.4388 29.3227 22.05 27.1775 22.05V22.45C29.5437 22.45 31.3333 20.6596 31.3333 18.2935H30.9333ZM30.932 18.2661C30.9329 18.2806 30.9333 18.2875 30.9333 18.2935H31.3333C31.3333 18.272 31.3319 18.2519 31.3311 18.2395L30.932 18.2661ZM30.9327 18.2743L30.9327 18.2743L31.3304 18.2313L31.3304 18.2313L30.9327 18.2743ZM30.9317 18.2618L30.9317 18.2619L31.3313 18.2436L31.3313 18.2435L30.9317 18.2618ZM30.9317 18.2617L30.9317 18.2618L31.3313 18.2435L31.3313 18.2433L30.9317 18.2617ZM30.9317 18.2616L30.9317 18.2617L31.3313 18.2433L31.3313 18.2432L30.9317 18.2616ZM30.93 18.2289C30.9304 18.2431 30.9313 18.2566 30.932 18.2658L31.3311 18.239C31.3304 18.2286 31.33 18.2226 31.3298 18.2173L30.93 18.2289ZM31.8071 17.9741C31.5761 17.9852 31.3438 18.0011 31.1104 18.0241L31.1495 18.4222C31.3752 18.4 31.6007 18.3845 31.8262 18.3737L31.8071 17.9741ZM32.0167 24.3V18.1739H31.6167V24.3H32.0167ZM26.3609 24.5H31.8167V24.1H26.3609V24.5ZM26.35 24.5H26.3609V24.1H26.35V24.5ZM24.8857 24.5H26.35V24.1H24.8857V24.5ZM24.8242 24.5L24.8857 24.5L24.8857 24.1L24.8242 24.1L24.8242 24.5ZM24.8453 24.1L24.8243 24.1L24.8241 24.5L24.8451 24.5L24.8453 24.1ZM24.905 24.5007C25.011 24.5006 25.0668 24.5005 25.089 24.5004C25.0943 24.5003 25.0986 24.5003 25.1011 24.5003C25.1015 24.5003 25.1031 24.5003 25.105 24.5002C25.1055 24.5002 25.1064 24.5002 25.1076 24.5001C25.1083 24.5001 25.1113 24.5 25.115 24.4997C25.1173 24.4995 25.1237 24.4988 25.1278 24.4983C25.1378 24.4966 25.1964 24.4753 25.2385 24.4443C25.2975 24.2706 25.1651 24.1113 25.139 24.1042C25.1318 24.1029 25.1211 24.1014 25.1178 24.1011C25.1128 24.1006 25.1088 24.1005 25.1083 24.1005C25.1069 24.1004 25.1058 24.1004 25.1052 24.1004C25.104 24.1003 25.103 24.1003 25.1026 24.1003C25.1016 24.1003 25.1006 24.1003 25.1 24.1003C25.0954 24.1002 25.0847 24.1002 25.0711 24.1002C25.0151 24.1001 24.8939 24.1 24.8452 24.1L24.8451 24.5C24.894 24.5 25.0148 24.5001 25.0704 24.5002C25.0847 24.5002 25.0936 24.5002 25.0964 24.5002C25.1043 24.5003 25.0922 24.5004 25.0816 24.4995C25.0783 24.4991 25.0676 24.4977 25.0604 24.4964C25.0343 24.4893 24.9019 24.33 24.961 24.1562C25.003 24.1252 25.0616 24.104 25.0716 24.1023C25.0757 24.1017 25.0821 24.1011 25.0844 24.1009C25.0881 24.1006 25.091 24.1005 25.0916 24.1004C25.0928 24.1004 25.0936 24.1004 25.0941 24.1004C25.095 24.1003 25.0957 24.1003 25.0959 24.1003C25.0961 24.1003 25.0963 24.1003 25.0963 24.1003C25.0963 24.1003 25.0961 24.1003 25.0956 24.1003C25.0952 24.1003 25.0946 24.1003 25.0938 24.1003C25.0922 24.1003 25.0902 24.1004 25.0875 24.1004C25.0659 24.1005 25.0107 24.1006 24.9045 24.1007L24.905 24.5007ZM20.7214 24.5007H24.9047V24.1007H20.7214V24.5007ZM22.3391 22.1076C21.6782 22.7533 21.0775 23.4446 20.5576 24.1858L20.8851 24.4155C21.3889 23.6971 21.9731 23.0245 22.6187 22.3937L22.3391 22.1076ZM27.1775 22.0507H22.4789V22.4507H27.1775V22.0507ZM26.9775 22.25V22.2507H27.3775V22.25H26.9775ZM40.0023 32.9833H38.6097V33.3833H40.0023V32.9833ZM39.2849 39.3889C39.8375 37.4794 40.1479 35.376 40.2023 33.1883L39.8024 33.1784C39.7488 35.3353 39.4428 37.4044 38.9007 39.2777L39.2849 39.3889ZM33.1833 39.5333H39.0928V39.1333H33.1833V39.5333ZM32.9833 38.6097V39.3333H33.3833V38.6097H32.9833ZM38.4109 33.1612C38.1049 35.9137 35.9143 38.1049 33.1612 38.4109L33.2054 38.8085C36.1445 38.4817 38.4817 36.1438 38.8085 33.2054L38.4109 33.1612ZM45.2854 39.4287C46.3197 37.5215 46.926 35.3937 47.0313 33.1929L46.6318 33.1738C46.5294 35.3135 45.9399 37.3828 44.9337 39.238L45.2854 39.4287ZM40.5114 39.5333H45.1095V39.1333H40.5114V39.5333ZM41.169 33.1786C41.1181 35.3213 40.8304 37.3867 40.3183 39.2811L40.7045 39.3855C41.2256 37.4574 41.5173 35.3599 41.5689 33.1881L41.169 33.1786ZM46.8315 32.9833H41.369V33.3833H46.8315V32.9833ZM26.1947 40.7699C26.8255 42.4597 27.6412 43.9024 28.5866 44.9769C29.5316 46.0508 30.6153 46.7668 31.7809 46.9784L31.8524 46.5849C30.8019 46.3941 29.793 45.7423 28.8869 44.7126C27.9814 43.6835 27.1879 42.2866 26.5695 40.6301L26.1947 40.7699ZM31.8167 40.5H26.3821V40.9H31.8167V40.5ZM32.0167 46.7817V40.7H31.6167V46.7817H32.0167ZM24.8025 33.1885C24.8603 35.4075 25.1866 37.5177 25.733 39.3894L26.117 39.2773C25.5809 37.4412 25.2594 35.3653 25.2024 33.1781L24.8025 33.1885ZM26.391 32.9833H25.0025V33.3833H26.391V32.9833ZM31.8394 38.4109C29.0863 38.1049 26.8958 35.9137 26.5898 33.1612L26.1922 33.2054C26.5189 36.1438 28.8562 38.4817 31.7953 38.8085L31.8394 38.4109ZM32.0174 39.3333V38.6097H31.6173V39.3333H32.0174ZM25.925 39.5333H31.8174V39.1333H25.925V39.5333ZM23.6262 32.9833H18.1848V33.3833H23.6262V32.9833ZM24.6634 39.2818C24.171 37.4334 23.8771 35.3718 23.8262 33.1787L23.4263 33.188C23.4779 35.4105 23.7758 37.5037 24.2769 39.3848L24.6634 39.2818ZM19.8843 39.5333H24.4701V39.1333H19.8843V39.5333ZM17.9851 33.1928C18.0917 35.4386 18.6915 37.559 19.7086 39.4289L20.06 39.2378C19.0722 37.4217 18.4884 35.3602 18.3846 33.1738L17.9851 33.1928ZM19.7052 25.571C18.6694 27.4729 18.0876 29.5915 17.9844 31.8074L18.3839 31.826C18.4844 29.6685 19.0506 27.6092 20.0565 25.7623L19.7052 25.571ZM24.4886 25.4667H19.8809V25.8667H24.4886V25.4667ZM23.831 31.8214C23.8819 29.6787 24.1696 27.6133 24.6817 25.7189L24.2955 25.6145C23.7744 27.5426 23.4827 29.6401 23.4311 31.8119L23.831 31.8214ZM18.1842 32.0167H23.631V31.6167H18.1842V32.0167ZM27.5167 32.5C27.5167 35.2481 29.7526 37.4833 32.5 37.4833V37.0833C29.9735 37.0833 27.9167 35.0272 27.9167 32.5H27.5167ZM32.5 27.5167C29.7526 27.5167 27.5167 29.7519 27.5167 32.5H27.9167C27.9167 29.9728 29.9735 27.9167 32.5 27.9167V27.5167ZM37.4833 32.5C37.4833 29.7519 35.2474 27.5167 32.5 27.5167V27.9167C35.0265 27.9167 37.0833 29.9728 37.0833 32.5H37.4833ZM32.5 37.4833C35.2474 37.4833 37.4833 35.2481 37.4833 32.5H37.0833C37.0833 35.0272 35.0265 37.0833 32.5 37.0833V37.4833ZM26.5891 31.8388C26.8951 29.0863 29.0857 26.8951 31.8388 26.5891L31.7946 26.1915C28.8555 26.5183 26.5183 28.8562 26.1915 31.7946L26.5891 31.8388ZM24.9977 32.0167H26.3903V31.6167H24.9977V32.0167ZM25.7151 25.6111C25.1625 27.5206 24.8521 29.624 24.7977 31.8117L25.1976 31.8216C25.2512 29.6647 25.5572 27.5956 26.0993 25.7223L25.7151 25.6111ZM31.8167 25.4667H25.9072V25.8667H31.8167V25.4667ZM32.0167 26.3903V25.6667H31.6167V26.3903H32.0167ZM24.8822 40.5H20.7405V40.9H24.8822V40.5ZM28.1484 45.9787C26.8886 44.6955 25.8279 42.8626 25.0716 40.6357L24.6928 40.7643C25.4631 43.0323 26.5508 44.9223 27.863 46.2589L28.1484 45.9787ZM20.5766 40.8146C22.3591 43.3626 24.9335 45.313 27.9429 46.3087L28.0685 45.929C25.1425 44.9608 22.6384 43.064 20.9044 40.5854L20.5766 40.8146ZM44.1638 46.061H43.9773V46.461H44.1638V46.061ZM47.05 49.0435C47.05 47.4316 45.7371 46.061 44.1638 46.061V46.461C45.5029 46.461 46.65 47.6391 46.65 49.0435H47.05ZM44.2608 51.8333C45.8473 51.8333 47.05 50.6306 47.05 49.0435H46.65C46.65 50.4098 45.6264 51.4333 44.2608 51.4333V51.8333ZM31.6041 51.8333H44.2608V51.4333H31.6041V51.8333ZM30.25 50.4792C30.25 51.2258 30.8575 51.8333 31.6041 51.8333V51.4333C31.0784 51.4333 30.65 51.0049 30.65 50.4792H30.25ZM31.6041 49.1243C30.8574 49.1243 30.25 49.7327 30.25 50.4792H30.65C30.65 49.9533 31.0786 49.5243 31.6041 49.5243V49.1243ZM32.5232 49.1243H31.6041V49.5243H32.5232V49.1243ZM33.0066 48.641C33.0066 48.9079 32.7905 49.1243 32.5232 49.1243V49.5243C33.0117 49.5243 33.4066 49.1285 33.4066 48.641H33.0066ZM33.0066 47.5689V48.641H33.4066V47.5689H33.0066ZM35.7397 44.8358C34.2325 44.8358 33.0066 46.0617 33.0066 47.5689H33.4066C33.4066 46.2826 34.4534 45.2358 35.7397 45.2358V44.8358ZM37.6827 45.6484C37.166 45.1243 36.4751 44.8358 35.7397 44.8358V45.2358C36.3682 45.2358 36.9565 45.4815 37.3978 45.9292L37.6827 45.6484ZM38.1103 45.7845C37.9543 45.8121 37.7936 45.7607 37.6826 45.6483L37.3979 45.9293C37.6013 46.1353 37.8943 46.2288 38.1798 46.1784L38.1103 45.7845ZM38.4654 45.5114C38.4001 45.654 38.2669 45.7569 38.1103 45.7845L38.1798 46.1784C38.4646 46.1282 38.7085 45.9413 38.8291 45.678L38.4654 45.5114ZM40.9474 43.9167C39.8848 43.9167 38.9115 44.5427 38.4656 45.5111L38.8289 45.6784C39.2099 44.8509 40.0419 44.3167 40.9474 44.3167V43.9167ZM43.5214 45.7391C43.1351 44.6489 42.1011 43.9167 40.9474 43.9167V44.3167C41.9311 44.3167 42.8145 44.9416 43.1444 45.8727L43.5214 45.7391ZM43.9773 46.061C43.7724 46.061 43.5901 45.932 43.5213 45.7388L43.1445 45.8729C43.2698 46.225 43.6027 46.461 43.9773 46.461V46.061ZM38.0073 44.409C38.6994 43.5035 39.7851 42.95 40.9474 42.95V42.55C39.6578 42.55 38.4557 43.1637 37.6895 44.166L38.0073 44.409ZM35.7397 43.8691C36.4612 43.8691 37.1499 44.074 37.7399 44.4555L37.957 44.1195C37.302 43.696 36.5379 43.4691 35.7397 43.4691V43.8691ZM33.3147 44.782C33.9656 44.2148 34.812 43.8691 35.7397 43.8691V43.4691C34.7103 43.4691 33.7718 43.8532 33.0519 44.4804L33.3147 44.782ZM32.9833 40.7V44.6312H33.3833V40.7H32.9833ZM38.6391 40.5H33.1833V40.9H38.6391V40.5ZM38.7682 40.9309C38.7878 40.8759 38.8068 40.8225 38.8264 40.7699L38.4517 40.6301C38.4309 40.6859 38.4108 40.7421 38.3914 40.7966L38.7682 40.9309ZM38.7695 40.9271L38.7695 40.927L38.39 40.8005L38.39 40.8006L38.7695 40.9271ZM38.7738 40.9124L38.7738 40.9123L38.3857 40.8153L38.3857 40.8153L38.7738 40.9124ZM38.6668 41.2037C38.7033 41.113 38.7365 41.0198 38.7681 40.931L38.3914 40.7967C38.3592 40.8868 38.3287 40.9724 38.2956 41.0545L38.6668 41.2037ZM39.8245 41.4512L38.5555 40.9434L38.4069 41.3148L39.6759 41.8225L39.8245 41.4512ZM39.906 40.6347C39.7982 40.9507 39.6852 41.261 39.5645 41.5625L39.9358 41.7112C40.0597 41.4018 40.175 41.0848 40.2845 40.7639L39.906 40.6347ZM44.2649 40.4993H40.0952V40.8993H44.2649V40.4993ZM42.4108 43.1395C43.1694 42.4322 43.8442 41.652 44.429 40.8137L44.1009 40.5849C43.5322 41.4003 42.8759 42.159 42.138 42.847L42.4108 43.1395ZM40.9474 42.95C41.3836 42.95 41.8059 43.0357 42.206 43.1812L42.3428 42.8053C41.9051 42.6461 41.4364 42.55 40.9474 42.55V42.95ZM41.3662 32.0167H46.8274V31.6167H41.3662V32.0167ZM40.6137 26.9329C40.9464 28.4952 41.1262 30.1384 41.1663 31.8214L41.5662 31.8119C41.5256 30.1069 41.3433 28.4388 41.0049 26.8495L40.6137 26.9329ZM39.5137 27.3718L40.851 27.0868L40.7677 26.6956L39.4304 26.9805L39.5137 27.3718ZM40.1995 31.8124C40.1596 30.2031 39.9869 28.6314 39.6676 27.1344L39.2764 27.2179C39.59 28.688 39.7603 30.2349 39.7996 31.8223L40.1995 31.8124ZM38.6097 32.0174H39.9996V31.6173H38.6097V32.0174ZM33.1612 26.5898C35.9143 26.8958 38.1049 29.087 38.4109 31.8395L38.8085 31.7952C38.4817 28.8569 36.1445 26.5189 33.2054 26.1922L33.1612 26.5898ZM32.9833 25.6667V26.391H33.3833V25.6667H32.9833ZM36.3875 25.4667H33.1833V25.8667H36.3875V25.4667ZM36.6 25.4667H36.3875V25.8667H36.6V25.4667ZM45.1089 25.4667H36.6V25.8667H45.1089V25.4667ZM47.0272 31.8071C46.9226 29.6239 46.326 27.4905 45.2847 25.5713L44.9331 25.762C45.9458 27.6285 46.5259 29.7031 46.6277 31.8262L47.0272 31.8071ZM36.6 24.5H49.0442V24.1H36.6V24.5ZM36.3875 24.5H36.6V24.1H36.3875V24.5ZM35.0333 23.1459C35.0333 23.8925 35.6408 24.5 36.3875 24.5V24.1C35.8618 24.1 35.4333 23.6716 35.4333 23.1459H35.0333ZM36.3875 21.791C35.6407 21.791 35.0333 22.3994 35.0333 23.1459H35.4333C35.4333 22.62 35.8619 22.191 36.3875 22.191V21.791ZM37.3066 21.791H36.3875V22.191H37.3066V21.791ZM37.7899 21.3077C37.7899 21.5746 37.5739 21.791 37.3066 21.791V22.191C37.795 22.191 38.1899 21.7952 38.1899 21.3077H37.7899ZM37.7899 20.2355V21.3077H38.1899V20.2355H37.7899ZM40.523 17.5024C39.0158 17.5024 37.7899 18.7283 37.7899 20.2355H38.1899C38.1899 18.9493 39.2367 17.9024 40.523 17.9024V17.5024ZM42.466 18.315C41.9494 17.791 41.2584 17.5024 40.523 17.5024V17.9024C41.1515 17.9024 41.7398 18.1482 42.1812 18.5959L42.466 18.315ZM42.8929 18.4513C42.7383 18.4792 42.5778 18.4283 42.4659 18.3149L42.1813 18.596C42.3851 18.8024 42.6783 18.8964 42.9638 18.845L42.8929 18.4513ZM43.2488 18.1781C43.1835 18.3207 43.0502 18.4236 42.8936 18.4512L42.9631 18.8451C43.2479 18.7948 43.4919 18.6079 43.6124 18.3447L43.2488 18.1781ZM45.7307 16.5833C44.6681 16.5833 43.6948 17.2094 43.2489 18.1777L43.6123 18.345C43.9932 17.5176 44.8253 16.9833 45.7307 16.9833V16.5833ZM48.3047 18.4057C47.9185 17.3155 46.8844 16.5833 45.7307 16.5833V16.9833C46.7144 16.9833 47.5978 17.6082 47.9277 18.5393L48.3047 18.4057ZM48.7599 18.7276C48.5559 18.7276 48.3734 18.5988 48.3046 18.4055L47.9278 18.5396C48.0531 18.8916 48.3859 19.1276 48.7599 19.1276V18.7276ZM48.9465 18.7276H48.7599V19.1276H48.9465V18.7276ZM51.8333 21.7102C51.8333 20.0983 50.5204 18.7276 48.9465 18.7276V19.1276C50.2863 19.1276 51.4333 20.3058 51.4333 21.7102H51.8333ZM49.0442 24.5C50.6307 24.5 51.8333 23.2973 51.8333 21.7102H51.4333C51.4333 23.0764 50.4097 24.1 49.0442 24.1V24.5ZM33.3833 31.1333C33.3833 30.6465 32.9878 30.25 32.5 30.25V30.65C32.7666 30.65 32.9833 30.8671 32.9833 31.1333H33.3833ZM34.55 30.9333H33.1833V31.3333H34.55V30.9333ZM33.1162 29.3974C33.8339 29.6534 34.35 30.3324 34.35 31.1333H34.75C34.75 30.1548 34.1194 29.3305 33.2505 29.0207L33.1162 29.3974ZM32.9833 28.4V29.2091H33.3833V28.4H32.9833ZM31.8167 28.6H33.1833V28.2H31.8167V28.6ZM32.0167 29.2091V28.4H31.6167V29.2091H32.0167ZM30.65 31.1333C30.65 30.3324 31.1661 29.6534 31.8838 29.3974L31.7495 29.0207C30.8806 29.3305 30.25 30.1548 30.25 31.1333H30.65ZM32.5 32.9833C31.4802 32.9833 30.65 32.1531 30.65 31.1333H30.25C30.25 32.374 31.2593 33.3833 32.5 33.3833V32.9833ZM33.3833 33.8667C33.3833 33.3798 32.9878 32.9833 32.5 32.9833V33.3833C32.7666 33.3833 32.9833 33.6005 32.9833 33.8667H33.3833ZM32.5 34.75C32.9878 34.75 33.3833 34.3535 33.3833 33.8667H32.9833C32.9833 34.1329 32.7666 34.35 32.5 34.35V34.75ZM31.6167 33.8667C31.6167 34.3535 32.0122 34.75 32.5 34.75V34.35C32.2334 34.35 32.0167 34.1329 32.0167 33.8667H31.6167ZM30.45 34.0667H31.8167V33.6667H30.45V34.0667ZM31.8838 35.6026C31.1661 35.3466 30.65 34.6676 30.65 33.8667H30.25C30.25 34.8452 30.8806 35.6695 31.7495 35.9793L31.8838 35.6026ZM32.0167 36.6V35.7909H31.6167V36.6H32.0167ZM33.1833 36.4H31.8167V36.8H33.1833V36.4ZM32.9833 35.7909V36.6H33.3833V35.7909H32.9833ZM34.35 33.8667C34.35 34.6676 33.8339 35.3466 33.1162 35.6026L33.2505 35.9793C34.1194 35.6695 34.75 34.8452 34.75 33.8667H34.35ZM32.5 32.0167C33.5198 32.0167 34.35 32.8469 34.35 33.8667H34.75C34.75 32.626 33.7407 31.6167 32.5 31.6167V32.0167ZM31.6167 31.1333C31.6167 31.6202 32.0122 32.0167 32.5 32.0167V31.6167C32.2334 31.6167 32.0167 31.3995 32.0167 31.1333H31.6167ZM32.5 30.25C32.0122 30.25 31.6167 30.6465 31.6167 31.1333H32.0167C32.0167 30.8671 32.2334 30.65 32.5 30.65V30.25ZM48.0159 19.5159V20.8826H48.4159V19.5159H48.0159ZM50.5021 21.6021C50.5021 20.3417 49.4771 19.3159 48.2159 19.3159V19.7159C49.2561 19.7159 50.1021 20.5625 50.1021 21.6021H50.5021ZM48.9355 21.8021H50.3021V21.4021H48.9355V21.8021ZM48.2159 21.0826C48.5019 21.0826 48.7355 21.3157 48.7355 21.6021H49.1355C49.1355 21.0945 48.7226 20.6826 48.2159 20.6826V21.0826ZM44.3536 49.0438C44.3536 48.5362 43.9408 48.1242 43.4341 48.1242V48.5242C43.7201 48.5242 43.9536 48.7573 43.9536 49.0438H44.3536ZM45.5203 48.8438H44.1536V49.2438H45.5203V48.8438ZM43.4341 47.1575C44.4743 47.1575 45.3203 48.0041 45.3203 49.0438H45.7203C45.7203 47.7833 44.6953 46.7575 43.4341 46.7575V47.1575ZM43.6341 48.3242V46.9575H43.2341V48.3242H43.6341ZM26.1134 16.7498V18.1164H26.5134V16.7498H26.1134ZM28.5996 18.836C28.5996 17.5755 27.5746 16.5498 26.3134 16.5498V16.9498C27.3536 16.9498 28.1996 17.7964 28.1996 18.836H28.5996ZM27.0329 19.036H28.3996V18.636H27.0329V19.036ZM26.3134 18.3164C26.5994 18.3164 26.8329 18.5496 26.8329 18.836H27.2329C27.2329 18.3284 26.8201 17.9164 26.3134 17.9164V18.3164Z" fill="white" mask="url(#path-2-inside-1_390_2740)"/>
<defs>
<linearGradient id="paint0_linear_390_2740" x1="0.5" y1="33.8784" x2="65.5" y2="33.8784" gradientUnits="userSpaceOnUse">
<stop stop-color="#00469F"/>
<stop offset="1" stop-color="#1E79D6"/>
</linearGradient>
</defs>
</svg>
