<svg width="66" height="66" viewBox="0 0 66 66" fill="none" xmlns="http://www.w3.org/2000/svg">
<rect x="0.5" y="0.5" width="65" height="65" rx="8" fill="url(#paint0_linear_390_2781)"/>
<path d="M52.8192 45.375C52.9882 44.8987 52.9375 45.7976 52.9375 32.3125C52.9375 31.1753 52.0122 30.25 50.875 30.25C50.272 30.25 46.4918 30.25 45.9442 30.25C46.1132 29.7737 46.0625 30.6726 46.0625 17.1875C46.0625 16.0503 45.1372 15.125 44 15.125C40.4905 15.125 36.4677 15.125 33 15.125C31.8628 15.125 30.9375 16.0503 30.9375 17.1875C30.9375 30.6745 30.8871 29.7747 31.0557 30.25C30.5058 30.25 26.7346 30.25 26.125 30.25C24.9878 30.25 24.0625 31.1753 24.0625 32.3125C24.0625 45.7995 24.0121 44.8997 24.1808 45.375H22V15.125C22 12.8504 20.1495 11 17.875 11H13.0625C11.9252 11 11 11.9253 11 13.0625C11 14.1997 11.9252 15.125 13.0625 15.125H17.3594C17.6437 15.125 17.875 15.3563 17.875 15.6406V48.8125C17.875 49.9497 18.8002 50.875 19.9375 50.875H22.0499C22.3847 53.2041 24.3924 55 26.8125 55C29.2326 55 31.2404 53.2041 31.5751 50.875H41.2998C41.6346 53.2041 43.6423 55 46.0624 55C48.4825 55 50.4903 53.2041 50.825 50.875H52.9375C54.0748 50.875 55 49.9497 55 48.8125V47.4375C55 46.3927 54.2066 45.375 52.8192 45.375ZM51.5625 32.3125V44.6875C51.5625 45.0666 51.2541 45.375 50.875 45.375H39.875C39.4959 45.375 39.1875 45.0666 39.1875 44.6875V32.3125C39.1875 31.9334 39.4959 31.625 39.875 31.625H42.625V35.0625C42.625 35.4422 42.9328 35.75 43.3125 35.75H47.4375C47.8172 35.75 48.125 35.4422 48.125 35.0625V31.625H50.875C51.2541 31.625 51.5625 31.9334 51.5625 32.3125ZM41.2999 49.5H31.5751C31.4212 48.4297 30.9142 47.4725 30.1759 46.75H42.699C41.9608 47.4725 41.4537 48.4297 41.2999 49.5ZM46.75 34.375H44V31.625H46.75V34.375ZM39.875 16.5V19.25H37.125V16.5H39.875ZM32.3125 29.5625V17.1875C32.3125 16.8084 32.6209 16.5 33 16.5H35.75V19.9375C35.75 20.3172 36.0578 20.625 36.4375 20.625H40.5625C40.9422 20.625 41.25 20.3172 41.25 19.9375V16.5H44C44.3791 16.5 44.6875 16.8084 44.6875 17.1875V29.5625C44.6875 29.9416 44.3791 30.25 44 30.25C38.5821 30.25 36.1909 30.25 33 30.25C32.6209 30.25 32.3125 29.9416 32.3125 29.5625ZM33 31.625V34.375H30.25V31.625H33ZM25.4375 44.6875V32.3125C25.4375 31.9334 25.7459 31.625 26.125 31.625H28.875V35.0625C28.875 35.4422 29.1828 35.75 29.5625 35.75H33.6875C34.0672 35.75 34.375 35.4422 34.375 35.0625V31.625H37.125C37.5041 31.625 37.8125 31.9334 37.8125 32.3125V44.6875C37.8125 45.0666 37.5041 45.375 37.125 45.375H26.125C25.7459 45.375 25.4375 45.0666 25.4375 44.6875ZM19.25 19.9375H20.625V45.375H19.25V19.9375ZM17.3594 13.75H13.0625C12.6834 13.75 12.375 13.4416 12.375 13.0625C12.375 12.6834 12.6834 12.375 13.0625 12.375H17.875C19.3914 12.375 20.625 13.6086 20.625 15.125V18.5625H19.25V15.6406C19.25 14.5981 18.4019 13.75 17.3594 13.75ZM19.25 48.8125V46.75H23.4491C22.7108 47.4725 22.2038 48.4297 22.0499 49.5H19.9375C19.5584 49.5 19.25 49.1916 19.25 48.8125ZM26.8125 53.625C24.9171 53.625 23.375 52.0829 23.375 50.1875C23.375 48.2921 24.9171 46.75 26.8125 46.75C28.7079 46.75 30.25 48.2921 30.25 50.1875C30.25 52.0829 28.7079 53.625 26.8125 53.625ZM46.0625 53.625C44.1671 53.625 42.625 52.0829 42.625 50.1875C42.625 48.2921 44.1671 46.75 46.0625 46.75C47.9579 46.75 49.5 48.2921 49.5 50.1875C49.5 52.0829 47.9579 53.625 46.0625 53.625ZM53.625 48.8125C53.625 49.1916 53.3166 49.5 52.9375 49.5H50.8251C50.6712 48.4297 50.1642 47.4725 49.4259 46.75H52.9375C53.3166 46.75 53.625 47.0584 53.625 47.4375V48.8125Z" fill="white"/>
<defs>
<linearGradient id="paint0_linear_390_2781" x1="0.5" y1="33.8784" x2="65.5" y2="33.8784" gradientUnits="userSpaceOnUse">
<stop stop-color="#00469F"/>
<stop offset="1" stop-color="#1E79D6"/>
</linearGradient>
</defs>
</svg>
