<svg width="663" height="662" viewBox="0 0 663 662" fill="none" xmlns="http://www.w3.org/2000/svg">
<rect x="80.75" y="80.25" width="499.5" height="499.5" rx="9.75" stroke="#393E50" stroke-opacity="0.2" stroke-width="0.5"/>
<rect x="155.75" y="155.25" width="349.5" height="349.5" rx="9.75" stroke="#393E50" stroke-opacity="0.2" stroke-width="0.5"/>
<g filter="url(#filter0_d_266_5251)">
<rect x="542.5" y="40" width="80" height="80" rx="40" fill="white" shape-rendering="crispEdges"/>
<g clip-path="url(#clip0_266_5251)">
<path d="M588.26 67L583.333 75.6216L578.406 67H562L583.333 104.333L604.667 67H588.26Z" fill="#4DBA87"/>
<path d="M588.26 67L583.333 75.6216L578.406 67H570.533L583.333 89.399L596.133 67H588.26Z" fill="#435466"/>
</g>
</g>
<g filter="url(#filter1_d_266_5251)">
<rect x="47.5" y="298" width="70" height="70" rx="35" fill="white" shape-rendering="crispEdges"/>
<path d="M82.9661 318.533C76.744 318.533 72.855 321.748 71.2995 328.178C73.6328 324.963 76.355 323.757 79.4661 324.561C81.2411 325.02 82.5099 326.351 83.9142 327.823C86.202 330.223 88.8496 333 94.6328 333C100.855 333 104.744 329.785 106.299 323.356C103.966 326.571 101.244 327.776 98.1328 326.972C96.3578 326.514 95.0891 325.183 93.6847 323.71C91.3969 321.311 88.7493 318.533 82.9661 318.533ZM71.2995 333C65.0773 333 61.1883 336.215 59.6328 342.645C61.9661 339.43 64.6883 338.224 67.7995 339.028C69.5745 339.486 70.8432 340.817 72.2476 342.29C74.5353 344.69 77.1829 347.467 82.9661 347.467C89.1883 347.467 93.0773 344.252 94.6328 337.822C92.2995 341.037 89.5773 342.243 86.4661 341.439C84.6912 340.981 83.4224 339.65 82.018 338.177C79.7303 335.777 77.0827 333 71.2995 333Z" fill="url(#paint0_linear_266_5251)"/>
</g>
<g filter="url(#filter2_d_266_5251)">
<rect x="471.5" y="420" width="80" height="80" rx="40" fill="white" shape-rendering="crispEdges"/>
<path d="M525.536 447.315C525.505 447.131 525.351 446.99 525.161 446.972C525.012 446.948 521.729 446.728 521.729 446.728L519.226 444.277C519 444.033 518.501 444.104 518.312 444.155C518.288 444.155 517.813 444.301 517.036 444.548C516.281 442.41 514.945 440.449 512.59 440.449H512.389C511.715 439.593 510.889 439.2 510.192 439.2C504.71 439.224 502.098 445.916 501.273 449.336L497.442 450.487C496.266 450.853 496.223 450.88 496.065 451.977L492.834 476.364L517.046 480.8L530.167 478.031C530.167 478.007 525.56 447.547 525.536 447.315ZM515.694 444.959C515.085 445.156 514.39 445.352 513.642 445.573V445.131C513.664 444.028 513.495 442.93 513.143 441.882C514.37 442.066 515.194 443.414 515.694 444.958L515.694 444.959ZM511.665 442.165C512.065 443.321 512.251 444.538 512.213 445.758V445.979L507.981 447.255C508.809 444.226 510.337 442.729 511.665 442.165ZM510.038 440.675C510.289 440.68 510.532 440.757 510.739 440.895C508.973 441.7 507.106 443.733 506.305 447.803L502.956 448.808C503.9 445.719 506.105 440.669 510.036 440.669L510.038 440.675Z" fill="#95BF47"/>
<path d="M524.874 446.359C524.716 446.335 521.247 446.11 521.247 446.11L518.601 443.615C518.503 443.521 518.37 443.468 518.232 443.467L516.301 480.8L530.167 477.981L525.27 446.733C525.254 446.639 525.207 446.553 525.136 446.486C525.065 446.419 524.973 446.375 524.874 446.36V446.359Z" fill="#5E8E3E"/>
<path d="M512.033 453.719L510.426 458.475C509.454 458.003 508.393 457.75 507.313 457.731C504.793 457.731 504.67 459.315 504.67 459.713C504.67 461.879 510.326 462.71 510.326 467.813C510.326 471.826 507.782 474.4 504.366 474.4C500.266 474.4 498.166 471.848 498.166 471.848L499.256 468.204C499.256 468.204 501.405 470.062 503.234 470.062C503.452 470.07 503.671 470.034 503.875 469.956C504.079 469.877 504.265 469.758 504.422 469.605C504.579 469.452 504.704 469.269 504.788 469.066C504.872 468.864 504.915 468.646 504.913 468.427C504.913 465.576 500.27 465.454 500.27 460.797C500.27 456.881 503.084 453.067 508.74 453.067C510.963 453.099 512.027 453.717 512.027 453.717L512.033 453.719Z" fill="white"/>
</g>
<g filter="url(#filter3_d_266_5251)">
<rect x="219.5" y="474" width="60" height="60" rx="30" fill="white" shape-rendering="crispEdges"/>
<path d="M267.24 494.33C267.253 494.378 267.26 494.427 267.26 494.476V502.152C267.26 502.25 267.233 502.347 267.182 502.432C267.132 502.518 267.058 502.588 266.97 502.637L260.338 506.347V513.698C260.338 513.898 260.229 514.083 260.05 514.184L246.206 521.925C246.174 521.943 246.14 521.954 246.105 521.966C246.092 521.97 246.08 521.978 246.066 521.981C245.97 522.006 245.868 522.006 245.771 521.981C245.755 521.977 245.741 521.969 245.726 521.963C245.694 521.952 245.661 521.942 245.631 521.925L231.79 514.184C231.702 514.135 231.629 514.064 231.578 513.979C231.527 513.894 231.5 513.797 231.5 513.698V490.671C231.5 490.621 231.507 490.572 231.52 490.524C231.524 490.508 231.535 490.493 231.54 490.477C231.551 490.448 231.561 490.418 231.577 490.391C231.588 490.372 231.604 490.358 231.617 490.341C231.633 490.318 231.648 490.295 231.668 490.276C231.684 490.26 231.706 490.248 231.725 490.234C231.746 490.217 231.764 490.199 231.788 490.186H231.789L238.71 486.315C238.797 486.266 238.897 486.24 238.998 486.24C239.099 486.24 239.198 486.266 239.286 486.315L246.207 490.186H246.208C246.231 490.2 246.251 490.217 246.272 490.233C246.29 490.247 246.311 490.26 246.328 490.275C246.348 490.295 246.362 490.318 246.38 490.341C246.392 490.358 246.409 490.372 246.419 490.391C246.435 490.418 246.445 490.448 246.456 490.477C246.462 490.493 246.472 490.508 246.476 490.525C246.489 490.572 246.496 490.622 246.496 490.671V505.054L252.264 501.828V494.475C252.264 494.426 252.271 494.377 252.284 494.33C252.289 494.313 252.298 494.298 252.304 494.282C252.315 494.253 252.326 494.223 252.341 494.196C252.352 494.177 252.368 494.163 252.38 494.146C252.398 494.123 252.412 494.1 252.432 494.081C252.449 494.065 252.47 494.053 252.488 494.039C252.51 494.022 252.529 494.004 252.552 493.991H252.552L259.474 490.12C259.562 490.071 259.661 490.045 259.762 490.045C259.863 490.045 259.963 490.071 260.05 490.12L266.971 493.991C266.996 494.005 267.014 494.022 267.036 494.038C267.054 494.052 267.075 494.065 267.091 494.08C267.112 494.1 267.126 494.123 267.143 494.146C267.156 494.163 267.172 494.177 267.182 494.196C267.199 494.223 267.208 494.253 267.22 494.282C267.226 494.298 267.236 494.313 267.24 494.33ZM266.106 501.828V495.445L263.684 496.799L260.338 498.671V505.054L266.107 501.828H266.106ZM259.185 513.374V506.987L255.894 508.813L246.496 514.024V520.471L259.185 513.374ZM232.654 491.64V513.374L245.342 520.47V514.024L238.713 510.38L238.711 510.379L238.708 510.377C238.686 510.365 238.667 510.347 238.646 510.331C238.628 510.317 238.607 510.306 238.592 510.291L238.59 510.289C238.571 510.271 238.559 510.249 238.543 510.23C238.528 510.211 238.511 510.195 238.499 510.175L238.499 510.173C238.486 510.152 238.478 510.127 238.468 510.103C238.459 510.082 238.447 510.063 238.441 510.04V510.04C238.434 510.013 238.432 509.985 238.43 509.958C238.427 509.937 238.421 509.916 238.421 509.895V494.866L235.076 492.994L232.654 491.641V491.64ZM238.999 487.447L233.232 490.671L238.997 493.895L244.763 490.67L238.997 487.447H238.999ZM241.997 507.569L245.343 505.699V491.64L242.921 492.994L239.575 494.866V508.924L241.997 507.569ZM259.762 491.252L253.996 494.476L259.762 497.7L265.527 494.475L259.762 491.252ZM259.185 498.671L255.839 496.799L253.417 495.445V501.828L256.763 503.699L259.185 505.054V498.671ZM245.918 513.055L254.375 508.365L258.603 506.021L252.841 502.799L246.208 506.509L240.162 509.89L245.918 513.055Z" fill="#FF2D20"/>
</g>
<g filter="url(#filter4_d_266_5251)">
<rect x="115.5" y="115" width="80" height="80" rx="40" fill="white" shape-rendering="crispEdges"/>
<path d="M173.74 157.769C172.024 157.779 170.539 158.197 169.293 158.82C168.833 157.895 168.373 157.088 168.297 156.485C168.21 155.785 168.105 155.357 168.21 154.52C168.315 153.683 168.795 152.496 168.795 152.399C168.786 152.311 168.689 151.883 167.702 151.874C166.716 151.864 165.862 152.068 165.767 152.331C165.595 152.817 165.458 153.315 165.354 153.82C165.182 154.735 163.38 157.975 162.354 159.677C162.018 159.016 161.731 158.432 161.673 157.965C161.587 157.265 161.481 156.837 161.587 156C161.692 155.164 162.172 153.977 162.172 153.879C162.162 153.791 162.066 153.363 161.079 153.354C160.092 153.345 159.239 153.549 159.143 153.812C159.047 154.075 158.941 154.697 158.731 155.3C158.529 155.904 156.133 161.313 155.511 162.724C155.194 163.443 154.916 164.018 154.715 164.407C154.513 164.796 154.705 164.437 154.686 164.475L154.418 164.991V165.001C154.284 165.244 154.14 165.478 154.073 165.478C154.025 165.478 153.929 164.826 154.092 163.931C154.447 162.053 155.31 159.124 155.3 159.017C155.3 158.969 155.463 158.453 154.744 158.19C154.044 157.927 153.795 158.365 153.737 158.365C153.68 158.365 153.631 158.521 153.631 158.521C153.631 158.521 154.408 155.223 152.146 155.223C150.727 155.223 148.772 156.789 147.804 158.219L142.915 160.934L142.81 160.817C140.07 157.847 135 155.746 135.211 151.757C135.288 150.307 135.786 146.484 144.948 141.853C152.452 138.059 158.462 139.099 159.507 141.415C160.993 144.722 156.296 150.871 148.495 151.758C145.524 152.099 143.961 150.931 143.568 150.493C143.155 150.036 143.098 150.016 142.944 150.104C142.695 150.24 142.849 150.649 142.944 150.892C143.174 151.506 144.133 152.595 145.762 153.14C147.19 153.617 150.679 153.879 154.896 152.226C159.622 150.367 163.312 145.211 162.228 140.902C161.126 136.514 153.957 135.074 147.18 137.516C143.146 138.974 138.784 141.25 135.64 144.237C131.895 147.778 131.301 150.872 131.549 152.156C132.422 156.739 138.641 159.726 141.133 161.934L140.788 162.129C139.542 162.752 134.798 165.272 133.609 167.937C132.268 170.953 133.82 173.123 134.855 173.415C138.056 174.32 141.334 172.695 143.107 170.019C144.87 167.343 144.66 163.871 143.845 162.285L143.816 162.226L144.794 161.643C145.426 161.263 146.05 160.913 146.595 160.611C146.289 161.458 146.068 162.46 145.953 163.919C145.819 165.631 146.509 167.849 147.42 168.726C147.822 169.105 148.301 169.115 148.599 169.115C149.653 169.115 150.132 168.229 150.66 167.169C151.311 165.875 151.886 164.377 151.886 164.377C151.886 164.377 151.167 168.434 153.132 168.434C153.851 168.434 154.57 167.49 154.896 167.003V167.013C154.896 167.013 154.915 166.983 154.953 166.915C155.03 166.799 155.068 166.73 155.068 166.73V166.711C155.356 166.205 155.998 165.047 156.956 163.131C158.193 160.66 159.382 157.566 159.382 157.566C159.382 157.566 159.497 158.325 159.852 159.57C160.062 160.309 160.522 161.117 160.877 161.905L160.417 162.547L160.427 162.557C160.181 162.887 159.929 163.211 159.669 163.53C158.692 164.717 157.522 166.069 157.369 166.458C157.186 166.916 157.225 167.256 157.58 167.529C157.839 167.723 158.299 167.762 158.787 167.723C159.669 167.665 160.282 167.441 160.589 167.304C161.142 167.104 161.665 166.826 162.142 166.477C163.1 165.757 163.685 164.735 163.627 163.373C163.598 162.624 163.359 161.885 163.062 161.184L163.321 160.795C164.835 158.547 166.004 156.076 166.004 156.076C166.004 156.076 166.119 156.835 166.474 158.08C166.657 158.713 167.021 159.403 167.347 160.084C165.928 161.262 165.037 162.624 164.73 163.519C164.164 165.173 164.605 165.922 165.439 166.097C165.813 166.175 166.35 166 166.752 165.825C167.251 165.659 167.855 165.377 168.411 164.959C169.369 164.239 170.289 163.236 170.242 161.885C170.213 161.262 170.05 160.649 169.829 160.065C171.037 159.559 172.599 159.267 174.583 159.51C178.848 160.016 179.691 162.72 179.528 163.849C179.365 164.977 178.474 165.6 178.176 165.795C177.879 165.98 177.783 166.048 177.812 166.184C177.85 166.388 177.984 166.378 178.244 166.339C178.599 166.281 180.486 165.415 180.563 163.333C180.678 160.657 178.176 157.739 173.739 157.768L173.74 157.769ZM140.846 169.027C139.437 170.593 137.453 171.186 136.61 170.681C135.699 170.145 136.054 167.84 137.789 166.176C138.843 165.164 140.214 164.23 141.115 163.656L141.988 163.12C142.045 163.082 142.083 163.062 142.083 163.062C142.151 163.023 142.228 162.974 142.304 162.926C142.947 165.3 142.333 167.381 140.848 169.026L140.846 169.027ZM151.15 161.915C150.661 163.131 149.626 166.254 149.004 166.079C148.467 165.932 148.141 163.569 148.898 161.233C149.281 160.056 150.096 158.655 150.575 158.11C151.352 157.234 152.195 156.943 152.406 157.302C152.655 157.769 151.457 161.155 151.15 161.914V161.915ZM159.651 166.04C159.441 166.147 159.249 166.225 159.162 166.167C159.095 166.128 159.249 165.981 159.249 165.981C159.249 165.981 160.313 164.823 160.735 164.289L161.569 163.208V163.325C161.569 164.726 160.246 165.66 159.652 166.04H159.651ZM166.207 164.522C166.053 164.405 166.072 164.045 166.59 162.917C166.792 162.469 167.252 161.72 168.047 161.01C168.142 161.302 168.2 161.584 168.191 161.846C168.181 163.598 166.954 164.25 166.207 164.522Z" fill="#CF649A"/>
</g>
<g filter="url(#filter5_d_266_5251)">
<rect x="445.5" y="123" width="60" height="60" rx="30" fill="white" shape-rendering="crispEdges"/>
<path d="M480.699 147.411L476.55 151L472.699 143.781L474.692 139.629C475.21 138.786 476.018 138.795 476.524 139.629L480.699 147.411Z" fill="#FFA000"/>
<path d="M472.926 143.8L476.7 151.079L461.5 164.6L472.926 143.8Z" fill="#F57F17"/>
<path d="M484.777 141.789C485.49 141.111 486.228 141.343 486.416 142.302L490.3 164.609L477.427 172.248C476.979 172.494 475.782 172.6 475.782 172.6C475.782 172.6 474.693 172.472 474.278 172.23L461.5 164.791L484.777 141.789Z" fill="#FFCA28"/>
<path d="M472.7 143.782L461.5 164.6L466.488 134.175C466.672 133.227 467.225 133.136 467.718 133.972L472.7 143.782Z" fill="#FFA000"/>
</g>
<g filter="url(#filter6_d_266_5251)">
<rect x="40.5" y="542" width="80" height="80" rx="40" fill="white" shape-rendering="crispEdges"/>
<g clip-path="url(#clip1_266_5251)">
<path d="M60.7676 583.503V565.47L75.9676 574.486V580.497L65.8342 574.486V586.508L60.7676 583.503Z" fill="#00B0FF"/>
<path d="M75.9668 574.486L91.1668 565.47V583.503L81.0335 589.513L75.9668 586.508L86.1001 580.497V574.486L75.9668 580.497V574.486Z" fill="#0081CB"/>
<path d="M75.9668 586.508V592.519L86.1001 598.53V592.519L75.9668 586.508Z" fill="#00B0FF"/>
<path d="M86.1016 598.53L101.302 589.513V577.492L96.2349 580.497V586.508L86.1016 592.519V598.53ZM96.2349 574.486V568.475L101.302 565.47V571.481L96.2349 574.486Z" fill="#0081CB"/>
</g>
</g>
<g filter="url(#filter7_d_266_5251)">
<rect x="53.5" y="53" width="60" height="60" rx="30" fill="white" shape-rendering="crispEdges"/>
<g clip-path="url(#clip2_266_5251)">
<path d="M66.3145 70.6266L83.6126 64.2983L101.377 70.5141L98.5003 94.0129L83.6126 102.479L68.9578 94.1254L66.3145 70.6266Z" fill="#E23237"/>
<path d="M101.377 70.5141L83.6133 64.2983V102.479L98.501 94.027L101.377 70.5141Z" fill="#B52E31"/>
<path d="M83.6401 68.7563L72.8613 93.3802L76.8879 93.3099L79.052 87.755H88.7214L91.0909 93.3802L94.9394 93.4505L83.6401 68.7563ZM83.6676 76.6456L87.3107 84.4643H80.4625L83.6676 76.6456Z" fill="white"/>
</g>
</g>
<g filter="url(#filter8_d_266_5251)">
<rect x="548.5" y="548" width="70" height="70" rx="35" fill="white" shape-rendering="crispEdges"/>
<g clip-path="url(#clip3_266_5251)">
<path d="M582.202 562.533C583.268 561.94 584.656 561.937 585.721 562.533C591.079 565.478 596.438 568.419 601.794 571.366C602.802 571.918 603.476 573.009 603.466 574.138V591.857C603.473 593.033 602.733 594.15 601.67 594.689C596.33 597.618 590.993 600.55 585.654 603.479C584.566 604.084 583.15 604.038 582.096 603.383C580.495 602.48 578.892 601.582 577.29 600.68C576.963 600.49 576.595 600.339 576.364 600.031C576.568 599.763 576.933 599.729 577.23 599.612C577.898 599.406 578.512 599.074 579.125 598.752C579.281 598.649 579.47 598.688 579.619 598.781C580.988 599.544 582.345 600.33 583.718 601.086C584.011 601.251 584.308 601.032 584.559 600.897C589.799 598.015 595.045 595.145 600.284 592.263C600.478 592.172 600.585 591.972 600.57 591.765C600.573 585.92 600.571 580.074 600.572 574.229C600.594 573.994 600.454 573.778 600.236 573.682C594.915 570.767 589.596 567.847 584.276 564.931C584.184 564.869 584.074 564.836 583.963 564.836C583.851 564.836 583.741 564.868 583.649 564.93C578.329 567.847 573.011 570.769 567.691 573.685C567.473 573.781 567.327 573.993 567.353 574.229C567.354 580.074 567.353 585.92 567.353 591.766C567.344 591.867 567.367 591.968 567.418 592.056C567.47 592.144 567.548 592.214 567.643 592.258C569.062 593.041 570.484 593.819 571.905 594.599C572.705 595.018 573.688 595.267 574.569 594.946C575.348 594.675 575.893 593.902 575.878 593.098C575.886 587.288 575.875 581.476 575.884 575.666C575.864 575.408 576.116 575.195 576.374 575.219C577.056 575.214 577.739 575.21 578.421 575.221C578.706 575.214 578.902 575.492 578.867 575.752C578.864 581.6 578.874 587.448 578.862 593.295C578.864 594.854 578.206 596.55 576.724 597.312C574.898 598.232 572.642 598.037 570.839 597.155C569.278 596.397 567.788 595.502 566.254 594.69C565.188 594.153 564.452 593.032 564.459 591.857V574.138C564.448 572.985 565.149 571.875 566.188 571.331C571.526 568.399 576.864 565.466 582.202 562.533Z" fill="#8CC84B"/>
<path d="M586.861 574.807C589.189 574.661 591.682 574.721 593.778 575.837C595.4 576.692 596.299 578.487 596.328 580.24C596.283 580.477 596.028 580.607 595.796 580.591C595.121 580.59 594.445 580.6 593.769 580.586C593.483 580.597 593.316 580.34 593.28 580.094C593.086 579.255 592.616 578.424 591.804 578.019C590.558 577.412 589.113 577.443 587.755 577.455C586.763 577.506 585.696 577.59 584.856 578.157C584.211 578.587 584.015 579.455 584.245 580.154C584.462 580.656 585.058 580.817 585.545 580.967C588.351 581.681 591.325 581.61 594.077 582.549C595.217 582.932 596.332 583.677 596.722 584.838C597.232 586.394 597.008 588.253 595.87 589.502C594.948 590.53 593.604 591.089 592.264 591.393C590.481 591.78 588.63 591.79 586.819 591.618C585.117 591.429 583.345 590.994 582.03 589.866C580.906 588.916 580.357 587.437 580.412 586.009C580.425 585.768 580.672 585.6 580.909 585.619C581.589 585.614 582.27 585.612 582.95 585.62C583.222 585.601 583.423 585.83 583.437 586.079C583.563 586.878 583.872 587.717 584.588 588.191C585.971 589.059 587.706 589 589.289 589.024C590.601 588.967 592.073 588.95 593.144 588.107C593.708 587.626 593.876 586.821 593.723 586.128C593.558 585.544 592.929 585.271 592.389 585.093C589.619 584.241 586.612 584.55 583.869 583.586C582.755 583.203 581.678 582.479 581.25 581.366C580.653 579.791 580.927 577.842 582.184 576.635C583.409 575.435 585.179 574.972 586.861 574.807V574.807Z" fill="#8CC84B"/>
</g>
</g>
<rect x="235.75" y="235.25" width="190.5" height="190.5" rx="9.75" stroke="#393E50" stroke-opacity="0.2" stroke-width="0.5"/>
<g filter="url(#filter9_d_266_5251)">
<rect x="394.5" y="323" width="64" height="64" rx="32" fill="white" shape-rendering="crispEdges"/>
<path d="M427.072 358.654C429.109 358.654 430.761 357.003 430.761 354.965C430.761 352.928 429.109 351.276 427.072 351.276C425.034 351.276 423.383 352.928 423.383 354.965C423.383 357.003 425.034 358.654 427.072 358.654Z" fill="#00D8FF"/>
<path fill-rule="evenodd" clip-rule="evenodd" d="M427.074 347.465C432.027 347.465 436.628 348.176 440.097 349.37C444.277 350.809 446.847 352.99 446.847 354.965C446.847 357.023 444.123 359.341 439.635 360.828C436.241 361.952 431.776 362.539 427.074 362.539C422.254 362.539 417.689 361.988 414.258 360.816C409.916 359.332 407.301 356.984 407.301 354.965C407.301 353.006 409.755 350.842 413.876 349.405C417.358 348.191 422.072 347.465 427.074 347.465H427.074Z" stroke="#00D8FF" stroke-width="0.5"/>
<path fill-rule="evenodd" clip-rule="evenodd" d="M420.545 351.237C423.02 346.946 425.934 343.316 428.701 340.907C432.036 338.005 435.209 336.868 436.92 337.855C438.703 338.883 439.35 342.4 438.396 347.032C437.675 350.533 435.952 354.694 433.603 358.767C431.195 362.943 428.438 366.622 425.708 369.008C422.253 372.028 418.913 373.121 417.164 372.112C415.467 371.134 414.818 367.927 415.632 363.639C416.32 360.016 418.047 355.569 420.544 351.237L420.545 351.237Z" stroke="#00D8FF" stroke-width="0.5"/>
<path fill-rule="evenodd" clip-rule="evenodd" d="M420.551 358.778C418.069 354.493 416.38 350.154 415.675 346.553C414.826 342.215 415.426 338.898 417.136 337.908C418.917 336.877 422.287 338.073 425.823 341.213C428.496 343.586 431.241 347.157 433.597 351.226C436.012 355.398 437.822 359.624 438.526 363.181C439.417 367.682 438.696 371.121 436.948 372.133C435.253 373.114 432.15 372.075 428.842 369.228C426.047 366.823 423.057 363.106 420.551 358.778V358.778Z" stroke="#00D8FF" stroke-width="0.5"/>
</g>
<g filter="url(#filter10_d_266_5251)">
<rect x="209.5" y="259" width="51" height="51" rx="25.5" fill="white" shape-rendering="crispEdges"/>
<path d="M220.869 273.246C221.266 272.726 221.861 272.453 222.655 272.398C224.101 272.289 224.923 272.945 225.121 274.367C226 280.084 226.964 284.926 227.985 288.892L234.193 277.486C234.76 276.446 235.469 275.899 236.32 275.845C237.567 275.763 238.332 276.528 238.644 278.142C239.353 281.78 240.26 284.871 241.337 287.497C242.075 280.549 243.322 275.544 245.08 272.453C245.505 271.687 246.128 271.304 246.951 271.249C247.603 271.195 248.198 271.386 248.737 271.796C249.275 272.207 249.559 272.726 249.616 273.355C249.644 273.848 249.559 274.258 249.332 274.668C248.226 276.638 247.319 279.948 246.582 284.543C245.873 289.001 245.618 292.475 245.788 294.964C245.845 295.648 245.731 296.25 245.448 296.77C245.108 297.371 244.598 297.7 243.946 297.754C243.208 297.809 242.443 297.481 241.706 296.742C239.069 294.143 236.972 290.259 235.441 285.09C233.598 288.591 232.237 291.217 231.358 292.967C229.686 296.058 228.268 297.645 227.077 297.727C226.312 297.782 225.66 297.152 225.093 295.839C223.647 292.256 222.088 285.336 220.415 275.079C220.302 274.367 220.472 273.738 220.869 273.246Z" fill="#9B5C8F"/>
</g>
<rect x="388" y="288" width="71" height="29" rx="3" fill="white"/>
<path d="M400.44 298.421H402.546C403.729 298.421 404.446 299.091 404.446 300.191C404.446 301.319 403.77 301.969 402.587 301.969H400.44V298.421ZM400.44 303.206H402.546L404.556 307H406.319L404.111 302.967C405.314 302.563 406.025 301.483 406.025 300.15C406.025 298.312 404.761 297.136 402.73 297.136H398.909V307H400.44V303.206ZM410.312 300.868C411.344 300.868 412.041 301.641 412.075 302.741H408.479C408.555 301.654 409.279 300.868 410.312 300.868ZM412.068 304.888C411.87 305.517 411.248 305.94 410.407 305.94C409.225 305.94 408.473 305.113 408.473 303.862V303.773H413.552V303.268C413.552 301.087 412.308 299.679 410.312 299.679C408.281 299.679 406.982 301.183 406.982 303.438C406.982 305.708 408.261 307.137 410.373 307.137C412.021 307.137 413.265 306.2 413.47 304.888H412.068ZM417.216 305.954C416.423 305.954 415.903 305.544 415.903 304.915C415.903 304.3 416.402 303.91 417.284 303.849L419.055 303.739V304.307C419.055 305.243 418.248 305.954 417.216 305.954ZM416.806 307.123C417.749 307.123 418.658 306.617 419.075 305.817H419.109V307H420.524V302.044C420.524 300.602 419.41 299.679 417.667 299.679C415.89 299.679 414.782 300.636 414.7 301.935H416.095C416.225 301.292 416.758 300.882 417.612 300.882C418.515 300.882 419.055 301.36 419.055 302.16V302.714L417.086 302.83C415.377 302.926 414.413 303.698 414.413 304.956C414.413 306.248 415.397 307.123 416.806 307.123ZM428.133 302.283C428.003 300.868 426.875 299.679 425.022 299.679C422.979 299.679 421.639 301.121 421.639 303.404C421.639 305.729 422.979 307.137 425.036 307.137C426.766 307.137 427.989 306.098 428.146 304.566H426.725C426.554 305.4 425.959 305.899 425.05 305.899C423.901 305.899 423.143 304.983 423.143 303.404C423.143 301.859 423.895 300.909 425.036 300.909C426 300.909 426.574 301.518 426.725 302.283H428.133ZM429.623 298.106V299.809H428.577V300.978H429.623V305.106C429.623 306.494 430.19 307.048 431.646 307.048C431.975 307.048 432.303 307.021 432.467 306.979V305.811C432.371 305.831 432.132 305.845 431.981 305.845C431.38 305.845 431.106 305.564 431.106 304.942V300.978H432.474V299.809H431.106V298.106H429.623ZM433.219 304.471C433.219 306.111 434.429 307.219 436.206 307.219C438.127 307.219 439.275 306.084 439.275 304.129V297.136H437.744V304.122C437.744 305.25 437.197 305.852 436.192 305.852C435.338 305.852 434.743 305.291 434.723 304.471H433.219ZM440.677 304.252C440.772 306.036 442.249 307.164 444.437 307.164C446.774 307.164 448.244 306.009 448.244 304.163C448.244 302.721 447.403 301.907 445.38 301.429L444.293 301.162C443.021 300.848 442.502 300.438 442.502 299.74C442.502 298.865 443.315 298.264 444.505 298.264C445.694 298.264 446.508 298.858 446.597 299.843H448.087C448.039 298.141 446.61 296.972 444.525 296.972C442.42 296.972 440.937 298.141 440.937 299.843C440.937 301.217 441.777 302.064 443.589 302.502L444.867 302.81C446.146 303.124 446.686 303.582 446.686 304.348C446.686 305.229 445.79 305.872 444.546 305.872C443.247 305.872 442.297 305.229 442.188 304.252H440.677Z" fill="#393E50" fill-opacity="0.5"/>
<path d="M425.747 320.14L423 317H430L427.253 320.14C426.854 320.595 426.146 320.595 425.747 320.14Z" fill="white"/>
<defs>
<filter id="filter0_d_266_5251" x="502.5" y="0" width="160" height="160" filterUnits="userSpaceOnUse" color-interpolation-filters="sRGB">
<feFlood flood-opacity="0" result="BackgroundImageFix"/>
<feColorMatrix in="SourceAlpha" type="matrix" values="0 0 0 0 0 0 0 0 0 0 0 0 0 0 0 0 0 0 127 0" result="hardAlpha"/>
<feOffset/>
<feGaussianBlur stdDeviation="20"/>
<feComposite in2="hardAlpha" operator="out"/>
<feColorMatrix type="matrix" values="0 0 0 0 0 0 0 0 0 0 0 0 0 0 0 0 0 0 0.1 0"/>
<feBlend mode="normal" in2="BackgroundImageFix" result="effect1_dropShadow_266_5251"/>
<feBlend mode="normal" in="SourceGraphic" in2="effect1_dropShadow_266_5251" result="shape"/>
</filter>
<filter id="filter1_d_266_5251" x="7.5" y="258" width="150" height="150" filterUnits="userSpaceOnUse" color-interpolation-filters="sRGB">
<feFlood flood-opacity="0" result="BackgroundImageFix"/>
<feColorMatrix in="SourceAlpha" type="matrix" values="0 0 0 0 0 0 0 0 0 0 0 0 0 0 0 0 0 0 127 0" result="hardAlpha"/>
<feOffset/>
<feGaussianBlur stdDeviation="20"/>
<feComposite in2="hardAlpha" operator="out"/>
<feColorMatrix type="matrix" values="0 0 0 0 0 0 0 0 0 0 0 0 0 0 0 0 0 0 0.1 0"/>
<feBlend mode="normal" in2="BackgroundImageFix" result="effect1_dropShadow_266_5251"/>
<feBlend mode="normal" in="SourceGraphic" in2="effect1_dropShadow_266_5251" result="shape"/>
</filter>
<filter id="filter2_d_266_5251" x="431.5" y="380" width="160" height="160" filterUnits="userSpaceOnUse" color-interpolation-filters="sRGB">
<feFlood flood-opacity="0" result="BackgroundImageFix"/>
<feColorMatrix in="SourceAlpha" type="matrix" values="0 0 0 0 0 0 0 0 0 0 0 0 0 0 0 0 0 0 127 0" result="hardAlpha"/>
<feOffset/>
<feGaussianBlur stdDeviation="20"/>
<feComposite in2="hardAlpha" operator="out"/>
<feColorMatrix type="matrix" values="0 0 0 0 0 0 0 0 0 0 0 0 0 0 0 0 0 0 0.1 0"/>
<feBlend mode="normal" in2="BackgroundImageFix" result="effect1_dropShadow_266_5251"/>
<feBlend mode="normal" in="SourceGraphic" in2="effect1_dropShadow_266_5251" result="shape"/>
</filter>
<filter id="filter3_d_266_5251" x="179.5" y="434" width="140" height="140" filterUnits="userSpaceOnUse" color-interpolation-filters="sRGB">
<feFlood flood-opacity="0" result="BackgroundImageFix"/>
<feColorMatrix in="SourceAlpha" type="matrix" values="0 0 0 0 0 0 0 0 0 0 0 0 0 0 0 0 0 0 127 0" result="hardAlpha"/>
<feOffset/>
<feGaussianBlur stdDeviation="20"/>
<feComposite in2="hardAlpha" operator="out"/>
<feColorMatrix type="matrix" values="0 0 0 0 0 0 0 0 0 0 0 0 0 0 0 0 0 0 0.1 0"/>
<feBlend mode="normal" in2="BackgroundImageFix" result="effect1_dropShadow_266_5251"/>
<feBlend mode="normal" in="SourceGraphic" in2="effect1_dropShadow_266_5251" result="shape"/>
</filter>
<filter id="filter4_d_266_5251" x="75.5" y="75" width="160" height="160" filterUnits="userSpaceOnUse" color-interpolation-filters="sRGB">
<feFlood flood-opacity="0" result="BackgroundImageFix"/>
<feColorMatrix in="SourceAlpha" type="matrix" values="0 0 0 0 0 0 0 0 0 0 0 0 0 0 0 0 0 0 127 0" result="hardAlpha"/>
<feOffset/>
<feGaussianBlur stdDeviation="20"/>
<feComposite in2="hardAlpha" operator="out"/>
<feColorMatrix type="matrix" values="0 0 0 0 0 0 0 0 0 0 0 0 0 0 0 0 0 0 0.1 0"/>
<feBlend mode="normal" in2="BackgroundImageFix" result="effect1_dropShadow_266_5251"/>
<feBlend mode="normal" in="SourceGraphic" in2="effect1_dropShadow_266_5251" result="shape"/>
</filter>
<filter id="filter5_d_266_5251" x="405.5" y="83" width="140" height="140" filterUnits="userSpaceOnUse" color-interpolation-filters="sRGB">
<feFlood flood-opacity="0" result="BackgroundImageFix"/>
<feColorMatrix in="SourceAlpha" type="matrix" values="0 0 0 0 0 0 0 0 0 0 0 0 0 0 0 0 0 0 127 0" result="hardAlpha"/>
<feOffset/>
<feGaussianBlur stdDeviation="20"/>
<feComposite in2="hardAlpha" operator="out"/>
<feColorMatrix type="matrix" values="0 0 0 0 0 0 0 0 0 0 0 0 0 0 0 0 0 0 0.1 0"/>
<feBlend mode="normal" in2="BackgroundImageFix" result="effect1_dropShadow_266_5251"/>
<feBlend mode="normal" in="SourceGraphic" in2="effect1_dropShadow_266_5251" result="shape"/>
</filter>
<filter id="filter6_d_266_5251" x="0.5" y="502" width="160" height="160" filterUnits="userSpaceOnUse" color-interpolation-filters="sRGB">
<feFlood flood-opacity="0" result="BackgroundImageFix"/>
<feColorMatrix in="SourceAlpha" type="matrix" values="0 0 0 0 0 0 0 0 0 0 0 0 0 0 0 0 0 0 127 0" result="hardAlpha"/>
<feOffset/>
<feGaussianBlur stdDeviation="20"/>
<feComposite in2="hardAlpha" operator="out"/>
<feColorMatrix type="matrix" values="0 0 0 0 0 0 0 0 0 0 0 0 0 0 0 0 0 0 0.1 0"/>
<feBlend mode="normal" in2="BackgroundImageFix" result="effect1_dropShadow_266_5251"/>
<feBlend mode="normal" in="SourceGraphic" in2="effect1_dropShadow_266_5251" result="shape"/>
</filter>
<filter id="filter7_d_266_5251" x="13.5" y="13" width="140" height="140" filterUnits="userSpaceOnUse" color-interpolation-filters="sRGB">
<feFlood flood-opacity="0" result="BackgroundImageFix"/>
<feColorMatrix in="SourceAlpha" type="matrix" values="0 0 0 0 0 0 0 0 0 0 0 0 0 0 0 0 0 0 127 0" result="hardAlpha"/>
<feOffset/>
<feGaussianBlur stdDeviation="20"/>
<feComposite in2="hardAlpha" operator="out"/>
<feColorMatrix type="matrix" values="0 0 0 0 0 0 0 0 0 0 0 0 0 0 0 0 0 0 0.1 0"/>
<feBlend mode="normal" in2="BackgroundImageFix" result="effect1_dropShadow_266_5251"/>
<feBlend mode="normal" in="SourceGraphic" in2="effect1_dropShadow_266_5251" result="shape"/>
</filter>
<filter id="filter8_d_266_5251" x="508.5" y="508" width="150" height="150" filterUnits="userSpaceOnUse" color-interpolation-filters="sRGB">
<feFlood flood-opacity="0" result="BackgroundImageFix"/>
<feColorMatrix in="SourceAlpha" type="matrix" values="0 0 0 0 0 0 0 0 0 0 0 0 0 0 0 0 0 0 127 0" result="hardAlpha"/>
<feOffset/>
<feGaussianBlur stdDeviation="20"/>
<feComposite in2="hardAlpha" operator="out"/>
<feColorMatrix type="matrix" values="0 0 0 0 0 0 0 0 0 0 0 0 0 0 0 0 0 0 0.1 0"/>
<feBlend mode="normal" in2="BackgroundImageFix" result="effect1_dropShadow_266_5251"/>
<feBlend mode="normal" in="SourceGraphic" in2="effect1_dropShadow_266_5251" result="shape"/>
</filter>
<filter id="filter9_d_266_5251" x="354.5" y="283" width="144" height="144" filterUnits="userSpaceOnUse" color-interpolation-filters="sRGB">
<feFlood flood-opacity="0" result="BackgroundImageFix"/>
<feColorMatrix in="SourceAlpha" type="matrix" values="0 0 0 0 0 0 0 0 0 0 0 0 0 0 0 0 0 0 127 0" result="hardAlpha"/>
<feOffset/>
<feGaussianBlur stdDeviation="20"/>
<feComposite in2="hardAlpha" operator="out"/>
<feColorMatrix type="matrix" values="0 0 0 0 0 0 0 0 0 0 0 0 0 0 0 0 0 0 0.1 0"/>
<feBlend mode="normal" in2="BackgroundImageFix" result="effect1_dropShadow_266_5251"/>
<feBlend mode="normal" in="SourceGraphic" in2="effect1_dropShadow_266_5251" result="shape"/>
</filter>
<filter id="filter10_d_266_5251" x="169.5" y="219" width="131" height="131" filterUnits="userSpaceOnUse" color-interpolation-filters="sRGB">
<feFlood flood-opacity="0" result="BackgroundImageFix"/>
<feColorMatrix in="SourceAlpha" type="matrix" values="0 0 0 0 0 0 0 0 0 0 0 0 0 0 0 0 0 0 127 0" result="hardAlpha"/>
<feOffset/>
<feGaussianBlur stdDeviation="20"/>
<feComposite in2="hardAlpha" operator="out"/>
<feColorMatrix type="matrix" values="0 0 0 0 0 0 0 0 0 0 0 0 0 0 0 0 0 0 0.1 0"/>
<feBlend mode="normal" in2="BackgroundImageFix" result="effect1_dropShadow_266_5251"/>
<feBlend mode="normal" in="SourceGraphic" in2="effect1_dropShadow_266_5251" result="shape"/>
</filter>
<linearGradient id="paint0_linear_266_5251" x1="58.3364" y1="327.792" x2="99.2893" y2="350.643" gradientUnits="userSpaceOnUse">
<stop stop-color="#2298BD"/>
<stop offset="1" stop-color="#0ED7B5"/>
</linearGradient>
<clipPath id="clip0_266_5251">
<rect width="42.6667" height="37.3333" fill="white" transform="translate(562 67)"/>
</clipPath>
<clipPath id="clip1_266_5251">
<rect width="40.5333" height="33.0667" fill="white" transform="translate(60.7676 565.467)"/>
</clipPath>
<clipPath id="clip2_266_5251">
<rect width="35.2" height="38.4" fill="white" transform="translate(66.3008 64.2)"/>
</clipPath>
<clipPath id="clip3_266_5251">
<rect width="39.2" height="42" fill="white" transform="translate(564.367 562)"/>
</clipPath>
</defs>
</svg>
