<svg width="32" height="35" viewBox="0 0 32 35" fill="none" xmlns="http://www.w3.org/2000/svg">
<path fill-rule="evenodd" clip-rule="evenodd" d="M15.2487 0.0575438C14.5868 0.19874 13.9201 0.528087 12.3682 1.48045C11.5152 2.00375 10.6632 2.50492 10.4749 2.59395C10.2865 2.68306 8.73653 3.03538 7.03056 3.37684C4.29616 3.92413 3.85254 4.03511 3.28607 4.31372C2.39185 4.75347 1.4543 5.68925 1.04544 6.55023C0.526931 7.64202 0.500677 7.91104 0.500004 12.134C0.499415 15.9276 0.561431 17.2835 0.80032 18.6973C1.62217 23.5618 4.25484 28.0263 8.1221 31.1132C10.1474 32.7298 12.9035 34.1241 15.3761 34.7829L16.1908 35L16.8219 34.8522C18.4627 34.468 20.7744 33.4866 22.3722 32.496C27.3017 29.4395 30.7041 24.3875 31.6655 18.6973C31.9044 17.2835 31.9664 15.9276 31.9658 12.134C31.9651 7.91104 31.9389 7.64202 31.4204 6.55023C31.1975 6.08078 30.9605 5.76263 30.4637 5.26591C29.4192 4.22133 29.1603 4.12473 25.3372 3.35219C21.7445 2.62626 22.3526 2.85497 19.6661 1.21867C18.9396 0.776064 18.1066 0.331438 17.8149 0.230463C17.2183 0.0238855 15.8414 -0.0689273 15.2487 0.0575438ZM16.8515 2.7858C17.0677 2.85085 17.9576 3.34234 18.8293 3.87801C19.7009 4.41369 20.6566 4.964 20.9531 5.1009C21.3592 5.28855 22.2277 5.49639 24.4792 5.9448C26.1221 6.27196 27.6183 6.59584 27.804 6.6645C28.3146 6.85332 28.7338 7.2457 28.9966 7.78112L29.2334 8.26327L29.23 12.4285C29.2264 16.8461 29.1905 17.4125 28.8065 19.1335C27.4712 25.1157 23.1003 29.9679 17.3324 31.8707L16.2329 32.2335L15.16 31.8795C9.36762 29.9682 4.99717 25.1271 3.66136 19.1426C3.27505 17.4117 3.23945 16.8504 3.23584 12.4285L3.23239 8.26327L3.42584 7.84355C3.89966 6.81546 4.06408 6.74621 7.8254 5.98915C10.2332 5.50455 11.1006 5.29629 11.5128 5.10368C11.8094 4.96518 12.769 4.41217 13.6455 3.87473C15.6525 2.6441 15.9946 2.52789 16.8515 2.7858ZM21.1134 12.6453C20.9301 12.7238 19.611 13.9779 17.6204 15.9663L14.4219 19.1612L13.4972 18.2292C12.9887 17.7165 12.4703 17.243 12.3454 17.1768C12.2203 17.1106 11.9363 17.0567 11.7143 17.0568C10.9581 17.0574 10.4278 17.5878 10.4272 18.3439C10.427 18.566 10.4807 18.85 10.5466 18.975C10.6125 19.1 11.3792 19.9082 12.2505 20.771C13.683 22.1895 13.8688 22.3454 14.1906 22.3979C14.9181 22.5167 14.9091 22.524 18.8686 18.5821C20.8968 16.5628 22.6526 14.748 22.7707 14.5492C23.1746 13.8684 22.899 13.0024 22.1735 12.6729C21.7584 12.4844 21.5046 12.4778 21.1134 12.6453Z" fill="url(#paint0_linear_2542_26831)"/>
<defs>
<linearGradient id="paint0_linear_2542_26831" x1="0.5" y1="17.973" x2="31.9658" y2="17.973" gradientUnits="userSpaceOnUse">
<stop stop-color="#00469F"/>
<stop offset="1" stop-color="#1E79D6"/>
</linearGradient>
</defs>
</svg>
